<svg version="1.1" xmlns="http://www.w3.org/2000/svg" viewBox="0 0 1289 384" width="1289" height="384">
  <!-- svg-source:excalidraw -->
  
  <defs>
    <style>
      @font-face {
        font-family: "Virgil";
        src: url("https://excalidraw.com/FG_Virgil.woff2");
      }
      @font-face {
        font-family: "Cascadia";
        src: url("https://excalidraw.com/Cascadia.woff2");
      }
    </style>
  </defs>
  <rect x="0" y="0" width="1289" height="384" fill="#ffffff"></rect><g transform="translate(44 10) rotate(0 80 16)"><text x="0" y="24" font-family="Virgil, Segoe UI Emoji" font-size="20px" fill="#000000" text-anchor="start" style="white-space: pre;" direction="ltr">合并两个有序链表</text></g><g transform="translate(75 69) rotate(0 2 13)"><text x="0" y="18" font-family="Virgil, Segoe UI Emoji" font-size="20px" fill="#000000" text-anchor="start" style="white-space: pre;" direction="ltr">1</text></g><g transform="translate(146 65) rotate(0 7.5 13)"><text x="0" y="18" font-family="Virgil, Segoe UI Emoji" font-size="20px" fill="#000000" text-anchor="start" style="white-space: pre;" direction="ltr">2</text></g><g transform="translate(219 67) rotate(0 6 13)"><text x="0" y="18" font-family="Virgil, Segoe UI Emoji" font-size="20px" fill="#000000" text-anchor="start" style="white-space: pre;" direction="ltr">4</text></g><g transform="translate(361 70) rotate(0 2 13)"><text x="0" y="18" font-family="Virgil, Segoe UI Emoji" font-size="20px" fill="#000000" text-anchor="start" style="white-space: pre;" direction="ltr">1</text></g><g transform="translate(447 67) rotate(0 7 13)"><text x="0" y="18" font-family="Virgil, Segoe UI Emoji" font-size="20px" fill="#000000" text-anchor="start" style="white-space: pre;" direction="ltr">3</text></g><g transform="translate(539 65) rotate(0 6 13)"><text x="0" y="18" font-family="Virgil, Segoe UI Emoji" font-size="20px" fill="#000000" text-anchor="start" style="white-space: pre;" direction="ltr">4</text></g><g><g transform="translate(93 81) rotate(0 23.37219896996396 -0.49122624244542124)"><path d="M-0.16457538641989222 -0.21847787462174895 C8.038282398010294 -0.4370323117822409, 40.129083640997614 -0.8368987377732992, 48.45451413355768 -0.7482590373605489 M-1.7101161936298013 -1.3787827041372658 C6.353720638814073 -1.5077104726061226, 38.69573368356874 -0.13269378688186417, 47.220088590048256 0.39633021924644707" stroke="#000000" stroke-width="1" fill="none"></path></g><g transform="translate(93 81) rotate(0 23.37219896996396 -0.49122624244542124)"><path d="M23.443263445962778 6.70492195438068 C28.062295834660535 7.252906812540137, 35.367529707724984 2.593590179886638, 45.824517050869765 -1.2374374656751752 M23.17804342879038 8.26947302564453 C30.485769138246205 5.749451139184226, 38.25613093838545 2.639128680453794, 48.06338266387582 1.0445679496228695" stroke="#000000" stroke-width="1" fill="none"></path></g><g transform="translate(93 81) rotate(0 23.37219896996396 -0.49122624244542124)"><path d="M24.28132309644218 -10.033097703210391 C28.78073719159851 -5.528602897595914, 35.88781413515183 -6.230260216204222, 45.824517050869765 -1.2374374656751752 M24.016103079269783 -8.468546631946541 C31.082185520141827 -5.635004978573834, 38.58436483176889 -3.3890932337235897, 48.06338266387582 1.0445679496228695" stroke="#000000" stroke-width="1" fill="none"></path></g></g><g><g transform="translate(169 83.54231070897328) rotate(0 22.20204141177237 0.17237974288596547)"><path d="M-0.3824067290872335 -0.7552197698503733 C7.0420000815143196 -0.9732521419670974, 37.31532561617593 -1.1131161699428134, 44.78648955263198 -1.1179264198671546 M1.6176910088025034 1.4626859056390824 C8.93189010615771 1.3481274191777615, 37.20225269571567 0.12394029313857624, 44.25135110413655 -0.08597374218138731" stroke="#000000" stroke-width="1" fill="none"></path></g><g transform="translate(169 83.54231070897328) rotate(0 22.20204141177237 0.17237974288596547)"><path d="M22.612266119322047 9.510124787627568 C28.774960053753905 6.353892935213682, 35.85317464751266 2.1013328381919134, 45.93793925179168 1.2105017185714575 M24.086003881631658 8.305649234852602 C27.20616418243394 5.65482888867372, 32.48966210590703 4.436634607452703, 43.5734968595393 -0.788214696334627" stroke="#000000" stroke-width="1" fill="none"></path></g><g transform="translate(169 83.54231070897328) rotate(0 22.20204141177237 0.17237974288596547)"><path d="M22.05469352397574 -5.528522314463079 C28.419657705324518 -3.870549246852039, 35.67629779189948 -3.3106812531190055, 45.93793925179168 1.2105017185714575 M23.52843128628535 -6.732997867238045 C26.886259142308916 -6.253157954438979, 32.28592636816494 -4.338075677209493, 43.5734968595393 -0.788214696334627" stroke="#000000" stroke-width="1" fill="none"></path></g></g><g><g transform="translate(371 81) rotate(0 34.716860696887636 -1.6724288654979347)"><path d="M1.1240634385496378 0.46624222956597805 C12.628460254644354 0.17161860428750514, 58.12234586315851 -1.409506142511964, 69.17866337932647 -2.140016532316804 M0.255058014448732 -0.33458454525098213 C11.691241870181015 -0.92701782559976, 57.82295857236411 -3.3534200791083277, 68.84941618984566 -3.811099960561842" stroke="#000000" stroke-width="1" fill="none"></path></g><g transform="translate(371 81) rotate(0 34.716860696887636 -1.6724288654979347)"><path d="M41.960036612805396 9.753664286204785 C51.30328754288824 3.0060410603864502, 56.99297620995288 0.569628326723751, 69.03220257444308 -4.529529058467597 M40.782872729693025 6.875862568945795 C49.48027476698011 4.2226659985846275, 60.44102471774442 0.5079137130759648, 69.55593724923209 -3.333042318094522" stroke="#000000" stroke-width="1" fill="none"></path></g><g transform="translate(371 81) rotate(0 34.716860696887636 -1.6724288654979347)"><path d="M40.97621096093293 -10.743947513040442 C50.56350500484712 -11.091383951511508, 56.560826318545864 -7.118394210783797, 69.03220257444308 -4.529529058467597 M39.79904707782056 -13.621749230299432 C48.91488497513586 -9.40262171146733, 60.205659978261984 -6.241434754628514, 69.55593724923209 -3.333042318094522" stroke="#000000" stroke-width="1" fill="none"></path></g></g><g><g transform="translate(468 80) rotate(0 33.31954463413916 -0.02243695892394726)"><path d="M0.38455144800245766 1.0829465266317129 C11.49521174269418 0.799364924058318, 56.312658193086584 -0.9096948508173228, 67.51178703941405 -1.1278204444795847 M-0.8726977711357177 0.6058895077742634 C10.050537889456997 0.3777953120507298, 55.50068487550442 -0.24370785927399993, 66.83242977147921 -0.18250092661008233" stroke="#000000" stroke-width="1" fill="none"></path></g><g transform="translate(468 80) rotate(0 33.31954463413916 -0.02243695892394726)"><path d="M40.50557255628019 11.091783722891279 C47.19824017420382 7.251516157483726, 59.128694943517814 3.8709578610517683, 66.90979783160611 -1.5488705409877002 M38.52838243520319 10.14744921497143 C47.196604692961955 6.526742209979902, 56.39045666632778 5.01571033539217, 67.21379610912874 0.7519837535731495" stroke="#000000" stroke-width="1" fill="none"></path></g><g transform="translate(468 80) rotate(0 33.31954463413916 -0.02243695892394726)"><path d="M40.3884694919506 -9.429090753070128 C47.22264321601332 -5.663628246201312, 59.19650248273294 -1.4380812024156224, 66.90979783160611 -1.5488705409877002 M38.4112793708736 -10.373425260989976 C47.22071446118324 -7.8657864668867745, 56.44953542594389 -3.248931876057232, 67.21379610912874 0.7519837535731495" stroke="#000000" stroke-width="1" fill="none"></path></g></g><g transform="translate(707 24) rotate(0 286 96)"><text x="0" y="24" font-family="Virgil, Segoe UI Emoji" font-size="20px" fill="#c92a2a" text-anchor="start" style="white-space: pre;" direction="ltr">1、定义一个虚拟头结点head</text><text x="0" y="56" font-family="Virgil, Segoe UI Emoji" font-size="20px" fill="#c92a2a" text-anchor="start" style="white-space: pre;" direction="ltr">2、定义一个指针cur指向head用来尾插数据</text><text x="0" y="88" font-family="Virgil, Segoe UI Emoji" font-size="20px" fill="#c92a2a" text-anchor="start" style="white-space: pre;" direction="ltr">3、遍历l1和l2链表，比较当前值谁小，将的哪一个插入到headl</text><text x="0" y="120" font-family="Virgil, Segoe UI Emoji" font-size="20px" fill="#c92a2a" text-anchor="start" style="white-space: pre;" direction="ltr">链表中</text><text x="0" y="152" font-family="Virgil, Segoe UI Emoji" font-size="20px" fill="#c92a2a" text-anchor="start" style="white-space: pre;" direction="ltr">4、如果有一个链表遍历完，跳出循环，将另一个链表剩下的数值</text><text x="0" y="184" font-family="Virgil, Segoe UI Emoji" font-size="20px" fill="#c92a2a" text-anchor="start" style="white-space: pre;" direction="ltr">全部插入到head链表后面</text></g><g><g transform="translate(79 133) rotate(0 -0.060726982727658196 -20.494088347945365)"><path d="M-1.144839346781373 -0.14010848365724082 C-1.020384653781851 -6.82095603706936, 0.5823028044154246 -32.427994729702675, 1.0233853813260794 -39.1642580088228 M0.4549812668189408 -1.2592693829163908 C0.3992533848310512 -8.35319415366898, -0.0031070922190944844 -34.469115174574156, 0.08761724289506667 -40.848068212233485" stroke="#c92a2a" stroke-width="1" fill="none"></path></g><g transform="translate(79 133) rotate(0 -0.060726982727658196 -20.494088347945365)"><path d="M6.750646974534908 -22.02911167588966 C6.004993720396056 -27.364751461221175, 1.4546487533221306 -33.20962914458221, -0.5912580935284496 -42.83943271178752 M7.52209558581672 -21.433196491533387 C6.278095294494687 -27.02097167678339, 3.373077755176289 -30.519413381647837, 0.5510201893746852 -39.92443869456649" stroke="#c92a2a" stroke-width="1" fill="none"></path></g><g transform="translate(79 133) rotate(0 -0.060726982727658196 -20.494088347945365)"><path d="M-6.934376820559665 -21.98977961576884 C-3.2593196961015467 -27.207566196496142, -3.3886524676186465 -33.06515028943849, -0.5912580935284496 -42.83943271178752 M-6.162928209277853 -21.393864431412567 C-4.091936828011756 -26.91108361980167, -3.6822759968754313 -30.41905202559846, 0.5510201893746852 -39.92443869456649" stroke="#c92a2a" stroke-width="1" fill="none"></path></g></g><g><g transform="translate(371 145) rotate(0 0.20328504475133968 -25.859264696631584)"><path d="M0.6915324088186026 -0.6390939172357321 C0.7255558884392183 -9.491709150498112, 0.6874459223200877 -44.69788368704418, 0.8975211139768362 -53.35830722413957 M-0.4045518058910966 1.63977783087641 C-0.5981872882818183 -7.018592651647825, -0.4527638374144833 -42.61319583451996, -0.10432576481252909 -52.00899326559156" stroke="#c92a2a" stroke-width="1" fill="none"></path></g><g transform="translate(371 145) rotate(0 0.20328504475133968 -25.859264696631584)"><path d="M7.443480176416962 -27.113541639779154 C4.8805766683733225 -34.27471482244287, 3.0601365719176847 -43.71265532471374, -0.10651982109993696 -53.9182843150571 M7.542922538270979 -26.931292584535125 C6.17708648932302 -34.302237426064224, 1.8729242460333824 -42.93891771494086, -0.0026761628687381744 -51.28105783686042" stroke="#c92a2a" stroke-width="1" fill="none"></path></g><g transform="translate(371 145) rotate(0 0.20328504475133968 -25.859264696631584)"><path d="M-10.683845027576645 -27.441624505064762 C-6.761786872497708 -34.58987925412056, -2.0966019883733775 -43.910437715585545, -0.10651982109993696 -53.9182843150571 M-10.584402665722628 -27.259375449820734 C-5.954544646308232 -34.69890506243404, -4.26603863661676 -43.227125236593295, -0.0026761628687381744 -51.28105783686042" stroke="#c92a2a" stroke-width="1" fill="none"></path></g></g><g transform="translate(76 145) rotate(0 4.5 13)"><text x="0" y="18" font-family="Virgil, Segoe UI Emoji" font-size="20px" fill="#c92a2a" text-anchor="start" style="white-space: pre;" direction="ltr">l1</text></g><g transform="translate(369 150) rotate(0 10 13)"><text x="0" y="18" font-family="Virgil, Segoe UI Emoji" font-size="20px" fill="#c92a2a" text-anchor="start" style="white-space: pre;" direction="ltr">l2</text></g><g transform="translate(10 244) rotate(0 32 20.5)"><path d="M-1.4736412968486547 1.8609598185867071 C13.379132423177362 -0.8240832916647196, 30.979321685805917 1.2247756489366293, 65.47378460504115 1.0566699411720037 M0.9505221201106906 0.6532598631456494 C13.953990907780828 -0.37722604285925626, 28.904293305985632 -0.0804889978095889, 63.80392089020461 -0.9347089333459735 M64.09251085855067 1.591653099283576 C62.68764700804837 15.40240680119023, 65.87067683850415 30.46217440385372, 64.20281861163676 39.25720231793821 M64.84111919533461 -0.33532200288027525 C63.51345063029788 14.950531904306265, 64.64888779102824 30.83455036990345, 63.943872327916324 41.661140848882496 M62.02355597354472 40.07039897702634 C44.477555033937094 40.975464617833495, 27.26209951974451 41.689580058678985, -0.16852541826665401 42.10953485034406 M64.80059730540961 40.63252942729741 C49.88635000716895 41.56677922595292, 36.04436356555671 41.70554012048989, 0.054773892275989056 40.990554054267704 M1.4806878957897425 39.28541766665876 C-0.4352695920038968 29.91394278788939, 0.5154261014889926 16.503273802064356, 1.3588369879871607 0.42024712823331356 M0.015449370257556438 40.75655170250684 C0.48529324078001085 25.69605139987543, 0.1945695891324431 8.288952472060917, -0.7364518092945218 0.7347135441377759" stroke="#c92a2a" stroke-width="1" fill="none"></path></g><g transform="translate(20 210) rotate(0 22.5 13)"><text x="0" y="18" font-family="Virgil, Segoe UI Emoji" font-size="20px" fill="#c92a2a" text-anchor="start" style="white-space: pre;" direction="ltr">head</text></g><g><g transform="translate(504 343) rotate(0 0.35841160238157954 -31.023099899832147)"><path d="M0.8478535171598194 -0.46287317834794517 C0.9357063170522449 -10.287036237741509, 0.8571812864392996 -49.83545562190314, 0.648807966336608 -59.99065696559846 M-0.16616211567074068 -1.751485542319715 C-0.19020788464695218 -11.801466459694009, 0.24358259286731487 -51.82799303517987, 0.04138668503612286 -61.583326621316374" stroke="#c92a2a" stroke-width="1" fill="none"></path></g><g transform="translate(504 343) rotate(0 0.35841160238157954 -31.023099899832147)"><path d="M9.603695232148818 -32.337936891753195 C9.097886930288512 -42.75173739977461, 3.5539233369836154 -51.30851782786797, 1.6554589389637113 -60.701557282693685 M11.370031940478436 -33.49868911276382 C6.158596379948001 -42.18246100482446, 3.7192002700223146 -49.995653107104275, 0.42390144959092146 -61.213126796633006" stroke="#c92a2a" stroke-width="1" fill="none"></path></g><g transform="translate(504 343) rotate(0 0.35841160238157954 -31.023099899832147)"><path d="M-10.917444198307253 -32.284655923099585 C-5.058342930862929 -42.85997204234019, -4.237861244606533 -51.43327707963408, 1.6554589389637113 -60.701557282693685 M-9.151107489977635 -33.44540814411021 C-8.3217338620933 -42.13048332125207, -4.719968521355769 -49.95936066045428, 0.42390144959092146 -61.213126796633006" stroke="#c92a2a" stroke-width="1" fill="none"></path></g></g><g transform="translate(488 348) rotate(0 14.5 13)"><text x="0" y="18" font-family="Virgil, Segoe UI Emoji" font-size="20px" fill="#c92a2a" text-anchor="start" style="white-space: pre;" direction="ltr">cur</text></g><g transform="translate(36 251.5) rotate(0 6 13)"><text x="6" y="18" font-family="Virgil, Segoe UI Emoji" font-size="20px" fill="#c92a2a" text-anchor="middle" style="white-space: pre;" direction="ltr">-1</text></g><g transform="translate(139 251) rotate(0 2 13)"><text x="0" y="18" font-family="Virgil, Segoe UI Emoji" font-size="20px" fill="#e67700" text-anchor="start" style="white-space: pre;" direction="ltr">1</text></g><g><g transform="translate(453 147) rotate(0 0.6562677983194476 -26.49710732139647)"><path d="M-0.7002950962632895 0.05540827475488186 C-0.3583924309660991 -8.761035164569815, 1.7540903353442752 -44.30542259650926, 2.0128306929022077 -53.04962291754782 M1.1329112488590183 -0.9611063263379038 C1.408791524625073 -9.564314823107173, 1.7838688924474022 -42.6246926714542, 1.596521343048662 -51.538249698039145" stroke="#e67700" stroke-width="1" fill="none"></path></g><g transform="translate(453 147) rotate(0 0.6562677983194476 -26.49710732139647)"><path d="M10.819164226373703 -24.967720785590217 C7.965684074260475 -34.34021121036628, 6.322335389319441 -42.394108836439464, 1.4394674347154797 -52.68745884908363 M11.637933458743662 -26.15810505528222 C9.582730260467425 -32.01780512404744, 5.743460043717894 -38.69453325020777, 1.9040605332143605 -52.314001209605486" stroke="#e67700" stroke-width="1" fill="none"></path></g><g transform="translate(453 147) rotate(0 0.6562677983194476 -26.49710732139647)"><path d="M-7.3110676032430835 -24.920273739464456 C-4.783715218345655 -34.201041444503616, -1.0462910555621852 -42.26902062120989, 1.4394674347154797 -52.68745884908363 M-6.492298370873124 -26.11065800915646 C-4.44539034927511 -32.09223441923235, -4.182632220838528 -38.77969760548083, 1.9040605332143605 -52.314001209605486" stroke="#e67700" stroke-width="1" fill="none"></path></g></g><g transform="translate(451 152) rotate(0 10 13)"><text x="0" y="18" font-family="Virgil, Segoe UI Emoji" font-size="20px" fill="#e67700" text-anchor="start" style="white-space: pre;" direction="ltr">l2</text></g><g><g transform="translate(75 266) rotate(0 28.18477390280924 -1.3064007881935709)"><path d="M0.7116795245558023 -0.1176701668649911 C10.087457718824346 -0.3951212966193755, 47.520192967231075 -0.6986121221135062, 56.74337526001036 -0.9328240398317578 M-0.37382745439186693 -1.2250509498082103 C8.866213003055503 -1.878796174482753, 46.90467540607477 -2.096806698000679, 56.185601807888595 -2.4951314095221457" stroke="#e67700" stroke-width="1" fill="none"></path></g><g transform="translate(75 266) rotate(0 28.18477390280924 -1.3064007881935709)"><path d="M29.882671912455393 8.914093703690988 C40.69064387234398 4.139657204429996, 48.602371584830536 0.7272562257978548, 56.980974333118645 -1.0679660297743974 M29.972046947361363 7.136403649773519 C37.018807572398146 5.222879702754623, 43.04152367644096 3.0133489463138092, 56.138162675071506 -2.429511623252183" stroke="#e67700" stroke-width="1" fill="none"></path></g><g transform="translate(75 266) rotate(0 28.18477390280924 -1.3064007881935709)"><path d="M29.453184679954354 -10.246432516126752 C40.52435438196399 -8.494936132061115, 48.58241934986667 -5.37885708345472, 56.980974333118645 -1.0679660297743974 M29.542559714860325 -12.02412257004422 C36.873328092647405 -9.43723197588151, 42.996974679930204 -7.143995189647807, 56.138162675071506 -2.429511623252183" stroke="#e67700" stroke-width="1" fill="none"></path></g></g><g><g transform="translate(150.5 137) rotate(0 0.973828691468384 -19.86071566591039)"><path d="M-0.507869565859437 0.6281863991171122 C-0.6122196519126495 -5.888150808836023, -0.13429644542435804 -32.1903837458541, 0.18567178212106228 -38.83740523420274 M1.4263601827248933 -0.08761968668550257 C1.6317050126815837 -6.93066618061314, 2.564079051775237 -33.49675842420508, 2.470104004107416 -40.3496177309379" stroke="#862e9c" stroke-width="1" fill="none"></path></g><g transform="translate(150.5 137) rotate(0 0.973828691468384 -19.86071566591039)"><path d="M10.097157059076428 -22.813642086315475 C8.527655474847531 -27.74374800618535, 5.414276997157199 -33.809539588810466, 2.0616531528905035 -40.680656822510066 M9.911826249982417 -20.91712786335828 C7.500309551671732 -27.199925059090607, 4.879205106937609 -33.25612069912666, 3.404922172278166 -39.74182196065784" stroke="#862e9c" stroke-width="1" fill="none"></path></g><g transform="translate(150.5 137) rotate(0 0.973828691468384 -19.86071566591039)"><path d="M-3.5865962369551223 -23.00421757425567 C-0.12488361529794778 -27.806345840539326, 1.7925382178553573 -33.80207278495975, 2.0616531528905035 -40.680656822510066 M-3.771927046049134 -21.107703351298476 C-1.7962636236860305 -27.34650943199188, -0.030349427220897063 -33.34160646844585, 3.404922172278166 -39.74182196065784" stroke="#862e9c" stroke-width="1" fill="none"></path></g></g><g transform="translate(147.5 149) rotate(0 4.5 13)"><text x="0" y="18" font-family="Virgil, Segoe UI Emoji" font-size="20px" fill="#862e9c" text-anchor="start" style="white-space: pre;" direction="ltr">l1</text></g><g transform="translate(230 253) rotate(0 2 13)"><text x="0" y="18" font-family="Virgil, Segoe UI Emoji" font-size="20px" fill="#862e9c" text-anchor="start" style="white-space: pre;" direction="ltr">1</text></g><g><g transform="translate(152 263) rotate(0 37.45087588822469 -1.2156512042637928)"><path d="M-0.02989168725907798 -0.5016356829553842 C12.169728619232774 -0.6964876814434925, 61.778100413456556 -0.048275371765097, 74.14394806064665 -0.2831645254045725 M-1.5047235524095597 -1.8105983618460597 C10.989176126178354 -2.4258799113395315, 63.38548426156864 -2.1525431537193556, 76.40647532885895 -2.0294006500206887" stroke="#862e9c" stroke-width="1" fill="none"></path></g><g transform="translate(152 263) rotate(0 37.45087588822469 -1.2156512042637928)"><path d="M47.31754652319599 6.632224302146181 C59.97751162714035 2.8526681239565663, 67.96816277855173 -0.6814328656891764, 76.26018184704706 -3.762061191331595 M48.85622190686066 8.031669179316207 C54.65953912019504 5.566008905270773, 61.73387408030039 3.880789029541016, 75.96607582645491 -2.553781195152551" stroke="#862e9c" stroke-width="1" fill="none"></path></g><g transform="translate(152 263) rotate(0 37.45087588822469 -1.2156512042637928)"><path d="M47.442777802956506 -13.888602180050121 C60.2068018813519 -9.893829599339723, 68.15000888877796 -5.653570635300039, 76.26018184704706 -3.762061191331595 M48.981453186621174 -12.489157302880095 C54.74010309458862 -10.087120162409228, 61.78473939169598 -6.905815386308311, 75.96607582645491 -2.553781195152551" stroke="#862e9c" stroke-width="1" fill="none"></path></g></g><g><g transform="translate(225.5 138) rotate(0 1.064509398005896 -20.55870687896386)"><path d="M0.785116147622466 -0.05843811593949799 C0.6361291444549957 -6.4434013462315, 0.2604615764071543 -32.825911916916574, 0.13370548449456687 -39.30255796276033 M-0.2618366042152047 -1.134722072146833 C-0.12456307285775736 -7.7774232501412435, 1.9460850350682934 -34.46593888507535, 2.3908554002270104 -41.05897564198822" stroke="#364fc7" stroke-width="1" fill="none"></path></g><g transform="translate(225.5 138) rotate(0 1.064509398005896 -20.55870687896386)"><path d="M7.762041846898146 -23.258460494860266 C7.072172958491959 -30.825860867849542, 5.60369836853388 -37.211409796641334, 1.0704503249004484 -42.332366730459036 M7.189383336950787 -22.05739416385368 C6.161419687633056 -27.573793915521822, 4.210045930141039 -34.48512319806874, 1.6301084937155248 -41.07289985790849" stroke="#364fc7" stroke-width="1" fill="none"></path></g><g transform="translate(225.5 138) rotate(0 1.064509398005896 -20.55870687896386)"><path d="M-5.887386490062676 -24.245643029870365 C-1.3217166608410729 -31.521653870303755, 2.4735145807978345 -37.52651004492997, 1.0704503249004484 -42.332366730459036 M-6.460045000010036 -23.04457669886378 C-3.30592466760836 -28.143936177658023, -1.067764440244395 -34.75226121141294, 1.6301084937155248 -41.07289985790849" stroke="#364fc7" stroke-width="1" fill="none"></path></g></g><g transform="translate(222.5 150) rotate(0 4.5 13)"><text x="0" y="18" font-family="Virgil, Segoe UI Emoji" font-size="20px" fill="#364fc7" text-anchor="start" style="white-space: pre;" direction="ltr">l1</text></g><g transform="translate(318 249) rotate(0 7.5 13)"><text x="0" y="18" font-family="Virgil, Segoe UI Emoji" font-size="20px" fill="#364fc7" text-anchor="start" style="white-space: pre;" direction="ltr">2</text></g><g><g transform="translate(243 265) rotate(0 34.92834071943537 -1.1557816501706952)"><path d="M1.170734154805541 -0.2916133817285299 C12.774058476711314 -0.6232706682135661, 58.159326501314844 -1.5504550314197938, 69.53045058213175 -2.019949918612838 M0.32623085673898444 -1.4903143524751068 C11.738279158833127 -1.6167239661638937, 57.00435404555251 -0.3458671346927682, 68.3358916741237 -0.4929983746632933" stroke="#364fc7" stroke-width="1" fill="none"></path></g><g transform="translate(243 265) rotate(0 34.92834071943537 -1.1557816501706952)"><path d="M39.55839865565036 8.70403271910465 C48.29011147330841 5.286941268547926, 54.75216845636419 4.045440930595199, 67.11599499065429 -2.125806126780808 M39.06027882363383 9.961621449298324 C45.69735984622908 7.265538411965809, 54.171809271204474 5.219834804658326, 67.7080956993997 -0.832494276612997" stroke="#364fc7" stroke-width="1" fill="none"></path></g><g transform="translate(243 265) rotate(0 34.92834071943537 -1.1557816501706952)"><path d="M39.76257356235531 -11.816160140449849 C48.42942552501074 -9.228240264310646, 54.83175276143791 -4.46672123004106, 67.11599499065429 -2.125806126780808 M39.26445373033878 -10.558571410256175 C46.01816177152425 -8.393019763662556, 54.444252395006515 -5.578518220834316, 67.7080956993997 -0.832494276612997" stroke="#364fc7" stroke-width="1" fill="none"></path></g></g><g transform="translate(405 252) rotate(0 7 13)"><text x="0" y="18" font-family="Virgil, Segoe UI Emoji" font-size="20px" fill="#087f5b" text-anchor="start" style="white-space: pre;" direction="ltr">3</text></g><g><g transform="translate(546.316826325462 134) rotate(0 -0.7192886986373423 -20.27941285929643)"><path d="M0.4051127973943949 -0.0001569751650094542 C0.23708341686444023 -6.441264848286907, -0.5926953405878673 -32.271187075351676, -0.6975369312008297 -38.97448786534369 M-0.8413417133130133 -1.0458433324657381 C-1.227591292593464 -7.774165090775738, -1.827396689149661 -34.22998350168889, -1.843690194669125 -40.558668743427845" stroke="#087f5b" stroke-width="1" fill="none"></path></g><g transform="translate(546.316826325462 134) rotate(0 -0.7192886986373423 -20.27941285929643)"><path d="M5.277563811301601 -22.497755071845035 C4.717266427400916 -27.77514413820735, 0.32067007167170125 -34.312912675638344, -3.5413528070924256 -40.430633028578015 M4.7516574729451655 -22.52261387533335 C2.8153443077965394 -27.170553274632255, 0.6986476962148673 -34.05492347315738, -1.908416671226678 -40.97041865305975" stroke="#087f5b" stroke-width="1" fill="none"></path></g><g transform="translate(546.316826325462 134) rotate(0 -0.7192886986373423 -20.27941285929643)"><path d="M-8.402143773723669 -22.292722020989956 C-4.503847439128447 -27.683110485507342, -4.442410227727326 -34.28769654936585, -3.5413528070924256 -40.430633028578015 M-8.928050112080104 -22.31758082447827 C-6.47787824002875 -27.134662680713472, -4.2088664026956035 -34.08476638836903, -1.908416671226678 -40.97041865305975" stroke="#087f5b" stroke-width="1" fill="none"></path></g></g><g transform="translate(541.5 146) rotate(0 10 13)"><text x="0" y="18" font-family="Virgil, Segoe UI Emoji" font-size="20px" fill="#087f5b" text-anchor="start" style="white-space: pre;" direction="ltr">l2</text></g><g><g transform="translate(339 263) rotate(0 28.10400695167482 0.8182462031021771)"><path d="M-0.8650045517832041 0.5652808729559182 C8.756275804465014 0.7893573307742674, 47.67832310559849 0.5346303446839253, 57.07301845513284 0.8738477174192667 M0.8817293291911481 -0.18355061408132323 C10.496160583657524 0.1875337322925527, 47.75582386708508 1.6938880638654032, 56.68830768045038 1.820043020285666" stroke="#087f5b" stroke-width="1" fill="none"></path></g><g transform="translate(339 263) rotate(0 28.10400695167482 0.8182462031021771)"><path d="M31.031110913274524 12.410427380498604 C34.77523982381958 7.825337891153106, 44.1818002483396 4.566006653567709, 55.62185647923499 3.154109152369201 M30.00072362997168 10.585875068936602 C38.16813218012942 7.0074572848743015, 47.46643369016438 4.296060828308981, 57.011420724242925 2.8097799302637574" stroke="#087f5b" stroke-width="1" fill="none"></path></g><g transform="translate(339 263) rotate(0 28.10400695167482 0.8182462031021771)"><path d="M31.596342771300414 -6.746574922833645 C35.126609383768326 -6.633754261497096, 44.39443664834395 -5.191100947317067, 55.62185647923499 3.154109152369201 M30.56595548799757 -8.571127234395647 C38.54034367394058 -5.723563809216506, 47.64911554297215 -2.011366624169402, 57.011420724242925 2.8097799302637574" stroke="#087f5b" stroke-width="1" fill="none"></path></g></g><g><g transform="translate(615.8588394162289 135) rotate(0 -0.9282577798505827 -19.351257554832856)"><path d="M0.21223249398171906 -0.925283008441329 C0.09977771268174825 -7.448837242151299, -0.5768816344000014 -33.347404636566836, -0.8887363638200895 -39.905854576453564 M-1.1354841760173442 1.2033394667878747 C-1.4166433657245263 -5.040712991418938, -2.31158515847545 -31.60121528254201, -2.0132345749282377 -38.319002977870404" stroke="#5c940d" stroke-width="1" fill="none"></path></g><g transform="translate(615.8588394162289 135) rotate(0 -0.9282577798505827 -19.351257554832856)"><path d="M3.2945748621724107 -20.086763267802528 C3.180527560061068 -26.660826486563202, 0.6308248897151172 -29.383622211695922, -1.7611768530898826 -39.24071211863309 M4.387626682234512 -19.382357050130597 C3.323208496819999 -25.211647489706543, 0.09030725756149671 -30.329272849406934, -2.542266636736049 -39.22565850272775" stroke="#5c940d" stroke-width="1" fill="none"></path></g><g transform="translate(615.8588394162289 135) rotate(0 -0.9282577798505827 -19.351257554832856)"><path d="M-10.387534966524674 -20.080289787735797 C-6.640914454281601 -26.680377838413392, -5.329990553309551 -29.40500015969739, -1.7611768530898826 -39.24071211863309 M-9.294483146462573 -19.375883570063866 C-6.132434022129585 -25.190471914600327, -5.138886217180709 -30.310096953734906, -2.542266636736049 -39.22565850272775" stroke="#5c940d" stroke-width="1" fill="none"></path></g></g><g transform="translate(610.5 147) rotate(0 10 13)"><text x="0" y="18" font-family="Virgil, Segoe UI Emoji" font-size="20px" fill="#5c940d" text-anchor="start" style="white-space: pre;" direction="ltr">l2</text></g><g transform="translate(596 62) rotate(0 24 13)"><text x="0" y="18" font-family="Virgil, Segoe UI Emoji" font-size="20px" fill="#000000" text-anchor="start" style="white-space: pre;" direction="ltr">NULL</text></g><g><g transform="translate(560 77) rotate(0 14.564890299802641 0.970331284049891)"><path d="M-0.0956470426172018 0.6216058250516652 C5.059862012043595 0.7325166897227365, 25.8897658649832 0.7547352707634372, 30.73478106893599 1.0169786091893913 M-1.6050004693306983 -0.09765506213530895 C3.4741295502148573 0.10085175468896831, 24.683274075146766 1.419548076136659, 30.172495666500183 2.038317630235106" stroke="#000000" stroke-width="1" fill="none"></path></g><g transform="translate(560 77) rotate(0 14.564890299802641 0.970331284049891)"><path d="M16.444938900196284 6.904410638868409 C18.535347375829705 3.592186008025901, 24.123427818599485 4.7906760572741005, 31.237869077099568 2.7779695351113105 M15.892665057144558 6.638200457737203 C20.22717384604063 5.317351788712768, 23.248304382981487 3.36749899420818, 29.684275644162703 1.3650221150819646" stroke="#000000" stroke-width="1" fill="none"></path></g><g transform="translate(560 77) rotate(0 14.564890299802641 0.970331284049891)"><path d="M17.302597206231013 -3.343141944080923 C19.179897017901403 -3.7511023746840575, 24.52485086114998 0.3523354788080848, 31.237869077099568 2.7779695351113105 M16.75032336317929 -3.609352125212129 C20.75098789827086 -2.0944161833753108, 23.53432073852082 -1.2029924650799895, 29.684275644162703 1.3650221150819646" stroke="#000000" stroke-width="1" fill="none"></path></g></g><g transform="translate(497 249) rotate(0 6 13)"><text x="0" y="18" font-family="Virgil, Segoe UI Emoji" font-size="20px" fill="#5c940d" text-anchor="start" style="white-space: pre;" direction="ltr">4</text></g><g><g transform="translate(428 269.28145796187266) rotate(0 30.303657998405356 -0.4746785582163966)"><path d="M0.04104586802423005 -1.0749046023935078 C9.831964031482737 -0.9708761585482022, 49.910160370295245 -0.3819647867123592, 59.879937862977386 -0.1592553888875614 M-1.3965437806025147 0.9751665360108017 C8.649085129859547 0.80166358847389, 51.41187569574764 -1.5114898745234122, 62.00385977741331 -1.9245236524436247" stroke="#5c940d" stroke-width="1" fill="none"></path></g><g transform="translate(428 269.28145796187266) rotate(0 30.303657998405356 -0.4746785582163966)"><path d="M32.535597962017775 7.784425535776048 C46.45645328540495 3.174211972821201, 58.0769339235708 1.1552923768790109, 63.91920877475292 -2.113073072308637 M34.834238629478634 9.468084538892239 C39.65459551423414 6.71323896983713, 47.473790801762945 4.248606433051909, 62.71524123236537 -2.8303116614985835" stroke="#5c940d" stroke-width="1" fill="none"></path></g><g transform="translate(428 269.28145796187266) rotate(0 30.303657998405356 -0.4746785582163966)"><path d="M31.569999376417087 -12.714052987210128 C45.73799250165935 -9.237214435355696, 57.73943629251727 -3.168751634554366, 63.91920877475292 -2.113073072308637 M33.868640043877946 -11.030393984093937 C38.87350419332726 -9.135099245968643, 46.91145360486995 -6.9558489314512855, 62.71524123236537 -2.8303116614985835" stroke="#5c940d" stroke-width="1" fill="none"></path></g></g><g transform="translate(583 250) rotate(0 6 13)"><text x="0" y="18" font-family="Virgil, Segoe UI Emoji" font-size="20px" fill="#000000" text-anchor="start" style="white-space: pre;" direction="ltr">4</text></g><g><g transform="translate(521 264) rotate(0 29.50301788086074 -0.3662193691696416)"><path d="M-0.3211044553667307 -0.8331650074571371 C9.170720461631815 -1.3525965706755718, 47.37291315359374 -1.7091628766308227, 57.09192503653467 -2.086561435088515 M1.71117697622627 1.3438194182887675 C11.563188685836892 1.541054032581548, 50.07507369027783 0.022103401360412556, 59.327140217088164 -0.5945809372887014" stroke="#000000" stroke-width="1" fill="none"></path></g><g transform="translate(521 264) rotate(0 29.50301788086074 -0.3662193691696416)"><path d="M31.19686533216941 9.15620824442857 C40.6811772287056 7.217895644494861, 47.33284571317293 3.4797333437707367, 57.407299931533636 -1.2050049399212002 M32.39517531902152 10.777583582602972 C37.44406397010459 7.702171051442676, 44.468192113407945 6.67790411391406, 58.69498264268041 -1.4728551740944384" stroke="#000000" stroke-width="1" fill="none"></path></g><g transform="translate(521 264) rotate(0 29.50301788086074 -0.3662193691696416)"><path d="M30.21270812328758 -10.668336955294095 C40.173994319348125 -6.4237545300555094, 47.13247180719642 -3.9816552828119507, 57.407299931533636 -1.2050049399212002 M31.41101811013969 -9.046961617119692 C36.76019732685923 -7.9348080895222886, 43.99212873576508 -4.773153108877805, 58.69498264268041 -1.4728551740944384" stroke="#000000" stroke-width="1" fill="none"></path></g></g><g transform="translate(548 312) rotate(0 57.5 13)"><text x="0" y="18" font-family="Virgil, Segoe UI Emoji" font-size="20px" fill="#000000" text-anchor="start" style="white-space: pre;" direction="ltr">cur-&gt;next=l1</text></g></svg>