<svg version="1.1" xmlns="http://www.w3.org/2000/svg" viewBox="0 0 1333 594.75" width="1333" height="594.75">
  <!-- svg-source:excalidraw -->
  
  <defs>
    <style>
      @font-face {
        font-family: "Virgil";
        src: url("https://excalidraw.com/FG_Virgil.woff2");
      }
      @font-face {
        font-family: "Cascadia";
        src: url("https://excalidraw.com/Cascadia.woff2");
      }
    </style>
  </defs>
  <rect x="0" y="0" width="1333" height="594.75" fill="#ffffff"></rect><g transform="translate(10 15) rotate(0 70 16)"><text x="0" y="24" font-family="Virgil, Segoe UI Emoji" font-size="20px" fill="#000000" text-anchor="start" style="white-space: pre;" direction="ltr">链表的回文结构</text></g><g transform="translate(119 62) rotate(0 2 13)"><text x="0" y="18" font-family="Virgil, Segoe UI Emoji" font-size="20px" fill="#000000" text-anchor="start" style="white-space: pre;" direction="ltr">1</text></g><g transform="translate(198 55) rotate(0 7.5 13)"><text x="0" y="18" font-family="Virgil, Segoe UI Emoji" font-size="20px" fill="#000000" text-anchor="start" style="white-space: pre;" direction="ltr">2</text></g><g transform="translate(287 56) rotate(0 2 13)"><text x="0" y="18" font-family="Virgil, Segoe UI Emoji" font-size="20px" fill="#000000" text-anchor="start" style="white-space: pre;" direction="ltr">1</text></g><g transform="translate(381 57) rotate(0 7.5 13)"><text x="0" y="18" font-family="Virgil, Segoe UI Emoji" font-size="20px" fill="#000000" text-anchor="start" style="white-space: pre;" direction="ltr">2</text></g><g transform="translate(490 56) rotate(0 2 13)"><text x="0" y="18" font-family="Virgil, Segoe UI Emoji" font-size="20px" fill="#000000" text-anchor="start" style="white-space: pre;" direction="ltr">1</text></g><g transform="translate(575 56) rotate(0 24 13)"><text x="0" y="18" font-family="Virgil, Segoe UI Emoji" font-size="20px" fill="#000000" text-anchor="start" style="white-space: pre;" direction="ltr">NULL</text></g><g><g transform="translate(130 70) rotate(0 31.700496766213348 0.016073835268613834)"><path d="M0.8144735332578421 1.0519238892942668 C11.558648049458862 1.0333287620296083, 53.15678164921701 -0.526343979065617, 63.61806012354791 -1.0197762187570334 M-0.21706659112125637 0.5585799858346583 C10.49727825727314 0.8220901649569474, 52.437973146103324 0.7784022201473515, 62.99449622478336 0.5072665176168085" stroke="#000000" stroke-width="1" fill="none"></path></g><g transform="translate(130 70) rotate(0 31.700496766213348 0.016073835268613834)"><path d="M36.67235436015342 12.109727633306079 C41.40718645531924 9.433825549436182, 46.3666808816396 6.0584430710059305, 61.08869748223573 1.6961650009080769 M35.35432939608161 11.726686922953718 C45.48965401862631 7.412382694561545, 55.31838702634658 2.8870786832463207, 62.17020492568612 1.1419677947461606" stroke="#000000" stroke-width="1" fill="none"></path></g><g transform="translate(130 70) rotate(0 31.700496766213348 0.016073835268613834)"><path d="M36.444955519316295 -8.410221005835911 C41.07665420128327 -6.380026017231891, 46.08831795852027 -5.047768003710267, 61.08869748223573 1.6961650009080769 M35.126930555244485 -8.793261716188272 C45.17493711997632 -5.59945038844249, 55.08688317417258 -2.615800380872148, 62.17020492568612 1.1419677947461606" stroke="#000000" stroke-width="1" fill="none"></path></g></g><g><g transform="translate(221 73) rotate(0 29.83556718863548 -0.07185134744271693)"><path d="M-0.6981069501489401 0.079409360513091 C9.178074711933732 0.2110864198456207, 50.152576953545214 -0.12454208570222058, 60.36924132741988 -0.15188411511480804 M1.136248171683401 -0.9245046705566347 C10.789403917547315 -0.6068294068736335, 49.779060985203834 0.5161501075265308, 59.61504756068811 0.7808019756712019" stroke="#000000" stroke-width="1" fill="none"></path></g><g transform="translate(221 73) rotate(0 29.83556718863548 -0.07185134744271693)"><path d="M31.279873789677307 10.861939818666862 C40.48062610646441 7.698282975480639, 51.77130124560422 1.6558703678093991, 59.73075875235722 2.275735035110265 M31.01953487323402 10.042104184696065 C42.168119500660396 7.610821098153819, 53.651138820932125 3.020732954497582, 60.359521251786504 1.2703449861519038" stroke="#000000" stroke-width="1" fill="none"></path></g><g transform="translate(221 73) rotate(0 29.83556718863548 -0.07185134744271693)"><path d="M31.855551337258493 -9.65119250545786 C40.669228071025096 -4.763116363214474, 51.73384656551207 -2.750446947981011, 59.73075875235722 2.275735035110265 M31.595212420815205 -10.471028139428658 C42.59814289844172 -4.789149454500518, 53.85337489762442 -1.262486338897002, 60.359521251786504 1.2703449861519038" stroke="#000000" stroke-width="1" fill="none"></path></g></g><g><g transform="translate(304 73) rotate(0 35.526086645945895 1.4430373845063116)"><path d="M-0.4080121759325266 -0.7557444389909506 C11.69877601824701 -0.2828231986612081, 59.37899351082743 1.895761150494218, 71.46018546782435 2.4127173487097027 M1.5786427023634313 1.4618857851997018 C13.58347340967506 2.1249584249034523, 58.599346235059194 3.3321125427260996, 70.22873737480491 3.6418192080035805" stroke="#000000" stroke-width="1" fill="none"></path></g><g transform="translate(304 73) rotate(0 35.526086645945895 1.4430373845063116)"><path d="M40.50928049836409 12.230809491691492 C46.561761110942825 11.446045356081553, 52.18867368389839 9.427775000364264, 69.46397049356251 3.5796947563812136 M41.89440062105757 13.364252028619251 C51.46265979987441 9.319025029014034, 62.88943106520443 6.234894156027727, 69.52336705759167 2.7112370078265666" stroke="#000000" stroke-width="1" fill="none"></path></g><g transform="translate(304 73) rotate(0 35.526086645945895 1.4430373845063116)"><path d="M41.06842154152881 -8.282780239988533 C46.93554754429682 -4.933467681188923, 52.449725340501594 -2.8157602062160416, 69.46397049356251 3.5796947563812136 M42.453541664222286 -7.149337703060773 C51.743519578923 -3.823099421231134, 62.969262984192554 0.4680162492619395, 69.52336705759167 2.7112370078265666" stroke="#000000" stroke-width="1" fill="none"></path></g></g><g><g transform="translate(408 72) rotate(0 34.85415267581118 0.3661637899361523)"><path d="M0.19482309781014928 1.1057543937116863 C12.114955611651144 1.1556633456299705, 59.04865414264302 1.450786187623938, 70.8703388568014 1.3269566599279643 M-1.162033505178988 0.6406715050712228 C10.645647289616367 0.8336504049474995, 57.92307869857799 -0.7414742756510775, 69.85422129299492 -0.6239658423885703" stroke="#000000" stroke-width="1" fill="none"></path></g><g transform="translate(408 72) rotate(0 34.85415267581118 0.3661637899361523)"><path d="M43.65313479699582 9.81514111405897 C49.15698946290165 7.5749314026487005, 54.4431101188059 3.1136293228852114, 71.04842829633505 0.9422923887893557 M41.39121407572568 10.640004682938635 C51.03912009333282 6.543991935621774, 60.31889170422649 3.3318610712516303, 70.6182089431584 -0.17610480144619944" stroke="#000000" stroke-width="1" fill="none"></path></g><g transform="translate(408 72) rotate(0 34.85415267581118 0.3661637899361523)"><path d="M43.36515065233907 -10.704046674892762 C49.115486521248414 -7.901203720544464, 54.47239233055371 -7.318985584856198, 71.04842829633505 0.9422923887893557 M41.103229931068924 -9.879183106013098 C50.680197251557544 -6.947886952678049, 60.05861894267342 -3.1310908464770844, 70.6182089431584 -0.17610480144619944" stroke="#000000" stroke-width="1" fill="none"></path></g></g><g><g transform="translate(499 69) rotate(0 32.84657923020427 0.37059296483174364)"><path d="M-0.5726179417222738 -0.040664875879883766 C10.283306533470748 0.023010499899586034, 55.12504548467696 0.5372575080643098, 66.26577640213073 0.8927072521299124 M1.327618909534067 -1.1076178810559214 C11.94988244539127 -0.9811451847913365, 54.73707549517975 1.0878944880204897, 65.45726354962216 1.8488038107194007" stroke="#000000" stroke-width="1" fill="none"></path></g><g transform="translate(499 69) rotate(0 32.84657923020427 0.37059296483174364)"><path d="M36.65755851556612 10.921723034183092 C46.168839756898564 7.667004710915304, 59.49343577437962 4.067836935487557, 66.81257307512686 -0.005090551506727881 M36.13676819288237 9.852056766810424 C43.64180408803054 8.04124244964374, 50.562124388757 7.240436412199521, 65.80290202872828 2.163828742634505" stroke="#000000" stroke-width="1" fill="none"></path></g><g transform="translate(499 69) rotate(0 32.84657923020427 0.37059296483174364)"><path d="M37.832322825213126 -9.56583248624489 C46.96771260056976 -4.750253189694345, 59.829233213640805 -0.27351758596210196, 66.81257307512686 -0.005090551506727881 M37.311532502529374 -10.635498753617558 C44.731791039574894 -7.672312157220015, 51.378083410191394 -3.694149012358438, 65.80290202872828 2.163828742634505" stroke="#000000" stroke-width="1" fill="none"></path></g></g><g transform="translate(748 10) rotate(0 287.5 157)"><text x="0" y="23.4" font-family="Virgil, Segoe UI Emoji" font-size="20px" fill="#c92a2a" text-anchor="start" style="white-space: pre;" direction="ltr">1、寻找链表的中间结，定义快慢指针，slow一次走一步，fast</text><text x="0" y="54.8" font-family="Virgil, Segoe UI Emoji" font-size="20px" fill="#c92a2a" text-anchor="start" style="white-space: pre;" direction="ltr">一次走两步，当结点个数为偶数时找的是左边的那个结点</text><text x="0" y="86.19999999999999" font-family="Virgil, Segoe UI Emoji" font-size="20px" fill="#c92a2a" text-anchor="start" style="white-space: pre;" direction="ltr">循环的条件：fas-&gt;next!=NULL&amp;&amp;fast-&gt;next-&gt;next=NULL;</text><text x="0" y="117.6" font-family="Virgil, Segoe UI Emoji" font-size="20px" fill="#c92a2a" text-anchor="start" style="white-space: pre;" direction="ltr">2、fast指针指向中间结点的下一个结点，从中间结点断开，将</text><text x="0" y="149" font-family="Virgil, Segoe UI Emoji" font-size="20px" fill="#c92a2a" text-anchor="start" style="white-space: pre;" direction="ltr">链表分成两部分，slow-&gt;next=NULL;</text><text x="0" y="180.39999999999998" font-family="Virgil, Segoe UI Emoji" font-size="20px" fill="#c92a2a" text-anchor="start" style="white-space: pre;" direction="ltr">3、将后半分链表反转，反转完成后让fasr指向链表头部</text><text x="0" y="211.79999999999998" font-family="Virgil, Segoe UI Emoji" font-size="20px" fill="#c92a2a" text-anchor="start" style="white-space: pre;" direction="ltr">4、从fast和slow分别开始遍历链表，比较值是否相同，若相同继</text><text x="0" y="243.2" font-family="Virgil, Segoe UI Emoji" font-size="20px" fill="#c92a2a" text-anchor="start" style="white-space: pre;" direction="ltr">续比较下一个结点是否相同，若不同则说明不是回文链表，直接</text><text x="0" y="274.59999999999997" font-family="Virgil, Segoe UI Emoji" font-size="20px" fill="#c92a2a" text-anchor="start" style="white-space: pre;" direction="ltr">返回false</text><text x="0" y="306" font-family="Virgil, Segoe UI Emoji" font-size="20px" fill="#c92a2a" text-anchor="start" style="white-space: pre;" direction="ltr"></text></g><g><g transform="translate(284.07886397307743 144.18284441852944) rotate(0 0.5414634168427597 -26.90940558391624)"><path d="M0.35278865732252607 -0.9387223843485117 C0.31601235396227983 -9.724328553096084, -0.35238438961099905 -44.13020424403562, -0.14707886008550308 -52.98365518512206 M-0.9211360269226134 1.1828444185294211 C-0.6058405807148741 -7.967338353988407, 1.6559979251119858 -45.93749025082528, 2.0040628606080553 -55.001655586361906" stroke="#c92a2a" stroke-width="1" fill="none"></path></g><g transform="translate(284.07886397307743 144.18284441852944) rotate(0 0.5414634168427597 -26.90940558391624)"><path d="M8.266539060894452 -31.364426954513903 C7.824155831481356 -36.236374450309455, 3.635105076780624 -43.735895385389156, 1.9011764613538524 -53.43103398598733 M9.514911750715278 -29.16631661341947 C7.152089380123278 -37.450365769738134, 5.556061624561675 -43.517992739997176, 2.837987000457897 -54.64950089465829" stroke="#c92a2a" stroke-width="1" fill="none"></path></g><g transform="translate(284.07886397307743 144.18284441852944) rotate(0 0.5414634168427597 -26.90940558391624)"><path d="M-9.902744091274892 -32.27990531997424 C-4.784995926693055 -36.925011952354524, -3.4118553224377717 -44.14427604895424, 1.9011764613538524 -53.43103398598733 M-8.654371401454066 -30.081794978879806 C-6.048418541548971 -38.22955406625828, -2.6703582214593906 -44.04655639805385, 2.837987000457897 -54.64950089465829" stroke="#c92a2a" stroke-width="1" fill="none"></path></g></g><g><g transform="translate(493.53943198653883 139.5914222092647) rotate(0 0.020894595282129558 -26.526127371257175)"><path d="M-1.0275262836366892 1.078762573376298 C-0.9294872994069086 -7.638096337184934, 0.7651100318412849 -43.55698632084145, 1.0693154742009483 -52.412744843829444 M0.6338836881145835 0.5995089790597556 C0.5447724478971137 -8.445834224723903, 0.3101769178267188 -45.06333291795417, 0.19906422039489358 -54.13101731589066" stroke="#c92a2a" stroke-width="1" fill="none"></path></g><g transform="translate(493.53943198653883 139.5914222092647) rotate(0 0.020894595282129558 -26.526127371257175)"><path d="M11.316090248972007 -28.97480731689148 C7.65548573135683 -37.9786740266987, 5.081082869060835 -44.72246713013679, -1.182755335141019 -55.94278258992361 M8.681273750476368 -30.20200619985126 C5.5838665721375325 -36.360017164019524, 4.352916800642157 -45.75884181600552, -0.6037083714269558 -54.76679714838045" stroke="#c92a2a" stroke-width="1" fill="none"></path></g><g transform="translate(493.53943198653883 139.5914222092647) rotate(0 0.020894595282129558 -26.526127371257175)"><path d="M-6.875515841571538 -28.812268866580332 C-4.349183516486969 -37.71564368754004, -0.736800685166954 -44.51471451379395, -1.182755335141019 -55.94278258992361 M-9.510332340067176 -30.039467749540115 C-6.898120664682638 -36.40201190969541, -2.4183094647618955 -45.85186109650101, -0.6037083714269558 -54.76679714838045" stroke="#c92a2a" stroke-width="1" fill="none"></path></g></g><g transform="translate(271 152) rotate(0 19 13)"><text x="0" y="18" font-family="Virgil, Segoe UI Emoji" font-size="20px" fill="#c92a2a" text-anchor="start" style="white-space: pre;" direction="ltr">slow</text></g><g transform="translate(480 143) rotate(0 22.5 13)"><text x="0" y="18" font-family="Virgil, Segoe UI Emoji" font-size="20px" fill="#c92a2a" text-anchor="start" style="white-space: pre;" direction="ltr">fast</text></g><g transform="translate(114 258.5) rotate(0 2 13)"><text x="0" y="18" font-family="Virgil, Segoe UI Emoji" font-size="20px" fill="#000000" text-anchor="start" style="white-space: pre;" direction="ltr">1</text></g><g transform="translate(193 251.5) rotate(0 7.5 13)"><text x="0" y="18" font-family="Virgil, Segoe UI Emoji" font-size="20px" fill="#000000" text-anchor="start" style="white-space: pre;" direction="ltr">2</text></g><g transform="translate(282 252.5) rotate(0 2 13)"><text x="0" y="18" font-family="Virgil, Segoe UI Emoji" font-size="20px" fill="#000000" text-anchor="start" style="white-space: pre;" direction="ltr">1</text></g><g transform="translate(376 253.5) rotate(0 7.5 13)"><text x="0" y="18" font-family="Virgil, Segoe UI Emoji" font-size="20px" fill="#000000" text-anchor="start" style="white-space: pre;" direction="ltr">2</text></g><g transform="translate(485 252.5) rotate(0 2 13)"><text x="0" y="18" font-family="Virgil, Segoe UI Emoji" font-size="20px" fill="#000000" text-anchor="start" style="white-space: pre;" direction="ltr">1</text></g><g transform="translate(568 254.5) rotate(0 24 13)"><text x="0" y="18" font-family="Virgil, Segoe UI Emoji" font-size="20px" fill="#000000" text-anchor="start" style="white-space: pre;" direction="ltr">NULL</text></g><g><g transform="translate(125 266.5) rotate(0 31.102839721804486 -0.2726519772969027)"><path d="M-0.2412623818963766 -1.1764365199953317 C10.47082168497145 -1.0331114097187917, 53.519678479805584 0.06656536223987734, 64.0327433053404 0.15209208689630027 M-1.8270638617314399 0.8203303616680206 C8.838343051429838 0.7207689030406377, 52.99139081275091 -0.7574110343617698, 63.62688807701692 -1.3656343162618578" stroke="#000000" stroke-width="1" fill="none"></path></g><g transform="translate(125 266.5) rotate(0 31.102839721804486 -0.2726519772969027)"><path d="M33.941280265571365 11.815578939726853 C45.65328006360032 6.669604816338481, 52.057851408926894 5.725203952842851, 63.66616251064465 -1.5494486723653973 M36.829732304671595 10.28395834691664 C41.93087123510435 8.000317768126436, 50.27669584294223 4.174039026829136, 62.707757866252216 -0.7000381393916906" stroke="#000000" stroke-width="1" fill="none"></path></g><g transform="translate(125 266.5) rotate(0 31.102839721804486 -0.2726519772969027)"><path d="M33.061340510012315 -8.68675527890362 C44.89880134904059 -8.089898510365032, 51.54977334436076 -3.2932376182782974, 63.66616251064465 -1.5494486723653973 M35.949792549112544 -10.218375871713834 C41.453454148461816 -7.276032852744526, 50.02354092949774 -5.877069753955339, 62.707757866252216 -0.7000381393916906" stroke="#000000" stroke-width="1" fill="none"></path></g></g><g><g transform="translate(216 269.5) rotate(0 29.987827783450484 1.409186433888948)"><path d="M-1.1764365199953317 1.0327433053404091 C9.133555256947876 1.2124747975418964, 50.899898695573214 0.6432673477878172, 61.1520920868963 0.8371265713125466 M0.4067955776676535 0.5293295953050254 C10.721511748693883 0.9202878691131868, 50.918726641796525 2.2970594935988387, 60.80889496888965 2.289043272472918" stroke="#000000" stroke-width="1" fill="none"></path></g><g transform="translate(216 269.5) rotate(0 29.987827783450484 1.409186433888948)"><path d="M34.14390218298537 13.915990966731822 C39.012139695224654 10.495880393194096, 48.118176187027814 7.634496642030669, 60.625080612786114 1.3862597985193132 M32.61228159017516 11.058355424912786 C44.2181022121862 8.318838650138364, 54.296473272392944 3.301342333291312, 61.47449114575982 3.2820969723165034" stroke="#000000" stroke-width="1" fill="none"></path></g><g transform="translate(216 269.5) rotate(0 29.987827783450484 1.409186433888948)"><path d="M34.545611759415124 -6.601285455884415 C39.27578213791427 -5.080428821649337, 48.28500188747519 -2.996907149905425, 60.625080612786114 1.3862597985193132 M33.01399116660491 -9.458920997703451 C44.44707636979805 -4.255623958894181, 54.37000733978167 -1.3340332203401246, 61.47449114575982 3.2820969723165034" stroke="#000000" stroke-width="1" fill="none"></path></g></g><g><g transform="translate(403 268.5) rotate(0 35.81726276556026 0.4509563612006673)"><path d="M1.1520920868963003 -0.16287342868745336 C13.237618811552723 0.030985794837276065, 59.69147839906315 2.020467843984564, 71.3367238279432 2.1958986464887857 M0.2978017031773925 -1.293985924087465 C12.357708669466277 -0.8814828600113591, 58.903385689618695 0.12729025029887753, 70.56545837398619 0.7011706871166825" stroke="#000000" stroke-width="1" fill="none"></path></g><g transform="translate(403 268.5) rotate(0 35.81726276556026 0.4509563612006673)"><path d="M41.774624314742 10.570709830097458 C49.71901210622857 7.895025354174747, 53.30191032504444 5.073022834566704, 72.3043871595338 0.5325778559967875 M42.84938516805491 10.35186009755691 C53.127780799034035 5.7016806259328305, 65.09727815129406 3.957807866397453, 70.26060352370143 1.0526925916969776" stroke="#000000" stroke-width="1" fill="none"></path></g><g transform="translate(403 268.5) rotate(0 35.81726276556026 0.4509563612006673)"><path d="M42.463610390347924 -9.938929381099323 C50.44535799583122 -8.46579801361395, 53.889106090391245 -7.145599484861305, 72.3043871595338 0.5325778559967875 M43.53837124366083 -10.15777911363987 C53.58504214414588 -6.75879645270238, 65.28392474707643 -0.4470479587962757, 70.26060352370143 1.0526925916969776" stroke="#000000" stroke-width="1" fill="none"></path></g></g><g><g transform="translate(494 265.5) rotate(0 32.74418896920048 1.5206306251324975)"><path d="M-0.16287342868745336 0.3367238279432059 C10.86431912817061 0.48196925682326164, 56.187134510651234 1.836630312229196, 67.19589864648879 2.0235646601766346 M-1.7075207080878319 -0.5321001077257097 C9.175926652308554 0.32876691951726866, 55.74676125979051 3.0694380143719417, 66.8756999722682 3.5733613579906525" stroke="#000000" stroke-width="1" fill="none"></path></g><g transform="translate(494 265.5) rotate(0 32.74418896920048 1.5206306251324975)"><path d="M38.737617904393346 14.30442268918094 C49.21149847767231 8.793027396463856, 59.3491436054649 7.3424010830629385, 66.7071071411483 5.428810369540006 M38.5187681718528 12.208983224395782 C46.49317494794453 9.959256048445287, 57.559336276404565 6.201749473408944, 67.22722187684849 3.8872173534147443" stroke="#000000" stroke-width="1" fill="none"></path></g><g transform="translate(494 265.5) rotate(0 32.74418896920048 1.5206306251324975)"><path d="M39.835364040147205 -6.187403871847652 C50.082183868536525 -3.7891747523058923, 59.796030991214366 2.671313293860024, 66.7071071411483 5.428810369540006 M39.61651430760666 -8.28284333663281 C47.04867477438923 -3.9876418651550267, 57.764696992065765 -1.2090380438829493, 67.22722187684849 3.8872173534147443" stroke="#000000" stroke-width="1" fill="none"></path></g></g><g><g transform="translate(279.07886397307743 340.6828444185294) rotate(0 -0.02311756801111642 -26.048617192851395)"><path d="M0.3367238279432059 1.1958986464887855 C0.3021585946436896 -7.659144620761898, 0.9375770013313363 -44.40390206657662, 0.9447006870992027 -53.29313303219156 M-0.9456348917260766 0.7781414905562998 C-1.236967563675724 -7.867932857178776, -0.03681095370095285 -42.6948794302003, 0.009026670064731679 -51.8136093031429" stroke="#c92a2a" stroke-width="1" fill="none"></path></g><g transform="translate(279.07886397307743 340.6828444185294) rotate(0 -0.02311756801111642 -26.048617192851395)"><path d="M10.584835353290282 -26.60184839519856 C5.043229668580127 -37.48832094434456, 3.5671798159338026 -46.722628116686195, 1.8644756816140853 -51.43437280429529 M8.489395888505124 -27.56025303959099 C7.284869466616789 -30.81055636135552, 4.544232664153283 -36.64395864217791, 0.3228826654888235 -51.67085418680685" stroke="#c92a2a" stroke-width="1" fill="none"></path></g><g transform="translate(279.07886397307743 340.6828444185294) rotate(0 -0.02311756801111642 -26.048617192851395)"><path d="M-7.603684377666044 -26.974274089724418 C-5.9430021573049565 -37.76430077244788, -0.21625861946504887 -46.851124511796755, 1.8644756816140853 -51.43437280429529 M-9.699123842451202 -27.93267873411685 C-7.1492437315372666 -31.168438194746166, -6.138465715940968 -36.925027008077144, 0.3228826654888235 -51.67085418680685" stroke="#c92a2a" stroke-width="1" fill="none"></path></g></g><g><g transform="translate(382.53943198653883 344.0914222092647) rotate(0 0.49296841205739383 -26.85047492136249)"><path d="M1.1958986464887855 0.023564660176634833 C1.3581854534801017 -8.9866417282975, 0.6827483046333856 -44.8399203733386, 0.8108474132604442 -53.724514502901606 M0.36460670655593264 -1.0096678385697304 C0.37347339604980473 -9.892365946170568, -0.4254247161653272 -43.96980734801232, -0.19509957253937493 -52.4714660459757" stroke="#c92a2a" stroke-width="1" fill="none"></path></g><g transform="translate(382.53943198653883 344.0914222092647) rotate(0 0.49296841205739383 -26.85047492136249)"><path d="M8.980128411918097 -27.678286773472095 C5.351198538141109 -32.81858705047158, 3.468603455655307 -39.85615753050232, 0.18413692630822887 -54.346430173292774 M8.021723767525666 -26.82887624049839 C6.373715371332752 -37.308183891108264, 2.2575016672676744 -46.18898586742954, -0.05234445620332728 -51.53924538861962" stroke="#c92a2a" stroke-width="1" fill="none"></path></g><g transform="translate(382.53943198653883 344.0914222092647) rotate(0 0.49296841205739383 -26.85047492136249)"><path d="M-9.212180720393738 -27.649315481921512 C-7.630419462522244 -32.979215240819116, -4.302242118991304 -40.025083887182674, 0.18413692630822887 -54.346430173292774 M-10.170585364786168 -26.799904948947805 C-4.899602665104027 -37.27162507177742, -2.096726088151599 -46.16344571430199, -0.05234445620332728 -51.53924538861962" stroke="#c92a2a" stroke-width="1" fill="none"></path></g></g><g transform="translate(266 348.5) rotate(0 19 13)"><text x="0" y="18" font-family="Virgil, Segoe UI Emoji" font-size="20px" fill="#c92a2a" text-anchor="start" style="white-space: pre;" direction="ltr">slow</text></g><g transform="translate(369 347.5) rotate(0 22.5 13)"><text x="0" y="18" font-family="Virgil, Segoe UI Emoji" font-size="20px" fill="#c92a2a" text-anchor="start" style="white-space: pre;" direction="ltr">fast</text></g><g><g transform="translate(296 255) rotate(0 26.74202867588957 -21.413786133294934)"><path d="M1.1709204141050578 -0.9006907347589731 C10.006254933650295 -8.301431099946301, 44.66237707373996 -37.16294016477963, 53.15754244960844 -44.06841495074332 M0.3265149021707474 1.2408426841534674 C9.092378755665074 -6.078418624556313, 44.296506168500834 -35.49740696306651, 52.81720677202568 -43.09190754866228" stroke="#c92a2a" stroke-width="1" fill="none"></path></g><g transform="translate(296 255) rotate(0 26.74202867588957 -21.413786133294934)"><path d="M36.61494358303821 -15.011622218453759 C40.85080220980558 -25.01025994820531, 48.33088923408106 -31.547282344259216, 52.045791935157034 -44.05749803496525 M38.62194636977142 -16.980103819669658 C43.687727079186864 -26.996944896287836, 49.25006486479436 -37.17558182481172, 52.967980083990845 -43.1133656780608" stroke="#c92a2a" stroke-width="1" fill="none"></path></g><g transform="translate(296 255) rotate(0 26.74202867588957 -21.413786133294934)"><path d="M23.24478083987393 -30.57949781556531 C31.697434465071844 -35.84942817458179, 43.35072290214882 -37.52728156243498, 52.045791935157034 -44.05749803496525 M25.25178362660714 -32.54797941678121 C35.61718779004534 -36.40676985000294, 46.51531396837625 -40.37255122051208, 52.967980083990845 -43.1133656780608" stroke="#c92a2a" stroke-width="1" fill="none"></path></g></g><g transform="translate(355 197) rotate(0 24 13)"><text x="0" y="18" font-family="Virgil, Segoe UI Emoji" font-size="20px" fill="#c92a2a" text-anchor="start" style="white-space: pre;" direction="ltr">NULL</text></g><g transform="translate(119 472.75) rotate(0 2 13)"><text x="0" y="18" font-family="Virgil, Segoe UI Emoji" font-size="20px" fill="#000000" text-anchor="start" style="white-space: pre;" direction="ltr">1</text></g><g transform="translate(198 465.75) rotate(0 7.5 13)"><text x="0" y="18" font-family="Virgil, Segoe UI Emoji" font-size="20px" fill="#000000" text-anchor="start" style="white-space: pre;" direction="ltr">2</text></g><g transform="translate(287 466.75) rotate(0 2 13)"><text x="0" y="18" font-family="Virgil, Segoe UI Emoji" font-size="20px" fill="#000000" text-anchor="start" style="white-space: pre;" direction="ltr">1</text></g><g transform="translate(381 467.75) rotate(0 7.5 13)"><text x="0" y="18" font-family="Virgil, Segoe UI Emoji" font-size="20px" fill="#000000" text-anchor="start" style="white-space: pre;" direction="ltr">2</text></g><g transform="translate(490 466.75) rotate(0 2 13)"><text x="0" y="18" font-family="Virgil, Segoe UI Emoji" font-size="20px" fill="#000000" text-anchor="start" style="white-space: pre;" direction="ltr">1</text></g><g transform="translate(573 468.75) rotate(0 24 13)"><text x="0" y="18" font-family="Virgil, Segoe UI Emoji" font-size="20px" fill="#000000" text-anchor="start" style="white-space: pre;" direction="ltr">NULL</text></g><g><g transform="translate(130 480.75) rotate(0 32.112700802329925 -0.6414258595556248)"><path d="M-0.4714349750429392 0.162319702282548 C10.01019071303308 -0.15075784685711063, 51.634056734666224 -1.1806942598273356, 62.33434888087213 -1.445171421393752 M1.4819229337200523 -0.7980663993582129 C12.405880819223821 -0.9836419135952988, 54.385817651413376 -0.21948195801426984, 64.69683657970279 -0.14146116640418782" stroke="#000000" stroke-width="1" fill="none"></path></g><g transform="translate(130 480.75) rotate(0 32.112700802329925 -0.6414258595556248)"><path d="M36.64465995883082 8.639728420389876 C42.782392969354774 8.568204956451355, 50.00270427565606 5.628189064686331, 66.10597161401063 0.21577990721911178 M37.11979829431956 10.042320797195718 C45.13299829288308 6.883720847788081, 53.44508932025113 2.6796886135937594, 65.20805934920907 -0.9071543289721014" stroke="#000000" stroke-width="1" fill="none"></path></g><g transform="translate(130 480.75) rotate(0 32.112700802329925 -0.6414258595556248)"><path d="M36.913354871510194 -11.879721022266715 C43.05700688635503 -6.746182746402514, 50.209145932560936 -4.480081296869375, 66.10597161401063 0.21577990721911178 M37.38849320699893 -10.477128645460873 C45.47404576346663 -7.084654977299733, 53.70037119014063 -4.739017588755642, 65.20805934920907 -0.9071543289721014" stroke="#000000" stroke-width="1" fill="none"></path></g></g><g><g transform="translate(221 483.75) rotate(0 29.171613697623854 0.5323333915322905)"><path d="M0.162319702282548 -0.6656511191278696 C10.015908819809557 -0.29869230625530085, 49.652639073505995 1.3740505413462718, 59.55482857860625 1.7303179021924733 M-1.2116011833585798 1.5992780979909003 C8.407100932057947 1.665758035822461, 48.40665571814403 0.36150386377548166, 58.37306811874733 -0.008839947935193937" stroke="#000000" stroke-width="1" fill="none"></path></g><g transform="translate(221 483.75) rotate(0 29.171613697623854 0.5323333915322905)"><path d="M29.43637736589713 10.458262984036503 C41.159992454273564 6.687551113942113, 50.082348240827 5.036807087404503, 58.730309192370626 0.3750249223597346 M30.83896974270297 10.994883778831957 C41.41929526259383 5.832596747498113, 50.86476558408369 3.0510169462643155, 57.60737495617941 -0.7834902636893095" stroke="#000000" stroke-width="1" fill="none"></path></g><g transform="translate(221 483.75) rotate(0 29.171613697623854 0.5323333915322905)"><path d="M28.74168047108492 -10.05118358602427 C40.61821470000774 -6.929449714498409, 49.774063547373416 -1.6868083078062446, 58.730309192370626 0.3750249223597346 M30.14427284789076 -9.514562791228817 C41.09370591805578 -6.948785218402859, 50.80111705312632 -1.9971202609951098, 57.60737495617941 -0.7834902636893095" stroke="#000000" stroke-width="1" fill="none"></path></g></g><g><g transform="translate(494.07886397307743 550.9328444185294) rotate(0 0.5238425721880162 -27.220301939016224)"><path d="M0.7303179021924733 -0.4245432671159506 C1.0734412675257694 -9.073241929874449, 1.3255619447212288 -43.58269969307199, 1.3930890728719079 -52.33736339794474 M-0.3454039284959436 -1.6930324276909232 C-0.06076148753055205 -10.634431253575412, 0.5548660849686332 -45.712545810605725, 0.6928189583681068 -54.01606061091648" stroke="#c92a2a" stroke-width="1" fill="none"></path></g><g transform="translate(494.07886397307743 550.9328444185294) rotate(0 0.5238425721880162 -27.220301939016224)"><path d="M8.644618082193416 -28.083276707268908 C8.737143600408649 -34.60889914537027, 5.594405411854968 -39.57396209626619, 1.7378665302507124 -52.52471826566385 M8.418532150199395 -29.47729999065365 C7.063364555930461 -37.87857256592885, 2.9258099839837053 -44.53935050020975, 1.4868382895923695 -53.908923084531" stroke="#c92a2a" stroke-width="1" fill="none"></path></g><g transform="translate(494.07886397307743 550.9328444185294) rotate(0 0.5238425721880162 -27.220301939016224)"><path d="M-9.544952831617247 -28.400232339469547 C-5.0057242221058456 -34.959051321114366, -3.7005834894524785 -39.84660940495745, 1.7378665302507124 -52.52471826566385 M-9.771038763611267 -29.794255622854287 C-5.13671524949039 -38.17110729158811, -3.284127903058237 -44.72750622607249, 1.4868382895923695 -53.908923084531" stroke="#c92a2a" stroke-width="1" fill="none"></path></g></g><g><g transform="translate(596.5394319865388 554.3414222092647) rotate(0 0.6710368901956372 -27.253295269496732)"><path d="M-0.4245432671159506 0.47195304594933996 C-0.05591185563244688 -8.477849900141983, 1.5039506781380245 -44.18014893092528, 1.7666170475072704 -52.968499774355465 M1.5534327883087098 -0.3258755502663553 C1.876974999653168 -9.726458408233402, 1.436908903429247 -46.013655898332, 1.262449119687035 -54.97854358494284" stroke="#c92a2a" stroke-width="1" fill="none"></path></g><g transform="translate(596.5394319865388 554.3414222092647) rotate(0 0.6710368901956372 -27.253295269496732)"><path d="M11.503392012370655 -28.711189802692413 C8.4371856818005 -36.30519306448145, 7.1355263051307105 -42.17929527283169, 2.753791464939668 -54.39219589509072 M10.109368728985915 -29.609102067493975 C7.199659570172026 -37.930294399542255, 6.1777823698899 -43.30867265822894, 1.3695866460725212 -55.343007431142055" stroke="#c92a2a" stroke-width="1" fill="none"></path></g><g transform="translate(596.5394319865388 554.3414222092647) rotate(0 0.6710368901956372 -27.253295269496732)"><path d="M-6.687061765651064 -28.449766293829885 C-4.972545495399444 -36.04814312971516, -1.4918912523426577 -41.99097420113864, 2.753791464939668 -54.39219589509072 M-8.081085049035805 -29.347678558631447 C-5.908314696282634 -37.57209345836584, -1.8465632141129253 -43.023530919650675, 1.3695866460725212 -55.343007431142055" stroke="#c92a2a" stroke-width="1" fill="none"></path></g></g><g transform="translate(481 558.75) rotate(0 19 13)"><text x="0" y="18" font-family="Virgil, Segoe UI Emoji" font-size="20px" fill="#c92a2a" text-anchor="start" style="white-space: pre;" direction="ltr">slow</text></g><g transform="translate(583 557.75) rotate(0 22.5 13)"><text x="0" y="18" font-family="Virgil, Segoe UI Emoji" font-size="20px" fill="#c92a2a" text-anchor="start" style="white-space: pre;" direction="ltr">fast</text></g><g><g transform="translate(301 469.25) rotate(0 25.896214628461735 -21.968018649164605)"><path d="M0.2143446441739798 0.23031892217695704 C8.956467870498697 -6.972756490732232, 44.144615610068044 -35.22655307215949, 52.924692403897645 -42.37297145687044 M-1.1322631469741464 -0.6943675890192389 C7.491453484358887 -8.32218984550486, 43.50691993640115 -36.8144166468208, 52.4621104523167 -44.16635622050613" stroke="#c92a2a" stroke-width="1" fill="none"></path></g><g transform="translate(301 469.25) rotate(0 25.896214628461735 -21.968018649164605)"><path d="M37.32538380328734 -16.952040373475512 C43.07227507192425 -25.741234128250028, 47.88016851589777 -36.354898751533845, 53.34127460230142 -46.03367230821401 M36.16686861723829 -17.63858614688482 C41.3176938164622 -24.40968791627703, 43.87261324026527 -29.693616495688133, 52.80707286015153 -44.48596762552857" stroke="#c92a2a" stroke-width="1" fill="none"></path></g><g transform="translate(301 469.25) rotate(0 25.896214628461735 -21.968018649164605)"><path d="M24.454122102740843 -32.934863172402004 C34.68122092303922 -36.32360564567403, 43.856712140908684 -41.5138282707114, 53.34127460230142 -46.03367230821401 M23.2956069166918 -33.62140894581131 C31.6076731331916 -36.46996189920288, 37.2421257449126 -37.92989603339065, 52.80707286015153 -44.48596762552857" stroke="#c92a2a" stroke-width="1" fill="none"></path></g></g><g transform="translate(360 411.25) rotate(0 24 13)"><text x="0" y="18" font-family="Virgil, Segoe UI Emoji" font-size="20px" fill="#c92a2a" text-anchor="start" style="white-space: pre;" direction="ltr">NULL</text></g><g><g transform="translate(380 484) rotate(0 -40.41434733308853 0.5683822724781749)"><path d="M1.1561482664197682 -1.1670316513627768 C-12.339654481783509 -1.1948235051085552, -68.17760410346091 0.60565517184635, -81.9848429325968 0.8468006197363138 M0.3039873769506811 0.8346727863326668 C-12.737633102871477 1.5191579575712484, -65.93696512673051 2.2397009252881013, -79.78993093583733 2.303796196319163" stroke="#c92a2a" stroke-width="1" fill="none"></path></g><g transform="translate(380 484) rotate(0 -40.41434733308853 0.5683822724781749)"><path d="M-53.65163069974147 -9.888688490621924 C-57.93405483873464 -6.844935645184275, -64.9402492800982 -5.411130248271215, -78.97572643112392 0.7694432176277042 M-51.63234695896022 -9.04323723901826 C-58.46915346052996 -6.419596081519595, -65.38566634562223 -3.179822116454031, -80.78321147605777 1.6588392154872418" stroke="#c92a2a" stroke-width="1" fill="none"></path></g><g transform="translate(380 484) rotate(0 -40.41434733308853 0.5683822724781749)"><path d="M-53.439783823430254 10.631426598890528 C-57.94124943305957 9.248340875926868, -64.99316702506474 6.253266651115343, -78.97572643112392 0.7694432176277042 M-51.420500082649006 11.47687785049419 C-58.475421552952284 8.716412341055737, -65.44751633844254 6.572359020487448, -80.78321147605777 1.6588392154872418" stroke="#c92a2a" stroke-width="1" fill="none"></path></g></g><g><g transform="translate(486 482) rotate(0 -42.76505876397715 1.2454346397891527)"><path d="M-1.0939831260591746 -0.4594780024141073 C-15.37828100162248 -0.135562651976943, -72.11386881706616 2.171664733067155, -86.06265453137458 2.8031160179525614 M0.5325370034202934 -1.7463078990206122 C-13.361538545625907 -1.3104692414030432, -69.57976881497851 3.142865506149829, -83.90859362397343 4.237177178598941" stroke="#c92a2a" stroke-width="1" fill="none"></path></g><g transform="translate(486 482) rotate(0 -42.76505876397715 1.2454346397891527)"><path d="M-57.35671846917768 -9.933301032012508 C-64.21314130175281 -4.704676535866668, -70.71918810236272 -2.630473136532422, -83.06304792415351 3.57365318607539 M-57.38390006567289 -8.016145452348695 C-62.82846879319407 -5.567996706561625, -69.62284922701515 -1.8454654216259678, -83.79439965829253 4.494094561189414" stroke="#c92a2a" stroke-width="1" fill="none"></path></g><g transform="translate(486 482) rotate(0 -42.76505876397715 1.2454346397891527)"><path d="M-55.777667053596176 10.52706550949377 C-63.207414499100466 10.211654189359363, -70.14021740934379 6.7562172357785775, -83.06304792415351 3.57365318607539 M-55.80484865009139 12.444221089157583 C-61.56197604948162 9.754095461070973, -68.75375294986446 8.327410395025009, -83.79439965829253 4.494094561189414" stroke="#c92a2a" stroke-width="1" fill="none"></path></g></g><g><g transform="translate(121.03943198653883 554.887133313897) rotate(0 1.2997367831412419 -26.125740987742347)"><path d="M0.9024377938359975 -0.8252537425607442 C1.080556810414411 -9.598871152267483, 0.1830356876831123 -43.267653179991385, 0.2977288772351585 -52.06936697946863 M-0.08292109373956924 1.3558840972557666 C0.5600897153746262 -7.776015817724793, 2.472513542985506 -44.62209987815782, 2.6823946600220645 -53.607366072740426" stroke="#087f5b" stroke-width="1" fill="none"></path></g><g transform="translate(121.03943198653883 554.887133313897) rotate(0 1.2997367831412419 -26.125740987742347)"><path d="M9.38985190948152 -29.30899638725093 C10.594675486163153 -33.066749408021714, 6.078843936087528 -39.9914493507943, 1.8143197567574227 -52.45102156026291 M10.545700113639766 -27.360333464533298 C7.500819617272764 -38.945227265753694, 5.502231810061569 -47.84803335845105, 1.8672866187430466 -53.687626652214696" stroke="#087f5b" stroke-width="1" fill="none"></path></g><g transform="translate(121.03943198653883 554.887133313897) rotate(0 1.2997367831412419 -26.125740987742347)"><path d="M-8.787737773517103 -30.041242396371267 C-3.294032611767477 -33.76306871816851, -3.5244750087309455 -40.51514076254437, 1.8143197567574227 -52.45102156026291 M-7.631889569358856 -28.092579473653636 C-3.4960285134156166 -39.2356703379295, 1.6909501638924 -47.849020981729836, 1.8672866187430466 -53.687626652214696" stroke="#087f5b" stroke-width="1" fill="none"></path></g></g><g transform="translate(107.5 558.2957111046323) rotate(0 22.5 13)"><text x="0" y="18" font-family="Virgil, Segoe UI Emoji" font-size="20px" fill="#087f5b" text-anchor="start" style="white-space: pre;" direction="ltr">fast</text></g></svg>