<svg version="1.1" xmlns="http://www.w3.org/2000/svg" viewBox="0 0 1221 452" width="1221" height="452">
  <!-- svg-source:excalidraw -->
  
  <defs>
    <style>
      @font-face {
        font-family: "Virgil";
        src: url("https://excalidraw.com/FG_Virgil.woff2");
      }
      @font-face {
        font-family: "Cascadia";
        src: url("https://excalidraw.com/Cascadia.woff2");
      }
    </style>
  </defs>
  <rect x="0" y="0" width="1221" height="452" fill="#ffffff"></rect><g transform="translate(36 10) rotate(0 85 16)"><text x="0" y="24" font-family="Virgil, Segoe UI Emoji" font-size="20px" fill="#000000" text-anchor="start" style="white-space: pre;" direction="ltr">链表倒数第k个结点</text></g><g transform="translate(53 99) rotate(0 2 13)"><text x="0" y="18" font-family="Virgil, Segoe UI Emoji" font-size="20px" fill="#000000" text-anchor="start" style="white-space: pre;" direction="ltr">1</text></g><g transform="translate(137 100) rotate(0 7.5 13)"><text x="0" y="18" font-family="Virgil, Segoe UI Emoji" font-size="20px" fill="#000000" text-anchor="start" style="white-space: pre;" direction="ltr">2</text></g><g transform="translate(242 99) rotate(0 7 13)"><text x="0" y="18" font-family="Virgil, Segoe UI Emoji" font-size="20px" fill="#000000" text-anchor="start" style="white-space: pre;" direction="ltr">3</text></g><g transform="translate(355 98) rotate(0 6 13)"><text x="0" y="18" font-family="Virgil, Segoe UI Emoji" font-size="20px" fill="#000000" text-anchor="start" style="white-space: pre;" direction="ltr">4</text></g><g transform="translate(458 99) rotate(0 7 13)"><text x="0" y="18" font-family="Virgil, Segoe UI Emoji" font-size="20px" fill="#000000" text-anchor="start" style="white-space: pre;" direction="ltr">5</text></g><g transform="translate(546 95) rotate(0 24 13)"><text x="0" y="18" font-family="Virgil, Segoe UI Emoji" font-size="20px" fill="#000000" text-anchor="start" style="white-space: pre;" direction="ltr">NULL</text></g><g><g transform="translate(64 112) rotate(0 33.592290783300996 1.61272175455467)"><path d="M-0.2635421689599753 0.9559621330350636 C11.029397712523737 1.2569812333832182, 56.15513082978626 1.1202846126010022, 67.44812373556196 1.1808393117040397 M1.7989594629965722 0.41223830753937385 C13.000171493447077 0.9881601837712032, 55.870455646471434 2.4145108224389453, 66.7353432331048 2.8132052015699447" stroke="#000000" stroke-width="1" fill="none"></path></g><g transform="translate(64 112) rotate(0 33.592290783300996 1.61272175455467)"><path d="M39.795596267721514 12.826519169374512 C46.3759629766587 10.425412143745667, 54.430668775778585 6.499473601278137, 67.1992742962949 1.2295564510114492 M37.9622607349147 11.887015051669584 C45.81647939185814 9.553813026281084, 54.51787650038823 7.285001225630397, 65.9419145690091 3.2181606380455197" stroke="#000000" stroke-width="1" fill="none"></path></g><g transform="translate(64 112) rotate(0 33.592290783300996 1.61272175455467)"><path d="M40.51470068419743 -7.682086127525727 C46.791021200536356 -4.461168543290407, 54.64854350816138 -2.763503189746884, 67.1992742962949 1.2295564510114492 M38.681365151390615 -8.621590245230655 C46.33821756603554 -5.112028881864241, 54.83498769563122 -1.5449511400347973, 65.9419145690091 3.2181606380455197" stroke="#000000" stroke-width="1" fill="none"></path></g></g><g><g transform="translate(161 115) rotate(0 33.54901068679055 -0.8447389283226556)"><path d="M0.21776396669447418 -0.315563691034913 C11.667834153150519 -0.6775932713101307, 56.85493951874475 -1.5144906723250944, 68.22507005371153 -1.4434372905641792 M-1.1270486801303923 -1.526838574167341 C10.226287065402914 -1.7870659358861545, 55.890163897133114 -0.11852148707335201, 67.39518636828288 -0.13881661688908942" stroke="#000000" stroke-width="1" fill="none"></path></g><g transform="translate(161 115) rotate(0 33.54901068679055 -0.8447389283226556)"><path d="M38.48688533911543 9.954404541877992 C45.60515587697913 7.728222235275428, 55.58588867471073 2.686531461015135, 66.20729397041723 -0.8927539898268879 M39.75339774889933 9.77493722050447 C45.854120779324646 7.538216918688982, 52.74093102588198 4.57486052758062, 66.41729107396677 -0.12256854997947819" stroke="#000000" stroke-width="1" fill="none"></path></g><g transform="translate(161 115) rotate(0 33.54901068679055 -0.8447389283226556)"><path d="M38.880419440146625 -10.563030319652942 C46.02081764721844 -7.446016730989333, 55.89907911914474 -7.145225756207373, 66.20729397041723 -0.8927539898268879 M40.146931849930525 -10.742497641026464 C46.16999337267671 -8.169435164949624, 52.96453815378463 -6.322406198431631, 66.41729107396677 -0.12256854997947819" stroke="#000000" stroke-width="1" fill="none"></path></g></g><g><g transform="translate(267 110) rotate(0 40.21263238439337 -0.1472934673167714)"><path d="M1.1637059088796378 -1.1520724710077046 C14.52576283576588 -1.0688214119523762, 67.13121366066238 0.7812805000692605, 80.10975198708475 0.8381685677915811 M0.3155127817019818 0.8574855363741518 C13.622128306391337 0.578811149634421, 66.7489819635575 -0.7149704491719604, 79.74432631667703 -0.8443676828965545" stroke="#000000" stroke-width="1" fill="none"></path></g><g transform="translate(267 110) rotate(0 40.21263238439337 -0.1472934673167714)"><path d="M49.82544815862367 11.77877852097965 C61.3657029305577 6.540023834417912, 66.87110656310898 1.594679116417419, 80.32799442011863 -2.601346453614533 M51.819420339966214 10.809944106832809 C62.25712044597192 6.018907963134399, 70.63577779694111 2.3059467077083022, 80.02230600818991 -0.4866786645352841" stroke="#000000" stroke-width="1" fill="none"></path></g><g transform="translate(267 110) rotate(0 40.21263238439337 -0.1472934673167714)"><path d="M49.450802435235175 -8.739009931185127 C61.159401844930386 -7.933077864399257, 66.77524511813864 -6.830102683701779, 80.32799442011863 -2.601346453614533 M51.44477461657772 -9.707844345331967 C61.83576870719129 -7.440152151784389, 70.34326220181727 -4.097293533880751, 80.02230600818991 -0.4866786645352841" stroke="#000000" stroke-width="1" fill="none"></path></g></g><g><g transform="translate(376 111) rotate(0 40.02874524319543 0.21926841622219229)"><path d="M0.3335756298154593 0.42922682203352447 C13.92666372023523 0.6844394747167826, 67.73796870671212 0.9874417010694744, 81.00792638026178 1.0143016163259746 M-0.9504358938708902 -0.3910330417379737 C12.533502155207099 -0.40746599819511176, 66.18928340878338 -0.4005746176466346, 80.06404226627201 -0.5757647838816047" stroke="#000000" stroke-width="1" fill="none"></path></g><g transform="translate(376 111) rotate(0 40.02874524319543 0.21926841622219229)"><path d="M52.64459760311922 9.85050263675808 C60.81410524197135 5.368489623980398, 67.25710202957286 6.029728200279066, 79.00780521500856 -2.194466321952641 M51.57430956989458 9.976850850050738 C60.63734443751989 6.93238791152756, 67.9493398674444 4.16473840382776, 79.561140165478 -0.16307221189141274" stroke="#000000" stroke-width="1" fill="none"></path></g><g transform="translate(376 111) rotate(0 40.02874524319543 0.21926841622219229)"><path d="M52.53351183405498 -10.670405294855254 C60.64284168150062 -9.93802608057874, 67.11406719443451 -4.06208648134772, 79.00780521500856 -2.194466321952641 M51.463223800830335 -10.544057081562595 C60.35352454994813 -7.782691247730843, 67.69694645372027 -4.74491867594231, 79.561140165478 -0.16307221189141274" stroke="#000000" stroke-width="1" fill="none"></path></g></g><g><g transform="translate(480 110) rotate(0 29.66413167025894 0.3583985116671897)"><path d="M-0.002781391516327947 0.13945011533796792 C9.600950212900837 0.411263790000866, 48.74609207275013 1.3281279900143053, 58.396517479047176 1.5564522085004455 M-1.4633803514018655 -0.8329425194486976 C8.471789056522152 -0.9169157655717034, 50.51167154199133 -0.34531226792986136, 60.791643691919745 -0.3061262199244492" stroke="#000000" stroke-width="1" fill="none"></path></g><g transform="translate(480 110) rotate(0 29.66413167025894 0.3583985116671897)"><path d="M33.20771621099965 8.525881079845492 C43.94614026323652 4.1126279850640195, 54.00706617055647 2.730081245225402, 59.80861306536943 -0.17750043026721407 M32.40745939153538 9.328948720246915 C42.35173164424573 5.865279598329698, 52.24442220279823 3.801183086808435, 61.714109661728145 0.0487024013363726" stroke="#000000" stroke-width="1" fill="none"></path></g><g transform="translate(480 110) rotate(0 29.66413167025894 0.3583985116671897)"><path d="M33.39188120191109 -11.655731076853714 C44.05065753485378 -8.712575786604514, 54.044453340822955 -2.7387098727879327, 59.80861306536943 -0.17750043026721407 M32.591624382446824 -10.852663436452291 C42.302937293628695 -7.359886533803212, 52.13213243609276 -2.4658752373021944, 61.714109661728145 0.0487024013363726" stroke="#000000" stroke-width="1" fill="none"></path></g></g><g transform="translate(669 31) rotate(0 271 64)"><text x="0" y="24" font-family="Virgil, Segoe UI Emoji" font-size="20px" fill="#c92a2a" text-anchor="start" style="white-space: pre;" direction="ltr">1、定义fast指针和slow指针指向链表头部</text><text x="0" y="56" font-family="Virgil, Segoe UI Emoji" font-size="20px" fill="#c92a2a" text-anchor="start" style="white-space: pre;" direction="ltr">2、fast先移动k步</text><text x="0" y="88" font-family="Virgil, Segoe UI Emoji" font-size="20px" fill="#c92a2a" text-anchor="start" style="white-space: pre;" direction="ltr">3、slow和fast同时移动，每次移动一步，直到fast到链表尾</text><text x="0" y="120" font-family="Virgil, Segoe UI Emoji" font-size="20px" fill="#c92a2a" text-anchor="start" style="white-space: pre;" direction="ltr">4、slow指向的就是链表倒数第k个结点</text></g><g><g transform="translate(59 173) rotate(0 -0.6972097494639797 -25.564083296433083)"><path d="M-0.8081299122422934 0.36100615225732335 C-1.1287170744190613 -8.035232615843416, -1.3637827293326459 -43.022794282808896, -1.2720243867486716 -51.489172745123504 M0.9684631544910371 -0.4950695631466806 C0.4090464433593054 -8.632465936299413, -2.095887531184902 -41.54368449306115, -2.3628826534189287 -50.20856318509206" stroke="#c92a2a" stroke-width="1" fill="none"></path></g><g transform="translate(59 173) rotate(0 -0.6972097494639797 -25.564083296433083)"><path d="M8.292666322504754 -27.222234590411006 C3.5308567421121317 -33.90368919248999, 1.72203504535935 -42.44646248841087, -3.6689624788053337 -51.98781441224739 M8.216497562778766 -25.96443532357347 C4.351312972231281 -36.04367669663911, 0.5451079324930594 -44.6073092954062, -2.2209046624414626 -50.78896071182564" stroke="#c92a2a" stroke-width="1" fill="none"></path></g><g transform="translate(59 173) rotate(0 -0.6972097494639797 -25.564083296433083)"><path d="M-9.126243301451172 -26.243578872262304 C-7.707613654717628 -33.1544567419762, -3.345062881358409 -42.04395948808002, -3.6689624788053337 -51.98781441224739 M-9.20241206117716 -24.985779605424767 C-6.299295848326071 -35.49940540628718, -3.343467991722319 -44.44295283917302, -2.2209046624414626 -50.78896071182564" stroke="#c92a2a" stroke-width="1" fill="none"></path></g></g><g transform="translate(10 171) rotate(0 51.5 16)"><text x="0" y="24" font-family="Virgil, Segoe UI Emoji" font-size="20px" fill="#c92a2a" text-anchor="start" style="white-space: pre;" direction="ltr">slow、fast</text></g><g transform="translate(48.5 214.5) rotate(0 2 13)"><text x="0" y="18" font-family="Virgil, Segoe UI Emoji" font-size="20px" fill="#000000" text-anchor="start" style="white-space: pre;" direction="ltr">1</text></g><g transform="translate(132.5 215.5) rotate(0 7.5 13)"><text x="0" y="18" font-family="Virgil, Segoe UI Emoji" font-size="20px" fill="#000000" text-anchor="start" style="white-space: pre;" direction="ltr">2</text></g><g transform="translate(237.5 214.5) rotate(0 7 13)"><text x="0" y="18" font-family="Virgil, Segoe UI Emoji" font-size="20px" fill="#000000" text-anchor="start" style="white-space: pre;" direction="ltr">3</text></g><g transform="translate(350.5 213.5) rotate(0 6 13)"><text x="0" y="18" font-family="Virgil, Segoe UI Emoji" font-size="20px" fill="#000000" text-anchor="start" style="white-space: pre;" direction="ltr">4</text></g><g transform="translate(453.5 214.5) rotate(0 7 13)"><text x="0" y="18" font-family="Virgil, Segoe UI Emoji" font-size="20px" fill="#000000" text-anchor="start" style="white-space: pre;" direction="ltr">5</text></g><g transform="translate(541.5 210.5) rotate(0 24 13)"><text x="0" y="18" font-family="Virgil, Segoe UI Emoji" font-size="20px" fill="#000000" text-anchor="start" style="white-space: pre;" direction="ltr">NULL</text></g><g><g transform="translate(59.5 227.5) rotate(0 33.26980219847519 1.0199651379231227)"><path d="M0.7916147533804179 -0.7642395738512278 C11.859247170264522 -0.6798441612472137, 55.74056881902119 0.9974629716326794, 66.79153062738479 1.1749144908040763 M-0.2519262304343284 1.448930704537779 C10.60569191650177 1.694501456959794, 54.628248580054695 2.8372078199622535, 65.73403874313459 2.8041698496975007" stroke="#000000" stroke-width="1" fill="none"></path></g><g transform="translate(59.5 227.5) rotate(0 33.26980219847519 1.0199651379231227)"><path d="M36.13305973783894 12.33432750835771 C47.05203065850833 9.376422457603264, 55.0033665139592 7.542022262574817, 67.46570588363335 4.1087088652141395 M38.074005289569634 11.717055100609905 C44.92375099926207 10.662680199101361, 52.48301846505299 6.911716271448887, 66.50399908231572 3.5597024617902937" stroke="#000000" stroke-width="1" fill="none"></path></g><g transform="translate(59.5 227.5) rotate(0 33.26980219847519 1.0199651379231227)"><path d="M36.41117329588848 -8.1849964384654 C47.352087196781476 -4.3256826044564125, 55.21104911427645 0.6553014286480172, 67.46570588363335 4.1087088652141395 M38.352118847619174 -8.802268846213206 C45.273227819650835 -4.31354244185432, 52.757365438517034 -2.5213977273557866, 66.50399908231572 3.5597024617902937" stroke="#000000" stroke-width="1" fill="none"></path></g></g><g><g transform="translate(156.5 230.5) rotate(0 33.705337458476436 -0.33879072096198115)"><path d="M-0.7642395738512278 -0.20846937261521814 C10.486822505419452 -0.4908408975849549, 56.83079630496601 -0.9315629856040082, 68.17491449080407 -0.9026143964380027 M1.0353959205374124 -1.3635197385773064 C12.085244302613042 -1.5022685659552615, 55.85334549612055 0.7704432351763051, 67.31869913484901 0.6859382966533305" stroke="#000000" stroke-width="1" fill="none"></path></g><g transform="translate(156.5 230.5) rotate(0 33.705337458476436 -0.33879072096198115)"><path d="M38.533109974305404 10.531110003423198 C49.09562789029511 5.856469189599673, 60.65780518029978 5.3556749290887185, 68.62323815036565 0.08875630032271165 M37.9158375665576 10.17471560912232 C50.09103225674604 6.343736791674671, 59.57013314456093 3.7234922477273873, 68.0742317469418 1.0006566278636457" stroke="#000000" stroke-width="1" fill="none"></path></g><g transform="translate(156.5 230.5) rotate(0 33.705337458476436 -0.33879072096198115)"><path d="M39.04540462696164 -9.98370309771665 C49.561025178147624 -7.364244738950411, 60.94097319740103 -0.5676771948130002, 68.62323815036565 0.08875630032271165 M38.428132219213836 -10.340097492017527 C50.41252323154928 -6.548605232034665, 59.701361596309795 -1.5497967947067188, 68.0742317469418 1.0006566278636457" stroke="#000000" stroke-width="1" fill="none"></path></g></g><g><g transform="translate(262.5 225.5) rotate(0 38.66016554049213 -0.15410902267322513)"><path d="M-0.20846937261521814 0.17491449080407628 C12.84249243574838 0.18569934330880652, 65.73510368106267 -0.8435447577387094, 79.097385603562 -0.6995304588228464 M-1.7770545225776733 -0.7788593468628824 C11.05514094636465 -0.5580446985922753, 64.61991424466794 0.4671710326708853, 78.20046758180484 0.47064130151644346" stroke="#000000" stroke-width="1" fill="none"></path></g><g transform="translate(262.5 225.5) rotate(0 38.66016554049213 -0.15410902267322513)"><path d="M50.189838675681884 10.58222862021453 C59.15347343596186 8.43667432234719, 72.40870408446416 4.491393403900863, 77.60328558547423 1.8984964262135327 M49.833444281381006 11.068421322530277 C58.1571612083342 7.276680953206738, 67.56825232965143 5.484171009015544, 78.51518591301516 0.23920715464279052" stroke="#000000" stroke-width="1" fill="none"></path></g><g transform="translate(262.5 225.5) rotate(0 38.66016554049213 -0.15410902267322513)"><path d="M50.416012044669074 -9.937733562815936 C59.16618988665853 -4.574033390702329, 72.33864834315534 -1.0096669206649205, 77.60328558547423 1.8984964262135327 M50.059617650368196 -9.451540860500188 C58.45245406893502 -7.094887423969415, 67.79575284122755 -2.7368216195002812, 78.51518591301516 0.23920715464279052" stroke="#000000" stroke-width="1" fill="none"></path></g></g><g><g transform="translate(371.5 226.5) rotate(0 40.72638822790236 0.02504357404455959)"><path d="M0.17491449080407628 0.09738560356199732 C13.685699343308805 0.29300085939466947, 66.65645524226129 0.8509991947561503, 80.30046954117715 0.9652221623808146 M-1.1923941308632493 -0.8970908999070526 C12.776031480394304 -1.0044098865613342, 68.80997537549585 -0.6086494397744537, 82.64517058666796 -0.6506109511479736" stroke="#000000" stroke-width="1" fill="none"></path></g><g transform="translate(371.5 226.5) rotate(0 40.72638822790236 0.02504357404455959)"><path d="M54.59062192896378 8.372171437582189 C62.722737172754066 8.82087509667996, 69.08659335580926 4.084307858316781, 84.07302571136505 -0.6558866979554296 M55.076814631279525 9.380104921041244 C64.44021113306306 6.589919272546749, 75.97758273434873 2.398276317982768, 82.4137364397943 -0.20831468924880037" stroke="#000000" stroke-width="1" fill="none"></path></g><g transform="translate(371.5 226.5) rotate(0 40.72638822790236 0.02504357404455959)"><path d="M54.64296407815548 -12.148970408944223 C62.72705992595354 -6.85077029252958, 69.07854695940061 -6.737917368578995, 84.07302571136505 -0.6558866979554296 M55.12915678047123 -11.141036925485167 C64.27538646249026 -6.405716859444414, 75.79356308315305 -3.0718201449937945, 82.4137364397943 -0.20831468924880037" stroke="#000000" stroke-width="1" fill="none"></path></g></g><g><g transform="translate(475.5 225.5) rotate(0 29.327298239236654 0.7003454737943287)"><path d="M0.09738560356199732 -0.6995304588228464 C10.126334192728002 -0.3786459728882809, 50.01766586142281 1.866481009222021, 59.96522216238081 2.1002214064114693 M-1.3106256839074195 1.5476121049560607 C8.662999625758578 1.5384718460223477, 49.40082156971718 0.47567608636190545, 59.52391833400354 0.5231218068898624" stroke="#000000" stroke-width="1" fill="none"></path></g><g transform="translate(475.5 225.5) rotate(0 29.327298239236654 0.7003454737943287)"><path d="M30.762338340883378 12.572568470317513 C41.44397491996865 9.29516703112796, 46.91442976748655 6.467641485407377, 59.518642587196084 1.857547664180488 M31.770271824342434 10.529748522381873 C38.321448748798744 9.415456695907583, 43.482699776134524 6.303507805675839, 59.96621459590271 0.6059799418822831" stroke="#000000" stroke-width="1" fill="none"></path></g><g transform="translate(475.5 225.5) rotate(0 29.327298239236654 0.7003454737943287)"><path d="M30.50732446699526 -7.6082727884464845 C41.29045100616195 -5.182219415345536, 46.832979800654826 -2.3060831931087398, 59.518642587196084 1.857547664180488 M31.515257950454316 -9.651092736382125 C38.10524594314364 -6.659674822166696, 43.31839939946851 -5.66426020153023, 59.96621459590271 0.6059799418822831" stroke="#000000" stroke-width="1" fill="none"></path></g></g><g><g transform="translate(344 414) rotate(0 1.1219178203493243 -25.6581730212923)"><path d="M-0.2982126172631979 0.17875208817422394 C0.3057237648715575 -8.274812551711996, 2.2941135390351213 -41.37869056897859, 2.542048257961869 -49.588539922609925 M1.746087029334158 -0.7730070108734071 C2.3340687232774995 -9.085325338498999, 1.5599042780759433 -43.13392632946993, 1.8785781297646462 -51.495098130758855" stroke="#e67700" stroke-width="1" fill="none"></path></g><g transform="translate(344 414) rotate(0 1.1219178203493243 -25.6581730212923)"><path d="M10.62939565457952 -27.042830341880858 C9.020929214011028 -34.260435918668854, 8.0939198582743 -37.99635133407078, 2.9271334834210574 -52.67962178213522 M9.798754728553712 -28.91097053365195 C6.781424625379508 -37.632555306679336, 3.1604220055691563 -46.572025741923284, 0.8820478306896984 -51.00916477756575" stroke="#e67700" stroke-width="1" fill="none"></path></g><g transform="translate(344 414) rotate(0 1.1219178203493243 -25.6581730212923)"><path d="M-6.485118248693281 -27.118797898913073 C-4.501058804102794 -34.277928861497934, -1.8362594387532214 -37.99790102923241, 2.9271334834210574 -52.67962178213522 M-7.315759174719089 -28.986938090684163 C-3.6083521819053614 -37.823525399501065, -0.504356819095376 -46.73314505016103, 0.8820478306896984 -51.00916477756575" stroke="#e67700" stroke-width="1" fill="none"></path></g></g><g><g transform="translate(543 410) rotate(0 0.09604863727463453 -25.57060958737509)"><path d="M-0.11534948386251931 -0.034935527667403266 C0.05710974099735419 -8.355692316715917, 1.7781081275393567 -40.842575547719996, 1.827143966779113 -49.333579605445266 M-1.6350466922298075 -1.0988806250318885 C-1.617567663130661 -9.818666980129978, 0.6004960255449018 -42.926350922050574, 1.3133490857109429 -51.10628364708275" stroke="#e67700" stroke-width="1" fill="none"></path></g><g transform="translate(543 410) rotate(0 0.09604863727463453 -25.57060958737509)"><path d="M8.043206585628024 -25.6617193437137 C6.608957564891238 -37.22430713931456, 1.3786654363543374 -44.521479766986005, 1.819308289177716 -51.949573102481665 M8.159176630024842 -27.671706264927266 C4.530285341474883 -35.15176112229176, 3.3753541229673276 -44.798631166043066, 2.061670787483454 -50.869417386204006" stroke="#e67700" stroke-width="1" fill="none"></path></g><g transform="translate(543 410) rotate(0 0.09604863727463453 -25.57060958737509)"><path d="M-9.014224087502651 -26.928795786182228 C-4.198661139324706 -38.01119618795228, -3.185381239986669 -44.84457780366097, 1.819308289177716 -51.949573102481665 M-8.898254043105833 -28.938782707395795 C-6.065200604217906 -36.038339977942144, -0.7598871481824201 -45.20532392415882, 2.061670787483454 -50.869417386204006" stroke="#e67700" stroke-width="1" fill="none"></path></g></g><g transform="translate(336 416) rotate(0 19 13)"><text x="0" y="18" font-family="Virgil, Segoe UI Emoji" font-size="20px" fill="#e67700" text-anchor="start" style="white-space: pre;" direction="ltr">slow</text></g><g transform="translate(523 414) rotate(0 22.5 13)"><text x="0" y="18" font-family="Virgil, Segoe UI Emoji" font-size="20px" fill="#e67700" text-anchor="start" style="white-space: pre;" direction="ltr">fast</text></g><g transform="translate(40.5 327.5) rotate(0 2 13)"><text x="0" y="18" font-family="Virgil, Segoe UI Emoji" font-size="20px" fill="#000000" text-anchor="start" style="white-space: pre;" direction="ltr">1</text></g><g transform="translate(124.5 328.5) rotate(0 7.5 13)"><text x="0" y="18" font-family="Virgil, Segoe UI Emoji" font-size="20px" fill="#000000" text-anchor="start" style="white-space: pre;" direction="ltr">2</text></g><g transform="translate(229.5 327.5) rotate(0 7 13)"><text x="0" y="18" font-family="Virgil, Segoe UI Emoji" font-size="20px" fill="#000000" text-anchor="start" style="white-space: pre;" direction="ltr">3</text></g><g transform="translate(342.5 326.5) rotate(0 6 13)"><text x="0" y="18" font-family="Virgil, Segoe UI Emoji" font-size="20px" fill="#000000" text-anchor="start" style="white-space: pre;" direction="ltr">4</text></g><g transform="translate(445.5 327.5) rotate(0 7 13)"><text x="0" y="18" font-family="Virgil, Segoe UI Emoji" font-size="20px" fill="#000000" text-anchor="start" style="white-space: pre;" direction="ltr">5</text></g><g transform="translate(533.5 323.5) rotate(0 24 13)"><text x="0" y="18" font-family="Virgil, Segoe UI Emoji" font-size="20px" fill="#000000" text-anchor="start" style="white-space: pre;" direction="ltr">NULL</text></g><g><g transform="translate(51.5 340.5) rotate(0 32.7790703730937 1.2632972049154318)"><path d="M-0.18777244649827485 0.8362350817769764 C11.053701446826258 0.8225397503624358, 55.99097516772648 0.7623213247706493, 67.30363245643676 0.8423046585172416 M-1.7454917102493346 0.22965455437079063 C9.377234688258419 0.3256369221645096, 55.010118261830264 1.8686168084976573, 66.51499403243885 2.2969398554600775" stroke="#000000" stroke-width="1" fill="none"></path></g><g transform="translate(51.5 340.5) rotate(0 32.7790703730937 1.2632972049154318)"><path d="M39.377736222800756 12.075696475693366 C45.863792942345555 10.091636329943217, 54.867554384722595 7.869501800054, 66.774636434149 3.495312806237489 M37.97229221263989 11.887882000656209 C44.42437987407813 9.494363659511382, 52.05871950170194 7.813466497965581, 65.89190456526354 3.145269836317748" stroke="#000000" stroke-width="1" fill="none"></path></g><g transform="translate(51.5 340.5) rotate(0 32.7790703730937 1.2632972049154318)"><path d="M40.092339934147006 -8.433066137432995 C46.53066182862591 -4.513790352382658, 55.32868951181379 -0.8314707607450877, 66.774636434149 3.495312806237489 M38.68689592398614 -8.620880612470152 C44.86852332054734 -6.237378368241342, 52.33633502302848 -3.1390088803413114, 65.89190456526354 3.145269836317748" stroke="#000000" stroke-width="1" fill="none"></path></g></g><g><g transform="translate(148.5 343.5) rotate(0 33.82921221444383 -0.88474054077642)"><path d="M0.8362350817769764 0.3036324564367532 C11.989206417029102 0.28295641181369613, 56.595654658103975 -0.2539986626555523, 67.84230465851724 -0.3118287142366172 M-0.1838802296295763 -0.58256444927305 C10.716379767817758 -0.9322276691223186, 55.49475448465596 -1.8562711723272998, 66.81146914061159 -2.0731135379895567" stroke="#000000" stroke-width="1" fill="none"></path></g><g transform="translate(148.5 343.5) rotate(0 33.82921221444383 -0.88474054077642)"><path d="M39.33970947880252 8.491892505981037 C50.546297679005455 5.004120364828638, 61.5425128620401 0.6543483535107057, 68.009842091389 -3.4124065615609287 M39.15189500376536 8.499367987349638 C45.83911284591902 6.788631715909045, 53.29459447285548 2.7356532511580065, 67.65979912146926 -2.3366075573861598" stroke="#000000" stroke-width="1" fill="none"></path></g><g transform="translate(148.5 343.5) rotate(0 33.82921221444383 -0.88474054077642)"><path d="M38.925278475692295 -12.025130897268772 C50.256019194848385 -7.780058281781956, 61.40849132749693 -4.3940975219292016, 68.009842091389 -3.4124065615609287 M38.73746400065514 -12.01765541590017 C45.46352214743239 -8.612978129460242, 53.0223309384962 -7.550591602977272, 67.65979912146926 -2.3366075573861598" stroke="#000000" stroke-width="1" fill="none"></path></g></g><g><g transform="translate(254.5 338.5) rotate(0 39.346036026244974 -0.7795241225143457)"><path d="M0.3036324564367532 -0.15769534148275843 C13.61628974514703 -0.24437867440283284, 66.41266800401112 0.26388828717172147, 79.68817128576339 0.3161350842565298 M-0.9960992332734168 -1.2860893411003054 C12.235181843197594 -1.8239136756025256, 65.65319983716432 -2.1139935738407076, 79.10141574716195 -1.6404687452875077" stroke="#000000" stroke-width="1" fill="none"></path></g><g transform="translate(254.5 338.5) rotate(0 39.346036026244974 -0.7795241225143457)"><path d="M50.533833545617085 9.448352033889611 C59.302792300437204 6.997208271502858, 67.08406543474145 3.7741678028741266, 77.76212272359058 -2.654009558986872 M50.54130902698569 8.297313177644034 C59.129869065021396 6.017127862954096, 65.37830051940576 3.719495579784973, 78.83792172776535 -0.7602790387161076" stroke="#000000" stroke-width="1" fill="none"></path></g><g transform="translate(254.5 338.5) rotate(0 39.346036026244974 -0.7795241225143457)"><path d="M50.76537866942856 -11.07155023784352 C59.61149255458845 -7.687226801210077, 67.32692530128033 -5.075385942607939, 77.76212272359058 -2.654009558986872 M50.77285415079716 -12.222589094089097 C59.29682362280651 -8.991025939415854, 65.48306921262913 -5.777646621541684, 78.83792172776535 -0.7602790387161076" stroke="#000000" stroke-width="1" fill="none"></path></g></g><g><g transform="translate(363.5 339.5) rotate(0 39.80825547957795 0.1464859611354825)"><path d="M-0.15769534148275843 0.6881712857633828 C13.255621325597167 0.7970079008489847, 67.76388828717172 0.9515100661665201, 81.31613508425653 0.9566521469503642 M-1.6996241251006723 0.0038572654500603765 C11.510162503384054 -0.2357991483435035, 66.83881076898426 -0.4553703608736396, 80.534060539864 -0.6636802246794105" stroke="#000000" stroke-width="1" fill="none"></path></g><g transform="translate(363.5 339.5) rotate(0 39.80825547957795 0.1464859611354825)"><path d="M53.58322834517497 10.375800003738378 C64.39146147167006 6.259115216241401, 74.38277889409595 0.7738203280467033, 79.52051972616464 -1.292298306711018 M52.432189488929396 10.579170173474823 C61.275112435977874 6.156109489810518, 70.04396668621608 3.374247980963511, 81.4142502464354 -1.0263543166220188" stroke="#000000" stroke-width="1" fill="none"></path></g><g transform="translate(363.5 339.5) rotate(0 39.80825547957795 0.1464859611354825)"><path d="M53.39949954404662 -10.144586106505146 C64.32757681031396 -6.674924721379229, 74.38681624549804 -4.574114880084649, 79.52051972616464 -1.292298306711018 M52.24846068780104 -9.941215936768701 C61.21159096430294 -8.231739217355564, 70.03534854541506 -4.881532474780069, 81.4142502464354 -1.0263543166220188" stroke="#000000" stroke-width="1" fill="none"></path></g></g><g><g transform="translate(467.5 338.5) rotate(0 29.773487314199997 1.1363606145251879)"><path d="M0.6881712857633828 0.3161350842565298 C10.630341234182318 0.5452520683600407, 50.118176732833184 1.226754859186163, 59.95665214695036 1.2170065631383067 M-0.40967751855030654 -0.5634979418478907 C9.431610363976409 -0.102583641073962, 49.554100648618 2.5500937075572216, 59.510849060472104 2.836219170898289" stroke="#000000" stroke-width="1" fill="none"></path></g><g transform="translate(467.5 338.5) rotate(0 29.773487314199997 1.1363606145251879)"><path d="M31.843142000852684 13.125243622598893 C40.759097686323855 9.739128785722375, 48.33194153040219 4.6988367564563545, 58.8822309784405 2.8127814231664843 M32.046512170589125 12.00670697053308 C40.07100590625849 9.495227575894717, 49.78624485423931 6.642009286540242, 59.148174968529496 2.1951270092503137" stroke="#000000" stroke-width="1" fill="none"></path></g><g transform="translate(467.5 338.5) rotate(0 29.773487314199997 1.1363606145251879)"><path d="M32.85064122450292 -7.032046158064846 C41.41236543174003 -3.855162342840165, 48.6574670533787 -2.3382334869728654, 58.8822309784405 2.8127814231664843 M33.05401139423937 -8.15058281013066 C40.69272108875666 -3.97343162213906, 50.07364765273225 -0.13797815525873514, 59.148174968529496 2.1951270092503137" stroke="#000000" stroke-width="1" fill="none"></path></g></g><g><g transform="translate(46 294) rotate(0 1.1104268678463995 -24.935939160250143)"><path d="M0.555496883019805 -0.8099597509950399 C0.8536742882182201 -8.955100084965427, 2.635254136348764 -41.380917642141384, 2.832859718427062 -49.42853180728853 M-0.612005982734263 1.3792074343934657 C-0.49030672861884045 -7.0727638267104815, 2.0801436889792484 -42.52732261604319, 2.3220656069740655 -51.25108575489372" stroke="#e67700" stroke-width="1" fill="none"></path></g><g transform="translate(46 294) rotate(0 1.1104268678463995 -24.935939160250143)"><path d="M8.280678544228582 -25.934234533446173 C7.8659827239116815 -36.97996984556485, 5.592511932871635 -44.92076448022418, 4.0939044414833194 -50.81870515871793 M10.130237284151523 -27.884299713174144 C6.800956032256048 -34.78455460634112, 5.1591756245806994 -40.28808575095384, 1.7288369585573675 -50.991173477321865" stroke="#e67700" stroke-width="1" fill="none"></path></g><g transform="translate(46 294) rotate(0 1.1104268678463995 -24.935939160250143)"><path d="M-8.810301473474812 -26.83465623992749 C-2.6152642221239613 -37.61106026335245, 1.7251826918747781 -45.20340705825482, 4.0939044414833194 -50.81870515871793 M-6.9607427335518715 -28.78472141965546 C-5.63067134299741 -35.50597652578044, -2.620493789386675 -40.76442377692177, 1.7288369585573675 -50.991173477321865" stroke="#e67700" stroke-width="1" fill="none"></path></g></g><g><g transform="translate(245 290) rotate(0 0.38075422085819355 -24.71300495304166)"><path d="M-0.8099597509950399 0.8328597184270621 C-0.45510008496542775 -7.636201366161308, 1.119082357858618 -41.875503806645675, 1.5714681927114724 -50.25886962451041 M0.9656726503930986 0.22450712526217087 C1.2613123522760967 -8.111443280534198, 0.8154817267817754 -40.23156651691223, 0.9234435302577912 -48.85735092615709" stroke="#e67700" stroke-width="1" fill="none"></path></g><g transform="translate(245 290) rotate(0 0.38075422085819355 -24.71300495304166)"><path d="M10.895589663221042 -24.41950115422672 C6.791045815837511 -29.8767855105884, 5.9339921666233515 -35.56636213625792, 1.355824126433581 -49.41359292460606 M8.94552448349307 -26.015791803141592 C5.159142413293377 -34.59973751456911, 2.8885521952427347 -43.87099100946444, 1.1833558078296482 -48.63180025504902" stroke="#e67700" stroke-width="1" fill="none"></path></g><g transform="translate(245 290) rotate(0 0.38075422085819355 -24.71300495304166)"><path d="M-6.2088216580043865 -24.39632284425168 C-5.977062387023102 -29.744034461889182, -2.4977056222145713 -35.43948738828999, 1.355824126433581 -49.41359292460606 M-8.158886837732357 -25.992613493166555 C-5.409341451063845 -34.67087426362321, -1.1439145908259984 -43.95098476195454, 1.1833558078296482 -48.63180025504902" stroke="#e67700" stroke-width="1" fill="none"></path></g></g><g transform="translate(38 296) rotate(0 19 13)"><text x="0" y="18" font-family="Virgil, Segoe UI Emoji" font-size="20px" fill="#e67700" text-anchor="start" style="white-space: pre;" direction="ltr">slow</text></g><g transform="translate(225 294) rotate(0 22.5 13)"><text x="0" y="18" font-family="Virgil, Segoe UI Emoji" font-size="20px" fill="#e67700" text-anchor="start" style="white-space: pre;" direction="ltr">fast</text></g></svg>