<svg version="1.1" xmlns="http://www.w3.org/2000/svg" viewBox="0 0 1382 529" width="1382" height="529">
  <!-- svg-source:excalidraw -->
  
  <defs>
    <style>
      @font-face {
        font-family: "Virgil";
        src: url("https://excalidraw.com/FG_Virgil.woff2");
      }
      @font-face {
        font-family: "Cascadia";
        src: url("https://excalidraw.com/Cascadia.woff2");
      }
    </style>
  </defs>
  <rect x="0" y="0" width="1382" height="529" fill="#ffffff"></rect><g transform="translate(89 10) rotate(0 163.5 16)"><text x="0" y="24" font-family="Virgil, Segoe UI Emoji" font-size="20px" fill="#000000" text-anchor="start" style="white-space: pre;" direction="ltr">删除链表中等于给定值val的所有结点</text></g><g transform="translate(291 110) rotate(0 2 13)"><text x="0" y="18" font-family="Virgil, Segoe UI Emoji" font-size="20px" fill="#000000" text-anchor="start" style="white-space: pre;" direction="ltr">1</text></g><g transform="translate(768 51) rotate(0 302 148)"><text x="0" y="21.6" font-family="Virgil, Segoe UI Emoji" font-size="20px" fill="#c92a2a" text-anchor="start" style="white-space: pre;" direction="ltr">1、定义一个虚拟的头结点newhead</text><text x="0" y="51.2" font-family="Virgil, Segoe UI Emoji" font-size="20px" fill="#c92a2a" text-anchor="start" style="white-space: pre;" direction="ltr">2、newhead-&gt;next=head虚拟头结点的</text><text x="0" y="80.80000000000001" font-family="Virgil, Segoe UI Emoji" font-size="20px" fill="#c92a2a" text-anchor="start" style="white-space: pre;" direction="ltr">3、定义指针cur指向虚拟头节点</text><text x="0" y="110.4" font-family="Virgil, Segoe UI Emoji" font-size="20px" fill="#c92a2a" text-anchor="start" style="white-space: pre;" direction="ltr">4、循环遍历链表</text><text x="0" y="140" font-family="Virgil, Segoe UI Emoji" font-size="20px" fill="#c92a2a" text-anchor="start" style="white-space: pre;" direction="ltr">   如果cur-&gt;next的数据域等于给定值，则删除当前结点，</text><text x="0" y="169.60000000000002" font-family="Virgil, Segoe UI Emoji" font-size="20px" fill="#c92a2a" text-anchor="start" style="white-space: pre;" direction="ltr">cur-&gt;next=cur-&gt;next-&gt;next;</text><text x="0" y="199.20000000000002" font-family="Virgil, Segoe UI Emoji" font-size="20px" fill="#c92a2a" text-anchor="start" style="white-space: pre;" direction="ltr">   如果cur-&gt;next的数据域不等于给定值，则继续遍历下一个结点，</text><text x="0" y="228.8" font-family="Virgil, Segoe UI Emoji" font-size="20px" fill="#c92a2a" text-anchor="start" style="white-space: pre;" direction="ltr">cur=cur-&gt;next;</text><text x="0" y="258.40000000000003" font-family="Virgil, Segoe UI Emoji" font-size="20px" fill="#c92a2a" text-anchor="start" style="white-space: pre;" direction="ltr">   </text><text x="0" y="288" font-family="Virgil, Segoe UI Emoji" font-size="20px" fill="#c92a2a" text-anchor="start" style="white-space: pre;" direction="ltr"></text></g><g transform="translate(189 107) rotate(0 28.5 15)"><path d="M-0.2566859498620033 1.5125142112374306 C20.997151029482485 0.9550917876884342, 44.309848787635566 -0.3219880329445004, 58.542506240308285 -1.6812740787863731 M-0.4486456625163555 -0.5747753269970417 C13.89417779929936 -0.7880551361665129, 29.72276862561703 -1.1199570440873503, 57.73779683187604 0.1908714883029461 M55.64018728584051 0.4804748073220253 C57.84421915002167 6.880396250635386, 57.004260243847966 16.896871954202652, 55.01020314544439 28.516033746302128 M56.417822886258364 -0.27145742252469063 C57.69749644137919 8.291594430804253, 57.58611717559397 16.100507337599993, 56.21491067484021 30.953185211867094 M56.70267178863287 29.669909097254276 C42.622869953140615 31.47812776494771, 32.671753115206954 32.50376706052572, 1.4245171770453453 28.868653155863285 M57.27088277414441 29.782390724867582 C37.52669305466115 30.172251828573643, 18.721639840304853 31.198389776609837, 0.9385035522282124 30.504969608038664 M-0.09096095710992813 31.223639346659184 C-1.6201372314244509 24.078853201121092, -1.4417703319340944 14.863609597086905, -0.4003426805138588 -0.9415310844779015 M0.7561638839542866 30.786842357367277 C-0.5852819461375476 22.603509284555912, -0.7288954038172961 14.208761874586344, 0.19873659685254097 -0.7857333309948444" stroke="#c92a2a" stroke-width="1" fill="none"></path></g><g><g transform="translate(198 243) rotate(0 -0.3438499906938546 -46.37846873088273)"><path d="M-1.0907798632979393 0.5652187451720239 C-1.1487056757013003 -14.705005110800267, -0.683533496161302 -76.11205986887217, -0.5259518012404443 -91.81939767748118 M0.5374219791311772 -0.18364535895176237 C0.3785638264038912 -15.73886899110861, -1.0585074505986025 -77.89981451180763, -1.2251219605188817 -93.3221562069375" stroke="#c92a2a" stroke-width="1" fill="none"></path></g><g transform="translate(198 243) rotate(0 -0.3438499906938546 -46.37846873088273)"><path d="M10.474489933707497 -64.52717525971079 C8.47900245893063 -71.9756608511809, 2.3126374922795367 -80.62882918589824, -0.8567541916947812 -91.84158729878254 M9.282748381503604 -65.08364169386172 C6.851149066072846 -73.56220510572335, 3.061012511626939 -84.2728337252454, -1.5083225709479302 -93.6988222275395" stroke="#c92a2a" stroke-width="1" fill="none"></path></g><g transform="translate(198 243) rotate(0 -0.3438499906938546 -46.37846873088273)"><path d="M-10.043508964930075 -64.16423782523083 C-6.188026754056963 -71.52970390318498, -6.5040210467850175 -80.28635789133469, -0.8567541916947812 -91.84158729878254 M-11.235250517133968 -64.72070425938176 C-6.954863131297607 -73.27339055333366, -4.03380276999675 -84.10273175310898, -1.5083225709479302 -93.6988222275395" stroke="#c92a2a" stroke-width="1" fill="none"></path></g></g><g transform="translate(195 73) rotate(0 22.5 13)"><text x="22.5" y="18" font-family="Virgil, Segoe UI Emoji" font-size="20px" fill="#c92a2a" text-anchor="middle" style="white-space: pre;" direction="ltr">head</text></g><g transform="translate(211.5 109) rotate(0 6 13)"><text x="6" y="18" font-family="Virgil, Segoe UI Emoji" font-size="20px" fill="#c92a2a" text-anchor="middle" style="white-space: pre;" direction="ltr">-1</text></g><g><g transform="translate(251 124) rotate(0 17.880792624624405 0.15059116328504274)"><path d="M0.6987356320023537 -0.9323076143860817 C6.482234380145868 -0.8975693121552467, 28.093225651482737 -0.8712439432740211, 33.97914596945047 -0.8449086561799048 M-0.39356689053587623 1.1926269427221268 C5.815747411570822 1.4499706018250436, 30.126050249558563 0.4249297747295351, 36.15515213978477 0.2489395505469294" stroke="#c92a2a" stroke-width="1" fill="none"></path></g><g transform="translate(251 124) rotate(0 17.880792624624405 0.15059116328504274)"><path d="M18.571590535776604 5.320191450838426 C22.64788046361174 6.620203809432242, 26.642108045576364 2.34707188350092, 34.78040155076422 -0.33674306043423696 M19.9249091520588 7.3631180086661665 C26.564267746152492 4.997352925330013, 33.304655824644755 1.9045932858509413, 36.74879150844179 -0.4350960063096134" stroke="#c92a2a" stroke-width="1" fill="none"></path></g><g transform="translate(251 124) rotate(0 17.880792624624405 0.15059116328504274)"><path d="M18.15058791137336 -6.643108068101636 C22.222841989886895 -2.476196109817235, 26.31804541924847 -3.879977023267665, 34.78040155076422 -0.33674306043423696 M19.503906527655555 -4.600181510273895 C26.331673156041283 -2.345068146755228, 33.23480125032783 -0.8133731158536719, 36.74879150844179 -0.4350960063096134" stroke="#c92a2a" stroke-width="1" fill="none"></path></g></g><g transform="translate(186 247) rotate(0 14.5 13)"><text x="0" y="18" font-family="Virgil, Segoe UI Emoji" font-size="20px" fill="#c92a2a" text-anchor="start" style="white-space: pre;" direction="ltr">cur</text></g><g transform="translate(341 110) rotate(0 7.5 13)"><text x="0" y="18" font-family="Virgil, Segoe UI Emoji" font-size="20px" fill="#000000" text-anchor="start" style="white-space: pre;" direction="ltr">2</text></g><g transform="translate(405 110) rotate(0 7 13)"><text x="0" y="18" font-family="Virgil, Segoe UI Emoji" font-size="20px" fill="#000000" text-anchor="start" style="white-space: pre;" direction="ltr">3</text></g><g transform="translate(470 111) rotate(0 5 13)"><text x="0" y="18" font-family="Virgil, Segoe UI Emoji" font-size="20px" fill="#000000" text-anchor="start" style="white-space: pre;" direction="ltr">6</text></g><g transform="translate(532 110) rotate(0 6 13)"><text x="0" y="18" font-family="Virgil, Segoe UI Emoji" font-size="20px" fill="#000000" text-anchor="start" style="white-space: pre;" direction="ltr">4</text></g><g transform="translate(597 109) rotate(0 7 13)"><text x="0" y="18" font-family="Virgil, Segoe UI Emoji" font-size="20px" fill="#000000" text-anchor="start" style="white-space: pre;" direction="ltr">5</text></g><g transform="translate(666 110) rotate(0 5 13)"><text x="0" y="18" font-family="Virgil, Segoe UI Emoji" font-size="20px" fill="#000000" text-anchor="start" style="white-space: pre;" direction="ltr">6</text></g><g><g transform="translate(303 121) rotate(0 16.742227666275596 0.4704581793403264)"><path d="M0.017290078103542328 -0.5906398639082908 C5.3416793609658875 -0.6622334823012351, 27.052016062041123 -0.8660025462508202, 32.82312928289175 -0.7263855323195457 M-1.4327713602315635 1.713670262200758 C4.1639010073213525 1.8088577423524113, 28.975705625660094 0.43292290518991655, 34.91722669278271 0.429687314433977" stroke="#000000" stroke-width="1" fill="none"></path></g><g transform="translate(303 121) rotate(0 16.742227666275596 0.4704581793403264)"><path d="M18.29683725693668 5.077230469185698 C24.00849581263277 5.298650493973389, 31.275891912691428 2.512773232975551, 33.422486022980884 -0.7971846897620707 M18.99425894906218 6.919731059159923 C22.215019118240622 5.273746619360956, 27.00242911451507 4.149088680129221, 35.68083831884898 -0.37351084076799446" stroke="#000000" stroke-width="1" fill="none"></path></g><g transform="translate(303 121) rotate(0 16.742227666275596 0.4704581793403264)"><path d="M17.930449593586 -6.545681040301719 C23.75004533590854 -1.98819916502187, 31.154128264398395 -0.4379617849332538, 33.422486022980884 -0.7971846897620707 M18.6278712857115 -4.703180450327495 C21.95891618476333 -3.63945723353578, 26.831704969177046 -2.055644886801064, 35.68083831884898 -0.37351084076799446" stroke="#000000" stroke-width="1" fill="none"></path></g></g><g><g transform="translate(361 121) rotate(0 17.903268976383856 -0.2427521554101162)"><path d="M1.013954745233059 -0.9904928550124168 C6.855097669859728 -0.8137115344405174, 30.074937036136788 0.31900469213724136, 35.71939569562674 0.3496235981583595 M0.08714225714094948 1.103894450766966 C5.774363928384459 0.9678537128400059, 29.488160111155985 -1.4199410562682897, 35.14903297220357 -1.5893987615872176" stroke="#000000" stroke-width="1" fill="none"></path></g><g transform="translate(361 121) rotate(0 17.903268976383856 -0.2427521554101162)"><path d="M17.71892371207803 6.58076604880028 C25.407061130787163 2.6871935443982338, 29.412244973503682 1.4204796768921635, 35.78821484410204 -0.14126035043038399 M18.291584642998423 4.7465625070557795 C24.43813092317631 3.0017885084289055, 31.350116421355075 -0.5150089217940528, 34.62852418879979 -2.3188824456464503" stroke="#000000" stroke-width="1" fill="none"></path></g><g transform="translate(361 121) rotate(0 17.903268976383856 -0.2427521554101162)"><path d="M16.881532947336023 -5.360613909008228 C24.79705995427672 -5.009595265580645, 29.100392462579194 -2.0246423490943815, 35.78821484410204 -0.14126035043038443 M17.454193878256415 -7.194817450752728 C23.797838231967088 -4.614579544172925, 31.01316231173548 -3.8057008251724738, 34.62852418879979 -2.31888244564645" stroke="#000000" stroke-width="1" fill="none"></path></g></g><g><g transform="translate(430 119) rotate(0 13.993225373239284 0.5497677668929128)"><path d="M-1.1998407706618308 -0.7138406172394752 C3.285831337670485 -0.5354993080099424, 21.98622741450866 1.483525747557481, 26.999565233290195 1.813376151025295 M0.37110409540124234 1.5257891133707018 C5.213732771795864 1.3046273581466328, 24.48537793817309 -0.08154644675242409, 29.186291517140344 0.11782388153485945" stroke="#000000" stroke-width="1" fill="none"></path></g><g transform="translate(430 119) rotate(0 13.993225373239284 0.5497677668929128)"><path d="M15.305698654204582 4.050819850674696 C21.06416181813837 4.810099507193263, 24.43145880820005 2.74420551321363, 30.579055461396162 1.391617395117572 M16.364188856438957 5.077463594522904 C19.45843824861948 3.7216317307928004, 22.60179337621337 2.9436582124998996, 28.93661789056666 0.0009977258739243267" stroke="#000000" stroke-width="1" fill="none"></path></g><g transform="translate(430 119) rotate(0 13.993225373239284 0.5497677668929128)"><path d="M15.079370474404639 -5.529176580996328 C20.96668764860157 -1.8253515265983282, 24.403496295427484 -0.9489631041791406, 30.579055461396162 1.3916173951175725 M16.137860676639015 -4.50253283714812 C19.37544891793002 -3.4567370882372948, 22.575553197508697 -1.8326382088501147, 28.93661789056666 0.0009977258739242156" stroke="#000000" stroke-width="1" fill="none"></path></g></g><g><g transform="translate(490 120) rotate(0 17.86702069193126 -0.8441797867417336)"><path d="M-0.4277392253279686 -0.20014580637216572 C5.608942506213983 -0.536282544831435, 30.418282776574294 -1.2720919822653134, 36.161780609190465 -1.4882137671113014 M1.5485589520353824 -1.3508263000566512 C7.533977303824699 -1.5715670780061433, 30.011762365323182 -0.35886348473218577, 35.823669965388255 -0.20710074362345043" stroke="#000000" stroke-width="1" fill="none"></path></g><g transform="translate(490 120) rotate(0 17.86702069193126 -0.8441797867417336)"><path d="M18.852791609443216 6.8090347155616415 C23.331699801316134 2.192611563641034, 28.241680303005325 3.307235156807361, 36.22272213212771 1.083071643796186 M19.50276592229741 5.420273399708743 C26.279891350804288 2.9443181808188177, 32.452872214501426 0.5930423190899179, 36.56262013048055 0.6064300432366425" stroke="#000000" stroke-width="1" fill="none"></path></g><g transform="translate(490 120) rotate(0 17.86702069193126 -0.8441797867417336)"><path d="M19.334519247806064 -5.156862444722825 C23.7239603756854 -6.2433776329195, 28.491763371919266 -1.597128960972138, 36.22272213212771 1.083071643796186 M19.98449356066026 -6.545623760575723 C26.668369285086495 -4.400541666054703, 32.655339694832875 -2.1314017877259115, 36.56262013048055 0.6064300432366425" stroke="#000000" stroke-width="1" fill="none"></path></g></g><g><g transform="translate(553 122) rotate(0 20.354883664744023 -0.15415403545740958)"><path d="M0.9482685193419458 1.0696971550583838 C7.154289780557156 1.2219972744584082, 32.17230826467276 0.7922440186142921, 38.35137182325125 0.4692801609635353 M-0.013029237342998323 0.5856842161249372 C6.490631897198036 0.41230964641086776, 33.98665123467334 -1.3082510833907872, 40.72279656683095 -1.4069225033093244" stroke="#000000" stroke-width="1" fill="none"></path></g><g transform="translate(553 122) rotate(0 20.354883664744023 -0.15415403545740958)"><path d="M24.431967864795 4.968864050631058 C30.568108344430065 1.3727743852673524, 35.47918392539453 1.0508677603781773, 40.15298502990045 -0.07962167554534982 M22.72152678664249 5.217580550939423 C29.38036623651051 3.8011741077721113, 36.02450458593609 0.938357453799349, 40.127561576245355 -0.7451530605833979" stroke="#000000" stroke-width="1" fill="none"></path></g><g transform="translate(553 122) rotate(0 20.354883664744023 -0.15415403545740958)"><path d="M23.87418475418859 -8.358254130338878 C30.18013071805207 -6.722033409462789, 35.31037993304639 -1.8072219134087633, 40.15298502990045 -0.07962167554534982 M22.16374367603608 -8.109537630030514 C29.010153954459525 -4.89021749892048, 35.84846538604752 -3.113654500955956, 40.127561576245355 -0.7451530605833979" stroke="#000000" stroke-width="1" fill="none"></path></g></g><g><g transform="translate(617 123) rotate(0 20.274328675628624 -0.7904987299302633)"><path d="M0.814485467970371 -0.7719756022095681 C7.566428023080031 -1.152897903819879, 34.06612677325805 -2.9945280606547993, 40.76570574194193 -3.0181307211518287 M-0.21704839068464943 1.4371332612913101 C6.4216427170454216 1.2355944995364796, 33.38722446026591 -1.3280785042761516, 40.21965579283424 -2.0152240985352545" stroke="#000000" stroke-width="1" fill="none"></path></g><g transform="translate(617 123) rotate(0 20.274328675628624 -0.7904987299302633)"><path d="M20.85903062102116 7.882469062011483 C26.306248222331206 5.401236474414356, 35.61865547622129 0.3149186524637466, 41.81973924082704 -0.3871060380060225 M22.749368717788823 6.392738133918288 C25.997023330153134 4.661058492499129, 31.324282904967138 1.9111753322636647, 39.89184444365092 -1.7968605266232043" stroke="#000000" stroke-width="1" fill="none"></path></g><g transform="translate(617 123) rotate(0 20.274328675628624 -0.7904987299302633)"><path d="M19.54573890603312 -5.752325453855762 C25.331507477274247 -3.863373065624204, 35.065705770688126 -4.570592103270598, 41.81973924082704 -0.3871060380060225 M21.436077002800783 -7.242056381948957 C25.109654126305394 -5.645348483961396, 30.75780995251593 -5.063637910093634, 39.89184444365092 -1.7968605266232043" stroke="#000000" stroke-width="1" fill="none"></path></g></g><g transform="translate(112 348) rotate(0 2 13)"><text x="0" y="18" font-family="Virgil, Segoe UI Emoji" font-size="20px" fill="#000000" text-anchor="start" style="white-space: pre;" direction="ltr">1</text></g><g transform="translate(10 345) rotate(0 28.5 15)"><path d="M-1.5090025886893272 -1.0639586225152016 C17.610697286948565 0.4499167447164655, 32.71584790721536 -0.7768066878244281, 58.63430628925562 1.5988886579871178 M-0.7178712971508503 -0.3653847686946392 C17.481897975131872 1.0142599469050766, 33.25284568369389 0.29633618649095295, 57.41487146541476 0.2605070360004902 M57.98404345661402 0.7616942152380943 C56.708748475834724 12.00246923789382, 57.48701991252601 23.74839410185814, 58.38599643856287 29.434085868299007 M57.057767163962126 0.4787716157734394 C57.966290071234106 7.702623203396797, 57.69002552293241 15.275035124272108, 56.587982308119535 29.493995238095522 M55.05598507076502 30.455350898206234 C36.47162009216845 29.965270694606005, 15.732569139450788 28.523474630229174, -0.6620799526572227 30.73860528320074 M56.233349930495024 29.034494925290346 C36.540006348863244 30.48531797979027, 16.31212831288576 31.125296746231616, 0.8562278859317303 30.976281810551882 M0.03714451938867569 31.003095410764217 C0.35638235695660114 21.639429200440645, -1.5533497463911772 11.663237050175667, 1.3594618812203407 -1.415531612932682 M0.41520024463534355 30.13100879266858 C0.0298521239310503 23.164950631558895, -0.6078549902886152 15.094571944326162, -0.00609980896115303 -0.4438783638179302" stroke="#c92a2a" stroke-width="1" fill="none"></path></g><g><g transform="translate(233 471) rotate(0 -0.042638825601898134 -45.67463585356717)"><path d="M-0.9054015532135964 -0.6383751735091209 C-0.8033073956767719 -15.984630046784877, -0.07234589805205667 -77.47551153749227, -0.00800045877695088 -92.99014562219381 M0.8201239020097999 1.6408739150594922 C0.9052962034412968 -13.420297018485144, -0.12644636348200344 -75.70907830645329, -0.43524616326205434 -91.44754682262428" stroke="#e67700" stroke-width="1" fill="none"></path></g><g transform="translate(233 471) rotate(0 -0.042638825601898134 -45.67463585356717)"><path d="M9.25299599734259 -61.787247650599284 C7.876752137730923 -69.67433101157238, 3.9804054554910167 -75.79488696196239, 1.1636424947250634 -91.49313712646253 M9.951569851163152 -62.928749878233475 C8.246425302578132 -71.64152734776954, 4.6735538452192 -77.97583687872978, -0.17473912726156415 -90.51241204296238" stroke="#e67700" stroke-width="1" fill="none"></path></g><g transform="translate(233 471) rotate(0 -0.042638825601898134 -45.67463585356717)"><path d="M-11.265072242087514 -61.42825167857583 C-7.5442323586805635 -69.24965970068058, -6.346225511279638 -75.45934940264327, 1.1636424947250634 -91.49313712646253 M-10.566498388266952 -62.569753906210025 C-6.8207949775697365 -71.23055944306353, -4.9456644074850855 -77.66019036396187, -0.17473912726156415 -90.51241204296238" stroke="#e67700" stroke-width="1" fill="none"></path></g></g><g transform="translate(16 311) rotate(0 22.5 13)"><text x="22.5" y="18" font-family="Virgil, Segoe UI Emoji" font-size="20px" fill="#c92a2a" text-anchor="middle" style="white-space: pre;" direction="ltr">head</text></g><g transform="translate(32.5 347) rotate(0 6 13)"><text x="6" y="18" font-family="Virgil, Segoe UI Emoji" font-size="20px" fill="#c92a2a" text-anchor="middle" style="white-space: pre;" direction="ltr">-1</text></g><g><g transform="translate(72 362) rotate(0 17.580209859283627 0.11696152929928871)"><path d="M0.009854377806186587 0.4806710824370384 C5.828553626437982 0.4787684544920921, 28.282240515450635 1.0652546510100365, 34.27382031828165 0.9805837735533716 M-1.444110803185031 -0.3125805446226151 C4.8188842621662955 -0.7211143040377648, 30.4142979171096 -0.8919098689872773, 36.60453052175231 -0.6271844941098244" stroke="#c92a2a" stroke-width="1" fill="none"></path></g><g transform="translate(72 362) rotate(0 17.580209859283627 0.11696152929928871)"><path d="M20.78502947032242 4.086476164901526 C25.54363664470099 5.118451553717929, 28.151015697785457 1.6913544096835962, 35.21722227715887 -1.8834592641238128 M19.48267242206051 5.009399514211239 C24.77002779844771 3.75964455744007, 29.577768946531634 1.9154041870882939, 36.606315869456154 -0.1966654818411917" stroke="#c92a2a" stroke-width="1" fill="none"></path></g><g transform="translate(72 362) rotate(0 17.580209859283627 0.11696152929928871)"><path d="M20.939485018567403 -7.883232355912266 C25.758921788766845 -3.8970954564763454, 28.32818089299534 -4.370043773752216, 35.21722227715887 -1.8834592641238128 M19.637127970305492 -6.960309006602554 C24.94505485264338 -5.055637676573583, 29.712102906730717 -3.7463204086032005, 36.606315869456154 -0.1966654818411917" stroke="#c92a2a" stroke-width="1" fill="none"></path></g></g><g transform="translate(221 475) rotate(0 14.5 13)"><text x="0" y="18" font-family="Virgil, Segoe UI Emoji" font-size="20px" fill="#e67700" text-anchor="start" style="white-space: pre;" direction="ltr">cur</text></g><g transform="translate(162 348) rotate(0 7.5 13)"><text x="0" y="18" font-family="Virgil, Segoe UI Emoji" font-size="20px" fill="#000000" text-anchor="start" style="white-space: pre;" direction="ltr">2</text></g><g transform="translate(226 348) rotate(0 7 13)"><text x="0" y="18" font-family="Virgil, Segoe UI Emoji" font-size="20px" fill="#000000" text-anchor="start" style="white-space: pre;" direction="ltr">3</text></g><g transform="translate(291 349) rotate(0 5 13)"><text x="0" y="18" font-family="Virgil, Segoe UI Emoji" font-size="20px" fill="#000000" text-anchor="start" style="white-space: pre;" direction="ltr">6</text></g><g transform="translate(353 348) rotate(0 6 13)"><text x="0" y="18" font-family="Virgil, Segoe UI Emoji" font-size="20px" fill="#000000" text-anchor="start" style="white-space: pre;" direction="ltr">4</text></g><g transform="translate(418 347) rotate(0 7 13)"><text x="0" y="18" font-family="Virgil, Segoe UI Emoji" font-size="20px" fill="#000000" text-anchor="start" style="white-space: pre;" direction="ltr">5</text></g><g transform="translate(487 348) rotate(0 5 13)"><text x="0" y="18" font-family="Virgil, Segoe UI Emoji" font-size="20px" fill="#000000" text-anchor="start" style="white-space: pre;" direction="ltr">6</text></g><g><g transform="translate(124 359) rotate(0 16.876375426352013 -0.5196927362540862)"><path d="M-0.8614455565810204 -0.43846172243356707 C4.976542835930983 -0.16743344217538836, 28.94141340007385 0.632901631295681, 34.61419640928507 0.674872599542141 M0.8871567968744785 -1.7142580720502885 C6.6570678066431235 -1.7065721964556726, 28.197036566159998 -1.5512482240516694, 33.98860406053252 -1.0933940344769508" stroke="#000000" stroke-width="1" fill="none"></path></g><g transform="translate(124 359) rotate(0 16.876375426352013 -0.5196927362540862)"><path d="M17.17904010845772 4.966648824348226 C23.095788515415112 1.6663150772452422, 26.173699852856796 2.1619470404788057, 34.43146602173336 0.49633509094826866 M18.123914256714794 3.9866593416995553 C22.563827723398493 2.7373915135116325, 27.21853576785996 1.6051698472597309, 33.7480905545596 -1.6208408533874898" stroke="#000000" stroke-width="1" fill="none"></path></g><g transform="translate(124 359) rotate(0 16.876375426352013 -0.5196927362540862)"><path d="M17.630385027562866 -6.6532737072880614 C23.335174698333965 -6.871500470421614, 26.293243952901793 -3.290521447593213, 34.43146602173336 0.49633509094826866 M18.57525917581994 -7.6332631899367325 C22.884928218168362 -5.521049891881596, 27.40915474570015 -3.294011146962045, 33.7480905545596 -1.6208408533874898" stroke="#000000" stroke-width="1" fill="none"></path></g></g><g><g transform="translate(182 359) rotate(0 17.6182054385543 -0.10527554601432598)"><path d="M-0.43846172243356707 0.6141964092850685 C5.665899891157944 0.6203127518296241, 29.79956829796235 -0.8053557261824608, 35.67487259954214 -0.8247475013136863 M1.532207143949345 -0.10895442117936915 C7.620837315864241 0.10474074940197164, 29.678222785439967 0.5254093057941646, 35.08113525067456 0.27968531171791255" stroke="#000000" stroke-width="1" fill="none"></path></g><g transform="translate(182 359) rotate(0 17.6182054385543 -0.10527554601432598)"><path d="M19.578446303665118 7.374745028165249 C21.14339369084958 4.8294722952723905, 26.691714599493586 4.208713602325016, 36.71762111508288 0.08884616545401514 M18.569633600938545 6.476771713771938 C23.80292408057353 4.553788628605404, 29.104776911519316 2.4114995599862303, 34.53817529003136 0.8094251037109641" stroke="#000000" stroke-width="1" fill="none"></path></g><g transform="translate(182 359) rotate(0 17.6182054385543 -0.10527554601432598)"><path d="M19.486949398801436 -4.595610309335233 C20.986160717425996 -4.4983891338196065, 26.554677302644983 -2.476988234112695, 36.71762111508288 0.08884616545401514 M18.478136696074863 -5.4935836237285445 C23.797791665389465 -3.8233661427988377, 29.127112236798816 -2.372106182006037, 34.53817529003136 0.8094251037109643" stroke="#000000" stroke-width="1" fill="none"></path></g></g><g><g transform="translate(251 357) rotate(0 14.465862695844862 1.1181911264639268)"><path d="M0.6141964092850685 0.674872599542141 C5.286979418496291 0.8835102344552676, 22.52797760715087 0.707074779768785, 27.175252498686312 0.8133640870451928 M-0.5224892051797361 -0.016423231037333563 C4.605483595055217 0.41861691040607796, 24.701546981952465 1.7843658273698144, 29.454214596869424 2.2528054839652034" stroke="#000000" stroke-width="1" fill="none"></path></g><g transform="translate(251 357) rotate(0 14.465862695844862 1.1181911264639268)"><path d="M16.73472095022098 5.005034023960545 C18.82511153050387 5.632086918732806, 22.490485049099185 5.513098297858321, 29.301445943975285 2.25566386149417 M16.015884295056672 6.149876191529593 C20.697699473864354 5.173418991622712, 25.168112566425496 2.9560634327300863, 29.878276619738106 2.308440368771672" stroke="#000000" stroke-width="1" fill="none"></path></g><g transform="translate(251 357) rotate(0 14.465862695844862 1.1181911264639268)"><path d="M17.50685339012603 -4.546477247615667 C19.3861336426916 -1.7356945418975953, 22.875296600936093 0.32509464007304456, 29.301445943975285 2.25566386149417 M16.78801673496172 -3.4016350800466193 C21.23657824245319 -1.0436819111986542, 25.437361009286423 0.0743710197600636, 29.878276619738106 2.308440368771672" stroke="#000000" stroke-width="1" fill="none"></path></g></g><g><g transform="translate(311 358) rotate(0 17.19170303600373 -0.5033519259560819)"><path d="M0.674872599542141 -0.8247475013136863 C6.550176901121934 -1.0108059431115786, 29.04040811310212 -0.6599724476536115, 34.813364087045194 -0.502154241502285 M-0.4299580150377005 1.3566561151575298 C5.309359756059324 0.7547847396166375, 27.910503503528115 -1.8653811944493401, 33.767334769116715 -2.3633599670697003" stroke="#000000" stroke-width="1" fill="none"></path></g><g transform="translate(311 358) rotate(0 17.19170303600373 -0.5033519259560819)"><path d="M16.80793935981033 4.996114558651701 C22.849585318055777 3.6251888537599797, 27.911556360992734 0.9675225823976039, 33.77090692165379 -1.501970570134811 M18.238663892167143 5.328621188617531 C23.954585957826726 2.425007239420462, 28.1316962122863 0.6224692997752603, 33.83686242699158 -2.312793071681571" stroke="#000000" stroke-width="1" fill="none"></path></g><g transform="translate(311 358) rotate(0 17.19170303600373 -0.5033519259560819)"><path d="M15.588575019814012 -6.9172353889663825 C22.012452703995816 -5.156309400920904, 27.39567933319926 -4.675266349496726, 33.77090692165379 -1.501970570134811 M17.019299552170825 -6.584728759000552 C23.132069894409064 -5.461822706503777, 27.721428589069674 -3.236639174903166, 33.83686242699158 -2.312793071681571" stroke="#000000" stroke-width="1" fill="none"></path></g></g><g><g transform="translate(374 360) rotate(0 19.336549128592026 -0.7708727546707053)"><path d="M-0.8247475013136863 -0.1866359129548072 C5.655860723555088 -0.24701327234506598, 32.67336088567973 0.3033126458525658, 39.49784575849772 0.3126084432005882 M0.9431213311571627 -1.3302237125951797 C7.255527585269883 -1.8279314374644309, 32.31075648170896 -2.05387142685242, 38.81116931808181 -1.6458468728978188" stroke="#000000" stroke-width="1" fill="none"></path></g><g transform="translate(374 360) rotate(0 19.336549128592026 -0.7708727546707053)"><path d="M20.048584195318053 5.448387434744562 C27.30710210137915 4.382501876063771, 33.06905764782424 0.3556999507596563, 39.770611688280475 -0.903195013040677 M20.418940448014418 5.315061340985175 C25.368962022623045 2.1820833717885924, 31.534297248241746 1.0602155388816588, 38.86749230294488 -1.1790445475187155" stroke="#000000" stroke-width="1" fill="none"></path></g><g transform="translate(374 360) rotate(0 19.336549128592026 -0.7708727546707053)"><path d="M20.327169269316617 -7.887488665630784 C27.56285296859255 -4.271955479102909, 33.22697416349388 -3.615423973000995, 39.770611688280475 -0.903195013040677 M20.69752552201298 -8.02081475939017 C25.580712956704627 -7.324696310639877, 31.666073877028488 -4.618191677938368, 38.86749230294488 -1.1790445475187155" stroke="#000000" stroke-width="1" fill="none"></path></g></g><g><g transform="translate(438 361) rotate(0 19.28442497330252 -0.9567161717498607)"><path d="M-0.1866359129548072 0.49784575849771495 C6.419653394321601 0.4889972979823748, 33.6366459791859 -0.46193871746460596, 40.31260844320059 -0.8778382644057274 M-1.7437584965955466 -0.28638916363008327 C4.672811408188815 -0.5305153177150835, 32.73226624930588 -2.3458797559111066, 39.528682412253694 -2.41127810199745" stroke="#000000" stroke-width="1" fill="none"></path></g><g transform="translate(438 361) rotate(0 19.28442497330252 -0.9567161717498607)"><path d="M21.83959742843659 5.728988733083703 C29.529626223246005 2.3043971937710293, 34.26057329433711 0.7922646263397359, 40.29037662749179 -2.6698143439460544 M21.7028527168885 4.925017595232227 C26.107647781146326 3.439801769575375, 32.54572013993667 0.5313018357029353, 40.007454028027134 -1.6266131023038177" stroke="#000000" stroke-width="1" fill="none"></path></g><g transform="translate(438 361) rotate(0 19.28442497330252 -0.9567161717498607)"><path d="M21.274618854813696 -7.957250919572049 C29.07185116863295 -6.505386174626887, 34.00406585836647 -3.1419411685660776, 40.29037662749179 -2.6698143439460544 M21.137874143265606 -8.761222057423526 C25.75329575404095 -6.006100779687187, 32.366428557192975 -4.6738749460837425, 40.007454028027134 -1.6266131023038177" stroke="#000000" stroke-width="1" fill="none"></path></g></g><g><g transform="translate(234 345) rotate(0 59.4952499416936 -19.16017181957605)"><path d="M0.0036817654967307156 0.12250229269266133 C9.485262515644234 -6.0931073372562725, 38.03395116577546 -36.54327685286601, 57.70817056745291 -36.89853848069906 C77.38238996913036 -37.25380010853211, 107.94970197131235 -8.136142780880132, 118.04899817556142 -2.0090674743056294 M-1.453524036956951 -0.8587879489827901 C7.772865318205827 -7.41822488645402, 36.29065665885496 -38.382420412398254, 56.60691465173848 -38.442845931844786 C76.923172644622 -38.50327145129132, 110.18093979055372 -7.255370181199784, 120.4440239203442 -1.2213410656619816" stroke="#e67700" stroke-width="1" fill="none"></path></g><g transform="translate(234 345) rotate(0 59.4952499416936 -19.16017181957605)"><path d="M91.88409274653186 -10.229839129480542 C104.13537982977871 -8.191296155251537, 111.20945944290129 -4.628333976584941, 121.88387951825746 -1.9517741944361477 M91.84277495205988 -10.681096086385669 C101.30561099268145 -6.893523246324957, 113.02142398024696 -4.567548348349101, 120.16418397624977 -1.3752824473846703" stroke="#e67700" stroke-width="1" fill="none"></path></g><g transform="translate(234 345) rotate(0 59.4952499416936 -19.16017181957605)"><path d="M104.09152453396418 -26.725250962503278 C111.90205801790302 -18.612329578358217, 114.48107023538348 -8.975363530618555, 121.88387951825746 -1.9517741944361477 M104.0502067394922 -27.176507919408404 C109.02142611078207 -17.315394313708907, 116.3044514777225 -8.999571702980358, 120.16418397624977 -1.3752824473846703" stroke="#e67700" stroke-width="1" fill="none"></path></g></g><g transform="translate(706 365) rotate(0 2 13)"><text x="0" y="18" font-family="Virgil, Segoe UI Emoji" font-size="20px" fill="#000000" text-anchor="start" style="white-space: pre;" direction="ltr">1</text></g><g transform="translate(604 362) rotate(0 28.5 15)"><path d="M-1.8604452386498451 -1.5521148666739464 C23.749184525385502 1.6086635674163698, 42.48066334947944 -2.1193287288025022, 57.792705081403255 0.6669844165444374 M0.23819415643811226 -0.1298745758831501 C17.937944941595198 0.29168503288179637, 33.29118770062924 0.21294932369142772, 57.4125745780766 -0.6125416643917561 M55.75159218162298 -1.8938008770346642 C57.22632571645081 10.068944100290537, 57.00451561398804 16.077442556619644, 55.460429452359676 29.390094853937626 M57.034067917615175 0.4924512021243572 C55.98425264693797 8.1807631701231, 56.76851089335978 15.01361783221364, 57.90088074281812 30.414336573332548 M55.74457290023565 29.278467275202274 C36.2816726770252 30.046501900441946, 17.16669573262334 29.98548653293401, -1.881772018969059 30.98287234455347 M57.064335752278566 29.551098238676786 C38.304888936504724 30.295796590708196, 21.82417823523283 29.51015933122486, 0.8444061763584614 30.330538999289274 M-0.20010659843683243 30.65438685566187 C-0.1168836522847414 21.362808059901, 1.3309992384165525 16.773721024394035, 0.7834346517920494 1.1740766540169716 M-0.5019349567592144 29.097702275961637 C-0.5808704156428576 18.798630572855473, -0.39671745486557486 6.264951173216101, 0.8067495115101337 0.6056701056659222" stroke="#c92a2a" stroke-width="1" fill="none"></path></g><g><g transform="translate(712 491) rotate(0 -0.3088566329470268 -46.07484090101906)"><path d="M-1.116267143189907 -0.9312689200043678 C-1.0910737539331117 -16.354509438574315, 0.22770102570454276 -76.31045488268137, 0.11796246916055675 -91.83365115076303 M0.4985538772959264 1.1942109516542407 C0.4664525071003786 -14.594363090964034, -0.27887480475318943 -77.59236690786668, -0.2431526981573553 -93.34389275369234" stroke="#e67700" stroke-width="1" fill="none"></path></g><g transform="translate(712 491) rotate(0 -0.3088566329470268 -46.07484090101906)"><path d="M8.625170856673542 -63.34853241012712 C8.858435283743741 -74.96170036068143, 2.033139487935114 -81.2396308978225, 0.4238317183870821 -93.3391217371542 M10.047411147464338 -64.3874556475999 C8.120622830780867 -72.17383519109936, 5.8005866409182865 -76.87609930017962, -0.8556943625491114 -93.34257460814901" stroke="#e67700" stroke-width="1" fill="none"></path></g><g transform="translate(712 491) rotate(0 -0.3088566329470268 -46.07484090101906)"><path d="M-11.89570722198243 -63.2320623849004 C-5.563635182082615 -74.68895928042309, -6.289438334999443 -81.00150861210426, 0.4238317183870821 -93.3391217371542 M-10.473466931191634 -64.27098562237317 C-7.9860499577966095 -72.13129588261928, -5.892312749546691 -76.85861117601304, -0.8556943625491114 -93.34257460814901" stroke="#e67700" stroke-width="1" fill="none"></path></g></g><g transform="translate(610 328) rotate(0 22.5 13)"><text x="22.5" y="18" font-family="Virgil, Segoe UI Emoji" font-size="20px" fill="#c92a2a" text-anchor="middle" style="white-space: pre;" direction="ltr">head</text></g><g transform="translate(626.5 364) rotate(0 6 13)"><text x="6" y="18" font-family="Virgil, Segoe UI Emoji" font-size="20px" fill="#c92a2a" text-anchor="middle" style="white-space: pre;" direction="ltr">-1</text></g><g><g transform="translate(666 379) rotate(0 18.199533423082926 0.017865634812039843)"><path d="M1.1663488492369651 -0.774698482453823 C6.976485914488634 -0.8817550525069235, 28.22391317139069 0.3460295334458351, 33.92955347150564 0.4756230488419533 M0.3195432657469066 1.4329808689188215 C6.56948100144354 1.4740873477887364, 30.32534871741819 -1.3787281732726842, 36.0795235804189 -1.397249599294737" stroke="#c92a2a" stroke-width="1" fill="none"></path></g><g transform="translate(666 379) rotate(0 18.199533423082926 0.017865634812039843)"><path d="M18.956705159446546 4.1460726029091495 C24.27066613610299 4.555330648886902, 27.1379862516059 0.9057656374013443, 35.4305918582622 -0.9804098255280405 M19.267467572758296 5.70852557437876 C24.979117554754406 3.119272038515877, 29.209474060511205 1.2908750246399388, 35.215225219530986 -1.9434280198346823" stroke="#c92a2a" stroke-width="1" fill="none"></path></g><g transform="translate(666 379) rotate(0 18.199533423082926 0.017865634812039843)"><path d="M18.131754129258592 -7.79617318200994 C23.74043766526837 -4.739046434141625, 26.791222151916035 -5.732724571363815, 35.4305918582622 -0.9804098255280405 M18.442516542570342 -6.233720210540329 C24.48938342698737 -5.396062011515747, 28.95651122528355 -3.796884700556829, 35.215225219530986 -1.9434280198346823" stroke="#c92a2a" stroke-width="1" fill="none"></path></g></g><g transform="translate(699 493) rotate(0 14.5 13)"><text x="0" y="18" font-family="Virgil, Segoe UI Emoji" font-size="20px" fill="#e67700" text-anchor="start" style="white-space: pre;" direction="ltr">cur</text></g><g transform="translate(756 365) rotate(0 7.5 13)"><text x="0" y="18" font-family="Virgil, Segoe UI Emoji" font-size="20px" fill="#000000" text-anchor="start" style="white-space: pre;" direction="ltr">2</text></g><g transform="translate(820 365) rotate(0 7 13)"><text x="0" y="18" font-family="Virgil, Segoe UI Emoji" font-size="20px" fill="#000000" text-anchor="start" style="white-space: pre;" direction="ltr">3</text></g><g transform="translate(885 366) rotate(0 5 13)"><text x="0" y="18" font-family="Virgil, Segoe UI Emoji" font-size="20px" fill="#000000" text-anchor="start" style="white-space: pre;" direction="ltr">6</text></g><g transform="translate(947 365) rotate(0 6 13)"><text x="0" y="18" font-family="Virgil, Segoe UI Emoji" font-size="20px" fill="#000000" text-anchor="start" style="white-space: pre;" direction="ltr">4</text></g><g transform="translate(1012 364) rotate(0 7 13)"><text x="0" y="18" font-family="Virgil, Segoe UI Emoji" font-size="20px" fill="#000000" text-anchor="start" style="white-space: pre;" direction="ltr">5</text></g><g transform="translate(1081 365) rotate(0 5 13)"><text x="0" y="18" font-family="Virgil, Segoe UI Emoji" font-size="20px" fill="#000000" text-anchor="start" style="white-space: pre;" direction="ltr">6</text></g><g><g transform="translate(718 376) rotate(0 16.982986815148024 0.20056702698579443)"><path d="M0.2858329877257346 -0.15584949105978008 C6.287195232013861 -0.06562212556600568, 29.557390636702376 0.07009092718362801, 34.989217053353784 0.09638244062662116 M-1.02324342305772 -1.2832744192052634 C4.9958127106695125 -0.9413099386263639, 28.52640185201851 1.2504654521774499, 34.56051054273732 1.6844084731768816" stroke="#000000" stroke-width="1" fill="none"></path></g><g transform="translate(718 376) rotate(0 16.982986815148024 0.20056702698579443)"><path d="M17.93713241642252 7.55290094222536 C21.83900941040611 3.5604127056845423, 25.233142306233912 4.89218620992202, 33.51918971327133 1.6866493206005542 M17.353053822684142 6.295102597024642 C22.965599308090674 5.129173692442794, 26.003465352035395 3.2514877954252026, 34.30130085566081 1.373603603010997" stroke="#000000" stroke-width="1" fill="none"></path></g><g transform="translate(718 376) rotate(0 16.982986815148024 0.20056702698579443)"><path d="M18.90321222174607 -4.035584795220095 C22.554325836087884 -5.5332396525416305, 25.740667558026985 -1.7089339147276805, 33.51918971327133 1.6866493206005542 M18.31913362800769 -5.293383140420812 C23.563306144650962 -3.4196524494535514, 26.34726675386725 -2.2516484430113244, 34.30130085566081 1.373603603010997" stroke="#000000" stroke-width="1" fill="none"></path></g></g><g><g transform="translate(776 376) rotate(0 16.699786618710505 -0.06699572950600441)"><path d="M-0.15584949105978008 0.9892170533537865 C5.767711207767327 0.7543768033385277, 29.236757593850292 -1.0408539190888404, 35.09638244062662 -1.123208512365818 M-1.6968092032056303 0.46295206102542563 C4.116099573693548 0.30918842795304946, 28.20993646166908 0.1662745616119356, 34.19893775832839 -0.17546773013658812" stroke="#000000" stroke-width="1" fill="none"></path></g><g transform="translate(776 376) rotate(0 16.699786618710505 -0.06699572950600441)"><path d="M19.370377932711346 6.407068805954398 C20.55239890232597 4.596700033908269, 27.190402831200707 1.8282684949608845, 34.20124451302923 -0.8261115659121425 M18.075585518534137 6.732444057892056 C21.29288865003066 4.279729239328684, 23.84268663439685 3.561200162861788, 33.878991568451745 -0.5479992657061666" stroke="#000000" stroke-width="1" fill="none"></path></g><g transform="translate(776 376) rotate(0 16.699786618710505 -0.06699572950600441)"><path d="M19.036283948861 -5.558973137795465 C20.33464671576612 -4.22281794962674, 27.060490029264407 -3.845159431503849, 34.20124451302923 -0.8261115659121423 M17.741491534683792 -5.233597885857807 C20.951329573161754 -5.275305776846544, 23.568354966097402 -3.5859914631369425, 33.878991568451745 -0.5479992657061665" stroke="#000000" stroke-width="1" fill="none"></path></g></g><g><g transform="translate(845 374) rotate(0 14.52423941602001 0.8208507009875063)"><path d="M0.9892170533537865 0.09638244062662116 C5.421043470005195 0.289340620736281, 22.292479414244493 0.9738049959143003, 26.876791487634183 1.0018995895981788 M0.04941727702505894 -0.8986207233835012 C4.809931273606295 -0.4874917505153766, 24.342412237770233 2.191129406991725, 28.999061555014922 2.540322125358507" stroke="#000000" stroke-width="1" fill="none"></path></g><g transform="translate(845 374) rotate(0 14.52423941602001 0.8208507009875063)"><path d="M15.500615978724232 4.5444461064832105 C19.802115760275854 5.247881540085859, 23.34928732126673 3.598174487402823, 28.478214631041276 1.1565630918856267 M15.761082135153538 5.896336483695443 C17.977084748651897 4.505840779848259, 21.67326320756353 4.001249720358941, 28.700846320018787 2.964789789789993" stroke="#000000" stroke-width="1" fill="none"></path></g><g transform="translate(845 374) rotate(0 14.52423941602001 0.8208507009875063)"><path d="M16.553898161393157 -4.98016163974305 C20.501954678129945 -1.1837905857118132, 23.70805301822093 0.25075527622465565, 28.478214631041276 1.1565630918856267 M16.814364317822463 -3.6282712625308178 C18.689940009594128 -2.754135047247064, 22.135880099295136 -0.9958735217366625, 28.700846320018787 2.964789789789993" stroke="#000000" stroke-width="1" fill="none"></path></g></g><g><g transform="translate(905 375) rotate(0 16.844872041107124 -0.733030098797741)"><path d="M0.09638244062662116 -1.123208512365818 C5.956007287402949 -1.372229772309462, 29.307138329247636 -0.5257088874777158, 35.00189958959818 -0.5049105063080788 M-1.312155507383868 0.9015030733030289 C4.40325109513787 0.20361340008986495, 27.707267083150022 -2.2706292651810998, 34.05485141051002 -2.367563270898536" stroke="#000000" stroke-width="1" fill="none"></path></g><g transform="translate(905 375) rotate(0 16.844872041107124 -0.733030098797741)"><path d="M16.394374931218895 4.692265904896982 C23.295637546487136 1.5787765842175752, 27.174101391307467 -0.02521151723865156, 32.32554928298282 -3.460365880958859 M18.083850373795997 3.844570870254307 C20.636731308443178 2.888352685492979, 24.27992569399637 1.3337272884648825, 34.58531431439122 -2.337741678353895" stroke="#000000" stroke-width="1" fill="none"></path></g><g transform="translate(905 375) rotate(0 16.844872041107124 -0.733030098797741)"><path d="M15.606573727551018 -7.257383697981168 C22.83245181227204 -6.9418064568992195, 26.937024483472072 -5.116095244904606, 32.32554928298282 -3.4603658809588587 M17.29604917012812 -8.105078732623843 C20.030860356838552 -6.612109882125732, 23.83579817297035 -5.713353243199761, 34.58531431439122 -2.337741678353895" stroke="#000000" stroke-width="1" fill="none"></path></g></g><g><g transform="translate(968 377) rotate(0 19.18594049066303 -0.31311653290876507)"><path d="M-1.123208512365818 0.0018995895981788191 C5.294436894357204 -0.13667248338460924, 32.807624445855616 -0.6603741034865379, 39.49508949369192 -0.7350499972701072 M0.48796828930266223 -1.042707071201876 C6.704356245743112 -1.0496617342997345, 32.515508410977205 0.13650628040544688, 38.80696601425298 0.41647400538437074" stroke="#000000" stroke-width="1" fill="none"></path></g><g transform="translate(968 377) rotate(0 19.18594049066303 -0.31311653290876507)"><path d="M20.207398098987515 7.068321712103071 C26.1194602237769 4.2042726644227795, 33.70321503878457 0.03933047548722679, 37.58976839133538 -1.4299818497244272 M19.26320893652829 5.513260642879041 C25.770901196958807 4.043516755910038, 31.54817879279523 3.137895901976491, 38.84018223392778 0.8966139274556192" stroke="#000000" stroke-width="1" fill="none"></path></g><g transform="translate(968 377) rotate(0 19.18594049066303 -0.31311653290876507)"><path d="M20.80100302508107 -6.257248977354649 C26.496752920936782 -4.0306928547738, 33.853492581795834 -3.0994736892317905, 37.58976839133538 -1.4299818497244268 M19.856813862621845 -7.812310046578679 C26.247354714139213 -5.058926303593096, 31.83652292582924 -1.741763980356494, 38.84018223392778 0.896613927455619" stroke="#000000" stroke-width="1" fill="none"></path></g></g><g><g transform="translate(1032 378) rotate(0 20.067380717666765 -0.7516643658280486)"><path d="M0.0018995895981788191 0.49508949369192123 C6.529994183282057 0.34922120819489155, 32.672959229846796 -1.3850160653392476, 39.26495000272989 -1.9984182253479958 M-1.4562418552022427 -0.29059246745891865 C5.451081111353512 -0.13367385464099543, 34.922643956563746 -0.09357271141993512, 41.59100329053588 -0.46016254243440935" stroke="#000000" stroke-width="1" fill="none"></path></g><g transform="translate(1032 378) rotate(0 20.067380717666765 -0.7516643658280486)"><path d="M23.745672849379197 5.554449675311327 C28.742026793317144 3.805587539043022, 32.51495413676068 1.070715718031944, 39.697202413501216 -0.12229788270778963 M22.150738419405833 6.474580431063652 C29.14600717501761 3.976577627406334, 36.71299325584057 1.878977161172827, 42.08345449266024 -1.3481847975868733" stroke="#000000" stroke-width="1" fill="none"></path></g><g transform="translate(1032 378) rotate(0 20.067380717666765 -0.7516643658280486)"><path d="M23.46014870559177 -8.140470279982098 C28.416267763236 -5.670865132028373, 32.27714564263543 -4.187265148994973, 39.697202413501216 -0.12229788270778963 M21.865214275618406 -7.220339524229773 C28.969291076820248 -4.87786295773593, 36.63713841387239 -2.1377400275291194, 42.08345449266024 -1.3481847975868733" stroke="#000000" stroke-width="1" fill="none"></path></g></g></svg>