<svg version="1.1" xmlns="http://www.w3.org/2000/svg" viewBox="0 0 1341 487.16103521203104" width="1341" height="487.16103521203104">
  <!-- svg-source:excalidraw -->
  
  <defs>
    <style>
      @font-face {
        font-family: "Virgil";
        src: url("https://excalidraw.com/FG_Virgil.woff2");
      }
      @font-face {
        font-family: "Cascadia";
        src: url("https://excalidraw.com/Cascadia.woff2");
      }
    </style>
  </defs>
  <rect x="0" y="0" width="1341" height="487.16103521203104" fill="#ffffff"></rect><g transform="translate(10 10) rotate(0 148 16)"><text x="0" y="24" font-family="Virgil, Segoe UI Emoji" font-size="20px" fill="#000000" text-anchor="start" style="white-space: pre;" direction="ltr">环形链表——判断链表中是否有环</text></g><g transform="translate(41 119) rotate(0 7 13)"><text x="0" y="18" font-family="Virgil, Segoe UI Emoji" font-size="20px" fill="#000000" text-anchor="start" style="white-space: pre;" direction="ltr">3</text></g><g transform="translate(129 122) rotate(0 7.5 13)"><text x="0" y="18" font-family="Virgil, Segoe UI Emoji" font-size="20px" fill="#000000" text-anchor="start" style="white-space: pre;" direction="ltr">2</text></g><g transform="translate(221 121) rotate(0 7.5 13)"><text x="0" y="18" font-family="Virgil, Segoe UI Emoji" font-size="20px" fill="#000000" text-anchor="start" style="white-space: pre;" direction="ltr">0</text></g><g transform="translate(313 124) rotate(0 6 13)"><text x="0" y="18" font-family="Virgil, Segoe UI Emoji" font-size="20px" fill="#000000" text-anchor="start" style="white-space: pre;" direction="ltr">4</text></g><g><g transform="translate(59 131) rotate(0 29.195772744035366 0.4536777346767451)"><path d="M0.26216339506208897 -0.3107569579035043 C9.98439570106566 -0.10178052621583142, 49.48288437761366 0.7784584558258454, 59.450885039940474 1.271762966737151 M-1.05933955186978 -1.5195083061419428 C8.359043425973505 -1.1714514996173482, 48.147779806908225 2.0657259333568314, 58.214554222282025 2.42686377549544" stroke="#000000" stroke-width="1" fill="none"></path></g><g transform="translate(59 131) rotate(0 29.195772744035366 0.4536777346767451)"><path d="M28.93194260951257 10.031824274826173 C39.54296630758393 7.65164088249742, 53.146573266065936 2.9571537816635542, 58.38852054996416 3.9554673199541868 M30.11907921582586 10.302947623561446 C37.20870191706221 9.018818779431708, 43.565602518943614 6.590070962220846, 59.10815208869055 3.2894731814973057" stroke="#000000" stroke-width="1" fill="none"></path></g><g transform="translate(59 131) rotate(0 29.195772744035366 0.4536777346767451)"><path d="M30.184951918915463 -10.451094707984586 C40.306443366488445 -4.776208146191998, 53.417461958675716 -1.4183627360261664, 58.38852054996416 3.9554673199541868 M31.37208852522875 -10.179971359249313 C37.972600973468204 -6.119926152814537, 44.002359980110704 -3.200896630382795, 59.10815208869055 3.2894731814973057" stroke="#000000" stroke-width="1" fill="none"></path></g></g><g><g transform="translate(145 136) rotate(0 32.811298602446925 -0.04198234358801756)"><path d="M-1.0143741253763436 -0.0534060414880515 C10.026410523677866 0.2957217875868081, 55.12086739105483 0.9565002743154765, 66.63697133027017 1.0430834714323283 M0.6539407294616102 -1.127048158608377 C11.470616030457117 -1.0002604710683225, 54.293203902406 -0.44776029344648116, 65.4983358150348 -0.5318724548444151" stroke="#000000" stroke-width="1" fill="none"></path></g><g transform="translate(145 136) rotate(0 32.811298602446925 -0.04198234358801756)"><path d="M37.17779802672198 9.01102746818617 C48.48652544602851 8.282362146563454, 56.91718288350406 5.0725387413398, 64.93678864557296 1.0247104523703456 M38.22140120762965 8.780173062164634 C48.45440453843365 5.578647230062922, 59.74789609936814 0.9253204282439826, 66.30421679839492 0.14907532110810284" stroke="#000000" stroke-width="1" fill="none"></path></g><g transform="translate(145 136) rotate(0 32.811298602446925 -0.04198234358801756)"><path d="M37.25974576675326 -11.510017508952378 C48.361363068318326 -5.412257417000163, 56.76475742527845 -1.794962694756209, 64.93678864557296 1.0247104523703456 M38.30334894766093 -11.740871914973914 C48.51892742313126 -6.925331183743039, 59.780403992694794 -3.561584206404053, 66.30421679839492 0.14907532110810284" stroke="#000000" stroke-width="1" fill="none"></path></g></g><g><g transform="translate(241 135) rotate(0 31.305576849356328 -1.4711953278537777)"><path d="M-1.0194051202386618 -0.5045590404421091 C9.588734041030207 -0.8191054308166107, 52.899368586515386 -0.7789603157589835, 63.63055881895125 -0.8952504042536022 M0.6462684622965753 -1.815056482013315 C11.065659394419441 -2.5253719791335367, 52.217918225483345 -2.2193376933100324, 62.48855673527345 -2.437831615265459" stroke="#000000" stroke-width="1" fill="none"></path></g><g transform="translate(241 135) rotate(0 31.305576849356328 -1.4711953278537777)"><path d="M33.519648545280006 7.377968947614935 C44.51114682731633 4.065306332464103, 52.39495189556054 2.3344866016441017, 62.72047242714092 -3.635469480585307 M34.167592981688585 8.303858826148716 C43.43390184345873 4.919841608138087, 53.5424247655903 1.0951695008177547, 62.633239257205275 -2.467815444041044" stroke="#000000" stroke-width="1" fill="none"></path></g><g transform="translate(241 135) rotate(0 31.305576849356328 -1.4711953278537777)"><path d="M33.39508293717797 -13.1428615861407 C44.593404830016524 -10.329470330134138, 52.514389865727026 -5.935294379952617, 62.72047242714092 -3.635469480585307 M34.04302737358655 -12.21697170760692 C43.33915175143021 -8.600546108542261, 53.4901677590454 -5.424944068351668, 62.633239257205275 -2.467815444041044" stroke="#000000" stroke-width="1" fill="none"></path></g></g><g><g transform="translate(336 134) rotate(0 -99.9101834207386 56.87577509935157)"><path d="M-0.6961264785379171 -0.3212455037981271 C-0.5777519758790731 12.90103900792698, 11.62928734458983 59.89607736232381, -0.4417138393968344 78.63125847540796 C-12.5127150233835 97.36643958849211, -49.54964326781531 106.93648595375319, -73.1221335824579 112.08984117470682 C-96.6946238971005 117.24319639566045, -121.78652637961011 112.95179650746286, -141.87665572725237 109.5513898011297 C-161.96678507489463 106.15098309479654, -183.19745492699246 106.21988581381738, -193.66290966831147 91.68740093670786 C-204.12836440963048 77.15491605959834, -202.92521455449364 33.80157337151468, -204.6693841751665 22.356480538472532 M1.1392683908902108 -1.5355033386312424 C1.1617682186327873 11.920348289950441, 10.371044331546873 60.897594765766215, -1.6216590687073769 79.97509442621842 C-13.614362468961627 99.05259408667062, -47.493061699115984 107.85538863911603, -70.81695201063529 112.929494624082 C-94.1408423221546 118.00360060904796, -120.87500122968729 113.9223084318079, -141.5650009378232 110.41973033601418 C-162.25500064595914 106.91715224022046, -184.6163548672634 106.21086899572984, -194.95695025945082 91.91402604931966 C-205.29754565163825 77.61718310290948, -202.17604045852397 36.34435992235318, -203.60857329094782 24.63867265755311" stroke="#000000" stroke-width="1" fill="none"></path></g><g transform="translate(336 134) rotate(0 -99.9101834207386 56.87577509935157)"><path d="M-192.98306398554996 51.749096699948666 C-195.17608100798668 44.86951865699376, -198.35530695293517 41.264515035129975, -204.35625695573165 25.20048987703398 M-192.55426097284362 52.49932304765588 C-195.7883943121372 44.07919871600668, -198.25773094336196 37.34937877583579, -203.31469110442325 24.62569838507101" stroke="#000000" stroke-width="1" fill="none"></path></g><g transform="translate(336 134) rotate(0 -99.9101834207386 56.87577509935157)"><path d="M-213.49368118958532 52.40832677766615 C-211.49860643530567 45.51324684613669, -210.49359956388648 41.773758137974305, -204.35625695573165 25.20048987703398 M-213.06487817687898 53.15855312537336 C-210.67644901390724 44.66782417363076, -207.52690046104848 37.757408102210334, -203.31469110442325 24.62569838507101" stroke="#000000" stroke-width="1" fill="none"></path></g></g><g transform="translate(588 54) rotate(0 371.5 64)"><text x="0" y="24" font-family="Virgil, Segoe UI Emoji" font-size="20px" fill="#c92a2a" text-anchor="start" style="white-space: pre;" direction="ltr">1、首先判断，链表为空，或者只有一个结点，返回false</text><text x="0" y="56" font-family="Virgil, Segoe UI Emoji" font-size="20px" fill="#c92a2a" text-anchor="start" style="white-space: pre;" direction="ltr">2、定义两个指针slow和fast，slow指向head-&gt;next；fast指向head-&gt;next-&gt;next</text><text x="0" y="88" font-family="Virgil, Segoe UI Emoji" font-size="20px" fill="#c92a2a" text-anchor="start" style="white-space: pre;" direction="ltr">3、循环遍历，slow!=fast，如果fast==NULL或者fats-&gt;next=NULL，返回false</text><text x="0" y="120" font-family="Virgil, Segoe UI Emoji" font-size="20px" fill="#c92a2a" text-anchor="start" style="white-space: pre;" direction="ltr">slow一次走一步，fast一次走两步</text></g><g><g transform="translate(131 63) rotate(0 0.6461469129063175 27.194210852291434)"><path d="M0.8022922631353138 1.0498338047415017 C0.8927313006172576 9.89927876231571, 1.6367082790782055 45.07867271738748, 1.527588677033782 53.83302909769118 M-0.23564302805811166 0.5553926068916919 C-0.3432447847103079 9.007663915393254, 0.3848612566416462 43.65105268223832, 0.8565272688493133 52.14779462520033" stroke="#c92a2a" stroke-width="1" fill="none"></path></g><g transform="translate(131 63) rotate(0 0.6461469129063175 27.194210852291434)"><path d="M-7.322645744416125 28.45238581684688 C-3.7395603605010166 35.47547904168617, -0.374360710954293 48.2000043902989, -1.1220889781042933 50.36293792765588 M-8.85748424298615 28.26322134317169 C-6.348977248618313 33.875769550073166, -3.474059768867936 40.0675706606586, 0.43332167431712154 51.590540961772206" stroke="#c92a2a" stroke-width="1" fill="none"></path></g><g transform="translate(131 63) rotate(0 0.6461469129063175 27.194210852291434)"><path d="M10.79660228291058 27.81960754442189 C7.460576692452431 35.205613503260274, 3.902782432635914 48.17191048165415, -1.1220889781042933 50.36293792765588 M9.261763784340555 27.630443070746697 C7.073208613044761 33.263611679109715, 5.253109276762776 39.619376803288574, 0.43332167431712154 51.590540961772206" stroke="#c92a2a" stroke-width="1" fill="none"></path></g></g><g><g transform="translate(225.5 64.5) rotate(0 0.7704359313286773 26.722841166909774)"><path d="M1.0757902141660451 0.6694280091673135 C1.227769092346231 9.708523311590156, 1.256753929083546 44.70224412518243, 1.3594305153936148 53.470408565178516 M0.18144134726375327 -0.02472623135894536 C0.16768784767637632 8.71676185303678, 0.4154308728997905 42.46699907912562, 0.6000860723480581 51.59479831311852" stroke="#c92a2a" stroke-width="1" fill="none"></path></g><g transform="translate(225.5 64.5) rotate(0 0.7704359313286773 26.722841166909774)"><path d="M-7.669880560978271 27.40657398348259 C-4.993669255344854 36.23712376439366, -2.1479026968639 42.36724852168113, -1.083708733431995 53.13572850417346 M-9.378864311060823 27.051973748594097 C-6.98172554824061 32.212079396462826, -4.12552287824537 36.95136317470436, 0.9923990060389041 50.93242050394416" stroke="#c92a2a" stroke-width="1" fill="none"></path></g><g transform="translate(225.5 64.5) rotate(0 0.7704359313286773 26.722841166909774)"><path d="M10.458904795042123 27.172695952927494 C7.0188520478269965 36.2446550426218, 3.749843895090927 42.453666026353154, -1.083708733431995 53.13572850417346 M8.74992104495957 26.818095718039 C7.302031801569675 31.863967980568965, 6.313796739748177 36.6528485468827, 0.9923990060389041 50.93242050394416" stroke="#c92a2a" stroke-width="1" fill="none"></path></g></g><g transform="translate(141 53) rotate(0 19 13)"><text x="0" y="18" font-family="Virgil, Segoe UI Emoji" font-size="20px" fill="#c92a2a" text-anchor="start" style="white-space: pre;" direction="ltr">slow</text></g><g transform="translate(239 59) rotate(0 22.5 13)"><text x="0" y="18" font-family="Virgil, Segoe UI Emoji" font-size="20px" fill="#c92a2a" text-anchor="start" style="white-space: pre;" direction="ltr">fast</text></g><g transform="translate(62.5 343) rotate(0 7 13)"><text x="0" y="18" font-family="Virgil, Segoe UI Emoji" font-size="20px" fill="#000000" text-anchor="start" style="white-space: pre;" direction="ltr">3</text></g><g transform="translate(150.5 346) rotate(0 7.5 13)"><text x="0" y="18" font-family="Virgil, Segoe UI Emoji" font-size="20px" fill="#000000" text-anchor="start" style="white-space: pre;" direction="ltr">2</text></g><g transform="translate(242.5 345) rotate(0 7.5 13)"><text x="0" y="18" font-family="Virgil, Segoe UI Emoji" font-size="20px" fill="#000000" text-anchor="start" style="white-space: pre;" direction="ltr">0</text></g><g transform="translate(334.5 348) rotate(0 6 13)"><text x="0" y="18" font-family="Virgil, Segoe UI Emoji" font-size="20px" fill="#000000" text-anchor="start" style="white-space: pre;" direction="ltr">4</text></g><g><g transform="translate(80.5 355) rotate(0 29.540050769224763 0.4711615229491031)"><path d="M-0.5788013633340597 -0.9206094983965158 C9.27770485319197 -0.7756982369969289, 49.38073721565306 0.43280345561603717, 59.658902901783584 0.901971995458007 M1.3181891915760935 1.210466569606215 C10.941339882966131 1.4608239914414785, 48.6020053849183 1.5386020580368736, 58.531781461592765 1.8629325442947446" stroke="#000000" stroke-width="1" fill="none"></path></g><g transform="translate(80.5 355) rotate(0 29.540050769224763 0.4711615229491031)"><path d="M28.647460089271608 11.106627543204004 C38.08227769357785 10.260110255906337, 49.46950021361742 5.518418892264152, 56.7200180353038 2.2305821497924625 M29.28840676156962 12.243446040645713 C36.55331294144482 8.248974021331652, 44.703286092967524 6.4220054685468515, 58.4944108347781 1.9454055736772715" stroke="#000000" stroke-width="1" fill="none"></path></g><g transform="translate(80.5 355) rotate(0 29.540050769224763 0.4711615229491031)"><path d="M28.972939364422697 -9.411999740980642 C38.30157061475652 -3.2155880302429036, 49.57704889562417 -0.9127804971147286, 56.7200180353038 2.2305821497924625 M29.61388603672071 -8.275181243538933 C36.77562499224891 -7.329519346546769, 44.84725354124859 -4.217544557543507, 58.4944108347781 1.9454055736772715" stroke="#000000" stroke-width="1" fill="none"></path></g></g><g><g transform="translate(166.5 360) rotate(0 33.55842616552485 -0.23779213333503435)"><path d="M-0.9206094983965158 -0.34109709821641443 C10.057635096336405 -0.0629314120858907, 54.59947012228271 0.9889393750578166, 65.90197199545801 1.0901927534490825 M0.7969317856058478 -1.5657770201191306 C12.128233503761392 -1.5472066005691885, 57.158073067528505 -1.0082906648144125, 68.03746182944626 -0.4600307997688651" stroke="#000000" stroke-width="1" fill="none"></path></g><g transform="translate(166.5 360) rotate(0 33.55842616552485 -0.23779213333503435)"><path d="M39.004212860769 7.1839813616621555 C50.05192128261379 6.188525237778004, 57.295500664732984 1.6848788551640075, 68.40511143494398 -1.6459238194301724 M40.14103135821071 8.549671370399302 C46.772523259871875 7.402355143732214, 55.50247219965883 3.77575374300714, 68.11993485882878 -1.404429475814104" stroke="#000000" stroke-width="1" fill="none"></path></g><g transform="translate(166.5 360) rotate(0 33.55842616552485 -0.23779213333503435)"><path d="M39.57389255568658 -13.329318407781038 C50.35021126077321 -8.119590617306628, 57.42134364174285 -6.413682647743854, 68.40511143494398 -1.6459238194301724 M40.710711053128286 -11.963628399043891 C47.253226649024036 -7.210205995545632, 55.81916343943436 -4.930979233516276, 68.11993485882878 -1.404429475814104" stroke="#000000" stroke-width="1" fill="none"></path></g></g><g><g transform="translate(262.5 359) rotate(0 32.37454782761631 -0.5828474558051653)"><path d="M-0.34109709821641443 -1.098028004541993 C10.603735254580778 -1.29552613136669, 54.322272708391154 -1.774093250806133, 65.09019275344909 -2.105598259344697 M1.6806881958805024 0.9399033477343619 C12.613536245084058 1.0180864525275926, 54.38784701134389 -0.07691541925693546, 64.71449848538265 -0.6236120942793786" stroke="#000000" stroke-width="1" fill="none"></path></g><g transform="translate(262.5 359) rotate(0 32.37454782761631 -0.5828474558051653)"><path d="M35.090775326976654 12.485476938794147 C43.828973156958746 8.348557116525686, 49.190724954736496 5.42919472842018, 63.52860546572134 -0.8655641652457415 M36.4564653357138 9.707888689609955 C47.238103593454625 6.28412340076393, 55.69387758419889 2.9916332069850506, 63.77009980933741 0.307896525990218" stroke="#000000" stroke-width="1" fill="none"></path></g><g transform="translate(262.5 359) rotate(0 32.37454782761631 -0.5828474558051653)"><path d="M34.334837705342636 -8.021803736566927 C43.10602869984832 -6.9935274562483976, 48.65810030694984 -4.749842476176682, 63.52860546572134 -0.8655641652457415 M35.70052771407978 -10.799391985751118 C46.553386234098156 -7.325130978928497, 55.263593043652776 -3.715298707146406, 63.77009980933741 0.307896525990218" stroke="#000000" stroke-width="1" fill="none"></path></g></g><g><g transform="translate(357.5 358) rotate(0 -100.10541362228616 58.83924954062613)"><path d="M-1.098028004541993 1.0901927534490825 C-0.9621927980333566 14.358112798507015, 11.892573415860536 60.57802367048959, -0.10559825934469691 79.26642317213118 C-12.10376993454993 97.95482267377278, -49.319401797031375 108.12252216575047, -73.08705805577338 113.22058976329863 C-96.85471431451539 118.3186573608468, -122.63253705936174 113.57027421630919, -142.71153581179678 109.85482875742018 C-162.79053456423182 106.13938329853117, -183.45997120576598 105.49659313596786, -193.56105057038366 90.92791700996459 C-203.66212993500133 76.35924088396132, -201.3860670292129 33.59176619686187, -203.31801199950277 22.44277200140059 M0.5263685637339948 0.6169400036707522 C0.5754959648475049 13.532385820584993, 10.772555590234697 58.27756288571904, -1.1090828091278673 77.28372058872134 C-12.990721208490433 96.28987829172362, -47.141943456170466 109.05409386241188, -70.7634618324414 114.65388622168452 C-94.38498020871232 120.25367858095716, -122.16516751630851 114.86548693779856, -142.83819306675343 110.88247474435717 C-163.51121861719835 106.89946255091577, -184.40669219239305 105.10784766200929, -194.80161513511092 90.75581306103616 C-205.1965380778288 76.40377846006304, -203.4888404824709 36.02440398100763, -205.20773072306068 24.770267138518392" stroke="#000000" stroke-width="1" fill="none"></path></g><g transform="translate(357.5 358) rotate(0 -100.10541362228616 58.83924954062613)"><path d="M-191.3756194918575 52.08311890373397 C-195.35319967831026 44.19963134854838, -198.1123559654613 38.68772170963054, -205.44968279402704 25.50184952121228 M-194.15320774104168 53.12074253363925 C-196.3056580608156 46.37515829754452, -198.32856569201476 39.67733619598368, -204.27622210279108 25.622876172214745" stroke="#000000" stroke-width="1" fill="none"></path></g><g transform="translate(357.5 358) rotate(0 -100.10541362228616 58.83924954062613)"><path d="M-211.8561158109636 53.375122351454614 C-211.25708623339733 45.390554303324706, -209.44330524508686 39.59016285058506, -205.44968279402704 25.50184952121228 M-214.63370406014778 54.4127459813599 C-212.47908088552245 47.49009117068149, -210.18757226525616 40.520095944751816, -204.27622210279108 25.622876172214745" stroke="#000000" stroke-width="1" fill="none"></path></g></g><g><g transform="translate(246.5000000000001 288) rotate(0 0.7377838363464662 25.83651021266357)"><path d="M1.0901927534490825 -0.10559825934469691 C1.358112798507015 8.729563398783405, 1.244690337156256 43.18059820296864, 1.2664231721311807 51.912941944226624 M0.20340521967038505 -1.2066412908397615 C0.36646199957157166 7.8338479860064885, 0.3970338952106735 43.806489047749594, 0.45824987387284644 52.879661716166886" stroke="#087f5b" stroke-width="1" fill="none"></path></g><g transform="translate(246.5000000000001 288) rotate(0 0.7377838363464662 25.83651021266357)"><path d="M-8.874124264355403 28.450808274668898 C-8.250838050112003 35.046095803786876, -5.138322334878855 41.191355803629314, 1.1898322565667332 51.09285673277453 M-7.83650063445012 27.581047432606365 C-5.583705340253457 37.05265098375381, -3.2234420052841717 46.777138686801976, 1.3108589075691999 53.17032727284357" stroke="#087f5b" stroke-width="1" fill="none"></path></g><g transform="translate(246.5000000000001 288) rotate(0 0.7377838363464662 25.83651021266357)"><path d="M9.256047859233535 28.384353877715878 C4.955020121619619 35.162400294655406, 3.143829958236112 41.32570766342005, 1.1898322565667332 51.09285673277453 M10.293671489138818 27.514593035653345 C6.076726574567289 36.835751171665564, 1.967558286190151 46.58395195224149, 1.3108589075691999 53.17032727284357" stroke="#087f5b" stroke-width="1" fill="none"></path></g></g><g><g transform="translate(159 291.5) rotate(0 0.21700746323909925 26.29064057772979)"><path d="M-0.10559825934469691 0.2664231721311807 C0.06289673211673905 8.954822673772773, -0.1527351303646961 44.4558554990838, -0.08705805577337733 53.220589763298634 M-1.6201760748401286 -0.639308607839048 C-0.9987425016735992 8.177368380365271, 1.3159600572412211 42.09125642432521, 2.054191001318395 51.213824640251694" stroke="#087f5b" stroke-width="1" fill="none"></path></g><g transform="translate(159 291.5) rotate(0 0.21700746323909925 26.29064057772979)"><path d="M-8.377677291426258 25.231528559084033 C-5.966877266465707 30.9064692575192, -4.308877732809597 37.86344431135854, 0.2673860179260372 52.350471307747064 M-9.24743813348879 27.005921358558332 C-6.213683010876633 32.13396861164605, -2.6069053329392453 40.0597613231546, 2.344856557995081 51.93091098055243" stroke="#087f5b" stroke-width="1" fill="none"></path></g><g transform="translate(159 291.5) rotate(0 0.21700746323909925 26.29064057772979)"><path d="M9.703320477062144 23.895460778710124 C8.356412758233642 29.833057475593, 6.2445664529983596 37.06859954364312, 0.2673860179260372 52.350471307747064 M8.833559634999611 25.669853578184423 C7.269784338869052 31.292470641289086, 6.291865869527852 39.55704248897224, 2.344856557995081 51.93091098055243" stroke="#087f5b" stroke-width="1" fill="none"></path></g></g><g transform="translate(256.5000000000001 278) rotate(0 19 13)"><text x="0" y="18" font-family="Virgil, Segoe UI Emoji" font-size="20px" fill="#087f5b" text-anchor="start" style="white-space: pre;" direction="ltr">slow</text></g><g transform="translate(172.5 286) rotate(0 22.5 13)"><text x="0" y="18" font-family="Virgil, Segoe UI Emoji" font-size="20px" fill="#087f5b" text-anchor="start" style="white-space: pre;" direction="ltr">fast</text></g><g transform="translate(475.5 346.5) rotate(0 7 13)"><text x="0" y="18" font-family="Virgil, Segoe UI Emoji" font-size="20px" fill="#000000" text-anchor="start" style="white-space: pre;" direction="ltr">3</text></g><g transform="translate(563.5 349.5) rotate(0 7.5 13)"><text x="0" y="18" font-family="Virgil, Segoe UI Emoji" font-size="20px" fill="#000000" text-anchor="start" style="white-space: pre;" direction="ltr">2</text></g><g transform="translate(655.5 348.5) rotate(0 7.5 13)"><text x="0" y="18" font-family="Virgil, Segoe UI Emoji" font-size="20px" fill="#000000" text-anchor="start" style="white-space: pre;" direction="ltr">0</text></g><g transform="translate(747.5 351.5) rotate(0 6 13)"><text x="0" y="18" font-family="Virgil, Segoe UI Emoji" font-size="20px" fill="#000000" text-anchor="start" style="white-space: pre;" direction="ltr">4</text></g><g><g transform="translate(493.5 358.5) rotate(0 29.669510698691 1.7164233154896635)"><path d="M-0.3464212831109762 1.098242950066924 C9.712797183170915 1.5661621765544016, 49.48979423679411 2.724270955349008, 59.685442680493 2.8036300774663685 M1.6725688139162957 0.6292165535129608 C11.604855686184019 0.7621611221072576, 48.76831734215841 0.7630899951296548, 58.57225462412462 1.1029611193574964" stroke="#000000" stroke-width="1" fill="none"></path></g><g transform="translate(493.5 358.5) rotate(0 29.669510698691 1.7164233154896635)"><path d="M32.05713475630517 10.403729438491048 C38.48777523588626 9.989883447425633, 43.360398403568624 5.795956623230935, 57.505215829145165 2.073288666177541 M29.634677762583742 9.98218551155913 C37.89492563683965 9.115454390480553, 43.726326686135366 6.666507078442287, 59.424233755934985 0.9876327375881373" stroke="#000000" stroke-width="1" fill="none"></path></g><g transform="translate(493.5 358.5) rotate(0 29.669510698691 1.7164233154896635)"><path d="M32.373319910407524 -10.11504316939573 C38.72609069652359 -5.51957611982383, 43.52150851413063 -4.7032771261580075, 57.505215829145165 2.073288666177541 M29.9508629166861 -10.536587096327647 C38.050602246552685 -6.602778875871152, 43.80799996211873 -4.2492945831252324, 59.424233755934985 0.9876327375881373" stroke="#000000" stroke-width="1" fill="none"></path></g></g><g><g transform="translate(579.5 363.5) rotate(0 34.00965592348945 -0.35818600479973384)"><path d="M1.098242950066924 -0.31455731950700283 C12.399495509887734 -0.11890887580811982, 56.89093762201567 0.8166189853101967, 67.80363007746637 0.827469379082322 M0.21568176951259366 -1.525303857587278 C11.429570634427172 -1.6325722327455878, 56.38256100462129 -1.2710792591795326, 67.27749040450901 -0.8606839456781745" stroke="#000000" stroke-width="1" fill="none"></path></g><g transform="translate(579.5 363.5) rotate(0 34.00965592348945 -0.35818600479973384)"><path d="M38.36212258409189 10.171228681213174 C48.80162063500552 4.958051361098107, 55.514886141761494 1.695729195820003, 68.24781795132905 -2.1796713953092697 M37.940578657159975 9.824331750615451 C46.58215954637246 6.690404208670033, 53.75315623505837 4.853652763949095, 67.16216202273965 0.12299966558814046" stroke="#000000" stroke-width="1" fill="none"></path></g><g transform="translate(579.5 363.5) rotate(0 34.00965592348945 -0.35818600479973384)"><path d="M38.77414185674451 -10.345843295674806 C49.03093794009978 -9.406771095488995, 55.620731065963355 -6.520614550978577, 68.24781795132905 -2.1796713953092697 M38.35259792981259 -10.692740226272528 C46.76515551228471 -8.538965953409702, 53.829916763228915 -5.085576214661251, 67.16216202273965 0.12299966558814046" stroke="#000000" stroke-width="1" fill="none"></path></g></g><g><g transform="translate(675.5 362.5) rotate(0 32.256456029787614 -0.810986119881278)"><path d="M-0.31455731950700283 0.8036300774663687 C10.547757790858546 0.2163225329170625, 54.14995231864352 -1.8516267581532402, 64.82746937908232 -2.4256023172289134 M1.7211613584123553 0.17993192279711367 C12.528170612907655 0.27365566556031506, 54.12505841697876 -0.8051540179612737, 64.31384533947333 -1.1116182825528087" stroke="#000000" stroke-width="1" fill="none"></path></g><g transform="translate(675.5 362.5) rotate(0 32.256456029787614 -0.810986119881278)"><path d="M37.75008921113146 11.286335807869147 C43.16594563176048 6.577049863420914, 50.373665791076235 4.97558081388154, 62.99485788984224 -1.9547994251362981 M37.40319228053374 10.224598925204884 C43.36657427332048 7.69290516284591, 50.72998523188013 4.763380173630207, 65.29752895073965 -1.7200188462622465" stroke="#000000" stroke-width="1" fill="none"></path></g><g transform="translate(675.5 362.5) rotate(0 32.256456029787614 -0.810986119881278)"><path d="M37.195410938485416 -9.227375080209924 C42.949400130685795 -8.373292611247162, 50.30751107521838 -4.4128472316308125, 62.99485788984224 -1.9547994251362981 M36.848514007887694 -10.289111962874188 C42.82365197669063 -7.889123817698719, 50.32027076263746 -5.892213080462869, 65.29752895073965 -1.7200188462622465" stroke="#000000" stroke-width="1" fill="none"></path></g></g><g><g transform="translate(770.5 361.5) rotate(0 -99.95653349846896 57.938661034896256)"><path d="M0.8036300774663687 0.827469379082322 C0.5496558662503959 14.004986439521115, 11.815039908513427 59.9580905182908, -0.4256023172289133 78.75054504312575 C-12.666244542971253 97.5429995679607, -48.91259158489605 108.458272149538, -72.64022327698767 113.58219652809203 C-96.36785496907929 118.70612090664605, -122.4450696511815 113.20953448452055, -142.79139246977866 109.4940913144499 C-163.1377152883758 105.77864814437926, -184.32756437497832 105.50672208704054, -194.7181601885706 91.28953750766814 C-205.1087560021629 77.07235292829574, -203.65146979925532 35.534653479233384, -205.1349673513323 24.19098383821547 M-0.23360286120325324 0.21628685776144252 C-0.7789348221197725 13.603868123131493, 10.65431699153036 61.602164828615884, -1.5970889974012972 80.15700644198805 C-13.848494986332954 98.7118480553602, -50.18155788266411 106.51611258768787, -73.74203879479319 111.54533653799444 C-97.30251970692227 116.57456048830102, -123.09927971883367 113.70535884682089, -142.9599744701758 110.3323501438275 C-162.82066922151796 106.95934144083411, -182.67977177544185 105.73329431239516, -192.906207302846 91.30728432003409 C-203.13264283025018 76.88127432767301, -202.67357970678557 35.3273070866242, -204.3185876346007 23.776290189661086" stroke="#000000" stroke-width="1" fill="none"></path></g><g transform="translate(770.5 361.5) rotate(0 -99.95653349846896 57.938661034896256)"><path d="M-190.6214150373997 50.42139454583076 C-197.1673531235851 39.43636827412787, -200.60403600665794 28.474601938426805, -205.1617687771842 22.57935654204339 M-191.68315192006395 51.32033145917949 C-194.53994865853792 45.518158857345774, -197.7893870041997 39.063056264758146, -204.92698819831014 23.672679371386767" stroke="#000000" stroke-width="1" fill="none"></path></g><g transform="translate(770.5 361.5) rotate(0 -99.95653349846896 57.938661034896256)"><path d="M-211.08638901366308 51.939565332238494 C-209.61589585979888 40.223092222500036, -205.0401271005982 28.66693128727916, -205.1617687771842 22.57935654204339 M-212.14812589632734 52.83850224558723 C-210.06270452434322 46.46764991409567, -208.38428371184958 39.64697970231043, -204.92698819831014 23.672679371386767" stroke="#000000" stroke-width="1" fill="none"></path></g></g><g><g transform="translate(752.5 293.5) rotate(0 0.239359644344745 25.933218637350933)"><path d="M0.827469379082322 -0.4256023172289133 C1.0049864395211139 8.167088790362081, 0.6247571849574646 43.58740841510395, 0.7505450431257487 52.35977672301233 M-0.19724792623892418 -1.6946474791131914 C-0.172055697881927 6.976074208163967, -0.5483641618924836 44.42687462125595, -0.32846427286043767 53.56108475381509" stroke="#e67700" stroke-width="1" fill="none"></path></g><g transform="translate(752.5 293.5) rotate(0 0.239359644344745 25.933218637350933)"><path d="M-10.213911101081969 28.27970741689357 C-7.892791186763068 36.41039915961936, -5.632441322363419 41.404770985833466, -1.5253979204781354 52.37698059992865 M-9.314974187733235 28.86345167365077 C-6.520856034113848 33.65889451213841, -4.5042007352658375 38.27370256772783, -0.43207509113475684 54.16327583415434" stroke="#e67700" stroke-width="1" fill="none"></path></g><g transform="translate(752.5 293.5) rotate(0 0.239359644344745 25.933218637350933)"><path d="M7.916202586964221 28.198867597770356 C5.274076436125886 36.47670983913321, 2.570638857784097 41.49321454801654, -1.5253979204781354 52.37698059992865 M8.815139500312956 28.782611854527556 C7.885783131158601 33.65220188717683, 6.178161582915703 38.28361600888718, -0.43207509113475684 54.16327583415434" stroke="#e67700" stroke-width="1" fill="none"></path></g></g><g><g transform="translate(750 226) rotate(0 1.1550058608688687 26.07808688675985)"><path d="M-0.4256023172289133 -0.24945495687425134 C-0.4995778763045867 8.542999567960699, 0.2540750817706188 44.79160548287133, 0.3597767230123282 53.58219652809203 M1.5518177368864419 -1.4260227545723319 C1.8034837204838794 6.939338144001862, 2.5463456307475765 42.6032751496012, 2.735614038966596 51.765274956561626" stroke="#e67700" stroke-width="1" fill="none"></path></g><g transform="translate(750 226) rotate(0 1.1550058608688687 26.07808688675985)"><path d="M-7.2638715828062965 25.98685882475341 C-2.1904540358423725 34.837214349543764, -0.487030220402235 44.027581859563824, 1.5515098850801587 49.873662704341115 M-6.680127326049097 27.90587675154323 C-3.0587228017370705 37.88539463101916, 0.27449525741755476 46.664084321544415, 3.337805119305849 52.130914012640716" stroke="#e67700" stroke-width="1" fill="none"></path></g><g transform="translate(750 226) rotate(0 1.1550058608688687 26.07808688675985)"><path d="M10.862461859174555 25.607921669063362 C9.286686801971948 34.53304703591115, 4.338305022471137 43.86247280062006, 1.5515098850801587 49.873662704341115 M11.446206115931755 27.526939595853182 C7.8318990923622955 37.69211510146377, 3.928202937630682 46.62209494103989, 3.337805119305849 52.130914012640716" stroke="#e67700" stroke-width="1" fill="none"></path></g></g><g transform="translate(762.5 283.5) rotate(0 19 13)"><text x="0" y="18" font-family="Virgil, Segoe UI Emoji" font-size="20px" fill="#e67700" text-anchor="start" style="white-space: pre;" direction="ltr">slow</text></g><g transform="translate(763.5 220.5) rotate(0 22.5 13)"><text x="0" y="18" font-family="Virgil, Segoe UI Emoji" font-size="20px" fill="#e67700" text-anchor="start" style="white-space: pre;" direction="ltr">fast</text></g></svg>