<svg version="1.1" xmlns="http://www.w3.org/2000/svg" viewBox="0 0 1404.5 661.5" width="1404.5" height="661.5">
  <!-- svg-source:excalidraw -->
  
  <defs>
    <style>
      @font-face {
        font-family: "Virgil";
        src: url("https://excalidraw.com/FG_Virgil.woff2");
      }
      @font-face {
        font-family: "Cascadia";
        src: url("https://excalidraw.com/Cascadia.woff2");
      }
    </style>
  </defs>
  <rect x="0" y="0" width="1404.5" height="661.5" fill="#ffffff"></rect><g transform="translate(37 10) rotate(0 178 16)"><text x="0" y="24" font-family="Virgil, Segoe UI Emoji" font-size="20px" fill="#000000" text-anchor="start" style="white-space: pre;" direction="ltr">相交链表——寻找链表的第一个公共结点</text></g><g transform="translate(326 153) rotate(0 6.5 13)"><text x="0" y="18" font-family="Virgil, Segoe UI Emoji" font-size="20px" fill="#000000" text-anchor="start" style="white-space: pre;" direction="ltr">8</text></g><g transform="translate(407 151) rotate(0 6 13)"><text x="0" y="18" font-family="Virgil, Segoe UI Emoji" font-size="20px" fill="#000000" text-anchor="start" style="white-space: pre;" direction="ltr">4</text></g><g transform="translate(496 150) rotate(0 7 13)"><text x="0" y="18" font-family="Virgil, Segoe UI Emoji" font-size="20px" fill="#000000" text-anchor="start" style="white-space: pre;" direction="ltr">5</text></g><g transform="translate(162 90) rotate(0 6 13)"><text x="0" y="18" font-family="Virgil, Segoe UI Emoji" font-size="20px" fill="#000000" text-anchor="start" style="white-space: pre;" direction="ltr">4</text></g><g transform="translate(242 91) rotate(0 2 13)"><text x="0" y="18" font-family="Virgil, Segoe UI Emoji" font-size="20px" fill="#000000" text-anchor="start" style="white-space: pre;" direction="ltr">1</text></g><g transform="translate(100 234) rotate(0 7 13)"><text x="0" y="18" font-family="Virgil, Segoe UI Emoji" font-size="20px" fill="#000000" text-anchor="start" style="white-space: pre;" direction="ltr">5</text></g><g transform="translate(175 230) rotate(0 7.5 13)"><text x="0" y="18" font-family="Virgil, Segoe UI Emoji" font-size="20px" fill="#000000" text-anchor="start" style="white-space: pre;" direction="ltr">0</text></g><g transform="translate(254 232) rotate(0 2 13)"><text x="0" y="18" font-family="Virgil, Segoe UI Emoji" font-size="20px" fill="#000000" text-anchor="start" style="white-space: pre;" direction="ltr">1</text></g><g><g transform="translate(179 102) rotate(0 24.95738648406231 -0.28808355964720533)"><path d="M0.38205992616713047 0.8146960135549308 C8.784587794914842 0.7707816676547131, 42.513994592800735 -0.9003442489852505, 50.79127031005919 -1.3908631328493355 M-0.8764973419345916 0.1968074753321707 C7.316836369093506 0.4217058460352321, 40.84772288506851 0.2080518085199099, 49.73364175921306 -0.05864102637395252" stroke="#000000" stroke-width="1" fill="none"></path></g><g transform="translate(179 102) rotate(0 24.95738648406231 -0.28808355964720533)"><path d="M27.269007128193707 8.703379375198121 C33.23870787049802 4.366446309166656, 39.90283112981152 3.88678354363698, 51.72077530128881 0.8645685123093427 M25.786469397596747 9.124585729361709 C32.66608161228695 6.950081294997391, 39.861374949657375 3.314295803697777, 50.07881699101999 -0.10502647386863817" stroke="#000000" stroke-width="1" fill="none"></path></g><g transform="translate(179 102) rotate(0 24.95738648406231 -0.28808355964720533)"><path d="M26.986671418591868 -8.740716074245316 C32.886037876707825 -7.29858788737234, 39.643710793479926 -1.998290490327867, 51.72077530128881 0.8645685123093427 M25.50413368799491 -8.31950972008173 C32.63909422561774 -5.044596982907924, 39.92258418177188 -3.2311594958218786, 50.07881699101999 -0.10502647386863817" stroke="#000000" stroke-width="1" fill="none"></path></g></g><g><g transform="translate(256 102) rotate(0 34.87429585552775 20.288511003647002)"><path d="M0.03355074562132354 -0.47195811308920377 C6.2353478455295175 0.2425182219594717, 25.056087269758187 -3.144734835997223, 36.9099230710417 3.8965622540563345 C48.76375887232522 10.937859344109892, 65.57139824467401 35.39800199232995, 71.15656555332244 41.775824427232145 M-1.407973842266947 -1.7653400678001345 C5.176745446280886 -1.3438959086500109, 26.981914217428617 -5.2121438366733495, 39.04958721971139 2.2446826886571944 C51.117260221994165 9.701509213987737, 65.69152660743022 36.1242005979456, 70.99806417142972 42.97561908418313" stroke="#000000" stroke-width="1" fill="none"></path></g><g transform="translate(256 102) rotate(0 34.87429585552775 20.288511003647002)"><path d="M46.01281520888004 23.426784382391084 C54.88890569882197 32.03946368057331, 59.673905364574566 35.68844014781433, 71.27055894387885 44.57077997641638 M45.982262926881944 24.637580052207518 C53.85729668531163 29.945645634482428, 61.51372782536396 35.41587282368974, 70.41309703039005 42.026753958296034" stroke="#000000" stroke-width="1" fill="none"></path></g><g transform="translate(256 102) rotate(0 34.87429585552775 20.288511003647002)"><path d="M63.072159829326765 12.02069988740881 C67.22105457814152 23.774005048339617, 67.31595638921408 30.558837763897323, 71.27055894387885 44.57077997641638 M63.04160754732867 13.231495557225244 C65.77134381354182 21.97007859379596, 68.30022301236973 30.868649133539588, 70.41309703039005 42.026753958296034" stroke="#000000" stroke-width="1" fill="none"></path></g></g><g><g transform="translate(121 246) rotate(0 21.35456271103584 -0.9760757986456099)"><path d="M0.4517522994428873 0.13524640761315831 C7.529001949603359 -0.04689069626231976, 36.31948306796451 -1.532826284940044, 43.47934189476073 -2.087398004904389 M-0.7702164726890623 -0.8393531737290323 C6.102067954993497 -0.737744508938243, 35.51109280969327 -0.3189832963111499, 42.78295092588291 -0.5958567062579094" stroke="#000000" stroke-width="1" fill="none"></path></g><g transform="translate(121 246) rotate(0 21.35456271103584 -0.9760757986456099)"><path d="M22.84145934659497 7.722757436171437 C30.28998254292396 4.64029160946429, 36.20594558614871 -0.11974238732575415, 44.3093222056143 -1.1278127921931445 M21.922438590447168 7.671837425627078 C30.483801894399267 3.690554335718565, 38.33992203157643 0.8125629553873948, 42.758129252363 -0.7628591858036815" stroke="#000000" stroke-width="1" fill="none"></path></g><g transform="translate(121 246) rotate(0 21.35456271103584 -0.9760757986456099)"><path d="M22.726041145823952 -6.999555632405715 C30.096939958395154 -4.419464266725814, 36.057299035686896 -3.516506567482179, 44.3093222056143 -1.1278127921931445 M21.80702038967615 -7.050475642950075 C30.494237411304816 -5.181418887932441, 38.396223447747325 -2.208928077019353, 42.758129252363 -0.7628591858036815" stroke="#000000" stroke-width="1" fill="none"></path></g></g><g><g transform="translate(196 243) rotate(0 26.787816172465682 1.6163942543230974)"><path d="M-0.8424725297838449 1.008514804020524 C8.115405141934753 1.6549396657695372, 45.37693672142923 2.379146776969234, 54.41810487471521 2.7404073778539892 M0.9160906627401708 0.4923811307922006 C9.693832823298871 0.8975467931603391, 45.12120963122696 0.8467756231004994, 53.68956447031349 1.0065465024486184" stroke="#000000" stroke-width="1" fill="none"></path></g><g transform="translate(196 243) rotate(0 26.787816172465682 1.6163942543230974)"><path d="M29.910358521243673 10.746901844194797 C38.61060533043806 6.017750208199297, 48.39804289317202 5.2597348977081975, 55.29908281017095 2.0663297618553043 M27.6748657842112 9.2769925496864 C36.193654660617206 7.708902709063009, 46.25212832444909 3.5056486806416087, 54.59917175129056 0.6596065466105938" stroke="#000000" stroke-width="1" fill="none"></path></g><g transform="translate(196 243) rotate(0 26.787816172465682 1.6163942543230974)"><path d="M30.053823289651362 -7.7342921352676175 C38.52772536298656 -5.886934219112371, 48.26410335024393 -0.06743276806626408, 55.29908281017095 2.0663297618553043 M27.81833055261889 -9.204201429776015 C36.14901722775518 -4.491286179132617, 46.15872926246848 -2.4130458971580353, 54.59917175129056 0.6596065466105938" stroke="#000000" stroke-width="1" fill="none"></path></g></g><g><g transform="translate(264 248) rotate(0 34.00130851618013 -28.781776122953744)"><path d="M-0.48931253515183926 1.1946156855672598 C6.958579204852382 0.010130762681364924, 32.398803975557286 3.5000374591598895, 43.49375801719725 -6.206751871481538 C54.58871205883722 -15.913541202122966, 62.04152444042265 -48.307069691394766, 66.08041171468794 -57.04612029828131 M1.4546596545539798 0.7761849751509726 C8.892173269248257 -0.3007867840491236, 31.632057193772248 5.166133913441252, 42.804935512598604 -4.777871352788061 C53.97781383142496 -14.721876619017374, 64.23346905594693 -50.0385337197346, 68.49192956751213 -58.8878466222249" stroke="#000000" stroke-width="1" fill="none"></path></g><g transform="translate(264 248) rotate(0 34.00130851618013 -28.781776122953744)"><path d="M69.8611561042093 -28.071361198276907 C67.42524437593534 -36.439129497074845, 69.48432227153206 -39.70940616436826, 67.42350371284411 -60.872277302276345 M68.2898211619653 -27.980358258076638 C68.86067950052067 -39.67988065951931, 69.53336253853392 -51.49735525590957, 68.71227562623099 -58.56324620412663" stroke="#000000" stroke-width="1" fill="none"></path></g><g transform="translate(264 248) rotate(0 34.00130851618013 -28.781776122953744)"><path d="M50.7271437987429 -35.48820523601289 C52.183887495074046 -42.29062345997819, 58.07998474013537 -44.07357098634574, 67.42350371284411 -60.872277302276345 M49.15580885649891 -35.39720229581262 C56.87295833059331 -44.17535934098335, 64.76551959635978 -53.194220142639445, 68.71227562623099 -58.56324620412663" stroke="#000000" stroke-width="1" fill="none"></path></g></g><g><g transform="translate(347 164) rotate(0 26.861752980574977 -0.6218746658414602)"><path d="M-0.8394988182932138 0.5525421682745217 C8.06540071927011 0.1914532208194335, 45.32092071734369 -1.669386436169346, 54.56300477944315 -1.7962914999574422 M0.9206255727633836 -0.20297713872045287 C9.617576078735294 -0.46177003538856914, 45.03578522499651 -0.3547375269358356, 53.91053682502359 -0.6769192862138151" stroke="#000000" stroke-width="1" fill="none"></path></g><g transform="translate(347 164) rotate(0 26.861752980574977 -0.6218746658414602)"><path d="M29.589630633249417 9.858350570458196 C37.26903308571461 6.332597981415057, 49.87177369270769 -0.21308558823057666, 54.82930891711265 -2.6292620553448796 M28.085020928300455 8.843282979126297 C34.624688900159576 7.5667609028650125, 39.004494894419956 5.772663294964529, 54.368391890376806 -1.5550596211850642" stroke="#000000" stroke-width="1" fill="none"></path></g><g transform="translate(347 164) rotate(0 26.861752980574977 -0.6218746658414602)"><path d="M29.326305535122966 -8.612026783663921 C37.166568734270086 -4.849977382645331, 49.87318248073532 -4.109701138135104, 54.82930891711265 -2.6292620553448796 M27.821695830174004 -9.62709437499582 C34.460287780335044 -6.780299197104529, 38.89884412235481 -4.4534789717926415, 54.368391890376806 -1.5550596211850642" stroke="#000000" stroke-width="1" fill="none"></path></g></g><g><g transform="translate(428 163) rotate(0 29.283370950883295 -0.6198155585676375)"><path d="M0.7287871185690165 0.08300044499337678 C10.715042887503904 0.0018893675257762726, 49.39396738049885 -0.9672426068534454, 58.91448027528823 -1.322631562128663 M-0.34773837352171544 -0.9190282667241991 C9.648280385291823 -0.7508549116613965, 48.88718138630812 0.10603181277091309, 58.44653695618734 0.045412118975073135" stroke="#000000" stroke-width="1" fill="none"></path></g><g transform="translate(428 163) rotate(0 29.283370950883295 -0.6198155585676375)"><path d="M31.232196532630997 11.217405662208332 C36.542804585418445 7.192346414873011, 41.25108582572905 4.739524534089951, 58.22742442024872 -0.735810174178332 M30.600129851581233 8.726644709042741 C41.470657051450594 6.976055437641893, 52.63942393541117 1.6125953649315017, 59.195654147136956 0.6813364480249584" stroke="#000000" stroke-width="1" fill="none"></path></g><g transform="translate(428 163) rotate(0 29.283370950883295 -0.6198155585676375)"><path d="M31.42998201913181 -8.621724998020937 C36.55958005188345 -8.352154357769288, 41.22505811210144 -6.51154754692206, 58.22742442024872 -0.735810174178332 M30.797915338082046 -11.112485951186528 C41.55832561636681 -5.307339874407997, 52.651749212689246 -3.113393414064954, 59.195654147136956 0.6813364480249584" stroke="#000000" stroke-width="1" fill="none"></path></g></g><g transform="translate(569 151) rotate(0 24 13)"><text x="0" y="18" font-family="Virgil, Segoe UI Emoji" font-size="20px" fill="#000000" text-anchor="start" style="white-space: pre;" direction="ltr">NULL</text></g><g><g transform="translate(518 162) rotate(0 24.1652149527427 0.1308065456334475)"><path d="M-0.026520329341292337 -0.9628176335245371 C8.116822257017096 -0.9728315277645985, 41.31070099907617 -0.852073594306906, 49.8300121370703 -0.8841314796358346 M-1.4995822315849363 1.1460991635359825 C6.385993923799445 1.4226957230207822, 40.06020015463854 0.8916645569043855, 48.792723045405 0.7141247447766363" stroke="#000000" stroke-width="1" fill="none"></path></g><g transform="translate(518 162) rotate(0 24.1652149527427 0.1308065456334475)"><path d="M23.839147878958386 9.379545867698114 C34.590356751456916 8.075652702042289, 43.03058136132999 3.573657704372361, 49.59524979693815 -0.5170519985072315 M25.85673925202201 10.532715021887642 C35.51845826659509 5.723763155472466, 44.802121648733724 3.514498963973857, 48.6762561311014 0.7397043956629932" stroke="#000000" stroke-width="1" fill="none"></path></g><g transform="translate(518 162) rotate(0 24.1652149527427 0.1308065456334475)"><path d="M23.549612409809555 -7.722430424292897 C34.293644565841895 -2.5133187891323487, 42.84413288685238 -0.5023729741192176, 49.59524979693815 -0.5170519985072315 M25.56720378287318 -6.56926127010337 C35.21194415897476 -4.65200779578044, 44.609502469727126 -0.133846243358259, 48.6762561311014 0.7397043956629932" stroke="#000000" stroke-width="1" fill="none"></path></g></g><g transform="translate(80 87) rotate(0 29 13)"><text x="0" y="18" font-family="Virgil, Segoe UI Emoji" font-size="20px" fill="#000000" text-anchor="start" style="white-space: pre;" direction="ltr">headA</text></g><g transform="translate(10 233) rotate(0 30 13)"><text x="0" y="18" font-family="Virgil, Segoe UI Emoji" font-size="20px" fill="#000000" text-anchor="start" style="white-space: pre;" direction="ltr">headB</text></g><g transform="translate(747 51) rotate(0 291 64)"><text x="0" y="24" font-family="Virgil, Segoe UI Emoji" font-size="20px" fill="#c92a2a" text-anchor="start" style="white-space: pre;" direction="ltr">1、定义两个指针l1、l2分别指向headA和headB</text><text x="0" y="56" font-family="Virgil, Segoe UI Emoji" font-size="20px" fill="#c92a2a" text-anchor="start" style="white-space: pre;" direction="ltr">2、循环遍历：l1!=l2，如果l2走到尾，就从headB重新开始遍历，</text><text x="0" y="88" font-family="Virgil, Segoe UI Emoji" font-size="20px" fill="#c92a2a" text-anchor="start" style="white-space: pre;" direction="ltr">如果l2走到尾部，就从headA重新开始遍历；</text><text x="0" y="120" font-family="Virgil, Segoe UI Emoji" font-size="20px" fill="#c92a2a" text-anchor="start" style="white-space: pre;" direction="ltr">3、返回l1或者l2，两个指针指向同一个结点</text></g><g><g transform="translate(169 164) rotate(0 0.3659459615965943 -22.92304565167055)"><path d="M0.9836837355047463 -0.6024034503847361 C1.2097702844689289 -8.17859840032955, 0.6894752645244201 -38.139506141717234, 0.7830464784055948 -45.963440883532165 M0.04097896730527273 1.695730792824179 C0.1402396656634906 -6.15109875764077, -0.4496690905528763 -39.506670077896366, -0.2788995840586721 -47.54182209616527" stroke="#c92a2a" stroke-width="1" fill="none"></path></g><g transform="translate(169 164) rotate(0 0.3659459615965943 -22.92304565167055)"><path d="M6.778208084654365 -25.823591316759654 C7.569867259258308 -30.056168482047042, 2.8991506545226473 -36.100928818749914, -1.9782921616919338 -46.920937031339854 M8.605314784933183 -25.55606215790666 C5.318839327392593 -31.640948780325193, 4.628459081153787 -35.58367547142354, -0.673586883675307 -47.49246189074591" stroke="#c92a2a" stroke-width="1" fill="none"></path></g><g transform="translate(169 164) rotate(0 0.3659459615965943 -22.92304565167055)"><path d="M-9.300368903031076 -25.807704070257095 C-4.4534551726977085 -30.17609012310394, -5.0689842488297385 -36.22485739175921, -1.9782921616919338 -46.920937031339854 M-7.473262202752258 -25.5401749114041 C-6.946860946640657 -31.520624360154656, -3.8242354508416625 -35.46711868331309, -0.673586883675307 -47.49246189074591" stroke="#c92a2a" stroke-width="1" fill="none"></path></g></g><g><g transform="translate(102.39884976755394 305.5011369624675) rotate(0 1.5460968780539304 -23.93535142874981)"><path d="M1.1714353624731302 -0.04361805953085418 C1.318458957828062 -7.83831457597416, 0.4454329364348325 -38.36006482603159, 0.4137986185817567 -46.150889806220015 M0.32730019843205804 -1.1121214861236512 C0.9071392471971387 -9.292066441282893, 2.793913132415352 -40.45252465039622, 2.764893557675794 -47.827084797968794" stroke="#c92a2a" stroke-width="1" fill="none"></path></g><g transform="translate(102.39884976755394 305.5011369624675) rotate(0 1.5460968780539304 -23.93535142874981)"><path d="M9.971053171000335 -26.62097957162896 C9.446276210823875 -31.43669154578718, 6.483905830916242 -35.538556861988305, 2.088461881302908 -47.860534993534614 M9.234637174784098 -26.157532925631497 C7.770475995632444 -33.53911746602705, 4.565421174247996 -41.46481219741373, 3.5861485216623694 -47.02871820197784" stroke="#c92a2a" stroke-width="1" fill="none"></path></g><g transform="translate(102.39884976755394 305.5011369624675) rotate(0 1.5460968780539304 -23.93535142874981)"><path d="M-6.09926591733813 -27.171523251882437 C-2.4273168372134255 -32.000436893622755, -1.195793216143569 -35.958626043520084, 2.088461881302908 -47.860534993534614 M-6.835681913554367 -26.708076605884973 C-2.4121873942448073 -33.92533854668579, 0.269002168504743 -41.649379867938, 3.5861485216623694 -47.02871820197784" stroke="#c92a2a" stroke-width="1" fill="none"></path></g></g><g transform="translate(165 167) rotate(0 4.5 13)"><text x="0" y="18" font-family="Virgil, Segoe UI Emoji" font-size="20px" fill="#c92a2a" text-anchor="start" style="white-space: pre;" direction="ltr">l1</text></g><g transform="translate(102.5 310) rotate(0 10 13)"><text x="0" y="18" font-family="Virgil, Segoe UI Emoji" font-size="20px" fill="#c92a2a" text-anchor="start" style="white-space: pre;" direction="ltr">l2</text></g><g transform="translate(326.5 464.5) rotate(0 6.5 13)"><text x="0" y="18" font-family="Virgil, Segoe UI Emoji" font-size="20px" fill="#000000" text-anchor="start" style="white-space: pre;" direction="ltr">8</text></g><g transform="translate(407.5 462.5) rotate(0 6 13)"><text x="0" y="18" font-family="Virgil, Segoe UI Emoji" font-size="20px" fill="#000000" text-anchor="start" style="white-space: pre;" direction="ltr">4</text></g><g transform="translate(496.5 461.5) rotate(0 7 13)"><text x="0" y="18" font-family="Virgil, Segoe UI Emoji" font-size="20px" fill="#000000" text-anchor="start" style="white-space: pre;" direction="ltr">5</text></g><g transform="translate(162.5 401.5) rotate(0 6 13)"><text x="0" y="18" font-family="Virgil, Segoe UI Emoji" font-size="20px" fill="#000000" text-anchor="start" style="white-space: pre;" direction="ltr">4</text></g><g transform="translate(242.5 402.5) rotate(0 2 13)"><text x="0" y="18" font-family="Virgil, Segoe UI Emoji" font-size="20px" fill="#000000" text-anchor="start" style="white-space: pre;" direction="ltr">1</text></g><g transform="translate(100.5 545.5) rotate(0 7 13)"><text x="0" y="18" font-family="Virgil, Segoe UI Emoji" font-size="20px" fill="#000000" text-anchor="start" style="white-space: pre;" direction="ltr">5</text></g><g transform="translate(175.5 541.5) rotate(0 7.5 13)"><text x="0" y="18" font-family="Virgil, Segoe UI Emoji" font-size="20px" fill="#000000" text-anchor="start" style="white-space: pre;" direction="ltr">0</text></g><g transform="translate(254.5 543.5) rotate(0 2 13)"><text x="0" y="18" font-family="Virgil, Segoe UI Emoji" font-size="20px" fill="#000000" text-anchor="start" style="white-space: pre;" direction="ltr">1</text></g><g><g transform="translate(179.5 413.5) rotate(0 25.465598559323666 -0.0737086477503226)"><path d="M0.4420386549085378 -0.7520889099687338 C9.129127752408385 -0.7409301615009705, 43.40561294518411 0.009143648917476394, 51.71622689925134 -0.011346238479018167 M-0.7850297806039452 1.4674604669585825 C7.84225980427116 1.1663453065728149, 42.81744087245315 -1.4549791471784315, 51.14420055773109 -1.6148777624592185" stroke="#000000" stroke-width="1" fill="none"></path></g><g transform="translate(179.5 413.5) rotate(0 25.465598559323666 -0.0737086477503226)"><path d="M26.401770239056404 9.517107438209166 C35.56086558147422 4.434759015634064, 40.372768526610095 1.1337390254213213, 51.76011423755437 -2.845639012940228 M27.232261274301763 8.149869766930749 C36.58678368976812 4.003057356025339, 46.820423625553985 0.9061208808873102, 51.03490887477994 -1.233705497533083" stroke="#000000" stroke-width="1" fill="none"></path></g><g transform="translate(179.5 413.5) rotate(0 25.465598559323666 -0.0737086477503226)"><path d="M25.50894113932692 -7.906412174684373 C34.894286272512204 -8.354936082468573, 39.943807670460316 -7.018842683104519, 51.76011423755437 -2.845639012940228 M26.33943217457228 -9.27364984596279 C36.209913298413404 -6.519161875389065, 46.797277750356 -2.713180371391391, 51.03490887477994 -1.233705497533083" stroke="#000000" stroke-width="1" fill="none"></path></g></g><g><g transform="translate(256.5 413.5) rotate(0 34.68644142784177 20.30000648549236)"><path d="M-0.7520889099687338 0.7162268992513419 C5.7590698384990295 1.026840853318572, 27.175810315584137 -4.393589771166444, 38.98865376152098 2.305722379311919 C50.80149720745782 9.005034529790283, 64.8948226912568 34.41946299038827, 70.1249717656523 40.91209980212152 M1.0539256829582153 0.046642076019197676 C7.500421485559393 0.4621961041726172, 27.1644918623132 -3.4566476128064094, 38.55965152269229 3.478651879671961 C49.954811183071385 10.413951372150333, 64.049748888469 35.241928619984535, 69.42488364523277 41.65843903088942" stroke="#000000" stroke-width="1" fill="none"></path></g><g transform="translate(256.5 413.5) rotate(0 34.68644142784177 20.30000648549236)"><path d="M45.990367428583916 26.175801270812276 C50.93040076820548 29.918030620568075, 57.50213487628579 35.35300222603331, 68.19412239475176 43.58211706208065 M44.6231297573055 24.246170990339937 C54.168950478007886 32.01220917355181, 64.69105437882571 37.99126151441137, 69.8060559101589 41.22483928037807" stroke="#000000" stroke-width="1" fill="none"></path></g><g transform="translate(256.5 413.5) rotate(0 34.68644142784177 20.30000648549236)"><path d="M62.76348318980187 14.352832521525084 C62.82457634860468 21.459684924032384, 64.47381853250823 30.364403535162737, 68.19412239475176 43.58211706208065 M61.39624551852345 12.423202241052746 C64.36977056633381 24.766044779100618, 68.2981583381518 35.392850157895175, 69.8060559101589 41.22483928037807" stroke="#000000" stroke-width="1" fill="none"></path></g></g><g><g transform="translate(121.5 557.5) rotate(0 22.143144228421164 -0.44318723641339375)"><path d="M0.7162268992513419 0.9886537615209818 C7.693507519985238 0.8014972074578206, 35.43974356216689 -1.4385106420765321, 42.305722379311916 -1.8750282343477012 M-0.36689270798116924 0.4620930409803985 C6.962938949825862 0.5560470442349711, 37.21949006335189 0.4348480590557062, 44.65318116482347 -0.2719928061589596" stroke="#000000" stroke-width="1" fill="none"></path></g><g transform="translate(121.5 557.5) rotate(0 22.143144228421164 -0.44318723641339375)"><path d="M26.40250431399138 6.774679345295619 C31.716970542336178 3.2365365363590346, 38.82711759967968 1.0556020441689222, 46.5768591960147 1.5902508256956938 M24.47287403351904 7.591410665058385 C31.765314926408507 5.856613063924895, 37.340243736374816 3.127961636674571, 44.219581414312124 -0.565549739450216" stroke="#000000" stroke-width="1" fill="none"></path></g><g transform="translate(121.5 557.5) rotate(0 22.143144228421164 -0.44318723641339375)"><path d="M25.784551346735533 -7.93511186942006 C31.214974466456102 -6.522147574877253, 38.533270672179896 -3.748286675774466, 46.5768591960147 1.5902508256956938 M23.854921066263195 -7.118380549657294 C31.281722696148027 -4.172661439177766, 37.05323325977723 -2.221868464947163, 44.219581414312124 -0.565549739450216" stroke="#000000" stroke-width="1" fill="none"></path></g></g><g><g transform="translate(196.5 554.5) rotate(0 27.086765011316174 0.5920499143842335)"><path d="M0.9886537615209818 -0.6942776206880807 C10.134830540791155 -0.6616321368763843, 45.228156024590135 0.5861296570549409, 54.1249717656523 0.9120998021215201 M0.0485582569800318 1.5556226831115785 C9.113456556554883 1.6347747941253088, 44.28431906854733 1.7724245152312021, 53.24253647899255 1.8783774494566023" stroke="#000000" stroke-width="1" fill="none"></path></g><g transform="translate(196.5 554.5) rotate(0 27.086765011316174 0.5920499143842335)"><path d="M26.628691596316063 11.13959889571551 C31.96015953949405 9.188997780831619, 38.58410382135629 8.348265926494053, 55.1047801108472 2.2407307054288683 M27.44542291607883 11.577135164210533 C34.86179952232264 8.560826791328694, 41.30314207993343 5.903568713260483, 52.94897954570129 1.5916505472175777" stroke="#000000" stroke-width="1" fill="none"></path></g><g transform="translate(196.5 554.5) rotate(0 27.086765011316174 0.5920499143842335)"><path d="M26.76531709227569 -7.341646909698847 C32.17466664150592 -4.905043656425791, 38.76618615127446 -1.359696770193909, 55.1047801108472 2.2407307054288683 M27.582048412038457 -6.904110641203824 C34.931146699443424 -5.158169490180704, 41.33728073669664 -3.0527929325780754, 52.94897954570129 1.5916505472175777" stroke="#000000" stroke-width="1" fill="none"></path></g></g><g><g transform="translate(264.5 559.5) rotate(0 34.0369387688674 -29.09405453497544)"><path d="M-0.6942776206880807 0.12497176565229884 C6.171701196456949 -0.9782124932855367, 30.752796323721604 3.8646756990502267, 41.91209980212152 -5.630451792106032 C53.07140328052143 -15.12557928326229, 61.89400218687952 -48.15377047223349, 66.2615432497114 -56.84579318128526 M1.1420878991112113 -0.8550220027193427 C8.30218430644522 -2.418010249398649, 32.781895524722835 2.062207229274015, 44.052906734608115 -7.559013731740415 C55.323917944493395 -17.180234692754844, 65.22849761929363 -50.414752410513664, 68.76815515842289 -58.582347768805924" stroke="#000000" stroke-width="1" fill="none"></path></g><g transform="translate(264.5 559.5) rotate(0 34.0369387688674 -29.09405453497544)"><path d="M68.75198948540589 -30.396354421644716 C68.99319249486643 -40.60291531179422, 70.38168897459379 -48.30017566530104, 69.13050841439515 -59.42832873154432 M69.18952575390091 -28.083137898377387 C68.58241211894251 -36.680435285945634, 68.32154480734916 -45.83434863990779, 68.48142825618386 -59.17664574876428" stroke="#000000" stroke-width="1" fill="none"></path></g><g transform="translate(264.5 559.5) rotate(0 34.0369387688674 -29.09405453497544)"><path d="M49.52141269626944 -37.559099617654795 C56.738589066019514 -45.07806305803229, 65.0440466145293 -50.19898728758061, 69.13050841439515 -59.42832873154432 M49.95894896476446 -35.245883094387466 C54.76711761077694 -41.753188790997974, 59.941722497355556 -48.88257096202149, 68.48142825618386 -59.17664574876428" stroke="#000000" stroke-width="1" fill="none"></path></g></g><g><g transform="translate(347.5 475.5) rotate(0 26.550495710587143 -0.409202099138156)"><path d="M0.12497176565229884 -1.08790019787848 C9.021787506714464 -1.2619300528119006, 45.19800903238357 -1.9393311464538177, 54.36954820789397 -1.7384567502886057 M-1.2685567867197096 0.9553482528962194 C7.41606592958793 0.981820472323646, 44.238344905432314 -0.1564032101196548, 53.61551555341109 -0.5887212929688395" stroke="#000000" stroke-width="1" fill="none"></path></g><g transform="translate(347.5 475.5) rotate(0 26.550495710587143 -0.409202099138156)"><path d="M26.78392546172848 10.19225538855977 C36.99188277593615 7.586968554121262, 49.651627761871616 2.138647563996221, 52.7695345906727 -0.935773638021201 M29.097141984995808 9.467050025785339 C35.81318900037354 6.218175149376673, 41.93878240337001 3.6020558054484058, 53.02121757345274 0.05348813725635404" stroke="#000000" stroke-width="1" fill="none"></path></g><g transform="translate(347.5 475.5) rotate(0 26.550495710587143 -0.409202099138156)"><path d="M26.10314802007609 -8.26744996623687 C36.46462499571407 -3.814679415928156, 49.38469097901594 -2.2042340383151453, 52.7695345906727 -0.935773638021201 M28.41636454334342 -8.992655329011301 C35.254618967687115 -7.228346332700772, 41.56525625635319 -4.826885189713225, 53.02121757345274 0.05348813725635404" stroke="#000000" stroke-width="1" fill="none"></path></g></g><g><g transform="translate(428.5 474.5) rotate(0 29.24895389715209 -0.5110348074914555)"><path d="M-1.08790019787848 0.3695482078939676 C8.571403280521434 0.37442071673770744, 47.22733552021285 0.34622952776650584, 57.261543249711394 0.15420681871473785 M0.5418134688958527 -0.48204292830079787 C10.64922998464356 -0.7927446041132012, 49.85306779937198 -1.5509231819336613, 59.58580799218267 -1.3624093502387404" stroke="#000000" stroke-width="1" fill="none"></path></g><g transform="translate(428.5 474.5) rotate(0 29.24895389715209 -0.5110348074914555)"><path d="M32.97838242406837 7.413816967559805 C40.86768069225348 8.330496840631165, 45.89831142472892 3.199144935484278, 59.23875564713031 -1.9261573727801442 M32.25317706129394 9.02575048296695 C39.10456623222353 5.553430738687351, 46.49176370073513 2.591229325047385, 60.228017422407866 -1.271002949923277" stroke="#000000" stroke-width="1" fill="none"></path></g><g transform="translate(428.5 474.5) rotate(0 29.24895389715209 -0.5110348074914555)"><path d="M32.91506629880327 -12.426198544546045 C40.84035817191053 -6.704813234646178, 45.88632049456547 -7.032033716507932, 59.23875564713031 -1.9261573727801442 M32.189860936028836 -10.8142650291389 C39.186220969018706 -9.01024698713317, 46.590258006564795 -6.695794002503028, 60.228017422407866 -1.271002949923277" stroke="#000000" stroke-width="1" fill="none"></path></g></g><g transform="translate(569.5 462.5) rotate(0 24 13)"><text x="0" y="18" font-family="Virgil, Segoe UI Emoji" font-size="20px" fill="#000000" text-anchor="start" style="white-space: pre;" direction="ltr">NULL</text></g><g><g transform="translate(518.5 473.5) rotate(0 25.189444714412105 -0.8184073504246498)"><path d="M-0.7384567502886057 1.1542068187147378 C7.962417645876608 0.9621841096629699, 42.7455348170052 -0.3888483421256146, 51.11734617911279 -0.7825880464166404 M1.0747147264704107 0.7145614532008766 C9.810526891810198 0.10359457009782391, 42.85832172698031 -2.6719169335191446, 50.755907459519804 -2.791021519564092" stroke="#000000" stroke-width="1" fill="none"></path></g><g transform="translate(518.5 473.5) rotate(0 25.189444714412105 -0.8184073504246498)"><path d="M29.690266584662744 8.906933384791937 C32.911274020058855 4.281156576173537, 37.01449037526693 2.504365487922602, 50.0751113634184 -1.4993764303997157 M27.332988802960166 6.751132819646028 C35.53698674147663 2.920215206904522, 44.51229854980505 0.16337192866921146, 51.034257087260485 -2.5761408491432665" stroke="#000000" stroke-width="1" fill="none"></path></g><g transform="translate(518.5 473.5) rotate(0 25.189444714412105 -0.8184073504246498)"><path d="M28.746472153224566 -8.171435271227413 C32.21764907674715 -9.216190274993929, 36.518440915660165 -7.417767486466149, 50.0751113634184 -1.4993764303997157 M26.389194371521988 -10.327235836373323 C34.90485979882916 -8.184237318418282, 44.21050433247305 -4.963566983346487, 51.034257087260485 -2.5761408491432665" stroke="#000000" stroke-width="1" fill="none"></path></g></g><g transform="translate(80.5 398.5) rotate(0 29 13)"><text x="0" y="18" font-family="Virgil, Segoe UI Emoji" font-size="20px" fill="#000000" text-anchor="start" style="white-space: pre;" direction="ltr">headA</text></g><g transform="translate(10.5 544.5) rotate(0 30 13)"><text x="0" y="18" font-family="Virgil, Segoe UI Emoji" font-size="20px" fill="#000000" text-anchor="start" style="white-space: pre;" direction="ltr">headB</text></g><g><g transform="translate(110.5 622.5) rotate(0 -0.19852667290010118 -23.922918695583917)"><path d="M0.21741195358335963 -0.5075885776430368 C0.1570055826256672 -8.583521076415977, 0.7294168615092834 -39.71867808538178, 0.7917685929685832 -47.33824881352484 M-1.1275855001248418 -1.8196765262447299 C-1.4652265046474833 -9.208605838672568, -0.38875815515096 -38.25490729198481, -0.2655983593501152 -45.9784041894041" stroke="#087f5b" stroke-width="1" fill="none"></path></g><g transform="translate(110.5 622.5) rotate(0 -0.19852667290010118 -23.922918695583917)"><path d="M6.343052394318423 -24.033564152410026 C3.464315583267389 -33.18549075015152, 2.3663036168774196 -40.33628449750876, -0.48418172525241987 -45.21605965955183 M6.594735377098463 -23.04430237713247 C5.432722283338327 -29.15052843129658, 3.6430396837604127 -34.645027992456264, -1.0430318786017598 -45.47181198554114" stroke="#087f5b" stroke-width="1" fill="none"></path></g><g transform="translate(110.5 622.5) rotate(0 -0.19852667290010118 -23.922918695583917)"><path d="M-9.729952339881692 -24.457131346500834 C-6.236879499002731 -33.470367968708274, -0.9670257400119953 -40.45335121253797, -0.48418172525241987 -45.21605965955183 M-9.478269357101652 -23.46786957122328 C-6.516549525738843 -29.4193057015573, -4.181255789328413 -34.805100967457996, -1.0430318786017598 -45.47181198554114" stroke="#087f5b" stroke-width="1" fill="none"></path></g></g><g><g transform="translate(169.89884976755388 472.0011369624676) rotate(0 0.45960005605593324 -23.808923013579914)"><path d="M-0.5075885776430368 -0.20823140703141685 C-0.5666627043416326 -8.146069169316702, 0.36561377498993014 -39.710806932916306, 0.7629014189212171 -47.40961462012835 M1.4267886897549036 -1.3631568410620094 C1.0823287123883543 -9.151392196130269, -0.37781108878812475 -38.24240636339542, -0.36272467180652956 -46.08664013917901" stroke="#087f5b" stroke-width="1" fill="none"></path></g><g transform="translate(169.89884976755388 472.0011369624676) rotate(0 0.45960005605593324 -23.808923013579914)"><path d="M7.923913781150901 -24.786279785110985 C4.156548351003155 -31.562453706180506, 2.4434344759082194 -41.667729503756064, 0.3996198580457415 -46.95383964020171 M8.913175556428456 -24.131125362254117 C6.275346774556311 -29.976357394721493, 4.165179770444376 -36.88606803695828, 0.14386753205643554 -46.37436746999033" stroke="#087f5b" stroke-width="1" fill="none"></path></g><g transform="translate(169.89884976755388 472.0011369624676) rotate(0 0.45960005605593324 -23.808923013579914)"><path d="M-8.149964118764249 -24.351879965242276 C-5.599279371966755 -31.23083077368033, -0.9935560391708336 -41.506874432127965, 0.3996198580457415 -46.95383964020171 M-7.160702343486695 -23.69672554238541 C-5.446982044477172 -29.563998681258937, -3.2068455088542818 -36.59127716156204, 0.14386753205643554 -46.37436746999033" stroke="#087f5b" stroke-width="1" fill="none"></path></g></g><g transform="translate(106.5 625.5) rotate(0 4.5 13)"><text x="0" y="18" font-family="Virgil, Segoe UI Emoji" font-size="20px" fill="#087f5b" text-anchor="start" style="white-space: pre;" direction="ltr">l1</text></g><g transform="translate(170 476.5) rotate(0 10 13)"><text x="0" y="18" font-family="Virgil, Segoe UI Emoji" font-size="20px" fill="#087f5b" text-anchor="start" style="white-space: pre;" direction="ltr">l2</text></g><g><g transform="translate(445 204) rotate(0 -0.8952488794116107 99.58036023998633)"><path d="M-0.12175530754029751 0.34954972229897985 C-0.25375744265814626 33.5744854486237, -0.45780032637218643 165.42044568819304, -0.885354905948043 198.43333498202264 M-1.6448155733384193 -0.5125406188331545 C-1.829140118205299 32.94735411201293, -0.8867643666702014 166.3472564627168, -1.2482116951979698 199.67326109880582" stroke="#087f5b" stroke-width="1" fill="none"></path></g><g transform="translate(445 204) rotate(0 -0.8952488794116107 99.58036023998633)"><path d="M-10.904986218378145 173.33250012217408 C-9.655164711386314 178.58021802018007, -6.673753577280116 187.94766420033054, -1.3163455467112364 198.78411470191554 M-12.426480024881858 171.30496638143754 C-8.27861344588096 180.28915649548435, -6.028999480068178 187.87988308932245, -0.7018431009165944 199.43167565507815" stroke="#087f5b" stroke-width="1" fill="none"></path></g><g transform="translate(445 204) rotate(0 -0.8952488794116107 99.58036023998633)"><path d="M9.616216554348103 173.34796448416245 C4.869419648794214 178.57034198527865, 1.8540942897217603 187.93326914649506, -1.3163455467112364 198.78411470191554 M8.09472274784439 171.3204307434259 C6.071495491717154 180.21717770121398, 2.1501008895849125 187.8032539482189, -0.7018431009165944 199.43167565507815" stroke="#087f5b" stroke-width="1" fill="none"></path></g></g><g transform="translate(1103.5 431.5) rotate(0 6.5 13)"><text x="0" y="18" font-family="Virgil, Segoe UI Emoji" font-size="20px" fill="#000000" text-anchor="start" style="white-space: pre;" direction="ltr">8</text></g><g transform="translate(1184.5 429.5) rotate(0 6 13)"><text x="0" y="18" font-family="Virgil, Segoe UI Emoji" font-size="20px" fill="#000000" text-anchor="start" style="white-space: pre;" direction="ltr">4</text></g><g transform="translate(1273.5 428.5) rotate(0 7 13)"><text x="0" y="18" font-family="Virgil, Segoe UI Emoji" font-size="20px" fill="#000000" text-anchor="start" style="white-space: pre;" direction="ltr">5</text></g><g transform="translate(939.5 368.5) rotate(0 6 13)"><text x="0" y="18" font-family="Virgil, Segoe UI Emoji" font-size="20px" fill="#000000" text-anchor="start" style="white-space: pre;" direction="ltr">4</text></g><g transform="translate(1019.5 369.5) rotate(0 2 13)"><text x="0" y="18" font-family="Virgil, Segoe UI Emoji" font-size="20px" fill="#000000" text-anchor="start" style="white-space: pre;" direction="ltr">1</text></g><g transform="translate(877.5 512.5) rotate(0 7 13)"><text x="0" y="18" font-family="Virgil, Segoe UI Emoji" font-size="20px" fill="#000000" text-anchor="start" style="white-space: pre;" direction="ltr">5</text></g><g transform="translate(952.5 508.5) rotate(0 7.5 13)"><text x="0" y="18" font-family="Virgil, Segoe UI Emoji" font-size="20px" fill="#000000" text-anchor="start" style="white-space: pre;" direction="ltr">0</text></g><g transform="translate(1031.5 510.5) rotate(0 2 13)"><text x="0" y="18" font-family="Virgil, Segoe UI Emoji" font-size="20px" fill="#000000" text-anchor="start" style="white-space: pre;" direction="ltr">1</text></g><g><g transform="translate(956.5 380.5) rotate(0 25.724639802798606 -1.312079107388854)"><path d="M-0.6640599254518748 -0.43666148744523525 C7.969741665944458 -0.6667098617802064, 43.51175038777292 -2.230365146820744, 52.113339531049135 -2.187496727332473 M1.1881698843464257 -1.7115127136930823 C9.734196022413672 -1.7704687363530198, 43.589300472401085 -1.2102300606792171, 51.74979732122272 -1.2735072579607367" stroke="#000000" stroke-width="1" fill="none"></path></g><g transform="translate(956.5 380.5) rotate(0 25.724639802798606 -1.312079107388854)"><path d="M27.003076261370108 9.160517052015738 C33.63662505626629 4.551466346118165, 44.81060395199987 0.3838186178854919, 51.457093385346234 -2.3851959519460797 M28.637208556285724 6.360524923740404 C36.529022478944654 5.129702086178435, 45.80582040752419 0.12410657064436936, 52.73038974061608 -1.0968307210505008" stroke="#000000" stroke-width="1" fill="none"></path></g><g transform="translate(956.5 380.5) rotate(0 25.724639802798606 -1.312079107388854)"><path d="M27.108316746400984 -8.28554565400822 C33.59021524453962 -7.209899468855536, 44.729898634264536 -5.692267922799247, 51.457093385346234 -2.3851959519460797 M28.7424490413166 -11.085537782283556 C36.634497375467944 -5.6221992026690835, 45.870908990958085 -3.932822242391496, 52.73038974061608 -1.0968307210505008" stroke="#000000" stroke-width="1" fill="none"></path></g></g><g><g transform="translate(1033.5 380.5) rotate(0 35.19194377101962 20.78601404034532)"><path d="M-0.43666148744523525 1.1133395310491323 C5.833290138219794 1.714928674325347, 24.93630151984592 -3.722668850794433, 36.81250327266753 2.945474934205413 C48.688705025489135 9.61361871920526, 65.31856996851664 34.724283599480984, 70.8205490294844 41.122202241048214 M1.5349525023065507 0.6522388395108281 C8.22360744263356 1.5115300312079487, 27.409240948812418 -2.433493209239095, 38.90102202719078 4.454274525884539 C50.392803105569136 11.342042261008174, 65.30596348629022 35.70678004885092, 70.48563897257671 41.97884525025263" stroke="#000000" stroke-width="1" fill="none"></path></g><g transform="translate(1033.5 380.5) rotate(0 35.19194377101962 20.78601404034532)"><path d="M47.49086139724029 23.19312490478731 C51.234905561888255 30.541731850522762, 55.64627425272313 32.792883650388376, 69.37395027859137 43.65389788376167 M44.69086926896495 24.773100926099488 C54.47113040544134 30.040613528716268, 60.79124952402 36.79421425429636, 70.66231550948694 42.33195844424888" stroke="#000000" stroke-width="1" fill="none"></path></g><g transform="translate(1033.5 380.5) rotate(0 35.19194377101962 20.78601404034532)"><path d="M64.10778531252085 11.151619933247552 C63.9178906854752 21.24221354300603, 64.4619562587309 26.29581842950809, 69.37395027859137 43.65389788376167 M61.30779318424551 12.73159595455973 C65.6232747699445 22.042539377844857, 66.57141480883085 32.68896124919898, 70.66231550948694 42.33195844424888" stroke="#000000" stroke-width="1" fill="none"></path></g></g><g><g transform="translate(898.5 524.5) rotate(0 21.592089494857873 -1.033886966668092)"><path d="M1.1133395310491323 -1.1874967273324728 C8.381595340992014 -1.3112949745108684, 36.1106644825389 -1.0147633648167051, 42.945474934205414 -1.1794509705156087 M0.23870405551046137 0.8034635454788805 C7.402272876861195 0.3840389667327207, 34.582644466919206 -2.5789373431230582, 41.968803811036054 -2.871237478815019" stroke="#000000" stroke-width="1" fill="none"></path></g><g transform="translate(898.5 524.5) rotate(0 21.592089494857873 -1.033886966668092)"><path d="M20.39148556993571 5.935203921092397 C28.56552234417284 2.204422066499844, 31.70015457652024 0.37889729606991374, 43.643856444545094 -2.4055653639510273 M21.971461591247888 6.957728681197112 C26.31935412357612 3.445725351328109, 32.0087424214074 2.4208378082839, 42.321917005032304 -3.744250085800886" stroke="#000000" stroke-width="1" fill="none"></path></g><g transform="translate(898.5 524.5) rotate(0 21.592089494857873 -1.033886966668092)"><path d="M19.257498499661033 -8.743825228504544 C27.655563725012108 -8.89373219372558, 31.067639130996078 -7.1278611361753645, 43.643856444545094 -2.4055653639510273 M20.83747452097321 -7.7213004683998285 C25.57121531091512 -7.950156616997642, 31.5134065554917 -5.702606650256757, 42.321917005032304 -3.744250085800886" stroke="#000000" stroke-width="1" fill="none"></path></g></g><g><g transform="translate(973.5 521.5) rotate(0 26.816526151076005 0.5350144990720196)"><path d="M-1.1874967273324728 -0.054525065794587046 C8.022038358822465 -0.053047947461406286, 45.65190330184996 0.8909502661476533, 54.82054902948439 1.1222022410482169 M0.3899287614785134 -1.128754670675844 C9.551448479052633 -0.48713431701684995, 45.540533666368574 1.6272759440975884, 54.30329180633649 2.198783668819815" stroke="#000000" stroke-width="1" fill="none"></path></g><g transform="translate(973.5 521.5) rotate(0 26.816526151076005 0.5350144990720196)"><path d="M28.302758570477543 11.22728019836648 C33.68964570414276 7.803885925967151, 40.871038224888736 7.752136922710763, 54.76896392120048 0.6574402685649692 M29.32528333058226 9.519975213104026 C37.805298872477394 7.951086888472447, 48.88516864939067 4.330976131340417, 53.43027919935062 3.007231854032725" stroke="#000000" stroke-width="1" fill="none"></path></g><g transform="translate(973.5 521.5) rotate(0 26.816526151076005 0.5350144990720196)"><path d="M29.440125944854152 -7.219440607836329 C34.698335439426735 -5.791321517475497, 41.579904791981974 -0.9803019910146649, 54.76896392120048 0.6574402685649692 M30.462650704958868 -8.926745593098783 C38.32415357471789 -3.2942150818107185, 48.95972635179746 0.2916331991016321, 53.43027919935062 3.007231854032725" stroke="#000000" stroke-width="1" fill="none"></path></g></g><g><g transform="translate(1041.5 526.5) rotate(0 32.39534866446627 -28.79280862804501)"><path d="M-0.054525065794587046 0.8205490294843913 C6.780285385871926 -0.01080524288117879, 31.05761693281432 3.460297213370601, 42.122202241048214 -6.175622361525893 C53.18678754928211 -15.811541936422387, 62.140119945630424 -48.20343780679008, 66.33298678360879 -56.994968419894576 M-1.542289454676211 0.2057333246245978 C5.570275195303063 -0.3327141925320031, 33.24674695358922 5.105530038612585, 44.37331295397133 -4.730398850105702 C55.499878954353434 -14.56632773882399, 61.33382720138878 -49.88049509571244, 65.21710654761642 -58.809840007685125" stroke="#000000" stroke-width="1" fill="none"></path></g><g transform="translate(1041.5 526.5) rotate(0 32.39534866446627 -28.79280862804501)"><path d="M68.34424002432708 -30.32448109906139 C66.28920374799031 -41.73703688620335, 67.56584657807643 -51.92273993813416, 63.67576314736158 -56.99711370933801 M66.63693503906462 -29.643424702956995 C67.71511128434105 -34.824520734827374, 66.72594321659838 -42.03031517414922, 66.02555473282933 -58.20749159529805" stroke="#000000" stroke-width="1" fill="none"></path></g><g transform="translate(1041.5 526.5) rotate(0 32.39534866446627 -28.79280862804501)"><path d="M48.68215147619851 -36.20004714084757 C54.29181333921993 -45.29587414805493, 63.29129777071296 -53.17378239231569, 63.67576314736158 -56.99711370933801 M46.97484649093606 -35.51899074474318 C52.07125566904559 -39.67550261965485, 55.12377492365689 -45.67353112278876, 66.02555473282933 -58.20749159529805" stroke="#000000" stroke-width="1" fill="none"></path></g></g><g><g transform="translate(1124.5 442.5) rotate(0 26.808288089549137 -0.1956293720658664)"><path d="M0.8205490294843913 -0.8777977589517831 C9.98919475711882 -1.1465457840512197, 44.79363054670393 -1.693213387702902, 53.824377638474104 -1.6670132163912057 M-0.20780145937576888 1.275754472259432 C8.891361986454577 1.157781482183685, 43.62166771477089 -0.39107362802450846, 52.78413043504581 -0.4797699037753045" stroke="#000000" stroke-width="1" fill="none"></path></g><g transform="translate(1124.5 442.5) rotate(0 26.808288089549137 -0.1956293720658664)"><path d="M26.221141884257815 9.189473121125955 C31.623127048103356 8.982829100841471, 38.24663898475161 3.763663929992866, 54.596856733392926 -2.3686223901621997 M26.90219828036221 10.462769476395804 C34.29604740656649 7.329642847127859, 39.77440142718699 5.194059920047146, 53.38647884743288 -0.5195555673725902" stroke="#000000" stroke-width="1" fill="none"></path></g><g transform="translate(1124.5 442.5) rotate(0 26.808288089549137 -0.1956293720658664)"><path d="M25.690008482465085 -9.275143772285903 C31.19038386505642 -5.773257243889432, 37.920675890875344 -7.280260024412353, 54.596856733392926 -2.3686223901621997 M26.37106487856948 -8.001847417016053 C34.075077505216186 -6.330864756467799, 39.69156948753525 -3.664142777490051, 53.38647884743288 -0.5195555673725902" stroke="#000000" stroke-width="1" fill="none"></path></g></g><g><g transform="translate(1205.5 441.5) rotate(0 29.408480811212144 -0.788668488524138)"><path d="M-0.8777977589517831 -0.17562236152589317 C8.686787549282114 -0.3115419364223878, 47.47345327896377 0.2965621932099261, 57.332986783608796 0.005031580105423705 M0.8622196882590654 -1.3134280466660857 C10.825190994503597 -1.8388376501823465, 50.228397381467126 -1.6266658671324452, 59.69475938137621 -1.5899015891179442" stroke="#000000" stroke-width="1" fill="none"></path></g><g transform="translate(1205.5 441.5) rotate(0 29.408480811212144 -0.788668488524138)"><path d="M32.11020617756016 7.117012648885909 C42.074371328355554 5.993045276753682, 46.921522585224345 4.439131911546515, 57.80590689498931 -2.3882719709351656 M33.38350253283001 8.405377879781488 C43.519578349763144 3.7087639077049737, 54.705112304414676 1.3237942485345222, 59.65497371777892 -2.083669093698263" stroke="#000000" stroke-width="1" fill="none"></path></g><g transform="translate(1205.5 441.5) rotate(0 29.408480811212144 -0.788668488524138)"><path d="M32.18400966223929 -12.722966622725457 C42.262033077088375 -7.985628099082048, 47.08737863354159 -3.6776956974014583, 57.80590689498931 -2.3882719709351656 M33.45730601750914 -11.434601391829878 C43.49696386372749 -8.331407705966877, 54.65348087390497 -2.9159926083265315, 59.65497371777892 -2.083669093698263" stroke="#000000" stroke-width="1" fill="none"></path></g></g><g transform="translate(1346.5 429.5) rotate(0 24 13)"><text x="0" y="18" font-family="Virgil, Segoe UI Emoji" font-size="20px" fill="#000000" text-anchor="start" style="white-space: pre;" direction="ltr">NULL</text></g><g><g transform="translate(1295.5 440.5) rotate(0 24.806195026263595 -0.4598872300237531)"><path d="M-0.6670132163912058 1.0050315801054237 C7.8591869549204905 0.7135009670009214, 41.653628436351816 -1.4017488614966473, 50.279403268918394 -1.9248060401529075 M1.1836661156639456 0.4870692143216728 C9.653100088102121 0.33435277753820014, 41.1931644964839 -0.5565902255599697, 49.47804452147335 -0.8729039600118995" stroke="#000000" stroke-width="1" fill="none"></path></g><g transform="translate(1295.5 440.5) rotate(0 24.806195026263595 -0.4598872300237531)"><path d="M27.945269670371555 8.901191407183388 C30.00719669626048 8.265627434622733, 34.92438760916743 3.542913201281597, 51.34134382236749 -1.5523504989221693 M26.623330230858766 7.562506685333529 C32.13502321680093 6.9322006687956375, 36.43442505549364 3.7714205018093256, 48.82683092489839 -1.6044242300093174" stroke="#000000" stroke-width="1" fill="none"></path></g><g transform="translate(1295.5 440.5) rotate(0 24.806195026263595 -0.4598872300237531)"><path d="M27.391530741215735 -8.194269893350599 C29.554054002555173 -4.948647350704219, 34.596860694954096 -5.793252995373131, 51.34134382236749 -1.5523504989221693 M26.069591301702946 -9.532954615200458 C31.871743709403017 -6.37236284500927, 36.29396817228028 -5.741266898502947, 48.82683092489839 -1.6044242300093174" stroke="#000000" stroke-width="1" fill="none"></path></g></g><g transform="translate(857.5 365.5) rotate(0 29 13)"><text x="0" y="18" font-family="Virgil, Segoe UI Emoji" font-size="20px" fill="#000000" text-anchor="start" style="white-space: pre;" direction="ltr">headA</text></g><g transform="translate(787.5 511.5) rotate(0 30 13)"><text x="0" y="18" font-family="Virgil, Segoe UI Emoji" font-size="20px" fill="#000000" text-anchor="start" style="white-space: pre;" direction="ltr">headB</text></g><g><g transform="translate(1097.5 524.5) rotate(0 0.509812688833108 -23.195693225041055)"><path d="M-0.9248060401529073 1.0876357790082694 C-1.114529885475834 -6.872101803993186, -0.6404424286137024 -39.39647161203126, -0.13331149183213697 -47.47902222909033 M0.7905320594273508 0.6130406176485121 C0.8656819064977269 -7.208691448227814, 1.7922064274114866 -38.373542420125254, 1.9836545113287865 -46.193083648141474" stroke="#087f5b" stroke-width="1" fill="none"></path></g><g transform="translate(1097.5 524.5) rotate(0 0.509812688833108 -23.195693225041055)"><path d="M11.233320906606245 -25.78413530138185 C5.716361572278261 -30.64613765707835, 2.981340081375502 -42.63015644589804, 3.9448393501155077 -45.839730574321 M10.022943020646203 -23.93506847859224 C6.627799519835091 -31.963077621393328, 3.896356558220303 -38.00352208725153, 0.9852019028551875 -46.49894727723673" stroke="#087f5b" stroke-width="1" fill="none"></path></g><g transform="translate(1097.5 524.5) rotate(0 0.509812688833108 -23.195693225041055)"><path d="M-4.839342654066673 -26.22045676423492 C-4.187359135260447 -30.791152140786274, -0.7544536867208311 -42.607731419979615, 3.9448393501155077 -45.839730574321 M-6.0497205400267156 -24.37138994144531 C-4.059327157420007 -32.3830347157264, -1.4014240942392826 -38.277175656192966, 0.9852019028551875 -46.49894727723673" stroke="#087f5b" stroke-width="1" fill="none"></path></g></g><g><g transform="translate(1120.8988497675539 523.0011369624676) rotate(0 0.2564257365526146 -23.26634841065561)"><path d="M1.0876357790082694 -1.133311491832137 C1.144756568081158 -8.626370048795158, 0.687820248340455 -38.08213182972875, 0.6221280033557264 -45.88315738193103 M0.199505833648145 0.8860960296168923 C0.03224310283310938 -6.833851037334914, -0.4964462169285742 -39.41867683103439, -0.5774041305439028 -47.41879285092809" stroke="#087f5b" stroke-width="1" fill="none"></path></g><g transform="translate(1120.8988497675539 523.0011369624676) rotate(0 0.2564257365526146 -23.26634841065561)"><path d="M5.876536440292464 -26.24041060857199 C7.100968619146547 -33.150594594651636, 0.9767013591134521 -37.61468704782372, -0.22405105672343106 -46.71256646293559 M7.725603263082073 -25.93580773133509 C5.162003106821565 -30.797735392323958, 4.823762092511812 -35.739095307900826, -0.8832677596391592 -47.76203290804633" stroke="#087f5b" stroke-width="1" fill="none"></path></g><g transform="translate(1120.8988497675539 523.0011369624676) rotate(0 0.2564257365526146 -23.26634841065561)"><path d="M-10.201690643318075 -26.019349999834922 C-3.777727587364744 -33.146726381921155, -4.704167621850256 -37.68228410577355, -0.22405105672343106 -46.71256646293559 M-8.352623820528466 -25.71474712259802 C-7.498192506382728 -30.720541041952583, -4.416614889806681 -35.70892027031704, -0.8832677596391592 -47.76203290804633" stroke="#087f5b" stroke-width="1" fill="none"></path></g></g><g transform="translate(1093.5 527.5) rotate(0 4.5 13)"><text x="0" y="18" font-family="Virgil, Segoe UI Emoji" font-size="20px" fill="#087f5b" text-anchor="start" style="white-space: pre;" direction="ltr">l1</text></g><g transform="translate(1121 527.5) rotate(0 10 13)"><text x="0" y="18" font-family="Virgil, Segoe UI Emoji" font-size="20px" fill="#087f5b" text-anchor="start" style="white-space: pre;" direction="ltr">l2</text></g><g transform="translate(486 242) rotate(0 45 32)"><text x="0" y="24" font-family="Virgil, Segoe UI Emoji" font-size="20px" fill="#087f5b" text-anchor="start" style="white-space: pre;" direction="ltr">l1走了5步</text><text x="0" y="56" font-family="Virgil, Segoe UI Emoji" font-size="20px" fill="#087f5b" text-anchor="start" style="white-space: pre;" direction="ltr">l2走了6步</text></g><g><g transform="translate(651 471) rotate(0 100.71710823333831 -2.2836113669630436)"><path d="M-0.5807384189218282 -0.8242197755724192 C32.931805700436236 -1.74036757585903, 166.32434764541685 -5.281474749619762, 199.8872133437544 -5.92468363083899 M1.3152351818047463 1.3574608969129622 C35.28634367501363 0.6022032496767741, 168.9135112903081 -4.11317220494772, 202.01495488559829 -4.872717285808176" stroke="#087f5b" stroke-width="1" fill="none"></path></g><g transform="translate(651 471) rotate(0 100.71710823333831 -2.2836113669630436)"><path d="M172.76913007086014 4.369693638007198 C178.24342886264242 3.789523847535847, 185.91429098402372 3.017939183016116, 203.94368261111902 -3.2566786746494474 M174.01098895648366 6.139961570682977 C181.28164280695393 2.613586618245345, 190.15390465233136 -0.600777976334486, 201.02460362123327 -4.118599449563772" stroke="#087f5b" stroke-width="1" fill="none"></path></g><g transform="translate(651 471) rotate(0 100.71710823333831 -2.2836113669630436)"><path d="M172.156918957301 -16.14238085333263 C177.68114455846234 -12.596748696291204, 185.47505849277312 -9.245494200915948, 203.94368261111902 -3.2566786746494474 M173.39877784292452 -14.37211292065685 C180.8581723414255 -11.944090459185407, 189.90796926445142 -9.210159348415694, 201.02460362123327 -4.118599449563772" stroke="#087f5b" stroke-width="1" fill="none"></path></g></g><g transform="translate(673 406) rotate(0 47.5 32)"><text x="0" y="24" font-family="Virgil, Segoe UI Emoji" font-size="20px" fill="#087f5b" text-anchor="start" style="white-space: pre;" direction="ltr">l1走了3步</text><text x="0" y="56" font-family="Virgil, Segoe UI Emoji" font-size="20px" fill="#087f5b" text-anchor="start" style="white-space: pre;" direction="ltr">l2走了2步</text></g><g transform="translate(368 592) rotate(0 214.5 29)"><text x="0" y="21" font-family="Virgil, Segoe UI Emoji" font-size="20px" fill="#c92a2a" text-anchor="start" style="white-space: pre;" direction="ltr">l1和l2走了相同的步数就会相遇，指向共同的结点</text><text x="0" y="50" font-family="Virgil, Segoe UI Emoji" font-size="20px" fill="#c92a2a" text-anchor="start" style="white-space: pre;" direction="ltr"></text></g></svg>