<svg version="1.1" xmlns="http://www.w3.org/2000/svg" viewBox="0 0 1286.5 384.5" width="1286.5" height="384.5">
  <!-- svg-source:excalidraw -->
  
  <defs>
    <style>
      @font-face {
        font-family: "Virgil";
        src: url("https://excalidraw.com/FG_Virgil.woff2");
      }
      @font-face {
        font-family: "Cascadia";
        src: url("https://excalidraw.com/Cascadia.woff2");
      }
    </style>
  </defs>
  <rect x="0" y="0" width="1286.5" height="384.5" fill="#ffffff"></rect><g transform="translate(57.5 25) rotate(0 40 16)"><text x="0" y="24" font-family="Virgil, Segoe UI Emoji" font-size="20px" fill="#000000" text-anchor="start" style="white-space: pre;" direction="ltr">链表分割</text></g><g transform="translate(52.5 124) rotate(0 2 13)"><text x="0" y="18" font-family="Virgil, Segoe UI Emoji" font-size="20px" fill="#000000" text-anchor="start" style="white-space: pre;" direction="ltr">1</text></g><g transform="translate(140.5 121) rotate(0 7 13)"><text x="0" y="18" font-family="Virgil, Segoe UI Emoji" font-size="20px" fill="#000000" text-anchor="start" style="white-space: pre;" direction="ltr">3</text></g><g transform="translate(229.5 119) rotate(0 7.5 13)"><text x="0" y="18" font-family="Virgil, Segoe UI Emoji" font-size="20px" fill="#000000" text-anchor="start" style="white-space: pre;" direction="ltr">2</text></g><g transform="translate(329.5 121) rotate(0 6 13)"><text x="0" y="18" font-family="Virgil, Segoe UI Emoji" font-size="20px" fill="#000000" text-anchor="start" style="white-space: pre;" direction="ltr">4</text></g><g transform="translate(432.5 124) rotate(0 7 13)"><text x="0" y="18" font-family="Virgil, Segoe UI Emoji" font-size="20px" fill="#000000" text-anchor="start" style="white-space: pre;" direction="ltr">5</text></g><g transform="translate(245.5 41) rotate(0 18.5 13)"><text x="0" y="18" font-family="Virgil, Segoe UI Emoji" font-size="20px" fill="#000000" text-anchor="start" style="white-space: pre;" direction="ltr">x=3</text></g><g><g transform="translate(63.5 136) rotate(0 35.688616158459325 -0.6151345830783299)"><path d="M0.15308002196252346 -0.2742598470300436 C12.166606370235483 -0.5105690296739339, 60.516812749331194 -0.7651103671640158, 72.60292401276529 -0.854979806765914 M-1.2256916958466173 -1.463850212059915 C10.549414696457486 -1.6198539673909544, 59.28702057377746 -0.023216521702706605, 71.44641365583986 0.23358104590326567" stroke="#000000" stroke-width="1" fill="none"></path></g><g transform="translate(63.5 136) rotate(0 35.688616158459325 -0.6151345830783299)"><path d="M42.53143638442941 9.066481341049002 C51.29375953418499 5.880309173020083, 61.137657557116555 1.6305042443478044, 71.17174507219345 1.7063798497244718 M42.07158631063737 9.643569325469361 C52.73692195022378 6.440046564281008, 63.691838104428456 1.6046824944228222, 71.28031835898757 0.6475066889822485" stroke="#000000" stroke-width="1" fill="none"></path></g><g transform="translate(63.5 136) rotate(0 35.688616158459325 -0.6151345830783299)"><path d="M43.08624356028051 -11.447226061160467 C51.75422342562928 -7.586632136114183, 61.40755600595003 -4.790378720833461, 71.17174507219345 1.7063798497244718 M42.62639348648847 -10.870138076740108 C53.23845748494737 -6.406476275368249, 63.9861237749012 -3.578884169745262, 71.28031835898757 0.6475066889822485" stroke="#000000" stroke-width="1" fill="none"></path></g></g><g><g transform="translate(161.5 136) rotate(0 31.937542134150874 -0.36964401271194447)"><path d="M-0.8389158491045237 -0.10695212446153168 C9.825807424013812 -0.283168762549758, 53.634003940845524 -0.5624381121248007, 64.71400011740624 -0.7003326829522848 M0.9215146007761361 -1.2087059351429343 C11.33969630346944 -1.273068560026586, 52.90073714083682 0.2858586672320961, 63.615804715417326 0.46941790971904984" stroke="#000000" stroke-width="1" fill="none"></path></g><g transform="translate(161.5 136) rotate(0 31.937542134150874 -0.36964401271194447)"><path d="M34.97107526089838 9.461634638553328 C44.2152994806722 7.792480122171815, 54.08668052220405 3.745829679645368, 63.8851095180586 0.08154620658606282 M34.866113477273196 10.851377267224557 C44.272699389687766 6.313301759226709, 55.39567984929958 2.548883160987894, 63.74777058079839 0.5937057189643382" stroke="#000000" stroke-width="1" fill="none"></path></g><g transform="translate(161.5 136) rotate(0 31.937542134150874 -0.36964401271194447)"><path d="M35.544484687324086 -11.051561212301447 C44.643032174010635 -5.330297698831918, 54.30771534104235 -1.9825214260418713, 63.8851095180586 0.08154620658606282 M35.4395229036989 -9.661818583630218 C44.65101114034953 -6.97143481566629, 55.57200761149676 -3.5100616442476262, 63.74777058079839 0.5937057189643382" stroke="#000000" stroke-width="1" fill="none"></path></g></g><g><g transform="translate(250.5 136) rotate(0 35.093512390470096 -1.1690100494772082)"><path d="M-0.03903766237199302 -0.3870003584772348 C11.887054100011786 -0.6115383310864368, 59.778171764190006 -1.670770784591635, 71.70569594539703 -1.9510197404772043 M-1.518671164456755 -1.6357794920168818 C10.298097484366346 -1.6863321520450216, 59.03559307143713 -0.9668486582798262, 71.12814085310325 -0.9128798530064524" stroke="#000000" stroke-width="1" fill="none"></path></g><g transform="translate(250.5 136) rotate(0 35.093512390470096 -1.1690100494772082)"><path d="M42.19032632678749 10.239084784794269 C50.13997763933165 6.832246118068449, 58.7836764151922 4.70800295231648, 69.60737737579271 -1.6866931100003422 M43.03505904439839 8.332096580337403 C50.43550442117691 5.76348456424109, 57.51801505998816 3.4642090222740762, 70.73184318499639 -0.5976170389540494" stroke="#000000" stroke-width="1" fill="none"></path></g><g transform="translate(250.5 136) rotate(0 35.093512390470096 -1.1690100494772082)"><path d="M42.397263688914904 -10.28108040250369 C50.17901256680101 -7.276896194982676, 58.75805815488435 -2.9900491668971876, 69.60737737579271 -1.6866931100003422 M43.2419964065258 -12.188068606960556 C50.64677578160548 -9.357872171500645, 57.674859083471766 -6.260065556173037, 70.73184318499639 -0.5976170389540494" stroke="#000000" stroke-width="1" fill="none"></path></g></g><g><g transform="translate(353.5 135) rotate(0 34.90427701390348 1.1618078806437495)"><path d="M1.1204403463751078 0.7759598728269339 C12.694283853347104 0.842551584665974, 58.177165713285405 0.8994793331871431, 69.5590212289244 1.113741409406066 M0.24953279888257374 0.1377348607219755 C11.616622858202707 0.2686549694774051, 57.03155884380762 1.64028277133281, 68.37946191048249 2.1858809005655346" stroke="#000000" stroke-width="1" fill="none"></path></g><g transform="translate(353.5 135) rotate(0 34.90427701390348 1.1618078806437495)"><path d="M41.11760859468975 10.649021244116264 C47.134975130611764 7.28833970757638, 57.55710068223992 3.7992483387637197, 69.61352623058482 3.704676560331136 M39.00461677087494 10.420693879455465 C51.78714362532158 7.1957132690199455, 61.66142326145929 4.760966743025251, 68.5872104381211 2.4150585441105066" stroke="#000000" stroke-width="1" fill="none"></path></g><g transform="translate(353.5 135) rotate(0 34.90427701390348 1.1618078806437495)"><path d="M41.88580964022601 -9.857803706116192 C47.787340739870054 -6.86110045738174, 57.971582583090246 -3.9999797362996192, 69.61352623058482 3.704676560331136 M39.7728178164112 -10.086131070776991 C52.44666124713773 -5.324775093621036, 62.0219073896189 0.2230599510594633, 68.5872104381211 2.4150585441105066" stroke="#000000" stroke-width="1" fill="none"></path></g></g><g transform="translate(614.5 39) rotate(0 331 109)"><text x="0" y="23.142857142857142" font-family="Virgil, Segoe UI Emoji" font-size="20px" fill="#c92a2a" text-anchor="start" style="white-space: pre;" direction="ltr">1、定义两个虚拟结点，newnode1用来存储小于x的结点，newnode2用来</text><text x="0" y="54.285714285714285" font-family="Virgil, Segoe UI Emoji" font-size="20px" fill="#c92a2a" text-anchor="start" style="white-space: pre;" direction="ltr">存储大于x的结点</text><text x="0" y="85.42857142857143" font-family="Virgil, Segoe UI Emoji" font-size="20px" fill="#c92a2a" text-anchor="start" style="white-space: pre;" direction="ltr">2、定义cur指针用来遍历链表</text><text x="0" y="116.57142857142857" font-family="Virgil, Segoe UI Emoji" font-size="20px" fill="#c92a2a" text-anchor="start" style="white-space: pre;" direction="ltr">   如果当前结点的值小于x，尾插在newnode1后面，如果当前结点的值大于</text><text x="0" y="147.71428571428572" font-family="Virgil, Segoe UI Emoji" font-size="20px" fill="#c92a2a" text-anchor="start" style="white-space: pre;" direction="ltr">x，尾插在newnode2后面</text><text x="0" y="178.85714285714286" font-family="Virgil, Segoe UI Emoji" font-size="20px" fill="#c92a2a" text-anchor="start" style="white-space: pre;" direction="ltr">3、将noenode1链表和newnode2链表连接起来</text><text x="0" y="210" font-family="Virgil, Segoe UI Emoji" font-size="20px" fill="#c92a2a" text-anchor="start" style="white-space: pre;" direction="ltr"></text></g><g transform="translate(19.5 218) rotate(0 28 19.5)"><path d="M-1.3562182281166315 1.9899105820804834 C15.468357770517468 -0.3764788584411144, 32.7185834120959 0.007423393279314072, 55.07487588189542 -0.6663050260394812 M0.03992458153516054 -0.8005247162654996 C18.883667683042585 -0.2327932342514395, 38.804640284366904 0.8831555918231607, 56.745930661447346 0.8189587248489261 M56.20670657418668 1.9330425653606653 C57.65794223506935 10.081206633802505, 55.98299288709648 22.131998647190635, 54.30130433104932 37.26136408187449 M55.5606877701357 -0.04064777959138155 C56.170350930457936 8.369939074944705, 56.51521038151346 17.476413495093585, 55.769429941661656 39.15271394979209 M56.167891493067145 39.290261844173074 C40.36108576096594 36.8908418917656, 24.965159163996574 40.380178561210634, 0.47231858037412167 38.29019323922694 M56.99744846392423 38.83480208646506 C36.36153372917324 38.77819731105119, 16.783866560645393 39.60867135990411, -0.6633572084829211 38.08418932091445 M1.9550098683685064 37.28135601617396 C-0.9397517797816545 24.228198109660298, -1.8649719712603838 7.7037667809054255, -0.3535486552864313 1.8528606686741114 M-0.8729073507711291 38.8892709268257 C1.0511682623717933 28.18204406360164, 0.6606589847896248 17.305897637084122, 0.29965050984174013 0.42976057063788176" stroke="#c92a2a" stroke-width="1" fill="none"></path></g><g transform="translate(18.5 335.5) rotate(0 28 19.5)"><path d="M1.6549620535224676 -1.3267144169658422 C13.464866869524123 2.0720745797455313, 32.008404726907614 0.40474926188588145, 57.955009868368506 -1.7186439838260412 M-0.4275481505319476 -0.17677432764321566 C15.867949187196793 0.16357855234295132, 29.743910888023677 0.6542927745357157, 55.12709264922887 -0.11072907317429781 M55.02302830480039 0.5993010196834803 C56.77561354656704 17.53295485591516, 55.519018233017995 32.00851886365563, 55.892219414934516 40.32337830401957 M55.93835549522191 0.3581098569557071 C56.44658041155897 13.659034446906297, 56.02070889032446 25.66335392668843, 55.04388912487775 38.57194697391242 M56.06315838359296 39.71833441592753 C40.98727597035467 40.91214972257614, 28.934943590685723 39.6371240568161, 1.637662222608924 38.59314755536616 M55.29526885319501 38.922812576405704 C36.97406945619733 37.89614972699434, 18.37450873870403 38.49897217977792, -0.5592604978010058 38.93651064764708 M-0.8008806202560663 39.691579619422555 C-0.9421411183942109 30.835950820241123, -1.880403759824112 22.96864332538098, 0.6209647562354803 -1.4102517571300268 M-0.6717189652845263 38.45382675062865 C-0.2430478739645332 24.59516634205356, 0.8016444933507592 7.8524374444037655, 0.8904282050207257 -0.14011544454842806" stroke="#c92a2a" stroke-width="1" fill="none"></path></g><g><g transform="translate(53.30103791591614 73) rotate(0 -0.6308637787659848 23.27502493495122)"><path d="M0.49261614717543134 -0.12595969475805768 C0.12860355833304887 7.618637108430265, -1.460977401875806 38.941198122128846, -1.7543437047074462 46.8526669498533 M-0.707899104896933 -1.2376924798451365 C-0.7450717633241619 6.577185393217951, 0.6982297350346027 39.528903924468906, 0.4323873569113288 47.78774234974757" stroke="#c92a2a" stroke-width="1" fill="none"></path></g><g transform="translate(53.30103791591614 73) rotate(0 -0.6308637787659848 23.27502493495122)"><path d="M-8.227224990805865 23.65383526423658 C-7.019922461282775 31.97492616289761, -3.365450048919719 39.825994889213774, 1.3342137777102265 47.85090073334053 M-7.816505103452386 25.51351770406301 C-4.50379180065069 32.59455150526059, -2.0714117348501224 39.701685528226676, -0.29758933160034085 47.08301120294258" stroke="#c92a2a" stroke-width="1" fill="none"></path></g><g transform="translate(53.30103791591614 73) rotate(0 -0.6308637787659848 23.27502493495122)"><path d="M8.19083223097698 23.478655726435843 C3.8853329417335027 31.925972172465265, 2.026441375243378 39.835868112044, 1.3342137777102265 47.85090073334053 M8.60155211833046 25.33833816626227 C6.398044846165465 32.61445788826475, 3.3153249681774737 39.780437647119484, -0.29758933160034085 47.08301120294258" stroke="#c92a2a" stroke-width="1" fill="none"></path></g></g><g transform="translate(37.5 46) rotate(0 14.5 13)"><text x="0" y="18" font-family="Virgil, Segoe UI Emoji" font-size="20px" fill="#c92a2a" text-anchor="start" style="white-space: pre;" direction="ltr">cur</text></g><g><g transform="translate(82.5 236) rotate(0 21.871930270288118 0.3050410968437802)"><path d="M1.1998646613210437 -0.5329333718866109 C8.358259478832284 -0.6233639534562826, 36.581141944353774 0.6694625679403543, 43.37320566140115 0.6104814950376749 M0.3706548791751265 1.8016726625338197 C7.366685687067608 1.868133773840964, 35.300122596186895 -0.8854927956685423, 42.62109317000955 -1.1915904688462615" stroke="#c92a2a" stroke-width="1" fill="none"></path></g><g transform="translate(82.5 236) rotate(0 21.871930270288118 0.3050410968437802)"><path d="M22.10953623626507 8.215334294893426 C30.50927052074229 2.705835226808892, 34.59222433858016 3.3753755138209156, 43.744716412611304 -2.7740468396618962 M23.070248072148626 6.736364230111819 C29.7843557177681 5.1052407729148515, 36.61594956255354 1.9068232882019895, 42.430792069286106 -1.216023490279913" stroke="#c92a2a" stroke-width="1" fill="none"></path></g><g transform="translate(82.5 236) rotate(0 21.871930270288118 0.3050410968437802)"><path d="M21.053689696499564 -6.453581834833747 C29.948333949654035 -7.056083595655063, 34.38524595659327 -1.468988726789465, 43.744716412611304 -2.7740468396618962 M22.014401532383122 -7.932551899615353 C29.07591956364646 -4.250247724057426, 36.290179876548095 -2.132265414817123, 42.430792069286106 -1.216023490279913" stroke="#c92a2a" stroke-width="1" fill="none"></path></g></g><g transform="translate(41.5 224.5) rotate(0 6 13)"><text x="6" y="18" font-family="Virgil, Segoe UI Emoji" font-size="20px" fill="#c92a2a" text-anchor="middle" style="white-space: pre;" direction="ltr">-1</text></g><g transform="translate(42.5 342) rotate(0 6 13)"><text x="6" y="18" font-family="Virgil, Segoe UI Emoji" font-size="20px" fill="#c92a2a" text-anchor="middle" style="white-space: pre;" direction="ltr">-1</text></g><g transform="translate(10.5 189) rotate(0 40.5 13)"><text x="0" y="18" font-family="Virgil, Segoe UI Emoji" font-size="20px" fill="#c92a2a" text-anchor="start" style="white-space: pre;" direction="ltr">newnode1</text></g><g transform="translate(10 304) rotate(0 46 13)"><text x="0" y="18" font-family="Virgil, Segoe UI Emoji" font-size="20px" fill="#c92a2a" text-anchor="start" style="white-space: pre;" direction="ltr">newnode2</text></g><g transform="translate(530.5 120) rotate(0 24 13)"><text x="0" y="18" font-family="Virgil, Segoe UI Emoji" font-size="20px" fill="#000000" text-anchor="start" style="white-space: pre;" direction="ltr">NULL</text></g><g><g transform="translate(455.5 140) rotate(0 35.639475218299765 0.1494525904022055)"><path d="M-0.915495491400361 -0.6828653868287802 C10.73649966282149 -1.0247759437809387, 58.169407025600464 -1.1534672395636638, 70.0049123879522 -1.2741211589425803 M0.8047306462749839 1.573026339747012 C12.813501967651149 1.3434804885958633, 60.2422268450881 0.4320392478878301, 72.19444592799991 0.11939048383384954" stroke="#000000" stroke-width="1" fill="none"></path></g><g transform="translate(455.5 140) rotate(0 35.639475218299765 0.1494525904022055)"><path d="M43.099950227807156 9.343945699964728 C52.31413356482855 6.362401607810267, 60.696462297168914 5.672070253050276, 73.8034596549347 0.821003353111446 M43.71219069037109 10.8033141235235 C52.80749858933788 8.688048514740697, 59.73033264269288 5.580467693966174, 72.90623594298958 0.9352040503919126" stroke="#000000" stroke-width="1" fill="none"></path></g><g transform="translate(455.5 140) rotate(0 35.639475218299765 0.1494525904022055)"><path d="M42.645022474674676 -11.172219709908273 C52.13210828188098 -7.836543274829129, 60.654438811058 -2.2131248049130647, 73.8034596549347 0.821003353111446 M43.25726293723861 -9.712851286349501 C52.31206898000977 -6.130769226439064, 59.36125496092224 -3.540177034518826, 72.90623594298958 0.9352040503919126" stroke="#000000" stroke-width="1" fill="none"></path></g></g><g transform="translate(142.5 226) rotate(0 2 13)"><text x="0" y="18" font-family="Virgil, Segoe UI Emoji" font-size="20px" fill="#c92a2a" text-anchor="start" style="white-space: pre;" direction="ltr">1</text></g><g transform="translate(139.5 344) rotate(0 7 13)"><text x="0" y="18" font-family="Virgil, Segoe UI Emoji" font-size="20px" fill="#c92a2a" text-anchor="start" style="white-space: pre;" direction="ltr">3</text></g><g transform="translate(229.5 226) rotate(0 7.5 13)"><text x="0" y="18" font-family="Virgil, Segoe UI Emoji" font-size="20px" fill="#c92a2a" text-anchor="start" style="white-space: pre;" direction="ltr">2</text></g><g transform="translate(237.5 346) rotate(0 6 13)"><text x="0" y="18" font-family="Virgil, Segoe UI Emoji" font-size="20px" fill="#c92a2a" text-anchor="start" style="white-space: pre;" direction="ltr">4</text></g><g transform="translate(344.5 347) rotate(0 7 13)"><text x="0" y="18" font-family="Virgil, Segoe UI Emoji" font-size="20px" fill="#c92a2a" text-anchor="start" style="white-space: pre;" direction="ltr">5</text></g><g><g transform="translate(155.5 237) rotate(0 32.387356182001554 1.9636454132758274)"><path d="M0.27420332394540314 0.06865016855299477 C11.041591290260355 1.0531721575806539, 52.75135386747618 4.202536942933996, 63.41228622160852 4.868203264847398 M-1.0409786603227258 -0.9409124382957816 C10.231266699495416 -0.1951486568277081, 55.04219577894857 2.1424456261967615, 65.81569102432579 3.2014352301135656" stroke="#c92a2a" stroke-width="1" fill="none"></path></g><g transform="translate(155.5 237) rotate(0 32.387356182001554 1.9636454132758274)"><path d="M37.078916342152375 10.444365765100358 C44.27206518484576 10.107681524405681, 48.71884573675663 8.202136449914931, 67.79326232362538 2.5456237209960815 M36.116383075868804 12.001068990809856 C43.73913764729562 8.765281617684096, 52.82287051543816 7.595303361403142, 65.73812927797437 3.218377100676298" stroke="#c92a2a" stroke-width="1" fill="none"></path></g><g transform="translate(155.5 237) rotate(0 32.387356182001554 1.9636454132758274)"><path d="M38.543521716211046 -10.024511426482917 C45.26556396038792 -6.2504985652007345, 49.418452108308095 -4.048693201563253, 67.79326232362538 2.5456237209960815 M37.580988449927474 -8.467808200773419 C44.74427557360446 -6.2629534539916385, 53.43822983609288 -1.9855050161238568, 65.73812927797437 3.218377100676298" stroke="#c92a2a" stroke-width="1" fill="none"></path></g></g><g><g transform="translate(77.5 358) rotate(0 30.725397985801095 0.07232387546449104)"><path d="M-1.1179036024957896 -0.7247960742563009 C9.479836256926257 -0.7573752459138631, 52.06456132295231 0.3729535643011332, 62.56869957409799 0.49714128412306313 M0.49605827685445547 1.5090820414200428 C11.074590273660919 1.0537665528431537, 51.81983714854965 -1.3376690262183548, 61.91922138687223 -1.3644342904910447" stroke="#c92a2a" stroke-width="1" fill="none"></path></g><g transform="translate(77.5 358) rotate(0 30.725397985801095 0.07232387546449104)"><path d="M32.893862062447035 10.817015568919786 C40.85155967172877 7.555858470813483, 46.042848172661884 4.895706069611527, 61.33724353332072 -2.017403075285256 M34.70353054286566 9.324233856246181 C43.89580015926372 5.36406470149085, 53.04990353248158 2.544803993693563, 61.28241110369563 -0.8336135081946852" stroke="#c92a2a" stroke-width="1" fill="none"></path></g><g transform="translate(77.5 358) rotate(0 30.725397985801095 0.07232387546449104)"><path d="M32.18105941369489 -9.691809720934614 C40.41051675324512 -8.53306580056989, 45.75519209296229 -6.779957555375056, 61.33724353332072 -2.017403075285256 M33.99072789411351 -11.184591433608219 C43.54423579744315 -8.441044138247136, 52.93156068434368 -4.550033375635567, 61.28241110369563 -0.8336135081946852" stroke="#c92a2a" stroke-width="1" fill="none"></path></g></g><g><g transform="translate(161.5 358) rotate(0 34.2876248365082 2.132889660336076)"><path d="M-0.7641723398119211 0.6369849387556314 C10.256143279497822 1.058911306038499, 55.65897022845845 2.38523125089705, 67.09997867308557 2.8705285135656595 M1.0354984524473547 -0.07420191373676066 C12.343458483082554 0.5111035445705056, 58.33631072944652 4.078554445840418, 69.3394220128283 4.339981234408915" stroke="#c92a2a" stroke-width="1" fill="none"></path></g><g transform="translate(161.5 358) rotate(0 34.2876248365082 2.132889660336076)"><path d="M41.69066345863452 11.541263119641327 C51.34187792275405 9.707645788485001, 63.425498833072425 7.926528258696135, 71.02694375921041 2.702200845591724 M40.96243700463732 13.32210222105273 C47.990230563455356 11.082814023737967, 53.89098740692671 9.149939419668238, 70.25416745260358 4.017104627341032" stroke="#c92a2a" stroke-width="1" fill="none"></path></g><g transform="translate(161.5 358) rotate(0 34.2876248365082 2.132889660336076)"><path d="M42.81452207469093 -8.949147910812778 C52.094856861595005 -2.9726852137109825, 63.74971775322855 3.063434131993686, 71.02694375921041 2.702200845591724 M42.08629562069373 -7.168308809401376 C48.98712724026585 -4.588090282816684, 54.62361708013946 -1.7027969713302227, 70.25416745260358 4.017104627341032" stroke="#c92a2a" stroke-width="1" fill="none"></path></g></g><g><g transform="translate(255.5 359) rotate(0 40.54323424484579 0.8585906822048059)"><path d="M0.5079602714627982 -1.0497362192720174 C13.55550443691512 -0.678659003600478, 66.08134850623706 1.0070779029279948, 79.38295952044427 1.8390113655477762 M-0.6844993153586985 1.0135483202710747 C12.664984248143933 1.5213088223710654, 68.37043760305892 2.5868705901876092, 81.77096780505032 2.766917583681643" stroke="#c92a2a" stroke-width="1" fill="none"></path></g><g transform="translate(255.5 359) rotate(0 40.54323424484579 0.8585906822048059)"><path d="M51.659460103918 11.516039135619948 C62.60858914392345 9.126109905158883, 77.21632486163789 3.3424219357823963, 83.48519731987268 2.339827574007213 M54.16983658618866 11.899214822553049 C62.26132476695182 10.556521912392352, 69.63170062893843 7.494264086982873, 82.31131638422609 1.9331829772889613" stroke="#c92a2a" stroke-width="1" fill="none"></path></g><g transform="translate(255.5 359) rotate(0 40.54323424484579 0.8585906822048059)"><path d="M52.01002506628381 -9.002174884927769 C62.755668334252135 -3.35826169618284, 77.22616679318992 -1.10959118863207, 83.48519731987268 2.339827574007213 M54.52040154855447 -8.618999197994668 C62.31298640871968 -3.872344923913259, 69.57927702674233 -0.8425982956523015, 82.31131638422609 1.9331829772889613" stroke="#c92a2a" stroke-width="1" fill="none"></path></g></g><g><g transform="translate(235.5 294) rotate(0 0.14992292522748585 -19.72396999038756)"><path d="M-0.7742701347917318 0.4063234683126211 C-0.48264772258698935 -6.388216996565461, 0.6029190484434366 -33.39461258687079, 0.8401389185339212 -39.85426344908774 M1.0200993151031437 -0.42596065616235146 C1.3068022049032153 -7.170767116900533, 0.46583267992362365 -32.11070740675554, 0.3331663871370254 -38.765326508637514" stroke="#087f5b" stroke-width="1" fill="none"></path></g><g transform="translate(235.5 294) rotate(0 0.14992292522748585 -19.72396999038756)"><path d="M8.14158402693145 -19.257497152048046 C4.3524823486286826 -23.681718188630267, 5.191724097567202 -30.42978388647873, 1.8869552839267996 -40.621489569442346 M6.817473447976299 -20.24925389614876 C5.218568433429019 -26.768872140578168, 2.918162733420701 -30.196998622354617, 0.6151453690091145 -38.3578925610194" stroke="#087f5b" stroke-width="1" fill="none"></path></g><g transform="translate(235.5 294) rotate(0 0.14992292522748585 -19.72396999038756)"><path d="M-5.192604326744357 -18.90732297151265 C-5.994840218210424 -23.324017657307344, -2.166068500832755 -30.150592536151112, 1.8869552839268 -40.621489569442346 M-6.516714905699509 -19.89907971561336 C-4.28782879330503 -26.391772687409404, -2.7569516323971253 -29.92051394232657, 0.6151453690091148 -38.3578925610194" stroke="#087f5b" stroke-width="1" fill="none"></path></g></g><g transform="translate(248.5 291) rotate(0 4.5 13)"><text x="0" y="18" font-family="Virgil, Segoe UI Emoji" font-size="20px" fill="#087f5b" text-anchor="start" style="white-space: pre;" direction="ltr">l1</text></g><g><g transform="translate(253.5 237) rotate(0 -9.746010728273575 53.334192470137026)"><path d="M-0.9073078092187643 0.9447412010282277 C12.581436922525365 2.241687221949299, 67.28780561921496 -1.10162154076, 81.80251483358442 8.193531953915954 C96.31722404795389 17.48868544859191, 93.45993930734694 44.49697161080937, 86.18094747699797 56.715662169083956 C78.901955646649 68.93435272735854, 56.61662537890176 75.89033163351317, 38.12856385149062 81.50567530356348 C19.640502324079474 87.12101897361379, -3.5350520189851515 92.00399156771601, -24.747421687468886 90.40772418938577 C-45.95979135595262 88.81145681105554, -74.92303478084504 69.58809382878243, -89.14565415941179 71.92807103358209 C-103.36827353797854 74.26804823838174, -106.58945750954251 98.92989020707707, -110.08313795886934 104.44758741818369 M0.8172168616019189 0.3951263862289487 C14.577031288699557 1.2673368163344758, 69.68278470035021 -2.8863960614365824, 83.88578965758904 6.172561480943114 C98.08879461482788 15.23151902332281, 93.60905172800645 42.0526292661267, 86.03524660503491 54.74887164050713 C78.46144148206338 67.44511401488757, 56.60730520204331 76.30607449903464, 38.44295891975984 82.3500157272257 C20.278612637476375 88.39395695541675, -1.8211904325522497 92.40663027042523, -22.950831088665872 91.01251900965347 C-44.080471744779494 89.61840774888172, -73.39021630370989 71.40880361968652, -88.3348850169219 73.98534816259519 C-103.27955373013391 76.56189270550385, -108.89714077894266 101.3507929924565, -112.61884336793796 106.47178626710549" stroke="#087f5b" stroke-width="1" fill="none"></path></g><g transform="translate(253.5 237) rotate(0 -9.746010728273575 53.334192470137026)"><path d="M-108.53050850837835 74.58148017717626 C-110.61630969684506 89.66234426255967, -110.682480306708 99.04418756387332, -113.44271786199883 105.22608345465734 M-109.34102547581651 76.11694496968862 C-110.48647098197858 86.56745427118338, -112.16179206128318 96.56936908719399, -113.5680366118066 105.96471148354932" stroke="#087f5b" stroke-width="1" fill="none"></path></g><g transform="translate(253.5 237) rotate(0 -9.746010728273575 53.334192470137026)"><path d="M-89.90280550004559 83.1912817439483 C-98.9570481278075 94.92411925347821, -105.96211020232766 101.0987781489989, -113.44271786199883 105.22608345465734 M-90.71332246748375 84.72674653646065 C-97.99779384377258 92.13538355060457, -105.89433958467629 99.26182253286821, -113.5680366118066 105.96471148354932" stroke="#087f5b" stroke-width="1" fill="none"></path></g></g><g transform="translate(360.5 265) rotate(0 173 16)"><text x="0" y="24" font-family="Virgil, Segoe UI Emoji" font-size="20px" fill="#087f5b" text-anchor="start" style="white-space: pre;" direction="ltr">连接链表，l1-&gt;next=newnode2-&gt;next;</text></g><g transform="translate(169.5 10) rotate(0 125.5 16)"><text x="0" y="24" font-family="Virgil, Segoe UI Emoji" font-size="20px" fill="#000000" text-anchor="start" style="white-space: pre;" direction="ltr">小于x的结点在其余结点之前</text></g></svg>