<svg version="1.1" xmlns="http://www.w3.org/2000/svg" viewBox="0 0 1091 486" width="1091" height="486">
  <!-- svg-source:excalidraw -->
  
  <defs>
    <style>
      @font-face {
        font-family: "Virgil";
        src: url("https://excalidraw.com/FG_Virgil.woff2");
      }
      @font-face {
        font-family: "Cascadia";
        src: url("https://excalidraw.com/Cascadia.woff2");
      }
    </style>
  </defs>
  <rect x="0" y="0" width="1091" height="486" fill="#ffffff"></rect><g transform="translate(10 22) rotate(0 40 16)"><text x="0" y="24" font-family="Virgil, Segoe UI Emoji" font-size="20px" fill="#000000" text-anchor="start" style="white-space: pre;" direction="ltr">链表逆置</text></g><g transform="translate(225 89) rotate(0 2 13)"><text x="0" y="18" font-family="Virgil, Segoe UI Emoji" font-size="20px" fill="#000000" text-anchor="start" style="white-space: pre;" direction="ltr">1</text></g><g transform="translate(670 42) rotate(0 205.5 112)"><text x="0" y="24" font-family="Virgil, Segoe UI Emoji" font-size="20px" fill="#c92a2a" text-anchor="start" style="white-space: pre;" direction="ltr">1、定义cur指针指向NULL，pre指针指向链表头</text><text x="0" y="56" font-family="Virgil, Segoe UI Emoji" font-size="20px" fill="#c92a2a" text-anchor="start" style="white-space: pre;" direction="ltr">2、循环遍历链表</text><text x="0" y="88" font-family="Virgil, Segoe UI Emoji" font-size="20px" fill="#c92a2a" text-anchor="start" style="white-space: pre;" direction="ltr">    定义指针tmp指向pre-&gt;next记录位置</text><text x="0" y="120" font-family="Virgil, Segoe UI Emoji" font-size="20px" fill="#c92a2a" text-anchor="start" style="white-space: pre;" direction="ltr">    pre-&gt;next指向cur，pre-&gt;next=cur;</text><text x="0" y="152" font-family="Virgil, Segoe UI Emoji" font-size="20px" fill="#c92a2a" text-anchor="start" style="white-space: pre;" direction="ltr">    cur指向pre指向的位置，cur=pre;</text><text x="0" y="184" font-family="Virgil, Segoe UI Emoji" font-size="20px" fill="#c92a2a" text-anchor="start" style="white-space: pre;" direction="ltr">    pre指向记录的tmp指针的位置，pre=tmp;</text><text x="0" y="216" font-family="Virgil, Segoe UI Emoji" font-size="20px" fill="#c92a2a" text-anchor="start" style="white-space: pre;" direction="ltr">进行下一次循环。</text></g><g><g transform="translate(228 188) rotate(0 -0.6339818969329372 -32.6361902371049)"><path d="M0.4588558807969094 -0.16777805238962173 C0.0867165972103825 -11.012232356766859, -0.9830275469471268 -54.2682001804312, -1.4012315888344349 -65.10460242182016 M-0.7593835111241789 -1.3014654752332717 C-1.2585665470829708 -12.034890541207666, -1.4309825764328739 -53.61542848693518, -1.7268196746627837 -64.14709344205447" stroke="#c92a2a" stroke-width="1" fill="none"></path></g><g transform="translate(228 188) rotate(0 -0.6339818969329372 -32.6361902371049)"><path d="M8.67966999972618 -34.13879176370613 C3.1807564108211066 -45.53214306946033, -0.901613077735341 -55.86184087366059, 0.20743101538018882 -63.9320343777258 M8.304473099507454 -35.268362221790476 C5.963005509753401 -46.43488973639204, 1.8263760068815236 -57.019190981523884, -0.9908548884014636 -64.39089582187124" stroke="#c92a2a" stroke-width="1" fill="none"></path></g><g transform="translate(228 188) rotate(0 -0.6339818969329372 -32.6361902371049)"><path d="M-11.839187828798654 -33.82818622830029 C-9.760382150328052 -45.41470425291387, -6.265130410510846 -55.8591087877914, 0.20743101538018882 -63.9320343777258 M-12.214384729017379 -34.957756686384634 C-7.253567513739989 -46.24952097291856, -4.089490747908499 -56.94433713064359, -0.9908548884014636 -64.39089582187124" stroke="#c92a2a" stroke-width="1" fill="none"></path></g></g><g><g transform="translate(138 189) rotate(0 0.2465633019525626 -32.464762033522135)"><path d="M-0.3914999350905418 -0.4933667555451393 C-0.4946014270186424 -11.17215028355519, -0.013643012940883673 -53.89521100272735, -0.10665691941976552 -64.43615731149912 M1.6038238696474583 -1.797988247545436 C1.2885728056449444 -12.27876537955987, -1.0844244636874647 -53.04661999093679, -1.1106972657423468 -63.12771464881487" stroke="#c92a2a" stroke-width="1" fill="none"></path></g><g transform="translate(138 189) rotate(0 0.2465633019525626 -32.464762033522135)"><path d="M9.286939070336285 -35.48258050237632 C5.62191239259281 -46.4579305930544, 2.939121127288918 -56.11296142508814, -1.341210503159091 -62.232197992475704 M9.5441457822544 -35.85738950301743 C7.736694848867435 -43.323056230732924, 4.193739686539209 -51.154915440912, -0.29728291931562145 -62.80379828435369" stroke="#c92a2a" stroke-width="1" fill="none"></path></g><g transform="translate(138 189) rotate(0 0.2465633019525626 -32.464762033522135)"><path d="M-11.222234826921149 -34.77987968560302 C-7.857404889880691 -45.92910794516193, -3.512467881474449 -55.82492811482264, -1.341210503159091 -62.232197992475704 M-10.965028115003033 -35.15468868624413 C-7.152462428961661 -42.77607060312663, -5.0712707692849355 -50.80062858241625, -0.29728291931562145 -62.80379828435369" stroke="#c92a2a" stroke-width="1" fill="none"></path></g></g><g transform="translate(116 93) rotate(0 24 13)"><text x="0" y="18" font-family="Virgil, Segoe UI Emoji" font-size="20px" fill="#c92a2a" text-anchor="start" style="white-space: pre;" direction="ltr">NULL</text></g><g transform="translate(124 189) rotate(0 14.5 13)"><text x="0" y="18" font-family="Virgil, Segoe UI Emoji" font-size="20px" fill="#c92a2a" text-anchor="start" style="white-space: pre;" direction="ltr">cur</text></g><g transform="translate(218 192) rotate(0 15 13)"><text x="0" y="18" font-family="Virgil, Segoe UI Emoji" font-size="20px" fill="#c92a2a" text-anchor="start" style="white-space: pre;" direction="ltr">pre</text></g><g><g transform="translate(218 102.334855914434) rotate(0 -24.688884753412538 1.628026704252079)"><path d="M-0.48104661852121355 -0.6013226374983788 C-9.141407701869806 -0.10275256534127764, -42.4871592576305 1.877596878026507, -50.845034684240815 2.461303363757827 M1.4672651774156837 1.6973790324758737 C-6.912806763503079 2.4231433348914395, -39.711536736839136 3.4222979980883066, -48.57672335709445 3.85737604600253" stroke="#e67700" stroke-width="1" fill="none"></path></g><g transform="translate(218 102.334855914434) rotate(0 -24.688884753412538 1.628026704252079)"><path d="M-26.40966847832366 -7.040451089851333 C-35.00582750284853 -3.041860990933489, -43.38084348712211 0.2799320147189972, -48.60034560914151 3.587647482276582 M-24.733001477225265 -4.647641069255544 C-31.314382938524496 -2.644415938602613, -38.44465308128043 -0.6950105685097379, -47.614412160022184 3.581169921428584" stroke="#e67700" stroke-width="1" fill="none"></path></g><g transform="translate(218 102.334855914434) rotate(0 -24.688884753412538 1.628026704252079)"><path d="M-25.730553553643503 10.072567980280304 C-34.51806960036769 7.341405136299084, -43.16004180279357 3.9361675818700457, -48.60034560914151 3.587647482276582 M-24.05388655254511 12.465378000876093 C-30.984402021236498 9.389837944696678, -38.31611464159009 6.263093703901778, -47.614412160022184 3.581169921428584" stroke="#e67700" stroke-width="1" fill="none"></path></g></g><g transform="translate(287 89) rotate(0 7.5 13)"><text x="0" y="18" font-family="Virgil, Segoe UI Emoji" font-size="20px" fill="#000000" text-anchor="start" style="white-space: pre;" direction="ltr">2</text></g><g><g transform="translate(242 101) rotate(0 19.952879589372344 0.44885586649179743)"><path d="M1.0615419968962667 -0.7062678202986716 C7.712429692844551 -0.6062967007358868, 33.340133947630726 1.5057860826452574, 39.74604636281729 1.603979553282261 M0.15971281592734154 1.5373376287054272 C6.644295263436312 1.8066613342395677, 32.28008540118424 -0.04759943574356526, 38.66467523966916 -0.20150593002326778" stroke="#000000" stroke-width="1" fill="none"></path></g><g transform="translate(242 101) rotate(0 19.952879589372344 0.44885586649179743)"><path d="M19.052219276830222 7.146218067810185 C26.456842516629713 4.339938523126756, 28.874269648069617 1.830385505333286, 37.06889703516848 -2.0112153821159153 M19.94102493073013 6.683937470272429 C25.6349499799322 5.490627395855466, 30.985790808172332 4.253072277735806, 39.285935811894014 0.6675759359728546" stroke="#000000" stroke-width="1" fill="none"></path></g><g transform="translate(242 101) rotate(0 19.952879589372344 0.44885586649179743)"><path d="M18.370180500515268 -6.521855914681305 C26.084736082911363 -5.4151673935101625, 28.697721929857153 -4.005718905410976, 37.06889703516848 -2.0112153821159153 M19.258986154415176 -6.984136512219061 C25.03171025856555 -4.408293163179758, 30.5706245764694 -1.8768508868141396, 39.285935811894014 0.6675759359728546" stroke="#000000" stroke-width="1" fill="none"></path></g></g><g transform="translate(350 89) rotate(0 7 13)"><text x="0" y="18" font-family="Virgil, Segoe UI Emoji" font-size="20px" fill="#000000" text-anchor="start" style="white-space: pre;" direction="ltr">3</text></g><g transform="translate(421 88) rotate(0 6 13)"><text x="0" y="18" font-family="Virgil, Segoe UI Emoji" font-size="20px" fill="#000000" text-anchor="start" style="white-space: pre;" direction="ltr">4</text></g><g transform="translate(495 87) rotate(0 7 13)"><text x="0" y="18" font-family="Virgil, Segoe UI Emoji" font-size="20px" fill="#000000" text-anchor="start" style="white-space: pre;" direction="ltr">5</text></g><g transform="translate(567 87) rotate(0 24 13)"><text x="0" y="18" font-family="Virgil, Segoe UI Emoji" font-size="20px" fill="#000000" text-anchor="start" style="white-space: pre;" direction="ltr">NULL</text></g><g><g transform="translate(306 104) rotate(0 17.93029121494385 -0.0724276676774025)"><path d="M1.0009679451584816 0.923680745065212 C6.796242918074131 0.6418983563780782, 30.110929359495636 -0.9288877859711647, 35.793245042860505 -1.0685360804200172 M0.06733738702721892 0.3630091908853501 C5.597110431911425 0.13765879633836445, 28.495548404278235 -0.272977085383609, 34.73665322673507 -0.09209227141924203" stroke="#000000" stroke-width="1" fill="none"></path></g><g transform="translate(306 104) rotate(0 17.93029121494385 -0.0724276676774025)"><path d="M19.191657816482095 5.709862505941295 C22.69214303325605 2.1670977269519605, 30.944133122235506 -0.6046859217191853, 33.59347716358491 -1.5438365931529552 M17.330357354370264 5.875255905761027 C22.434293673502964 4.221784341941817, 27.989293497937744 2.229436651120286, 35.42771022741683 0.32038763771764944" stroke="#000000" stroke-width="1" fill="none"></path></g><g transform="translate(306 104) rotate(0 17.93029121494385 -0.0724276676774025)"><path d="M19.223872309153993 -6.602820511393476 C22.77578764168693 -5.403296843252253, 31.015370868593408 -3.433060758747292, 33.59347716358491 -1.5438365931529552 M17.36257184704216 -6.4374271115737445 C22.407921326396693 -4.08941052221149, 27.952451717056306 -2.0802418533764433, 35.42771022741683 0.32038763771764944" stroke="#000000" stroke-width="1" fill="none"></path></g></g><g><g transform="translate(374 105) rotate(0 18.31572317034005 0.7999198342999421)"><path d="M-1.1547653540968894 0.7215923890471458 C5.009184342126051 0.770712099969387, 31.36197910060485 0.259831963479519, 37.78621169477701 0.02471858114004144 M0.439844105662778 0.05482444795779884 C6.444346103590603 0.3340997553151101, 31.18589925946978 1.5398205325286838, 37.25092737090774 1.5751210874598476" stroke="#000000" stroke-width="1" fill="none"></path></g><g transform="translate(374 105) rotate(0 18.31572317034005 0.7999198342999421)"><path d="M20.79322185896246 8.578523890259987 C26.177977612943668 6.013048129230249, 31.523598352073073 4.885973597965099, 37.03916963965632 2.9176758502330635 M19.826159494164422 6.711112724109864 C25.370022841076267 4.525209477343898, 32.741937408456245 3.1031130754339586, 36.346456085173415 1.8416874058265242" stroke="#000000" stroke-width="1" fill="none"></path></g><g transform="translate(374 105) rotate(0 18.31572317034005 0.7999198342999421)"><path d="M21.181265651081077 -4.0702705463832825 C26.39519764750014 -1.998939762918625, 31.598454383282828 1.5145264130357117, 37.03916963965632 2.9176758502330635 M20.214203286283038 -5.937681712533406 C25.5737824872563 -3.668537982900969, 32.80912758366812 -0.6389740318235703, 36.346456085173415 1.8416874058265242" stroke="#000000" stroke-width="1" fill="none"></path></g></g><g><g transform="translate(443 103) rotate(0 22.910147891812926 -0.1503031834959927)"><path d="M-0.04352868944406518 -1.173368154466152 C7.98791117121776 -1.173187480866909, 39.59118712196747 0.8268978253006937, 47.34581576436758 0.8727617874741556 M-1.5255199807416648 0.8250096191000194 C6.451904517955457 0.41965289453975857, 38.750441492047784 -0.6454040281940251, 46.57932357703336 -0.7916130228806286" stroke="#000000" stroke-width="1" fill="none"></path></g><g transform="translate(443 103) rotate(0 22.910147891812926 -0.1503031834959927)"><path d="M22.768707961562654 8.422390157771604 C31.137689199474217 5.009737760130172, 33.20762059998388 3.4542471156932093, 47.861996719883756 -0.8763344912696629 M24.509537216994545 7.991379110557334 C29.617018401760856 5.202024140026533, 34.840314307224794 3.7480957863122786, 47.482008194820956 -1.3024277976620942" stroke="#000000" stroke-width="1" fill="none"></path></g><g transform="translate(443 103) rotate(0 22.910147891812926 -0.1503031834959927)"><path d="M22.329636865033066 -7.646559065724032 C30.916225694364584 -7.366974629121774, 33.08704014097941 -5.230387707560085, 47.861996719883756 -0.8763344912696629 M24.070466120464957 -8.077570112938302 C29.361590711578202 -7.319935053899457, 34.681701780499495 -5.2306605915844315, 47.482008194820956 -1.3024277976620942" stroke="#000000" stroke-width="1" fill="none"></path></g></g><g><g transform="translate(518 103) rotate(0 19.334421257735244 0.2291601046919709)"><path d="M1.0608883515000345 -1.0583847418427468 C7.413838495314121 -0.7353260253866514, 32.00949112325907 1.0793441717823347, 38.51012650877237 1.5167049512267112 M0.15871600669808683 1.0003593233507129 C6.276443687202409 0.9998916141471517, 30.68835509401746 -0.08792334980952243, 37.304897462250665 -0.3345996981579811" stroke="#000000" stroke-width="1" fill="none"></path></g><g transform="translate(518 103) rotate(0 19.334421257735244 0.2291601046919709)"><path d="M17.539984090263417 6.278345101824721 C26.129814880795585 6.180758380270975, 32.21302263212874 3.8758538614087468, 37.40557639935553 -1.458800129308173 M19.723503247573927 7.950740358757801 C24.927281256772915 4.846206372343172, 31.24883276663208 1.528733968388948, 37.883862846900364 0.07101740161282422" stroke="#000000" stroke-width="1" fill="none"></path></g><g transform="translate(518 103) rotate(0 19.334421257735244 0.2291601046919709)"><path d="M16.999014139268454 -7.053853902787317 C25.721981069078133 -2.7205720951626158, 31.985170679245204 -0.5898255121837099, 37.40557639935553 -1.458800129308173 M19.182533296578963 -5.381458645854237 C24.676882379675806 -4.11462010438738, 31.176016566481312 -3.0555692200038758, 37.883862846900364 0.07101740161282422" stroke="#000000" stroke-width="1" fill="none"></path></g></g><g><g transform="translate(293 23) rotate(0 -0.34802981970364044 32.372573084584445)"><path d="M0.7083770379424095 -1.132001481950283 C0.5534246866901715 9.729717887938023, -0.33257243384917584 53.62937899976969, -0.6435352221131325 64.91129337698221 M-0.37886374647729104 0.88809379468672 C-0.6856873709491145 11.881583581967279, -1.1332918305726103 55.273379762871194, -1.4044366773497314 65.87714765111916" stroke="#c92a2a" stroke-width="1" fill="none"></path></g><g transform="translate(293 23) rotate(0 -0.34802981970364044 32.372573084584445)"><path d="M-13.07055135762213 38.10997135458999 C-9.892555531347332 46.380553120883405, -3.9785136255425284 55.310770165488705, -3.1290062140952797 67.18103940675967 M-10.897551472688896 36.987416966692734 C-8.80617168269476 45.71162613666512, -4.226085350006756 55.30052249414484, -0.5468939949106426 66.31997166837566" stroke="#c92a2a" stroke-width="1" fill="none"></path></g><g transform="translate(293 23) rotate(0 -0.34802981970364044 32.372573084584445)"><path d="M7.447686387455455 38.4591449823357 C3.9816407223976924 46.73776955431925, 3.250887437323839 55.55490733396755, -3.1290062140952797 67.18103940675967 M9.620686272388689 37.33659059443845 C5.3934964038926125 46.13804065105724, 3.6550565448943466 55.619410098099124, -0.5468939949106426 66.31997166837566" stroke="#c92a2a" stroke-width="1" fill="none"></path></g></g><g transform="translate(307 10) rotate(0 17 13)"><text x="0" y="18" font-family="Virgil, Segoe UI Emoji" font-size="20px" fill="#c92a2a" text-anchor="start" style="white-space: pre;" direction="ltr">tmp</text></g><g transform="translate(239.5 352) rotate(0 2 13)"><text x="0" y="18" font-family="Virgil, Segoe UI Emoji" font-size="20px" fill="#000000" text-anchor="start" style="white-space: pre;" direction="ltr">1</text></g><g><g transform="translate(312.5 446) rotate(0 -1.7901346567233531 -31.897303590611557)"><path d="M-0.2280514106154442 0.5303581818938254 C-0.5208846639285336 -10.13270879338185, -2.196625512187605 -52.25558030356964, -2.4670664925514756 -62.82123974710703 M-1.806917130528018 -0.23680771795101463 C-2.1851584703198177 -10.693617107045526, -3.281719473424604 -53.59618317472127, -3.3522179028312715 -64.32496536311693" stroke="#e67700" stroke-width="1" fill="none"></path></g><g transform="translate(312.5 446) rotate(0 -1.7901346567233531 -31.897303590611557)"><path d="M8.288935152934279 -36.12026360761881 C6.508914421519053 -41.85781531652509, 3.847678758223254 -48.43281096163914, -4.605130088917449 -63.649099929006766 M6.557286979751077 -36.50923133399844 C3.9666511450081146 -46.667662778349865, -0.3277314174995798 -55.849640442459275, -2.7288751391987356 -64.94642205697484" stroke="#e67700" stroke-width="1" fill="none"></path></g><g transform="translate(312.5 446) rotate(0 -1.7901346567233531 -31.897303590611557)"><path d="M-12.229068382318331 -35.757588390377705 C-9.071281724602313 -41.54348935958193, -6.791212715286452 -48.20582726207083, -4.605130088917449 -63.649099929006766 M-13.960716555501534 -36.14655611675734 C-9.67663832350545 -46.30152813749805, -7.097110188648161 -55.60500870763726, -2.7288751391987356 -64.94642205697484" stroke="#e67700" stroke-width="1" fill="none"></path></g></g><g><g transform="translate(242.5 449) rotate(0 0.2630352294564773 -32.440060636051925)"><path d="M0.5303581818938254 0.11979819685220727 C0.5339578732848166 -10.386165335277717, 1.0777530297636984 -52.716833609839284, 1.1787602528929708 -63.26383260339499 M-0.6503425019513815 -0.8629116951394826 C-0.8028742613922805 -11.690138333436723, 0.5799545014370233 -54.29959446678248, 0.8495639220345765 -64.99991946895607" stroke="#e67700" stroke-width="1" fill="none"></path></g><g transform="translate(242.5 449) rotate(0 0.2630352294564773 -32.440060636051925)"><path d="M10.501329803808174 -34.56326672214368 C7.835622359947971 -45.87927030800334, 4.257918550555471 -60.3133657252646, 1.5254293561447412 -64.29954953719862 M10.112362077428541 -36.4243867934058 C6.9488021816349645 -45.105953299827775, 4.522775081620967 -51.80650229629281, 0.2281072281766683 -65.33598868404515" stroke="#e67700" stroke-width="1" fill="none"></path></g><g transform="translate(242.5 449) rotate(0 0.2630352294564773 -32.440060636051925)"><path d="M-10.011524491916061 -35.148767386726774 C-4.546430211904054 -46.323320509022395, 0.007780404679609276 -60.52530579513851, 1.5254293561447412 -64.29954953719862 M-10.400492218295694 -37.009887457988896 C-7.8681462214989635 -45.354882179824926, -4.59470151048782 -51.892750523221444, 0.2281072281766683 -65.33598868404515" stroke="#e67700" stroke-width="1" fill="none"></path></g></g><g transform="translate(130.5 356) rotate(0 24 13)"><text x="0" y="18" font-family="Virgil, Segoe UI Emoji" font-size="20px" fill="#c92a2a" text-anchor="start" style="white-space: pre;" direction="ltr">NULL</text></g><g transform="translate(228.5 449) rotate(0 14.5 13)"><text x="0" y="18" font-family="Virgil, Segoe UI Emoji" font-size="20px" fill="#e67700" text-anchor="start" style="white-space: pre;" direction="ltr">cur</text></g><g transform="translate(302.5 450) rotate(0 15 13)"><text x="0" y="18" font-family="Virgil, Segoe UI Emoji" font-size="20px" fill="#e67700" text-anchor="start" style="white-space: pre;" direction="ltr">pre</text></g><g><g transform="translate(232.5 365.334855914434) rotate(0 -24.807672895491123 1.6840565632882942)"><path d="M1.1364015206694604 0.8378042355179784 C-7.518683073421318 1.237787271542267, -42.29905071804921 2.8649110069022394, -50.751747311651705 3.136065612750747 M0.27387358968146147 0.2320475138258189 C-8.098151705119138 0.1974665861388458, -40.03467121397766 0.6579520446237987, -48.43446011389606 1.226388475716733" stroke="#e67700" stroke-width="1" fill="none"></path></g><g transform="translate(232.5 365.334855914434) rotate(0 -24.807672895491123 1.6840565632882942)"><path d="M-23.846641444218413 -9.461528011697615 C-33.74477809774801 -3.531320338926186, -44.09921055103956 -1.692463249073544, -50.12989585394971 0.8477803457981576 M-25.942767974537865 -7.585273061978901 C-33.14678462477017 -5.752691769407431, -40.119839208606614 -2.012717024315121, -48.51739527950995 1.8630091276473035" stroke="#e67700" stroke-width="1" fill="none"></path></g><g transform="translate(232.5 365.334855914434) rotate(0 -24.807672895491123 1.6840565632882942)"><path d="M-23.207712797209673 7.653038560659512 C-33.46528323528256 6.77376268902553, -44.074156257137446 1.7970855720889256, -50.12989585394971 0.8477803457981576 M-25.303839327529126 9.529293510378226 C-32.55211269283946 6.046651971000388, -39.72345752679472 4.475154610097908, -48.51739527950995 1.8630091276473035" stroke="#e67700" stroke-width="1" fill="none"></path></g></g><g transform="translate(301.5 352) rotate(0 7.5 13)"><text x="0" y="18" font-family="Virgil, Segoe UI Emoji" font-size="20px" fill="#000000" text-anchor="start" style="white-space: pre;" direction="ltr">2</text></g><g><g transform="translate(256.5 364) rotate(0 19.834237323701416 0.8524355467688167)"><path d="M-0.7517473116517066 0.4055192604660989 C5.7955560947457965 0.388249474267165, 33.75007156779369 0.8046489690740903, 40.42022195905447 0.7341855183243752 M1.054446620391682 -0.42718707312829785 C7.3810630263357115 -0.33665574888077865, 32.905240271932755 1.9331664660604049, 39.69279302393086 2.1320581666659564" stroke="#000000" stroke-width="1" fill="none"></path></g><g transform="translate(256.5 364) rotate(0 19.834237323701416 0.8524355467688167)"><path d="M21.184600350140204 8.508863116344841 C27.598029768637915 4.470108324446875, 33.9175683309497 3.069085513767944, 39.89975372438319 0.33202970097772777 M19.88727822217213 7.472423969498308 C24.78042498430074 6.7949765446087405, 29.72362011180526 5.58612202523513, 40.00828236450441 3.118016992462799" stroke="#000000" stroke-width="1" fill="none"></path></g><g transform="translate(256.5 364) rotate(0 19.834237323701416 0.8524355467688167)"><path d="M22.024075251301337 -5.150445254637143 C28.201529039992554 -3.8031282432353204, 34.18972675243572 0.18717969105342824, 39.89975372438319 0.33202970097772777 M20.726753123333264 -6.186884401483676 C25.321751467480638 -3.5631538305992123, 30.062384123501978 -1.4760631602476897, 40.00828236450441 3.118016992462799" stroke="#000000" stroke-width="1" fill="none"></path></g></g><g transform="translate(364.5 352) rotate(0 7 13)"><text x="0" y="18" font-family="Virgil, Segoe UI Emoji" font-size="20px" fill="#000000" text-anchor="start" style="white-space: pre;" direction="ltr">3</text></g><g transform="translate(435.5 351) rotate(0 6 13)"><text x="0" y="18" font-family="Virgil, Segoe UI Emoji" font-size="20px" fill="#000000" text-anchor="start" style="white-space: pre;" direction="ltr">4</text></g><g transform="translate(509.5 350) rotate(0 7 13)"><text x="0" y="18" font-family="Virgil, Segoe UI Emoji" font-size="20px" fill="#000000" text-anchor="start" style="white-space: pre;" direction="ltr">5</text></g><g transform="translate(581.5 350) rotate(0 24 13)"><text x="0" y="18" font-family="Virgil, Segoe UI Emoji" font-size="20px" fill="#000000" text-anchor="start" style="white-space: pre;" direction="ltr">NULL</text></g><g><g transform="translate(320.5 367) rotate(0 17.55345748811959 -0.7508155895490063)"><path d="M-1.017261444032192 -0.22716487795114515 C5.047737039625646 -0.28536023050546644, 30.07203956991434 -0.9779206648468971, 36.1241764202714 -1.0800170794129371 M0.6495375685114415 -1.392030384214595 C6.590638967277483 -1.2764105486590416, 29.046241475166756 -0.3477522256691009, 35.24132357728668 -0.10960079488344499" stroke="#000000" stroke-width="1" fill="none"></path></g><g transform="translate(320.5 367) rotate(0 17.55345748811959 -0.7508155895490063)"><path d="M17.75541107385611 5.557841695025783 C21.273278654805804 2.9373205273728282, 26.39745268208083 3.593059361203496, 34.122701528342446 -0.7145253820437938 M18.66911697752034 5.655517471134883 C23.420190160848264 3.255722581670164, 26.320557036732072 2.3947802967712515, 34.941266366885976 0.42879595289938155" stroke="#000000" stroke-width="1" fill="none"></path></g><g transform="translate(320.5 367) rotate(0 17.55345748811959 -0.7508155895490063)"><path d="M18.24338452830557 -6.745210071371646 C21.550739078606146 -5.951479791305836, 26.539330270451828 -1.8773528715820493, 34.122701528342446 -0.714525382043794 M19.1570904319698 -6.647534295262546 C23.839682394281954 -5.845349861505987, 26.613033760133508 -3.5039081215910226, 34.941266366885976 0.42879595289938144" stroke="#000000" stroke-width="1" fill="none"></path></g></g><g><g transform="translate(388.5 368) rotate(0 18.129681661026552 -0.1965405872929864)"><path d="M-0.22716487795114515 0.12417642027139664 C5.881306436161201 0.17631327062845228, 29.855412668486434 -0.8084128245711326, 35.91998292058706 -0.7044403418898582 M-1.805565168214962 -0.8562349044252188 C4.724332296994204 -0.5723584594298154, 31.328385450489197 0.52074723075144, 38.064928490268066 0.4631537298392505" stroke="#000000" stroke-width="1" fill="none"></path></g><g transform="translate(388.5 368) rotate(0 18.129681661026552 -0.1965405872929864)"><path d="M20.749606406191603 4.778372266362133 C23.708652061998244 3.7520811121747113, 30.133649261525868 2.46713644370129, 37.443200442353266 -0.2714471656177193 M20.849995398303733 7.355410510985823 C25.925169744112253 3.5595837809160433, 32.59159722785809 1.8663630897632517, 38.61828070326708 1.0278274053428322" stroke="#000000" stroke-width="1" fill="none"></path></g><g transform="translate(388.5 368) rotate(0 18.129681661026552 -0.1965405872929864)"><path d="M21.001383058846272 -7.873868136121432 C23.79297455756151 -5.875532641549654, 30.15777290284835 -4.135374037825782, 37.443200442353266 -0.2714471656177193 M21.101772050958402 -5.296829891497742 C26.078941454432993 -4.693425383827409, 32.65785715237657 -1.9890176994076283, 38.61828070326708 1.0278274053428322" stroke="#000000" stroke-width="1" fill="none"></path></g></g><g><g transform="translate(457.5 366) rotate(0 23.68395666328263 -0.0661165231565235)"><path d="M0.12417642027139664 -1.0800170794129371 C8.009646603961787 -1.1821134939789772, 38.358253842095536 -0.8954548731446266, 46.29555965811014 -0.8397433653473854 M-1.2697696884255856 0.9673700085561725 C7.095051052890097 1.016040724543855, 40.53021824024307 0.3880081066768619, 48.63768301499076 0.25681661906652176" stroke="#000000" stroke-width="1" fill="none"></path></g><g transform="translate(457.5 366) rotate(0 23.68395666328263 -0.0661165231565235)"><path d="M24.896903450160103 7.500197998730734 C30.035562863552933 8.086573972749132, 34.91449040230344 4.356077591655767, 47.84351988476701 1.2083575883787128 M27.682890741645174 7.892745274601772 C32.293585342042384 5.9967264356795145, 39.11046649341243 4.292414442218778, 49.2481410425622 -0.32373447996564186" stroke="#000000" stroke-width="1" fill="none"></path></g><g transform="translate(457.5 366) rotate(0 23.68395666328263 -0.0661165231565235)"><path d="M24.61943241631527 -8.57235383352247 C29.7873854305199 -4.526998378339055, 34.72603256404335 -4.7982281502698045, 47.84351988476701 1.2083575883787128 M27.40541970780034 -8.179806557651432 C32.199375591992876 -5.388233213237262, 39.097196842901866 -2.4040776318266115, 49.2481410425622 -0.32373447996564186" stroke="#000000" stroke-width="1" fill="none"></path></g></g><g><g transform="translate(532.5 366) rotate(0 19.67566441240251 0.5217854872346095)"><path d="M-1.0800170794129371 -0.7044403418898582 C5.317886506021022 -0.43380119254191707, 31.60454512685537 1.5311517690618834, 38.16025663465261 1.7480113163590432 M0.5538352245558054 1.5401245332788678 C7.350116903530434 1.4597169842353712, 33.730812449501826 -0.008916763958210838, 40.431345904218034 0.01814250866882494" stroke="#000000" stroke-width="1" fill="none"></path></g><g transform="translate(532.5 366) rotate(0 19.67566441240251 0.5217854872346095)"><path d="M21.159690068606714 5.859197083279532 C28.608068870850268 4.149719681192323, 31.831426591579334 2.561983311869306, 41.35940328026542 -0.1436342191105735 M21.54254945834246 6.492719970942531 C28.724870759345773 4.099759147747734, 36.049389707269654 2.3997400353961784, 39.86512253916559 0.23066348946335258" stroke="#000000" stroke-width="1" fill="none"></path></g><g transform="translate(532.5 366) rotate(0 19.67566441240251 0.5217854872346095)"><path d="M20.768517624954896 -7.478237561575723 C28.340644731007337 -5.435447021978517, 31.67394913146362 -3.2744360572849507, 41.35940328026542 -0.1436342191105735 M21.15137701469064 -6.844714673912723 C28.51803107900947 -4.391213269014299, 35.98480460563839 -1.2409133540403652, 39.86512253916559 0.23066348946335258" stroke="#000000" stroke-width="1" fill="none"></path></g></g></svg>