<svg version="1.1" xmlns="http://www.w3.org/2000/svg" viewBox="0 0 1240 771.5" width="1240" height="771.5">
  <!-- svg-source:excalidraw -->
  
  <defs>
    <style>
      @font-face {
        font-family: "Virgil";
        src: url("https://excalidraw.com/FG_Virgil.woff2");
      }
      @font-face {
        font-family: "Cascadia";
        src: url("https://excalidraw.com/Cascadia.woff2");
      }
    </style>
  </defs>
  <rect x="0" y="0" width="1240" height="771.5" fill="#ffffff"></rect><g transform="translate(146 63) rotate(0 70 16)"><text x="0" y="24" font-family="Virgil, Segoe UI Emoji" font-size="20px" fill="#000000" text-anchor="start" style="white-space: pre;" direction="ltr">链表的中间结点</text></g><g transform="translate(55 163) rotate(0 2 13)"><text x="0" y="18" font-family="Virgil, Segoe UI Emoji" font-size="20px" fill="#000000" text-anchor="start" style="white-space: pre;" direction="ltr">1</text></g><g transform="translate(138 161) rotate(0 7.5 13)"><text x="0" y="18" font-family="Virgil, Segoe UI Emoji" font-size="20px" fill="#000000" text-anchor="start" style="white-space: pre;" direction="ltr">2</text></g><g transform="translate(236 164) rotate(0 7 13)"><text x="0" y="18" font-family="Virgil, Segoe UI Emoji" font-size="20px" fill="#000000" text-anchor="start" style="white-space: pre;" direction="ltr">3</text></g><g transform="translate(327 163) rotate(0 6 13)"><text x="0" y="18" font-family="Virgil, Segoe UI Emoji" font-size="20px" fill="#000000" text-anchor="start" style="white-space: pre;" direction="ltr">4</text></g><g transform="translate(405 160) rotate(0 7 13)"><text x="0" y="18" font-family="Virgil, Segoe UI Emoji" font-size="20px" fill="#000000" text-anchor="start" style="white-space: pre;" direction="ltr">5</text></g><g transform="translate(484 158) rotate(0 24 13)"><text x="0" y="18" font-family="Virgil, Segoe UI Emoji" font-size="20px" fill="#000000" text-anchor="start" style="white-space: pre;" direction="ltr">NULL</text></g><g><g transform="translate(69 173) rotate(0 33.083583116903895 0.2406360682100086)"><path d="M-0.35074486099183555 1.1948150631040335 C10.787794894352556 1.0473452921956778, 55.63122261203826 -0.6532943014055489, 66.51791109479964 -0.7135429266840219 M1.6659753576479854 0.7764890258945525 C12.719227195736021 0.7559653734602034, 54.89899561440572 0.7573029785789549, 65.84176895594224 0.4492722880281508" stroke="#000000" stroke-width="1" fill="none"></path></g><g transform="translate(69 173) rotate(0 33.083583116903895 0.2406360682100086)"><path d="M39.7697044477425 11.91643276259015 C44.26024628868872 6.513267281317555, 54.52463020349409 3.5759179809651505, 64.6911768467538 0.21756965296342967 M38.524854036662674 11.742239528407255 C45.76887511338531 8.565068986973198, 54.091971547506105 5.459206376627205, 66.39577254759148 0.7566447882167995" stroke="#000000" stroke-width="1" fill="none"></path></g><g transform="translate(69 173) rotate(0 33.083583116903895 0.2406360682100086)"><path d="M39.51919424431852 -8.603246743284691 C44.107635856669816 -8.385557712500018, 54.44063185583171 -5.702784710515799, 64.6911768467538 0.21756965296342967 M38.274343833238696 -8.777439977467585 C45.64692973245168 -6.331852311057029, 54.03869230083879 -3.8131653070804665, 66.39577254759148 0.7566447882167995" stroke="#000000" stroke-width="1" fill="none"></path></g></g><g><g transform="translate(164 176) rotate(0 33.71484906399624 -1.238850340787323)"><path d="M0.3463930126279593 -0.06288743577897549 C11.698595686381063 -0.35428936642905073, 56.956515256191295 -0.38540172340969253, 68.36058751307428 -0.8801563914865256 M-0.9308893850818277 -1.1415072849020362 C10.273198403579492 -1.8165274809425076, 56.04506689673911 -2.2291608399773635, 67.60185049381107 -2.414813245795667" stroke="#000000" stroke-width="1" fill="none"></path></g><g transform="translate(164 176) rotate(0 33.71484906399624 -1.238850340787323)"><path d="M39.44091953688326 8.809452210331136 C50.33046609331046 6.006219540668802, 55.7402268501812 2.224016395334158, 69.08870426286012 -2.4965274791792034 M38.963221835689865 7.863717904092544 C47.70873682506285 5.480286607753296, 55.72378736696291 1.6342915624664611, 67.4084576703608 -1.679794013649225" stroke="#000000" stroke-width="1" fill="none"></path></g><g transform="translate(164 176) rotate(0 33.71484906399624 -1.238850340787323)"><path d="M39.17628759242394 -11.71005003313986 C50.29914696803237 -7.935200964811749, 55.793752507678974 -5.1385584833519555, 69.08870426286012 -2.4965274791792034 M38.69858989123055 -12.655784339378451 C47.47819210137338 -9.323132911607907, 55.56697228312577 -7.452148045601703, 67.4084576703608 -1.679794013649225" stroke="#000000" stroke-width="1" fill="none"></path></g></g><g><g transform="translate(258 173) rotate(0 28.867139433389582 0.21897711781539897)"><path d="M0.017286116257309914 -0.7818821433931589 C9.927191736673317 -1.1276790423939624, 49.329167936618134 -1.1345315062751373, 59.16705626882613 -1.0268474940210581 M-1.4327774020470678 1.4220257859863343 C8.35930738027518 1.7965532632110022, 48.35086223439003 1.0709162411528332, 58.30671534633264 0.4964828228391709" stroke="#000000" stroke-width="1" fill="none"></path></g><g transform="translate(258 173) rotate(0 28.867139433389582 0.21897711781539897)"><path d="M29.636822275346546 11.80036489357397 C38.34217210023756 8.553352137292608, 47.37052944985538 5.5346372863819076, 59.106081323157994 -1.308449840378016 M31.851489462418883 12.000152062337548 C36.440892475960084 9.927813303315968, 41.780233898221695 6.699513923517109, 57.640513988602905 0.2907438508979978" stroke="#000000" stroke-width="1" fill="none"></path></g><g transform="translate(258 173) rotate(0 28.867139433389582 0.21897711781539897)"><path d="M28.952401117144007 -8.370113340916749 C38.02254591254642 -6.057530640507198, 47.239553833335584 -3.51655144319607, 59.106081323157994 -1.308449840378016 M31.167068304216343 -8.170326172153171 C35.86854579148915 -6.107192558827566, 41.34803660804381 -5.2051691493819945, 57.640513988602905 0.2907438508979978" stroke="#000000" stroke-width="1" fill="none"></path></g></g><g><g transform="translate(344 172) rotate(0 24.717776470817682 -0.43839988268911156)"><path d="M-1.14558743275702 -0.25096661411225796 C7.328264303567517 -0.35380249277998815, 41.96592930884415 -0.8263327859962885, 50.58114037439232 -0.5729877106845265 M0.45384043570607924 -1.428328031860292 C8.861768153409171 -1.3994667862852397, 41.76104887013638 0.4000103512903148, 50.048144259043085 0.5515282664820664" stroke="#000000" stroke-width="1" fill="none"></path></g><g transform="translate(344 172) rotate(0 24.717776470817682 -0.43839988268911156)"><path d="M25.927224218527876 9.483037923819293 C31.625229491446078 7.53226415683419, 41.28872625654243 4.749538810214791, 50.44414511185144 -0.09130582135169574 M26.44385194653561 7.620096585138608 C36.1992293904953 6.144159624794725, 44.364708680293184 2.096478882697429, 49.62515681751077 0.5247380601614826" stroke="#000000" stroke-width="1" fill="none"></path></g><g transform="translate(344 172) rotate(0 24.717776470817682 -0.43839988268911156)"><path d="M26.578473233813952 -7.5340393974752615 C32.10156461668198 -4.7574041977209465, 41.58390398826748 -2.806503388538369, 50.44414511185144 -0.09130582135169574 M27.095100961821686 -9.396980736155946 C36.56591332803431 -4.27762204142344, 44.478846514820574 -1.726296165057616, 49.62515681751077 0.5247380601614826" stroke="#000000" stroke-width="1" fill="none"></path></g></g><g><g transform="translate(426 174) rotate(0 24.296282859062785 -0.4801101807411783)"><path d="M0.29730491079390053 -0.7946510676294565 C8.624324916178983 -1.111971124385794, 41.654774143671 -2.297310857350628, 49.59831445850432 -2.3627735380083323 M-1.0057487403787673 1.4025531765259802 C7.247435479021322 1.298007838173459, 40.412411700145654 -0.2648222692372898, 48.96438408559188 -1.0158043942414223" stroke="#000000" stroke-width="1" fill="none"></path></g><g transform="translate(426 174) rotate(0 24.296282859062785 -0.4801101807411783)"><path d="M25.18211184611825 9.824902154100576 C31.996045573799123 4.381688228187811, 40.01145465706658 4.302759802510437, 49.892368958424775 -2.258007877599448 M26.546614113098958 9.713831579839328 C34.95050637009677 5.215735005009385, 42.66148034824623 1.4614602012157825, 49.63616410093382 -1.5226838235743343" stroke="#000000" stroke-width="1" fill="none"></path></g><g transform="translate(426 174) rotate(0 24.296282859062785 -0.4801101807411783)"><path d="M24.108961554894304 -6.913673221416746 C31.148300958217835 -7.845438893369975, 39.453120290729224 -3.410260291324475, 49.892368958424775 -2.258007877599448 M25.47346382187501 -7.024743795677994 C34.27270468132881 -5.158453839186574, 42.391242618839044 -2.5557066024568345, 49.63616410093382 -1.5226838235743343" stroke="#000000" stroke-width="1" fill="none"></path></g></g><g transform="translate(792 10) rotate(0 219 64)"><text x="0" y="24" font-family="Virgil, Segoe UI Emoji" font-size="20px" fill="#c92a2a" text-anchor="start" style="white-space: pre;" direction="ltr">1、定义两个指针slow和fast，slow一次走一步，</text><text x="0" y="56" font-family="Virgil, Segoe UI Emoji" font-size="20px" fill="#c92a2a" text-anchor="start" style="white-space: pre;" direction="ltr">fast一次走两步</text><text x="0" y="88" font-family="Virgil, Segoe UI Emoji" font-size="20px" fill="#c92a2a" text-anchor="start" style="white-space: pre;" direction="ltr">2、当fast走到链表尾部的时候，slow指向的就是</text><text x="0" y="120" font-family="Virgil, Segoe UI Emoji" font-size="20px" fill="#c92a2a" text-anchor="start" style="white-space: pre;" direction="ltr">链表的中间结点</text></g><g><g transform="translate(57 271) rotate(0 -0.4590827807704443 -39.13108022846281)"><path d="M0.2040414277464151 -0.3162412527948618 C0.09651807782550643 -13.209198618307711, 0.4301436765740313 -64.90125476159156, 0.11848633922636487 -77.94591920413077 M-1.1479755520261825 -1.527871855851263 C-1.3824699494677286 -14.160264090057463, 0.02985023782278079 -63.705836723204705, -0.24235379630699772 -76.38010153507814" stroke="#c92a2a" stroke-width="1" fill="none"></path></g><g transform="translate(57 271) rotate(0 -0.4590827807704443 -39.13108022846281)"><path d="M9.316499248800099 -46.2622113104549 C6.40458764083329 -59.49310952582507, 1.6731402156144233 -66.76625227619185, 0.36001781625673157 -75.29999147130177 M9.569276066218734 -48.47245769553005 C5.280043072621549 -60.30318699304092, 2.157047147811406 -69.83161270194867, -0.9923523406498136 -75.55983550714329" stroke="#c92a2a" stroke-width="1" fill="none"></path></g><g transform="translate(57 271) rotate(0 -0.4590827807704443 -39.13108022846281)"><path d="M-11.204316268045627 -46.38922670095249 C-6.654752675496974 -59.608830077452176, -3.9241023395444623 -66.83578551814364, 0.36001781625673157 -75.29999147130177 M-10.951539450626992 -48.59947308602764 C-7.040553764110506 -60.57575918627542, -1.9625201205320852 -70.05342390216825, -0.9923523406498136 -75.55983550714329" stroke="#c92a2a" stroke-width="1" fill="none"></path></g></g><g transform="translate(10 271) rotate(0 51.5 16)"><text x="0" y="24" font-family="Virgil, Segoe UI Emoji" font-size="20px" fill="#c92a2a" text-anchor="start" style="white-space: pre;" direction="ltr">slow、fast</text></g><g transform="translate(52 317.5) rotate(0 2 13)"><text x="0" y="18" font-family="Virgil, Segoe UI Emoji" font-size="20px" fill="#000000" text-anchor="start" style="white-space: pre;" direction="ltr">1</text></g><g transform="translate(135 315.5) rotate(0 7.5 13)"><text x="0" y="18" font-family="Virgil, Segoe UI Emoji" font-size="20px" fill="#000000" text-anchor="start" style="white-space: pre;" direction="ltr">2</text></g><g transform="translate(233 318.5) rotate(0 7 13)"><text x="0" y="18" font-family="Virgil, Segoe UI Emoji" font-size="20px" fill="#000000" text-anchor="start" style="white-space: pre;" direction="ltr">3</text></g><g transform="translate(324 317.5) rotate(0 6 13)"><text x="0" y="18" font-family="Virgil, Segoe UI Emoji" font-size="20px" fill="#000000" text-anchor="start" style="white-space: pre;" direction="ltr">4</text></g><g transform="translate(402 314.5) rotate(0 7 13)"><text x="0" y="18" font-family="Virgil, Segoe UI Emoji" font-size="20px" fill="#000000" text-anchor="start" style="white-space: pre;" direction="ltr">5</text></g><g transform="translate(481 312.5) rotate(0 24 13)"><text x="0" y="18" font-family="Virgil, Segoe UI Emoji" font-size="20px" fill="#000000" text-anchor="start" style="white-space: pre;" direction="ltr">NULL</text></g><g><g transform="translate(66 327.5) rotate(0 32.63587005743756 0.2264710964105916)"><path d="M-0.1313730362802743 -0.7078342851251364 C11.12706959210336 -1.0237195786088704, 56.03022447787225 -1.234228628501296, 66.93122272454202 -0.947863632068038 M-1.659482609666884 1.5349487698450686 C9.576621109806002 1.2575914454832673, 54.89747345980257 0.4813781297579407, 66.47206919129938 0.09193321231752627" stroke="#000000" stroke-width="1" fill="none"></path></g><g transform="translate(66 327.5) rotate(0 32.63587005743756 0.2264710964105916)"><path d="M37.359747509404414 12.587918091431012 C43.811206594184 7.139223642399049, 54.01282031737111 6.429398509094056, 65.50366906125099 -1.5507443537190557 M38.91884062618702 11.571758304588249 C43.9093256295191 7.900858353405685, 51.524500862234554 6.0313541442344505, 65.87599373564125 0.9336131383478641" stroke="#000000" stroke-width="1" fill="none"></path></g><g transform="translate(66 327.5) rotate(0 32.63587005743756 0.2264710964105916)"><path d="M36.86010046419747 -7.927206943919261 C43.59763731185057 -8.279795746500339, 53.923353657681645 -3.8940622345994242, 65.50366906125099 -1.5507443537190557 M38.41919358098008 -8.943366730762024 C43.55949825560725 -8.189795176219304, 51.282377651417484 -5.637048930968375, 65.87599373564125 0.9336131383478641" stroke="#000000" stroke-width="1" fill="none"></path></g></g><g><g transform="translate(161 330.5) rotate(0 34.27931410617197 -0.8970804158598185)"><path d="M-0.7078342851251364 0.9312227245420217 C10.309613754724463 0.49888763787845763, 55.43243803816537 -2.3167930527279776, 67.05213636793196 -2.725383556261659 M1.1214139858447014 0.37451070958748467 C12.425000957803181 0.09456745062644295, 57.99084913924957 -0.9045326171877481, 69.26646249746904 -1.568784672077745" stroke="#000000" stroke-width="1" fill="none"></path></g><g transform="translate(161 330.5) rotate(0 34.27931410617197 -0.8970804158598185)"><path d="M43.032955579117385 8.163537930032138 C50.813772953329305 7.304369257375152, 63.351655358973574 0.3652790793493832, 67.62378493143245 -3.257574823927134 M42.01679579227462 9.114467242998902 C49.537169309922234 6.977213449109065, 58.9328207013857 1.7901160739504283, 70.10814242349937 -0.8370752616412935" stroke="#000000" stroke-width="1" fill="none"></path></g><g transform="translate(161 330.5) rotate(0 34.27931410617197 -0.8970804158598185)"><path d="M42.26226347159178 -12.343193551635952 C50.3126874478355 -5.426708063083058, 63.142626718669334 -4.594690099040463, 67.62378493143245 -3.257574823927134 M41.246103684749016 -11.392264238669188 C48.92234902173038 -6.95943958666872, 58.56502958673801 -5.573534746620067, 70.10814242349937 -0.8370752616412935" stroke="#000000" stroke-width="1" fill="none"></path></g></g><g><g transform="translate(255 327.5) rotate(0 30.283360269330444 -0.20643915023654813)"><path d="M0.9312227245420217 -0.947863632068038 C10.665554304545124 -0.8281653023014466, 48.516540280605355 0.1158851011345784, 58.27461644373834 0.010355693474412009 M-0.03902407441288225 1.1689040157571435 C10.095310296279688 1.0333117168520887, 50.77160505897055 -1.2921984325473508, 60.60574461307377 -1.5817823162302376" stroke="#000000" stroke-width="1" fill="none"></path></g><g transform="translate(255 327.5) rotate(0 30.283360269330444 -0.20643915023654813)"><path d="M31.781118940283804 8.532583272136856 C42.986795838935485 7.056560475013706, 48.209655517615815 1.3413803919209117, 58.91695446122438 -1.1712022380903364 M32.73204825325057 8.841449490800608 C41.24545830058828 6.291376855149625, 46.64657220731797 4.649932925386904, 61.33745402351022 -1.2368311382830144" stroke="#000000" stroke-width="1" fill="none"></path></g><g transform="translate(255 327.5) rotate(0 30.283360269330444 -0.20643915023654813)"><path d="M30.876702201200942 -11.629228523729255 C42.224875943493196 -7.2844527633028555, 47.709159312808715 -7.1718158436803465, 58.91695446122438 -1.1712022380903364 M31.827631514167706 -11.320362305065503 C40.64865080959521 -8.722979005466236, 46.280886238475915 -5.212120428855237, 61.33745402351022 -1.2368311382830144" stroke="#000000" stroke-width="1" fill="none"></path></g></g><g><g transform="translate(341 326.5) rotate(0 24.926531124301277 0.16531453741714586)"><path d="M-0.947863632068038 -0.7253835562616586 C7.636929728897917 -0.7650563690190495, 42.44136025713139 0.7009719877814347, 50.80092588067059 0.6931858479976767 M0.7553692317567764 1.5081861313618719 C9.332482927038033 1.0233710524501918, 42.48608106627444 -0.930849868698657, 50.38331715611746 -1.1775570565275735" stroke="#000000" stroke-width="1" fill="none"></path></g><g transform="translate(341 326.5) rotate(0 24.926531124301277 0.16531453741714586)"><path d="M26.210312117108625 10.120932530016017 C33.67878899295033 5.332753444354776, 36.771294197463476 2.295120862727682, 50.79389723425736 -2.0666051653586215 M26.519178335772377 9.402173647992623 C34.7176290371189 4.736222665612106, 43.730231586061585 2.814891474704706, 50.72826833406468 -2.0392463661171383" stroke="#000000" stroke-width="1" fill="none"></path></g><g transform="translate(341 326.5) rotate(0 24.926531124301277 0.16531453741714586)"><path d="M25.402752870235194 -6.889443535833255 C33.19786641616773 -7.571508283255962, 36.485004551225664 -6.509405326984955, 50.79389723425736 -2.0666051653586215 M25.711619088898946 -7.608202417856649 C34.274128761512664 -6.520640837298059, 43.55963540380235 -2.693537748349116, 50.72826833406468 -2.0392463661171383" stroke="#000000" stroke-width="1" fill="none"></path></g></g><g><g transform="translate(423 328.5) rotate(0 24.377148073539104 -0.7853421922773123)"><path d="M-0.7253835562616586 1.010355693474412 C7.366025940204659 0.738159619147579, 41.35638353389998 -1.9104351139316953, 49.47967970333993 -2.5810400780290363 M1.0946513473615052 0.4951884872093797 C8.98852954066048 0.45945722206185263, 40.56736602024486 -0.8948367605234184, 48.783466083966196 -1.3486608677729963" stroke="#000000" stroke-width="1" fill="none"></path></g><g transform="translate(423 328.5) rotate(0 24.377148073539104 -0.7853421922773123)"><path d="M27.85046967209429 8.923123582915338 C33.81315672780122 3.0409307225581994, 41.63295949748356 1.517423046948803, 47.89441797513515 -0.5899222512915729 M27.131710790070898 7.713129431658359 C33.627102200771844 5.819617434835646, 42.951955157994796 1.97359242299148, 47.92177677437663 -1.9533240656554698" stroke="#000000" stroke-width="1" fill="none"></path></g><g transform="translate(423 328.5) rotate(0 24.377148073539104 -0.7853421922773123)"><path d="M27.053135561948473 -7.830855510608291 C33.18456009194101 -7.381894362606193, 41.30543773153545 -2.5790678052925715, 47.89441797513515 -0.5899222512915729 M26.33437667992508 -9.04084966186527 C33.00633941850131 -5.00318204818703, 42.613119996563896 -2.9252043046865577, 47.92177677437663 -1.9533240656554698" stroke="#000000" stroke-width="1" fill="none"></path></g></g><g><g transform="translate(143.5 427) rotate(0 -0.3356732470153361 -38.95441273804752)"><path d="M0.36492553912103176 -0.6793010886758566 C0.44477141660948594 -13.472282176837325, 0.013921836639444019 -64.74569024406372, -0.342851472273469 -77.5834181126207 M-0.9026272821798921 1.57846189443022 C-0.8513836078221599 -11.511466516815126, -1.214888068077465 -66.51860083397477, -0.9458939588442445 -79.4872873705253" stroke="#c92a2a" stroke-width="1" fill="none"></path></g><g transform="translate(143.5 427) rotate(0 -0.3356732470153361 -38.95441273804752)"><path d="M8.047150510111507 -50.15235033035063 C7.7238464853902356 -59.04732435493759, 5.176047558333801 -64.81631128390762, 0.18794492382556194 -79.95058201629668 M8.539046721281167 -51.83034095968836 C6.139954890089956 -60.91827243000819, 2.3068762957215316 -69.28436721378702, -1.0280092318356038 -79.27362993642687" stroke="#c92a2a" stroke-width="1" fill="none"></path></g><g transform="translate(143.5 427) rotate(0 -0.3356732470153361 -38.95441273804752)"><path d="M-12.473821832278961 -50.25082118230755 C-8.047072897739298 -59.18540382760678, -5.844141442215133 -64.9315941531613, 0.18794492382556194 -79.95058201629668 M-11.981925621109301 -51.928811811645275 C-7.911754745302238 -61.06745238463796, -5.276464877144946 -69.40250839780452, -1.0280092318356038 -79.27362993642687" stroke="#c92a2a" stroke-width="1" fill="none"></path></g></g><g><g transform="translate(241.5 425) rotate(0 -0.24700881144030973 -38.52652883062137)"><path d="M0.8737002488225698 -0.8152890857309103 C0.8819625691821177 -13.818156343325974, -0.4473992788543304 -65.57725624404848, -0.6194573167711497 -78.42413786016405 M-0.12674584988504645 1.371080198921263 C-0.1846671001488963 -11.428924620710314, -1.308402769205471 -64.12673898395151, -1.3677178717032075 -77.10938498552889" stroke="#c92a2a" stroke-width="1" fill="none"></path></g><g transform="translate(241.5 425) rotate(0 -0.24700881144030973 -38.52652883062137)"><path d="M7.927213452633961 -48.430581107338384 C6.0720847905360085 -54.43480962579041, 4.349200079785179 -62.27755259254035, -2.95366682510823 -76.45131479937584 M8.677866659004732 -49.64965638385476 C4.464652607816597 -60.1375587652486, 0.5470466901520687 -69.76155128996078, -0.8727513451874256 -76.58018354222179" stroke="#c92a2a" stroke-width="1" fill="none"></path></g><g transform="translate(241.5 425) rotate(0 -0.24700881144030973 -38.52652883062137)"><path d="M-12.591989325611355 -48.143666954517 C-9.43438316549744 -54.36737044599638, -6.145506014154116 -62.28019144766538, -2.95366682510823 -76.45131479937584 M-11.841336119240584 -49.36274223103338 C-8.148822326296632 -59.81767274481385, -4.160424767013943 -69.55221265844293, -0.8727513451874256 -76.58018354222179" stroke="#c92a2a" stroke-width="1" fill="none"></path></g></g><g transform="translate(121 426) rotate(0 24 13)"><text x="0" y="18" font-family="Virgil, Segoe UI Emoji" font-size="20px" fill="#c92a2a" text-anchor="start" style="white-space: pre;" direction="ltr"> slow</text></g><g transform="translate(223 425) rotate(0 22.5 13)"><text x="0" y="18" font-family="Virgil, Segoe UI Emoji" font-size="20px" fill="#c92a2a" text-anchor="start" style="white-space: pre;" direction="ltr">fast</text></g><g transform="translate(50.5 468) rotate(0 2 13)"><text x="0" y="18" font-family="Virgil, Segoe UI Emoji" font-size="20px" fill="#000000" text-anchor="start" style="white-space: pre;" direction="ltr">1</text></g><g transform="translate(133.5 466) rotate(0 7.5 13)"><text x="0" y="18" font-family="Virgil, Segoe UI Emoji" font-size="20px" fill="#000000" text-anchor="start" style="white-space: pre;" direction="ltr">2</text></g><g transform="translate(231.5 469) rotate(0 7 13)"><text x="0" y="18" font-family="Virgil, Segoe UI Emoji" font-size="20px" fill="#000000" text-anchor="start" style="white-space: pre;" direction="ltr">3</text></g><g transform="translate(322.5 468) rotate(0 6 13)"><text x="0" y="18" font-family="Virgil, Segoe UI Emoji" font-size="20px" fill="#000000" text-anchor="start" style="white-space: pre;" direction="ltr">4</text></g><g transform="translate(400.5 465) rotate(0 7 13)"><text x="0" y="18" font-family="Virgil, Segoe UI Emoji" font-size="20px" fill="#000000" text-anchor="start" style="white-space: pre;" direction="ltr">5</text></g><g transform="translate(479.5 463) rotate(0 24 13)"><text x="0" y="18" font-family="Virgil, Segoe UI Emoji" font-size="20px" fill="#000000" text-anchor="start" style="white-space: pre;" direction="ltr">NULL</text></g><g><g transform="translate(64.5 478) rotate(0 33.21154657032341 0.16449608121067172)"><path d="M0.6024993415921926 0.045717996731400534 C11.377141081914305 0.17716508544981482, 53.971000694856045 -0.025458603724837353, 64.85342022143304 -0.15249120555818085 M-0.5403272334113718 -0.9758840003237129 C10.567980131767692 -0.5710594418272377, 56.02715719070286 1.1047524175420402, 66.96342037405819 1.3048761627450585" stroke="#000000" stroke-width="1" fill="none"></path></g><g transform="translate(64.5 478) rotate(0 33.21154657032341 0.16449608121067172)"><path d="M38.56185544948824 8.828796990211499 C47.336681418745826 7.433048741518391, 55.427879810786266 2.794397192556633, 68.76295891750604 2.829906934015453 M38.929963274074574 9.761597597035957 C46.16473548621557 8.625429665785855, 52.663904834465 6.333109782428014, 67.95469811812043 1.272859791368246" stroke="#000000" stroke-width="1" fill="none"></path></g><g transform="translate(64.5 478) rotate(0 33.21154657032341 0.16449608121067172)"><path d="M39.159757477225256 -11.683699580198143 C47.58408843024309 -6.571301111536196, 55.485673664962036 -4.704807906293302, 68.76295891750604 2.829906934015453 M39.52786530181159 -10.750898973373685 C46.75747590063694 -7.000165762502176, 53.114333804251615 -4.410142244133913, 67.95469811812043 1.272859791368246" stroke="#000000" stroke-width="1" fill="none"></path></g></g><g><g transform="translate(159.5 481) rotate(0 33.22904500505891 -0.618560803299772)"><path d="M0.045717996731400534 -1.1465797785669565 C11.510498418783149 -1.5974935853232939, 56.64120806294183 -1.7789270682881275, 67.84750879444182 -2.1029834989458323 M-1.3894187843240797 0.8658618923462926 C9.986350070492675 0.5575860852437713, 54.954223427033675 -0.08428699091697711, 66.81940544789657 -0.6196245846711097" stroke="#000000" stroke-width="1" fill="none"></path></g><g transform="translate(159.5 481) rotate(0 33.22904500505891 -0.618560803299772)"><path d="M37.015794501150324 10.171601375021348 C44.87980603535411 6.773685643610779, 49.41338927219321 7.320041792587457, 68.34443621916697 -1.8592645914666353 M37.94859510797478 11.38969339841635 C49.423725457878895 6.934589608342163, 59.60981874186963 3.1888528179863425, 66.78738907651976 -0.08188731478527167" stroke="#000000" stroke-width="1" fill="none"></path></g><g transform="translate(159.5 481) rotate(0 33.22904500505891 -0.618560803299772)"><path d="M36.441601610173436 -10.341572560520445 C44.535829520799844 -9.194626584879748, 49.19663601914381 -4.103189970945864, 68.34443621916697 -1.8592645914666353 M37.37440221699789 -9.123480537125443 C49.216551523227736 -6.05563970840213, 59.61329412914105 -2.2758807151886646, 66.78738907651976 -0.08188731478527167" stroke="#000000" stroke-width="1" fill="none"></path></g></g><g><g transform="translate(253.5 478) rotate(0 28.875218361243583 -0.9344844099134377)"><path d="M-1.1465797785669565 -0.15249120555818085 C8.569173081343374 -0.44619047405819107, 49.0544062650452 -1.7551800028731426, 58.89701650105417 -1.7164776142686606 M0.45232710834592593 -1.2781530338153244 C9.948328930897018 -1.4341766700769465, 47.93185068524132 -0.48557271615912506, 57.8949047004804 -0.555203110538423" stroke="#000000" stroke-width="1" fill="none"></path></g><g transform="translate(253.5 478) rotate(0 28.875218361243583 -0.9344844099134377)"><path d="M29.813134807341257 9.077426331082977 C38.61488434974506 4.26322039442022, 51.35401440322951 4.172912406234251, 56.65526469368488 0.7820288626477123 M31.03122683073626 9.597487631219126 C41.17816913036047 6.134391888737936, 51.95411096353642 2.111951274603623, 58.43264197036624 -1.4394484512507915" stroke="#000000" stroke-width="1" fill="none"></path></g><g transform="translate(253.5 478) rotate(0 28.875218361243583 -0.9344844099134377)"><path d="M30.02149826371872 -11.103584773415866 C38.75796582710028 -8.852224431182487, 51.424125273231546 -1.874975262758361, 56.65526469368488 0.7820288626477123 M31.23959028711372 -10.583523473279717 C41.3978053738225 -6.455978081938619, 52.09535485646485 -2.8857394224082222, 58.43264197036624 -1.4394484512507915" stroke="#000000" stroke-width="1" fill="none"></path></g></g><g><g transform="translate(339.5 477) rotate(0 24.859104271996785 -0.5576864440925533)"><path d="M-0.15249120555818085 -0.10298349894583225 C8.018904557141171 -0.05812223882724651, 40.57029515312367 -1.0826635689164106, 49.07409257292752 -0.877412217855442 M-1.6916878178156913 -1.2026537812314928 C6.864994540108996 -0.9485543990073086, 42.682706782662656 0.009105907337128571, 51.40989636180927 0.08728089304642017" stroke="#000000" stroke-width="1" fill="none"></path></g><g transform="translate(339.5 477) rotate(0 24.859104271996785 -0.5576864440925533)"><path d="M27.68380209690726 6.953812864410338 C33.27033732340789 7.528504652860628, 43.76964043730389 2.040417930051386, 52.7471283349954 1.6118585609831029 M28.20386339704341 8.832831736455319 C36.34893463394273 6.135831950544029, 44.128014586326636 2.9059542791440665, 50.5256510210969 0.6804393663071209" stroke="#000000" stroke-width="1" fill="none"></path></g><g transform="translate(339.5 477) rotate(0 24.859104271996785 -0.5576864440925533)"><path d="M28.01320452902966 -10.072535536716089 C33.33698016778759 -4.325490274331909, 43.73620758377061 -4.640804931757357, 52.7471283349954 1.6118585609831029 M28.53326582916581 -8.193516664671108 C36.398334940152 -5.022948391243227, 44.063958665076456 -2.3884332451547685, 50.5256510210969 0.6804393663071209" stroke="#000000" stroke-width="1" fill="none"></path></g></g><g><g transform="translate(421.5 479) rotate(0 24.216057734154163 -0.4771146443113423)"><path d="M-0.10298349894583225 -0.7164776142686605 C8.072960070396464 -0.8444418923308452, 39.572747977202134 -0.5823924756298464, 47.909081637486814 -0.9202768739312888 M-1.6161885652318597 1.5217676929011943 C7.016604089202979 1.095989917057256, 41.50732179628064 -1.919571737113098, 50.04830403354019 -2.475996981523931" stroke="#000000" stroke-width="1" fill="none"></path></g><g transform="translate(421.5 479) rotate(0 24.216057734154163 -0.4771146443113423)"><path d="M26.527993999642558 5.8444277638334565 C34.099170917636734 7.133957684990552, 35.62461762904232 4.873300530902752, 51.572881701476874 -1.5873880099132656 M28.407012871687538 7.964400247088426 C33.129654674923984 5.502957923831421, 37.190098009348134 2.600867570443892, 50.64146250680089 -2.1233342142403124" stroke="#000000" stroke-width="1" fill="none"></path></g><g transform="translate(421.5 479) rotate(0 24.216057734154163 -0.4771146443113423)"><path d="M25.234347421589003 -10.878551506635048 C33.04876166850288 -6.168870091321807, 34.83869660274049 -5.010485953345186, 51.572881701476874 -1.5873880099132656 M27.113366293633984 -8.75857902338008 C32.25876148916382 -7.84341937353775, 36.58075872713842 -7.364400402796406, 50.64146250680089 -2.1233342142403124" stroke="#000000" stroke-width="1" fill="none"></path></g></g><g><g transform="translate(243.5 578.5) rotate(0 -0.7730925325397493 -38.70703586345542)"><path d="M0.4445287887006999 -0.5508406285196542 C0.10455838677783819 -13.4954451803118, -0.85499304694434 -64.53603571690618, -1.0279792722314596 -77.3874498847872 M-0.7812323265708983 1.7743640961684286 C-1.370208478315423 -11.5467900971137, -1.9299832655427358 -65.58887768005953, -1.9907138537801803 -79.1884358230792" stroke="#c92a2a" stroke-width="1" fill="none"></path></g><g transform="translate(243.5 578.5) rotate(0 -0.7730925325397493 -38.70703586345542)"><path d="M7.589039330079608 -51.131762863950364 C5.4278826984499355 -61.16922637876743, 0.9402311728878541 -72.82719163096567, -3.943270186353475 -79.03516546858475 M8.846051593951337 -51.892773511701755 C6.607155792591893 -57.54061979353935, 3.765008275000265 -64.09380228926773, -2.678537541460246 -79.12566382752732" stroke="#c92a2a" stroke-width="1" fill="none"></path></g><g transform="translate(243.5 578.5) rotate(0 -0.7730925325397493 -38.70703586345542)"><path d="M-12.931440500515837 -50.95881805204458 C-7.206564748914722 -61.1387639625726, -3.807780097644069 -72.86319541012635, -3.943270186353475 -79.03516546858475 M-11.674428236644108 -51.71982869979597 C-9.281400368868585 -57.45130638651112, -7.4928124773654 -64.04351631585327, -2.678537541460246 -79.12566382752732" stroke="#c92a2a" stroke-width="1" fill="none"></path></g></g><g transform="translate(221 577.5) rotate(0 24 13)"><text x="0" y="18" font-family="Virgil, Segoe UI Emoji" font-size="20px" fill="#c92a2a" text-anchor="start" style="white-space: pre;" direction="ltr"> slow</text></g><g><g transform="translate(414 576) rotate(0 -1.06169931219614 -39.81999836719592)"><path d="M-0.2213561352342367 -0.28200389184057717 C-0.38714288237194217 -13.207408309355378, -0.6465585128714642 -64.39264148510992, -0.8098630364984274 -77.49863481558859 M-1.7967068355716767 -1.4756598803959786 C-2.120052913768838 -14.767533868905158, -1.6121206010816 -66.59020147657023, -1.6580865942873062 -79.35799284255133" stroke="#c92a2a" stroke-width="1" fill="none"></path></g><g transform="translate(414 576) rotate(0 -1.06169931219614 -39.81999836719592)"><path d="M8.032380162763543 -50.81407568230637 C6.120680228585499 -60.38795637897158, 0.5504698955710934 -68.67924927283354, -2.470160739589483 -78.98906072391198 M9.41065652671004 -52.035711620928424 C4.604463106159232 -60.25918679507133, 1.904171492834446 -69.8646370015964, -2.11504396898672 -79.14742695795373" stroke="#c92a2a" stroke-width="1" fill="none"></path></g><g transform="translate(414 576) rotate(0 -1.06169931219614 -39.81999836719592)"><path d="M-12.488699155137008 -50.886918075688676 C-7.927919781433371 -60.3999700426984, -7.025683459194492 -68.66828809697691, -2.470160739589483 -78.98906072391198 M-11.11042279119051 -52.108554014310734 C-9.019871452070872 -60.356005074467554, -4.822721680619699 -69.93697186416557, -2.11504396898672 -79.14742695795373" stroke="#c92a2a" stroke-width="1" fill="none"></path></g></g><g transform="translate(395.5 576) rotate(0 22.5 13)"><text x="0" y="18" font-family="Virgil, Segoe UI Emoji" font-size="20px" fill="#c92a2a" text-anchor="start" style="white-space: pre;" direction="ltr">fast</text></g><g transform="translate(789 145) rotate(0 207 16)"><text x="0" y="24" font-family="Virgil, Segoe UI Emoji" font-size="20px" fill="#c92a2a" text-anchor="start" style="white-space: pre;" direction="ltr">循环条件：fast!=NULL&amp;&amp;fast-&gt;next!=NULL</text></g><g transform="translate(659.5 212) rotate(0 2 13)"><text x="0" y="18" font-family="Virgil, Segoe UI Emoji" font-size="20px" fill="#000000" text-anchor="start" style="white-space: pre;" direction="ltr">1</text></g><g transform="translate(742.5 210) rotate(0 7.5 13)"><text x="0" y="18" font-family="Virgil, Segoe UI Emoji" font-size="20px" fill="#000000" text-anchor="start" style="white-space: pre;" direction="ltr">2</text></g><g transform="translate(840.5 213) rotate(0 7 13)"><text x="0" y="18" font-family="Virgil, Segoe UI Emoji" font-size="20px" fill="#000000" text-anchor="start" style="white-space: pre;" direction="ltr">3</text></g><g transform="translate(931.5 212) rotate(0 6 13)"><text x="0" y="18" font-family="Virgil, Segoe UI Emoji" font-size="20px" fill="#000000" text-anchor="start" style="white-space: pre;" direction="ltr">4</text></g><g transform="translate(1009.5 209) rotate(0 7 13)"><text x="0" y="18" font-family="Virgil, Segoe UI Emoji" font-size="20px" fill="#000000" text-anchor="start" style="white-space: pre;" direction="ltr">5</text></g><g><g transform="translate(673.5 222) rotate(0 32.95474802814425 -0.2999378573521909)"><path d="M-0.6380080584436655 -0.4869891341775655 C10.272039031609895 -0.6039051588624715, 55.60093167982996 -0.426882928237319, 66.54750411473215 -0.2288777645677328 M1.2278989815339445 -1.788262374959886 C11.93269950505346 -1.7621915644034742, 54.85280194278807 1.102580322660506, 65.88689831133932 1.188386660255492" stroke="#000000" stroke-width="1" fill="none"></path></g><g transform="translate(673.5 222) rotate(0 32.95474802814425 -0.2999378573521909)"><path d="M36.49500268033644 11.220623623074923 C48.052766252801135 5.300264941296443, 60.76612816409999 3.3207661851263452, 64.80523111719639 0.03125818651169565 M36.434498064098264 10.602293190041516 C46.36416734865916 6.918988645488307, 54.25468010599205 5.3130150277921215, 65.14230673715473 1.00850919559598" stroke="#000000" stroke-width="1" fill="none"></path></g><g transform="translate(673.5 222) rotate(0 32.95474802814425 -0.2999378573521909)"><path d="M37.31946078520478 -9.284016613202242 C48.63594678900452 -7.199609378352848, 61.027273882275324 -1.1699587936054439, 64.80523111719639 0.03125818651169565 M37.258956168966606 -9.902347046235649 C47.07949266995487 -7.179908796580843, 54.71230274721911 -2.3767019943988723, 65.14230673715473 1.00850919559598" stroke="#000000" stroke-width="1" fill="none"></path></g></g><g><g transform="translate(768.5 225) rotate(0 33.64206655062742 -1.2055346671491947)"><path d="M-0.4869891341775655 0.5475041147321462 C10.729428174470863 0.16074321630100408, 56.23978373842935 -2.5324956102917593, 67.77112223543227 -2.9585734490305184 M1.4582028410397472 -0.21066017037257545 C12.455217947916438 -0.4211027922791739, 55.56205133215214 -1.8434790174725155, 66.702915945407 -1.9243992585502565" stroke="#000000" stroke-width="1" fill="none"></path></g><g transform="translate(768.5 225) rotate(0 33.64206655062742 -1.2055346671491947)"><path d="M39.653081066611975 8.56186270505534 C46.69072817786517 6.536865344538201, 57.7634079803892 0.5984537178660334, 65.5457874716632 -1.6729553453437984 M39.03475063357857 9.13352974947886 C48.542928839195234 4.286769211321143, 60.2022913555258 0.3470941909726015, 66.52303848074749 -2.789495837856084" stroke="#000000" stroke-width="1" fill="none"></path></g><g transform="translate(768.5 225) rotate(0 33.64206655062742 -1.2055346671491947)"><path d="M39.2093873851871 -11.954548733178765 C46.28853711817682 -7.014785944709802, 57.511799841003544 -5.990238039077179, 65.5457874716632 -1.6729553453437984 M38.59105695215369 -11.382881688755244 C48.178947488741606 -8.584297239283032, 60.003566698095014 -4.882496960523484, 66.52303848074749 -2.789495837856084" stroke="#000000" stroke-width="1" fill="none"></path></g></g><g><g transform="translate(862.5 222) rotate(0 29.812967536114115 -1.117305213104629)"><path d="M0.5475041147321462 -0.2288777645677328 C10.32740988296767 -0.1975392675648133, 48.300837723041575 -0.06227106017371034, 58.04142655096948 -0.2989581521600486 M-0.6241949543729424 -1.394642536304891 C9.579640053374073 -1.6649835801745454, 50.44265865868579 -2.173886578542491, 60.250130026601255 -2.0534859308227897" stroke="#000000" stroke-width="1" fill="none"></path></g><g transform="translate(862.5 222) rotate(0 29.812967536114115 -1.117305213104629)"><path d="M32.16858089715372 6.50788890531204 C40.59696060102515 5.456618198448143, 45.184176333045365 1.806855588179615, 60.50157393980771 -0.6043515418842436 M32.74024794157724 7.447790273073235 C38.941026905024835 5.986789675426355, 46.204163820147734 2.5959188935760666, 59.38503344729543 -1.130465602427721" stroke="#000000" stroke-width="1" fill="none"></path></g><g transform="translate(862.5 222) rotate(0 29.812967536114115 -1.117305213104629)"><path d="M32.11909242713507 -13.674137143159761 C40.47778394019532 -9.744050432877257, 45.07721504299846 -8.412229833157994, 60.50157393980771 -0.6043515418842436 M32.69075947155859 -12.734235775398567 C38.72830334508315 -8.98227537054078, 46.00422335088096 -7.160039566474589, 59.38503344729543 -1.130465602427721" stroke="#000000" stroke-width="1" fill="none"></path></g></g><g><g transform="translate(948.5 221) rotate(0 24.341717357365383 0.3962661551792195)"><path d="M-0.2288777645677328 -0.9585734490305184 C8.267555763634551 -1.0157335969929875, 42.263204095823106 0.12490947538366877, 50.491612035036134 0.20454322695733262 M-1.808177320305258 1.1525715448893608 C6.634187630011397 1.2510882797899365, 41.60439292027929 1.8506547998947496, 49.9116135415249 1.7372629463859015" stroke="#000000" stroke-width="1" fill="none"></path></g><g transform="translate(948.5 221) rotate(0 24.341717357365383 0.3962661551792195)"><path d="M24.88299406876375 11.318453494702382 C32.50570702616093 6.930648605931339, 37.44192911839328 6.0813348131512015, 51.36074793046345 0.9033513989485913 M25.822895436524945 9.297376695332034 C32.02850471795052 7.5707798109390225, 36.24750512934761 5.660162493861689, 50.83463386991997 0.8515349047444873" stroke="#000000" stroke-width="1" fill="none"></path></g><g transform="translate(948.5 221) rotate(0 24.341717357365383 0.3962661551792195)"><path d="M24.957170485946463 -5.710919473729617 C32.63833787538322 -5.68114724953259, 37.555317301559114 -2.112742451573423, 51.36074793046345 0.9033513989485913 M25.897071853707658 -7.731996273099965 C32.136993930314176 -5.83486234757785, 36.34021073631871 -4.121889941329348, 50.83463386991997 0.8515349047444873" stroke="#000000" stroke-width="1" fill="none"></path></g></g><g><g transform="translate(1030.5 223.28690317583417) rotate(0 19.016231816634445 -0.4135300433514857)"><path d="M-0.9585734490305184 0.7010418478399514 C5.448682045564055 0.4845044861774216, 32.44698768816889 -1.2898890815473738, 38.99103708229959 -1.5281019345429114 M0.7390367608889936 0.023484872616827523 C6.939580101333558 -0.025445464137636487, 31.96553735550493 -0.4388971032373254, 38.03828608687967 -0.33140184947665263" stroke="#000000" stroke-width="1" fill="none"></path></g><g transform="translate(1030.5 223.28690317583417) rotate(0 19.016231816634445 -0.4135300433514857)"><path d="M20.86310153925776 6.36343954385113 C25.011535745865757 3.076878677627233, 32.64166227945741 3.2996883798459065, 37.2250157956308 -2.0325325446022093 M18.89205110553796 6.950360748362345 C25.017870794404995 4.112844356061689, 30.933522970758137 2.9782448857643122, 37.17448188053828 -1.2854847626591657" stroke="#000000" stroke-width="1" fill="none"></path></g><g transform="translate(1030.5 223.28690317583417) rotate(0 19.016231816634445 -0.4135300433514857)"><path d="M20.83519412909428 -6.97870514547214 C24.967826175150726 -5.6536597509825945, 32.60759821694943 -0.8194667155705944, 37.2250157956308 -2.0325325446022093 M18.86414369537448 -6.3917839409609245 C25.024533884196412 -4.833978931095872, 30.94937925381348 -1.57344055213794, 37.17448188053828 -1.2854847626591657" stroke="#000000" stroke-width="1" fill="none"></path></g></g><g transform="translate(1072 209) rotate(0 5 13)"><text x="0" y="18" font-family="Virgil, Segoe UI Emoji" font-size="20px" fill="#000000" text-anchor="start" style="white-space: pre;" direction="ltr">6</text></g><g transform="translate(1145 207) rotate(0 29 13)"><text x="0" y="18" font-family="Virgil, Segoe UI Emoji" font-size="20px" fill="#000000" text-anchor="start" style="white-space: pre;" direction="ltr">NULL </text></g><g><g transform="translate(1088 223) rotate(0 23.410167826628367 -0.15740703767166053)"><path d="M0.458450597897172 -0.5311889056116342 C8.363669862722357 -0.6920565290997426, 39.821390615279476 -0.25360984442134704, 47.5803372208029 -0.34201462306082253 M-0.7600015675462783 1.8043329736031595 C7.024936522499969 1.2408775959846876, 39.101501819348584 -1.8556782245201366, 46.936968798097226 -2.11914704894647" stroke="#000000" stroke-width="1" fill="none"></path></g><g transform="translate(1088 223) rotate(0 23.410167826628367 -0.15740703767166053)"><path d="M24.576931100802355 8.405083186227621 C33.21835629447179 4.390245250016612, 38.72811808048822 0.14744271457178382, 45.282435570191595 -4.092591281663626 M26.093298134857648 6.9581840692570225 C31.648629755406454 3.876692808373331, 37.15059865584064 2.221648039154786, 47.88887276249007 -2.762881842125207" stroke="#000000" stroke-width="1" fill="none"></path></g><g transform="translate(1088 223) rotate(0 23.410167826628367 -0.15740703767166053)"><path d="M23.457939673412987 -7.634516202128637 C32.53225625495222 -6.642562067982018, 38.39161162989694 -5.874297513994813, 45.282435570191595 -4.092591281663626 M24.97430670746828 -9.081415319099236 C30.773518285482254 -7.459262790671029, 36.60410377682216 -4.40392431522787, 47.88887276249007 -2.762881842125207" stroke="#000000" stroke-width="1" fill="none"></path></g></g><g><g transform="translate(665.5 317) rotate(0 -0.7017572226468474 -38.797442359104764)"><path d="M0.2925223175436258 1.1447901483625171 C0.3344828390826781 -12.012207973375915, -0.611747290318211 -65.62011761702597, -0.8347483929246664 -78.73967486657202 M-1.0130421950854362 0.7002010309137403 C-1.019573688550542 -12.334853356536478, -1.5590334866878888 -64.19210257774219, -1.6960367628373205 -77.59057892030106" stroke="#c92a2a" stroke-width="1" fill="none"></path></g><g transform="translate(665.5 317) rotate(0 -0.7017572226468474 -38.797442359104764)"><path d="M10.758279925248479 -49.230023684707795 C5.3611475682719405 -55.43818033324779, 5.0973428686083055 -60.449520987195015, -2.551383582223207 -78.03689749641345 M9.738737276791488 -49.573207352106785 C6.97713108883504 -57.330031722781946, 2.912701833083588 -65.34724286733315, -1.962390076648444 -76.7313898970373" stroke="#c92a2a" stroke-width="1" fill="none"></path></g><g transform="translate(665.5 317) rotate(0 -0.7017572226468474 -38.797442359104764)"><path d="M-9.76187067672051 -49.02164504292523 C-10.861257507630796 -55.32346981781455, -6.82696536549347 -60.37845691469082, -2.551383582223207 -78.03689749641345 M-10.781413325177502 -49.36482871032422 C-7.63572198662577 -57.306498138578576, -5.7944390957433205 -65.38368078625102, -1.962390076648444 -76.7313898970373" stroke="#c92a2a" stroke-width="1" fill="none"></path></g></g><g transform="translate(618.5 317) rotate(0 51.5 16)"><text x="0" y="24" font-family="Virgil, Segoe UI Emoji" font-size="20px" fill="#c92a2a" text-anchor="start" style="white-space: pre;" direction="ltr">slow、fast</text></g><g transform="translate(659.25 352) rotate(0 2 13)"><text x="0" y="18" font-family="Virgil, Segoe UI Emoji" font-size="20px" fill="#000000" text-anchor="start" style="white-space: pre;" direction="ltr">1</text></g><g transform="translate(742.25 350) rotate(0 7.5 13)"><text x="0" y="18" font-family="Virgil, Segoe UI Emoji" font-size="20px" fill="#000000" text-anchor="start" style="white-space: pre;" direction="ltr">2</text></g><g transform="translate(840.25 353) rotate(0 7 13)"><text x="0" y="18" font-family="Virgil, Segoe UI Emoji" font-size="20px" fill="#000000" text-anchor="start" style="white-space: pre;" direction="ltr">3</text></g><g transform="translate(931.25 352) rotate(0 6 13)"><text x="0" y="18" font-family="Virgil, Segoe UI Emoji" font-size="20px" fill="#000000" text-anchor="start" style="white-space: pre;" direction="ltr">4</text></g><g transform="translate(1009.25 349) rotate(0 7 13)"><text x="0" y="18" font-family="Virgil, Segoe UI Emoji" font-size="20px" fill="#000000" text-anchor="start" style="white-space: pre;" direction="ltr">5</text></g><g><g transform="translate(673.25 362) rotate(0 32.98409420812504 -0.4189530479349344)"><path d="M0.8704463001340625 0.5133537713438272 C11.815868985280396 0.4117884699255228, 55.35856130085886 0.512553757801652, 66.09989653788507 0.5057802502065898 M-0.13170812163501977 -0.2627394440397621 C10.627040184400975 -0.213258780501783, 54.48318711485713 -1.1247787311300634, 65.20429675664752 -1.3512598672136664" stroke="#000000" stroke-width="1" fill="none"></path></g><g transform="translate(673.25 362) rotate(0 32.98409420812504 -0.4189530479349344)"><path d="M38.0852008389744 9.651145451630615 C47.3605575504344 4.5091502870724955, 56.694123467044804 0.5350204746813274, 64.78938517916947 -1.548016310222447 M36.35467096347986 9.243525454702937 C43.86789423373642 7.083564849361659, 49.78335709141956 4.629667147965333, 65.38527522340416 -1.3396910573542118" stroke="#000000" stroke-width="1" fill="none"></path></g><g transform="translate(673.25 362) rotate(0 32.98409420812504 -0.4189530479349344)"><path d="M37.66484458455912 -10.86575740930854 C47.27194411472486 -9.12505483117872, 56.74658721002501 -6.213437754661998, 64.78938517916947 -1.548016310222447 M35.93431470906458 -11.273377406236218 C43.71341726595843 -8.952405610475926, 49.72072249057781 -6.923627245660826, 65.38527522340416 -1.3396910573542118" stroke="#000000" stroke-width="1" fill="none"></path></g></g><g><g transform="translate(768.25 365) rotate(0 33.914753011083235 -1.290822869911807)"><path d="M0.5133537713438272 0.0998965378850698 C11.745121803258856 -0.49210155842204883, 57.17922042446831 -2.184223823125164, 68.50578025020658 -2.6815422777086497 M-0.676274228040129 -0.8932617250643671 C10.344150731818132 -1.4166910737318297, 56.38469227836158 -1.3123645420434575, 67.82326941793785 -1.5019267222844066" stroke="#000000" stroke-width="1" fill="none"></path></g><g transform="translate(768.25 365) rotate(0 33.914753011083235 -1.290822869911807)"><path d="M39.86669472571444 9.78579954514877 C49.53895908204086 5.50630825338067, 60.25193162773893 0.1994724110080508, 67.62651297492907 -3.1321871991269292 M39.45907472878676 9.56092784917579 C50.561826250753015 5.590930189531447, 61.29792540089809 1.3310387458952313, 67.8348382277973 -1.0639059965498747" stroke="#000000" stroke-width="1" fill="none"></path></g><g transform="translate(768.25 365) rotate(0 33.914753011083235 -1.290822869911807)"><path d="M39.73248118709401 -10.734970155617585 C49.60633410453694 -6.9517889462368245, 60.37204331083538 -4.19537812890878, 67.62651297492907 -3.1321871991269292 M39.32486119016633 -10.959841851590564 C50.56438307569934 -7.031737106708858, 61.352131100724236 -3.3947004340982048, 67.8348382277973 -1.0639059965498747" stroke="#000000" stroke-width="1" fill="none"></path></g></g><g><g transform="translate(862.25 362) rotate(0 29.68290302690116 -0.9479537958837909)"><path d="M0.0998965378850698 0.5057802502065898 C9.674565108244616 0.3323400759448609, 48.64910951020817 -0.23483274144430943, 58.31845772229135 -0.5272872742265462 M-1.306796509064734 -0.2742890637740494 C8.584051771921416 -0.8569175813222926, 50.363773134114844 -2.437043142480155, 60.672602562867105 -2.4016878419741987" stroke="#000000" stroke-width="1" fill="none"></path></g><g transform="translate(862.25 362) rotate(0 29.68290302690116 -0.9479537958837909)"><path d="M34.00628115484126 7.127259353782211 C44.15377801489465 2.7938518400711896, 53.199244974215546 0.0973987415564812, 59.04234208602458 -0.7051655073836445 M33.78140945886828 8.345623042109583 C43.071968682909315 4.683722511488931, 52.22538309971177 1.0573834229514087, 61.11062328860164 -2.703235910385847" stroke="#000000" stroke-width="1" fill="none"></path></g><g transform="translate(862.25 362) rotate(0 29.68290302690116 -0.9479537958837909)"><path d="M33.58699798654783 -13.050471592849153 C43.977012706290154 -9.867272926411992, 53.17867823964487 -5.046770803637637, 59.04234208602458 -0.7051655073836445 M33.36212629057485 -11.83210790452178 C42.61931951297344 -8.60269273537865, 51.91591101905156 -5.338727123908335, 61.11062328860164 -2.703235910385847" stroke="#000000" stroke-width="1" fill="none"></path></g></g><g><g transform="translate(948.25 361) rotate(0 24.78772953259761 0.4011532368045323)"><path d="M0.5057802502065898 -0.6815422777086496 C8.797435107144224 -0.8099430415158451, 42.09064241455251 -0.8000071377182905, 50.263282912969636 -0.6705080449581032 M-0.6878238477744163 1.5750440811552107 C7.44225362886365 1.5649188768925784, 41.341236356341625 0.44015696491426165, 49.563411630373494 0.40280975671486186" stroke="#000000" stroke-width="1" fill="none"></path></g><g transform="translate(948.25 361) rotate(0 24.78772953259761 0.4011532368045323)"><path d="M25.2144840624454 10.187449474514317 C32.82648955149201 5.8029309269099985, 42.0600383308271 1.5036686751360637, 51.25993396496405 1.2324227773584537 M26.432847750772773 9.821048725091707 C31.301055298424533 7.525224169516767, 36.249462703795174 5.870395828976179, 49.261863561961846 0.3759994580410533" stroke="#000000" stroke-width="1" fill="none"></path></g><g transform="translate(948.25 361) rotate(0 24.78772953259761 0.4011532368045323)"><path d="M24.862277928455796 -6.838442475043238 C32.60918601713183 -5.388319108435246, 41.96346383226164 -3.851454955108758, 51.25993396496405 1.2324227773584537 M26.08064161678317 -7.204843224465848 C30.982641259535068 -5.884740992141744, 36.005894572578114 -3.921465574913885, 49.261863561961846 0.3759994580410533" stroke="#000000" stroke-width="1" fill="none"></path></g></g><g><g transform="translate(1030.25 363.28690317583414) rotate(0 19.841145309750004 -0.32766791938524875)"><path d="M-0.6815422777086496 0.4727127257734538 C5.654472601041197 0.20040792331502555, 31.522071075066922 -0.7397201262212938, 38.11598581038415 -1.1280485645439797 M1.161509297154844 -0.32471703853458167 C7.863410698436201 -0.4586927225027907, 34.21503952052444 0.4001105536349474, 40.36383289720863 0.2786795397717188" stroke="#000000" stroke-width="1" fill="none"></path></g><g transform="translate(1030.25 363.28690317583414) rotate(0 19.841145309750004 -0.32766791938524875)"><path d="M22.735786748059137 5.32374283160568 C27.207536091445224 4.674681480003011, 31.69433446675046 4.5225514414294645, 41.172911060229744 -1.4278873484972259 M22.378455271942205 6.756795765487845 C27.179202871976955 4.968454766719653, 32.5052179786079 2.874799432822914, 40.33768621597137 0.12271082970863523" stroke="#000000" stroke-width="1" fill="none"></path></g><g transform="translate(1030.25 363.28690317583414) rotate(0 19.841145309750004 -0.32766791938524875)"><path d="M22.873208675543868 -8.017723315269842 C27.358819526834846 -4.554061456723419, 31.803247325995894 -0.592687794702331, 41.172911060229744 -1.4278873484972259 M22.515877199426935 -6.584670381387677 C27.361174804890663 -4.692155344036081, 32.649276930044564 -3.1050679597862207, 40.33768621597137 0.12271082970863523" stroke="#000000" stroke-width="1" fill="none"></path></g></g><g transform="translate(1071.75 349) rotate(0 5 13)"><text x="0" y="18" font-family="Virgil, Segoe UI Emoji" font-size="20px" fill="#000000" text-anchor="start" style="white-space: pre;" direction="ltr">6</text></g><g transform="translate(1144.75 347) rotate(0 29 13)"><text x="0" y="18" font-family="Virgil, Segoe UI Emoji" font-size="20px" fill="#000000" text-anchor="start" style="white-space: pre;" direction="ltr">NULL </text></g><g><g transform="translate(1087.75 363) rotate(0 23.985659626787537 -0.7056544254299411)"><path d="M-0.2489469464868307 -0.11805386580526833 C7.342574884866674 0.03226739925642805, 38.064057920748986 0.33989247443775344, 46.021843713894484 0.017913400754332676 M1.8212171772681178 -1.2256360906921326 C9.737766681270053 -1.3145284132721522, 40.69156946018959 -1.5605871882600089, 48.220266200061886 -1.5702568126283587" stroke="#000000" stroke-width="1" fill="none"></path></g><g transform="translate(1087.75 363) rotate(0 23.985659626787537 -0.7056544254299411)"><path d="M25.978045551350558 4.9540831271705015 C35.41346773428687 4.6920791421013295, 39.44913510453232 0.6126025130148749, 49.45645697547123 -1.40533702833578 M26.186370804218793 7.022364329747556 C33.41632830799424 3.7275769092038873, 41.100702806672196 1.1144306917422275, 47.810170265305786 -1.3111234243400396" stroke="#000000" stroke-width="1" fill="none"></path></g><g transform="translate(1087.75 363) rotate(0 23.985659626787537 -0.7056544254299411)"><path d="M25.89402829653456 -11.124282195660747 C35.23951946561693 -5.929231627077145, 39.30370168110185 -4.551828001169481, 49.45645697547123 -1.40533702833578 M26.102353549402796 -9.056000993083693 C33.36042490925314 -6.849802064005662, 41.073545523452346 -3.9618098787060445, 47.810170265305786 -1.3111234243400396" stroke="#000000" stroke-width="1" fill="none"></path></g></g><g><g transform="translate(746 460.5) rotate(0 -0.06143441315873588 -39.584784531220805)"><path d="M-0.925774896517396 -0.0800297912210226 C-0.7596588774273794 -13.327005630359054, -0.1806543314208589 -65.93189868293702, -0.11805202998220943 -79.08953927122056 M0.7890545534715057 -1.1676493769511582 C0.9718601937716206 -14.33991978343576, -0.29161672436942676 -65.27756870325655, -0.6030748093500735 -78.12412213739007" stroke="#c92a2a" stroke-width="1" fill="none"></path></g><g transform="translate(746 460.5) rotate(0 -0.06143441315873588 -39.584784531220805)"><path d="M10.193969670551454 -48.71631782004829 C6.156377816828507 -55.30688350537748, 3.998748972390162 -63.06113005008912, -0.7439947424456479 -76.47021259386092 M9.535919907371138 -49.436436297057526 C6.501118622352198 -59.24079912137885, 3.9208730896582695 -67.17325031166234, -0.30565750673413294 -77.49350756332278" stroke="#c92a2a" stroke-width="1" fill="none"></path></g><g transform="translate(746 460.5) rotate(0 -0.06143441315873588 -39.584784531220805)"><path d="M-10.321394771447615 -48.226599331731165 C-10.111767032086433 -54.760316087262105, -8.020575247751509 -62.61598544711973, -0.7439947424456479 -76.47021259386092 M-10.97944453462793 -48.9467178087404 C-7.994852189134049 -58.782719249920014, -4.556325032373709 -66.85884345519366, -0.30565750673413294 -77.49350756332278" stroke="#c92a2a" stroke-width="1" fill="none"></path></g></g><g><g transform="translate(844 458.5) rotate(0 -1.0195660617295061 -39.277311218893146)"><path d="M-0.0800297912210226 0.8819479700177906 C-0.4936722970257202 -11.888783061876893, -1.765232016270359 -64.2813240531832, -2.0895392712205645 -77.5501610878855 M-1.581184160951525 0.2993667089380323 C-1.6725102711158493 -12.756630366500465, -0.2680976937649149 -66.42044239288195, 0.05040714776143451 -79.4365704078041" stroke="#c92a2a" stroke-width="1" fill="none"></path></g><g transform="translate(844 458.5) rotate(0 -1.0195660617295061 -39.277311218893146)"><path d="M11.076279755519566 -52.81510571850153 C7.396285715316004 -62.17628001953186, 2.2488965442004796 -70.06832229070412, 1.7043166912905874 -79.5689947120659 M10.35616127851033 -51.65410943137171 C6.217547944989102 -59.27386446838764, 3.7358587527800866 -67.11869070155544, 0.6810217218287291 -79.04046560542658" stroke="#c92a2a" stroke-width="1" fill="none"></path></g><g transform="translate(844 458.5) rotate(0 -1.0195660617295061 -39.277311218893146)"><path d="M-9.438574923422236 -53.32573267405627 C-6.297360200195369 -62.50334330861387, -4.6196012277393175 -70.22550357612079, 1.7043166912905874 -79.5689947120659 M-10.158693400431472 -52.16473638692645 C-8.40575801161939 -59.475416579593464, -4.993109947867178 -67.17352924665865, 0.6810217218287291 -79.04046560542658" stroke="#c92a2a" stroke-width="1" fill="none"></path></g></g><g transform="translate(723.5 459.5) rotate(0 24 13)"><text x="0" y="18" font-family="Virgil, Segoe UI Emoji" font-size="20px" fill="#c92a2a" text-anchor="start" style="white-space: pre;" direction="ltr"> slow</text></g><g transform="translate(825.5 458.5) rotate(0 22.5 13)"><text x="0" y="18" font-family="Virgil, Segoe UI Emoji" font-size="20px" fill="#c92a2a" text-anchor="start" style="white-space: pre;" direction="ltr">fast</text></g><g transform="translate(666.25 493) rotate(0 2 13)"><text x="0" y="18" font-family="Virgil, Segoe UI Emoji" font-size="20px" fill="#000000" text-anchor="start" style="white-space: pre;" direction="ltr">1</text></g><g transform="translate(749.25 491) rotate(0 7.5 13)"><text x="0" y="18" font-family="Virgil, Segoe UI Emoji" font-size="20px" fill="#000000" text-anchor="start" style="white-space: pre;" direction="ltr">2</text></g><g transform="translate(847.25 494) rotate(0 7 13)"><text x="0" y="18" font-family="Virgil, Segoe UI Emoji" font-size="20px" fill="#000000" text-anchor="start" style="white-space: pre;" direction="ltr">3</text></g><g transform="translate(938.25 493) rotate(0 6 13)"><text x="0" y="18" font-family="Virgil, Segoe UI Emoji" font-size="20px" fill="#000000" text-anchor="start" style="white-space: pre;" direction="ltr">4</text></g><g transform="translate(1016.25 490) rotate(0 7 13)"><text x="0" y="18" font-family="Virgil, Segoe UI Emoji" font-size="20px" fill="#000000" text-anchor="start" style="white-space: pre;" direction="ltr">5</text></g><g><g transform="translate(680.25 503) rotate(0 32.553851005230115 -0.06489531956611927)"><path d="M0.047245132550597146 0.5697933498769998 C10.968457078561185 0.5916392270475626, 55.37245501242578 -0.42409519515931604, 66.49479191266 -0.6995839890092611 M-1.3870899021998049 -0.1766690867766738 C9.334737026654183 0.06101362410932776, 54.50437502499669 0.49683161560446004, 65.8065122031793 0.47055966798216087" stroke="#000000" stroke-width="1" fill="none"></path></g><g transform="translate(680.25 503) rotate(0 32.553851005230115 -0.06489531956611927)"><path d="M38.51679414732458 11.421306696806678 C47.21991890905301 8.033384746318353, 57.32931908243598 2.5059861924489786, 64.00471146602183 1.747176340036094 M37.223297478054484 11.043584359896013 C45.233835385778576 8.37551993591522, 52.47780887887752 5.556206225136503, 65.9043768505752 0.4949541158974169" stroke="#000000" stroke-width="1" fill="none"></path></g><g transform="translate(680.25 503) rotate(0 32.553851005230115 -0.06489531956611927)"><path d="M38.614624877448954 -9.099668707254477 C47.13846316854273 -4.676721271465397, 57.21062635529203 -2.393288955939134, 64.00471146602183 1.747176340036094 M37.321128208178855 -9.477391044165142 C45.27956372906704 -6.4377101297550325, 52.49632376186472 -3.5487280035143005, 65.9043768505752 0.4949541158974169" stroke="#000000" stroke-width="1" fill="none"></path></g></g><g><g transform="translate(775.25 506) rotate(0 34.52744254117829 -1.2181756859179131)"><path d="M0.5697933498769998 0.49479191266000266 C11.924972560380896 0.2837954795608918, 56.242571471507354 -0.7658322020123403, 67.30041601099074 -1.2187334660440683 M-0.5902038707770407 -0.29104627853259446 C11.228423136429239 -0.8434480908078452, 58.00630262509608 -2.8093173198464014, 69.64508895313367 -2.9311432844959198" stroke="#000000" stroke-width="1" fill="none"></path></g><g transform="translate(775.25 506) rotate(0 34.52744254117829 -1.2181756859179131)"><path d="M42.58552362953629 6.969516041473099 C49.49369950637493 3.643915255876321, 54.255637709626626 1.0934071478013143, 70.9217056251876 -3.3677665690891443 M42.207801292625625 7.934591026761183 C50.286939666015485 4.233360425048113, 58.31146066321246 1.957695790547822, 69.66948340104892 -3.386747967172414" stroke="#000000" stroke-width="1" fill="none"></path></g><g transform="translate(775.25 506) rotate(0 34.52744254117829 -1.2181756859179131)"><path d="M41.99569715697714 -13.543214325742959 C49.04806829641622 -12.137720766520205, 53.94612570672524 -9.954333869761967, 70.9217056251876 -3.3677665690891443 M41.61797482006647 -12.578139340454875 C49.75148120192214 -10.37231203142352, 57.94579641283316 -6.742946820928988, 69.66948340104892 -3.386747967172414" stroke="#000000" stroke-width="1" fill="none"></path></g></g><g><g transform="translate(869.25 503) rotate(0 29.538342735711467 -0.2678044709004439)"><path d="M0.49479191266000266 -0.6995839890092611 C10.450462146227556 -1.1417394495258728, 50.06750113132099 -1.8528900043418008, 59.78126653395593 -2.0831394132226704 M-0.7045810625329614 1.5475304714217781 C9.1572947548454 1.1651111423348386, 49.4768203563119 -0.6345804683988294, 59.24338600065559 -1.1143623539432883" stroke="#000000" stroke-width="1" fill="none"></path></g><g transform="translate(869.25 503) rotate(0 29.538342735711467 -0.2678044709004439)"><path d="M30.850083797178797 11.553159289649736 C38.43225385800553 6.313386841799012, 46.71108070628543 4.506659712174534, 58.806762716062366 -1.3569329534843564 M31.81515878246688 10.687774130730938 C37.879000187235654 7.793451195626647, 45.42520600722894 4.613584262317337, 58.787781317979096 -1.6079998309910297" stroke="#000000" stroke-width="1" fill="none"></path></g><g transform="translate(869.25 503) rotate(0 29.538342735711467 -0.2678044709004439)"><path d="M29.914523478206547 -8.607231366769193 C37.87677216172278 -7.723370820954985, 46.439950494967604 -3.4026073929175897, 58.806762716062366 -1.3569329534843564 M30.87959846349463 -9.472616525687991 C37.10214378991793 -7.457439284473534, 44.87637323776921 -5.723624733770242, 58.787781317979096 -1.6079998309910297" stroke="#000000" stroke-width="1" fill="none"></path></g></g><g><g transform="translate(956.25 503) rotate(0 25.0755765646976 0.7066369122300102)"><path d="M-0.6995839890092611 0.7812665339559317 C7.323355581673491 0.697282960700494, 40.47258515165502 -0.04214446252831864, 48.70743077397351 -0.009109526872623563 M1.1339956874214114 0.14582751894369728 C9.464282352520781 0.20343853027249578, 42.53369903042295 1.5958975445789692, 50.8507371184044 1.4114424967952188" stroke="#000000" stroke-width="1" fill="none"></path></g><g transform="translate(956.25 503) rotate(0 25.0755765646976 0.7066369122300102)"><path d="M28.640865012764674 7.789930061251583 C35.10399354480025 5.086731661665491, 44.92164553084924 3.608207372650349, 50.608166518863335 0.28603204989806974 M27.775479853845876 8.782923891954782 C33.981510630281726 7.566536183785585, 39.816885644915345 4.8393407923562854, 50.35709964135666 1.0367879252694663" stroke="#000000" stroke-width="1" fill="none"></path></g><g transform="translate(956.25 503) rotate(0 25.0755765646976 0.7066369122300102)"><path d="M28.88123032225948 -9.237908038660573 C35.331046353388345 -6.025627229947303, 45.06517553368129 -1.5872710129794507, 50.608166518863335 0.28603204989806974 M28.015845163340682 -8.244914207957374 C34.234133755539155 -4.9389204107369356, 40.00566392423309 -3.1432514068845805, 50.35709964135666 1.0367879252694663" stroke="#000000" stroke-width="1" fill="none"></path></g></g><g><g transform="translate(1037.25 504.28690317583414) rotate(0 19.25483853170647 -0.49878680542764187)"><path d="M0.7812665339559317 -1.0831394132226706 C7.161698603257537 -1.2932390917797316, 32.2799337502569 -1.9505260310865584, 38.77738432846964 -1.9601820603516273 M-0.26770726505666964 0.962608449496329 C5.891930351816117 0.9234955794777048, 31.100780100189148 -0.8363684512845819, 37.712465637288986 -0.9903240413349443" stroke="#000000" stroke-width="1" fill="none"></path></g><g transform="translate(1037.25 504.28690317583414) rotate(0 19.25483853170647 -0.49878680542764187)"><path d="M17.967567263717996 6.1980898680196095 C24.15177841386722 5.1114675434388825, 31.620012025578255 1.0534896759434327, 36.6149117243647 -1.6609844755960808 M18.93598218060705 6.983361117335801 C26.037807506564594 3.902659445120443, 31.697118825377125 0.7949288930782277, 37.34708464042088 -1.9176110953518606" stroke="#000000" stroke-width="1" fill="none"></path></g><g transform="translate(1037.25 504.28690317583414) rotate(0 19.25483853170647 -0.49878680542764187)"><path d="M17.32189464190862 -7.128451716345966 C23.648738418548028 -3.671826502405338, 31.33729661609331 -3.182353144618507, 36.6149117243647 -1.6609844755960808 M18.290309558797674 -6.343180467029774 C25.587920973268588 -4.833135225486128, 31.4697911800479 -3.347299045291826, 37.34708464042088 -1.9176110953518606" stroke="#000000" stroke-width="1" fill="none"></path></g></g><g transform="translate(1078.75 490) rotate(0 5 13)"><text x="0" y="18" font-family="Virgil, Segoe UI Emoji" font-size="20px" fill="#000000" text-anchor="start" style="white-space: pre;" direction="ltr">6</text></g><g transform="translate(1151.75 488) rotate(0 29 13)"><text x="0" y="18" font-family="Virgil, Segoe UI Emoji" font-size="20px" fill="#000000" text-anchor="start" style="white-space: pre;" direction="ltr">NULL </text></g><g><g transform="translate(1094.75 504) rotate(0 22.828472793474816 -0.18978617824615185)"><path d="M-1.0810804422944784 0.7659700032323598 C6.889113798116644 0.612148888533314, 38.8370536668847 -0.7824458086242279, 46.73802602924407 -1.1455423597246408 M0.5522135961614549 0.12250030959025016 C8.436238523976257 0.17979085787509871, 38.21038797304655 0.38784693007046994, 45.65244423097 0.3154731526412071" stroke="#000000" stroke-width="1" fill="none"></path></g><g transform="translate(1094.75 504) rotate(0 22.828472793474816 -0.18978617824615185)"><path d="M24.84202729154754 7.920177261302925 C27.970256430395505 5.743797267758212, 32.157643555615635 6.076494417912686, 45.250647571515294 1.1889246146567167 M23.589805067408864 7.901195863219655 C27.868975772487723 6.2012799486567385, 32.24390725388968 5.682148628740428, 46.50074983911589 0.8754839630238713" stroke="#000000" stroke-width="1" fill="none"></path></g><g transform="translate(1094.75 504) rotate(0 22.828472793474816 -0.18978617824615185)"><path d="M24.840545926153116 -8.158407507235811 C27.93925788963651 -6.962477797229772, 32.12695571403796 -3.2574842891508453, 45.250647571515294 1.1889246146567167 M23.58832370201444 -8.17738890531908 C27.937627811302985 -6.359695436167994, 32.312883380119025 -3.36121592263728, 46.50074983911589 0.8754839630238713" stroke="#000000" stroke-width="1" fill="none"></path></g></g><g><g transform="translate(852.75 597.75) rotate(0 -0.1270102200750216 -39.21964798606933)"><path d="M1.0813886348158122 -0.28920880593359466 C1.074589314435919 -13.13253619708121, -0.3751064674307901 -65.13095601834357, -0.598271220549941 -78.15008716620505 M0.18997893875464777 -1.4866473743878306 C0.10908868636315049 -14.043353897687048, -1.1981562317845722 -64.05613113975153, -1.3354090749658645 -76.69145767724142" stroke="#c92a2a" stroke-width="1" fill="none"></path></g><g transform="translate(852.75 597.75) rotate(0 -0.1270102200750216 -39.21964798606933)"><path d="M8.98448860319202 -48.03407861508301 C6.73185235015726 -54.465089798430476, 3.5699143749004465 -60.92539852975789, -1.8480137492902577 -76.63169199002907 M8.700185669119108 -49.62100924860558 C4.635338476587783 -57.92951523166896, 2.1115241704495062 -68.91703439685683, -1.539807026218623 -77.18496259914711" stroke="#c92a2a" stroke-width="1" fill="none"></path></g><g transform="translate(852.75 597.75) rotate(0 -0.1270102200750216 -39.21964798606933)"><path d="M-11.532909867905946 -47.63865180260517 C-8.579896284048523 -54.35481498569874, -6.539776620676923 -60.91538170408365, -1.8480137492902577 -76.63169199002907 M-11.817212801978858 -49.22558243612774 C-8.754188880343191 -57.732675476196086, -4.148733050743245 -68.85759532446957, -1.539807026218623 -77.18496259914711" stroke="#c92a2a" stroke-width="1" fill="none"></path></g></g><g transform="translate(830.25 596.75) rotate(0 24 13)"><text x="0" y="18" font-family="Virgil, Segoe UI Emoji" font-size="20px" fill="#c92a2a" text-anchor="start" style="white-space: pre;" direction="ltr"> slow</text></g><g><g transform="translate(1023.25 596.25) rotate(0 -0.32481522015018527 -39.277041429653764)"><path d="M0.401728779450059 -0.15008716620504847 C0.1785640263309082 -13.169218314066528, -0.2112947956969341 -65.37774975337088, -0.2575998838990927 -78.40399569310247 M-0.8465023406781257 -1.2744868738017976 C-1.2573498779969912 -14.09929412608966, -0.9483434323904417 -64.43249158566817, -0.8158852865733208 -77.07866818075999" stroke="#c92a2a" stroke-width="1" fill="none"></path></g><g transform="translate(1023.25 596.25) rotate(0 -0.32481522015018527 -39.277041429653764)"><path d="M8.988322052902815 -47.57633874974376 C4.710900883263366 -57.933468385222774, 0.9492613583396547 -70.77348566415145, 0.13360214067623 -76.37106741769239 M8.259711284919915 -48.34672005231655 C6.389740634403859 -59.023831140609516, 2.6183816387120658 -68.04423218848147, -0.7919705964438619 -76.69266094164922" stroke="#c92a2a" stroke-width="1" fill="none"></path></g><g transform="translate(1023.25 596.25) rotate(0 -0.32481522015018527 -39.277041429653764)"><path d="M-11.532338767613561 -47.726278321450614 C-7.804688940617517 -58.09361200656261, -3.5608961035349385 -70.87513550158316, 0.13360214067623 -76.37106741769239 M-12.260949535596462 -48.4966596240234 C-7.363909925295706 -58.936064401927034, -4.367109646827395 -67.90701212508945, -0.7919705964438619 -76.69266094164922" stroke="#c92a2a" stroke-width="1" fill="none"></path></g></g><g transform="translate(1004.75 596.25) rotate(0 22.5 13)"><text x="0" y="18" font-family="Virgil, Segoe UI Emoji" font-size="20px" fill="#c92a2a" text-anchor="start" style="white-space: pre;" direction="ltr">fast</text></g><g transform="translate(668.25 632) rotate(0 2 13)"><text x="0" y="18" font-family="Virgil, Segoe UI Emoji" font-size="20px" fill="#000000" text-anchor="start" style="white-space: pre;" direction="ltr">1</text></g><g transform="translate(751.25 630) rotate(0 7.5 13)"><text x="0" y="18" font-family="Virgil, Segoe UI Emoji" font-size="20px" fill="#000000" text-anchor="start" style="white-space: pre;" direction="ltr">2</text></g><g transform="translate(849.25 633) rotate(0 7 13)"><text x="0" y="18" font-family="Virgil, Segoe UI Emoji" font-size="20px" fill="#000000" text-anchor="start" style="white-space: pre;" direction="ltr">3</text></g><g transform="translate(940.25 632) rotate(0 6 13)"><text x="0" y="18" font-family="Virgil, Segoe UI Emoji" font-size="20px" fill="#000000" text-anchor="start" style="white-space: pre;" direction="ltr">4</text></g><g transform="translate(1018.25 629) rotate(0 7 13)"><text x="0" y="18" font-family="Virgil, Segoe UI Emoji" font-size="20px" fill="#000000" text-anchor="start" style="white-space: pre;" direction="ltr">5</text></g><g><g transform="translate(682.25 642) rotate(0 32.318758469447516 0.9137575334202097)"><path d="M-0.966172719374299 1.0766630832105875 C9.775309383496642 0.9592507664114236, 54.61363387070597 0.12057284750044357, 65.60368965826929 0.10349431671202192 M0.7274478736147283 0.5963072565570475 C11.175186791680753 0.6216212216392161, 53.34717278387397 1.9374503806605936, 64.44758126523345 1.6952540842071175" stroke="#000000" stroke-width="1" fill="none"></path></g><g transform="translate(682.25 642) rotate(0 32.318758469447516 0.9137575334202097)"><path d="M37.974691294144364 11.082529774275542 C47.485541675433375 6.279641694186729, 60.13715511500449 3.3699895627102645, 66.04112532187253 3.6604121090099215 M36.175282708379896 11.830686337654413 C45.32619622892515 9.736916601415714, 54.369020756882094 6.00997955725046, 63.61329313471913 1.7729060272872448" stroke="#000000" stroke-width="1" fill="none"></path></g><g transform="translate(682.25 642) rotate(0 32.318758469447516 0.9137575334202097)"><path d="M38.129393063877274 -9.438095697387862 C47.717112261956004 -6.111278576637141, 60.30742774177959 -0.8899799353611151, 66.04112532187253 3.6604121090099215 M36.329984478112806 -8.689939134008991 C45.380995121719955 -4.482128503487294, 54.37630288309576 -1.90613978074252, 63.61329313471913 1.7729060272872448" stroke="#000000" stroke-width="1" fill="none"></path></g></g><g><g transform="translate(777.25 645) rotate(0 34.14313339463433 -1.7110741678625345)"><path d="M1.0766630832105875 -0.3963103417307138 C12.292584099744754 -0.7395878875007231, 56.787239514167105 -2.694744972760479, 68.10349431671202 -3.0258379939943554 M0.1827724725566804 -1.6499772164784372 C11.179030733959127 -1.794107725576808, 55.78692139015223 -2.0909092952373127, 67.20978336935863 -2.0269776896201073" stroke="#000000" stroke-width="1" fill="none"></path></g><g transform="translate(777.25 645) rotate(0 34.14313339463433 -1.7110741678625345)"><path d="M38.3738167952647 8.448136514209123 C47.75726209055091 5.862033789144774, 59.178585064929585 2.0474548715973544, 69.17494139416144 -1.8839624334685503 M39.12197335864357 8.713607375666411 C47.691514033226994 6.247724346151063, 54.7841216596694 1.7872053766812144, 67.28743531243876 -1.6900332687981425" stroke="#000000" stroke-width="1" fill="none"></path></g><g transform="translate(777.25 645) rotate(0 34.14313339463433 -1.7110741678625345)"><path d="M38.343220889300056 -12.073049276976958 C47.5726799173373 -7.121365284969672, 59.00524170680581 -3.3978829730917086, 69.17494139416144 -1.8839624334685503 M39.09137745267893 -11.80757841551967 C47.49084853561944 -8.640979594723028, 54.591853865794356 -7.469018234532216, 67.28743531243876 -1.6900332687981425" stroke="#000000" stroke-width="1" fill="none"></path></g></g><g><g transform="translate(871.25 642) rotate(0 29.8756206269004 -0.7667188934423166)"><path d="M-0.3963103417307138 0.10349431671202192 C9.427078779165942 -0.08025088074306641, 48.138588360572854 -0.0012467877318463882, 57.97416200600564 -0.025808101519942506 M1.5964879995211958 -0.8877751123532653 C11.866635120076438 -0.8761187902713816, 50.80522838092099 -1.4708245630686483, 60.147551595531404 -1.6369321035966278" stroke="#000000" stroke-width="1" fill="none"></path></g><g transform="translate(871.25 642) rotate(0 29.8756206269004 -0.7667188934423166)"><path d="M32.760154675517285 7.1867420978827 C40.16580820078219 6.037446266308492, 46.184697710885104 6.328787796555369, 60.29056685168296 -2.1475024117901924 M33.02562553697457 9.73069550264455 C39.25779820967559 6.8218333127130055, 43.49621177213315 4.462052515663647, 60.48449601635337 -0.9927946065366269" stroke="#000000" stroke-width="1" fill="none"></path></g><g transform="translate(871.25 642) rotate(0 29.8756206269004 -0.7667188934423166)"><path d="M32.437201788864286 -12.992760521430338 C40.094793203629195 -9.711879397580239, 46.18456622400073 -4.991427491649655, 60.29056685168296 -2.1475024117901924 M32.702672650321574 -10.448807116668487 C39.002641891100765 -9.059059231519237, 43.309854965870215 -7.119946919750891, 60.48449601635337 -0.9927946065366269" stroke="#000000" stroke-width="1" fill="none"></path></g></g><g><g transform="translate(957.25 641) rotate(0 24.731726094661326 0.13476302802774853)"><path d="M0.10349431671202192 -1.0258379939943552 C8.384844150456296 -0.9880133244519413, 42.32422836826497 -0.5724354833985273, 50.76476208567624 -0.16936232447623067 M-1.3013098963536323 1.04999311381951 C6.813052419914562 1.293361695415032, 41.697454935753136 1.3972037377519007, 50.32816736875107 1.1670569804497175" stroke="#000000" stroke-width="1" fill="none"></path></g><g transform="translate(957.25 641) rotate(0 24.731726094661326 0.13476302802774853)"><path d="M25.302784088029078 11.51807674261174 C35.489844093595416 8.066612889846771, 47.17973748409659 3.2148379908054627, 49.8175970605575 -0.5722898310981579 M27.84673749279093 10.692878001913343 C34.18144694742749 6.344149509946707, 41.048733100385974 4.901509682344659, 50.97230486581107 0.32817756375299023" stroke="#000000" stroke-width="1" fill="none"></path></g><g transform="translate(957.25 641) rotate(0 24.731726094661326 0.13476302802774853)"><path d="M25.14776762330203 -5.510752216964197 C35.33900176848957 -2.325841785291953, 47.08930847381397 -0.5411087055369173, 49.8175970605575 -0.5722898310981579 M27.69172102806388 -6.335950957662594 C34.08778232829589 -5.585173195709454, 41.00149637572626 -1.9276278571291474, 50.97230486581107 0.32817756375299023" stroke="#000000" stroke-width="1" fill="none"></path></g></g><g><g transform="translate(1039.25 643.2869031758341) rotate(0 18.79564676843586 -0.2846958282655123)"><path d="M-1.0258379939943552 0.9741918984800575 C5.476402318105101 0.9697803150157699, 31.749642729386686 0.37160554306734167, 38.617131530866025 0.07702481592629629 M0.6364583298191429 0.44003869984298927 C6.981853516958653 0.10460017484084466, 30.90208629336208 -1.565117800699884, 37.46808012094348 -1.5435835550111108" stroke="#000000" stroke-width="1" fill="none"></path></g><g transform="translate(1039.25 643.2869031758341) rotate(0 18.79564676843586 -0.2846958282655123)"><path d="M20.98089700728243 5.175413048747938 C25.769597062325847 5.908786279295351, 29.179367662680566 1.5343965108597686, 35.77178620061415 -1.5532777386852412 M20.176123860480025 5.986417059695505 C24.13120742191509 3.455979087790506, 30.853013292666276 1.741709232334383, 36.649964926788655 -1.103086973075504" stroke="#000000" stroke-width="1" fill="none"></path></g><g transform="translate(1039.25 643.2869031758341) rotate(0 18.79564676843586 -0.2846958282655123)"><path d="M20.489718403561895 -8.157716640624555 C25.421049635920816 -3.8605436879472084, 28.961952220700756 -4.675332648198971, 35.77178620061415 -1.5532777386852412 M19.68494525675949 -7.346712629676988 C23.850081015571476 -5.764458570198108, 30.72354512367342 -3.361938867349768, 36.649964926788655 -1.103086973075504" stroke="#000000" stroke-width="1" fill="none"></path></g></g><g transform="translate(1080.75 629) rotate(0 5 13)"><text x="0" y="18" font-family="Virgil, Segoe UI Emoji" font-size="20px" fill="#000000" text-anchor="start" style="white-space: pre;" direction="ltr">6</text></g><g transform="translate(1153.75 627) rotate(0 29 13)"><text x="0" y="18" font-family="Virgil, Segoe UI Emoji" font-size="20px" fill="#000000" text-anchor="start" style="white-space: pre;" direction="ltr">NULL </text></g><g><g transform="translate(1096.75 643) rotate(0 23.542381618088143 -0.06362368501726223)"><path d="M0.9561264339834452 1.1790948148816824 C8.641395976518591 1.0251825289179881, 39.58576490717629 -0.9421656930198272, 47.08580915369093 -1.3063421849161387 M-0.001045917514711725 0.7525156473554673 C7.4484688460392245 0.809667159461727, 38.13217261449123 0.1442741063671808, 46.18281349575147 0.07025341922417283" stroke="#000000" stroke-width="1" fill="none"></path></g><g transform="translate(1096.75 643) rotate(0 23.542381618088143 -0.06362368501726223)"><path d="M26.189507189731724 8.599319249513355 C32.110720946706344 3.345381230472042, 40.981536831165585 2.0633896466365815, 47.058736274372784 1.7387002487666905 M24.302001108009048 8.793248414183763 C33.19308446224959 4.615218348372049, 41.34144619439258 3.1514113505094556, 45.79944636987522 0.5557202468626201" stroke="#000000" stroke-width="1" fill="none"></path></g><g transform="translate(1096.75 643) rotate(0 23.542381618088143 -0.06362368501726223)"><path d="M25.936362537241013 -7.4772726821879845 C31.90277714458133 -6.605109639581686, 40.870087380587776 -1.758983175987301, 47.058736274372784 1.7387002487666905 M24.048856455518337 -7.283343517517577 C33.06719961864512 -5.352641453867438, 41.311717193290335 -0.70982827805694, 45.79944636987522 0.5557202468626201" stroke="#000000" stroke-width="1" fill="none"></path></g></g><g><g transform="translate(950.5 736.5) rotate(0 0.08730670661293516 -38.29591241232117)"><path d="M0.8428789202123881 -0.5916424278169871 C1.0093519234408934 -13.806636917963624, -0.005932618801792605 -65.54010884799064, -0.17163315378129496 -78.30396617688238 M-0.1737483760155738 1.7121413522399962 C0.009601665095736539 -11.411357497032732, -0.6351661126253505 -63.460089204963296, -0.6847860231436789 -76.92612316852436" stroke="#c92a2a" stroke-width="1" fill="none"></path></g><g transform="translate(950.5 736.5) rotate(0 0.08730670661293516 -38.29591241232117)"><path d="M8.819567405286218 -47.43944477374683 C6.944190472719645 -53.02228701777328, 6.702257777450146 -58.317739458942256, -0.0028020958788692596 -76.87997016889975 M10.671641895215 -47.95174142151157 C7.004346225329414 -57.3275639651212, 3.3871848836743847 -65.857959346251, -0.4341725767962634 -77.5644545324333" stroke="#c92a2a" stroke-width="1" fill="none"></path></g><g transform="translate(950.5 736.5) rotate(0 0.08730670661293516 -38.29591241232117)"><path d="M-11.700957231247354 -47.271900668334595 C-9.423110306738744 -53.03279999558195, -5.510442489800228 -58.3621735395732, -0.0028020958788692596 -76.87997016889975 M-9.848882741318572 -47.78419731609934 C-7.5133604286045 -57.047483178114106, -5.126785829756651 -65.62689731412954, -0.4341725767962634 -77.5644545324333" stroke="#c92a2a" stroke-width="1" fill="none"></path></g></g><g transform="translate(928 735.5) rotate(0 24 13)"><text x="0" y="18" font-family="Virgil, Segoe UI Emoji" font-size="20px" fill="#c92a2a" text-anchor="start" style="white-space: pre;" direction="ltr"> slow</text></g><g><g transform="translate(1183 733) rotate(0 -0.9400218589769338 -39.804315220937156)"><path d="M0.01952979527413845 -0.47725232206284995 C-0.22762742477158707 -13.636754482612014, -0.5513797604789337 -66.01908474527299, -0.8468382958322764 -79.13137811981142 M-1.4293557915464044 -1.773413736484945 C-1.8767918409282962 -14.812286783121527, -2.076973003682991 -65.4105274483189, -1.7144738647714257 -78.18792638149112" stroke="#c92a2a" stroke-width="1" fill="none"></path></g><g transform="translate(1183 733) rotate(0 -0.9400218589769338 -39.804315220937156)"><path d="M7.488311673167557 -49.6477514427139 C2.909746944234893 -61.1415819547261, -0.6524313872757146 -70.75058602917949, -2.662448973171413 -77.89438395727426 M7.911216014649183 -49.63228378314362 C5.364747245012849 -59.68700923080267, 1.2489031704276803 -70.59555024345941, -1.2178217487037182 -78.29363167718053" stroke="#c92a2a" stroke-width="1" fill="none"></path></g><g transform="translate(1183 733) rotate(0 -0.9400218589769338 -39.804315220937156)"><path d="M-13.032010949589006 -49.83843926042843 C-10.366999275662225 -61.26829495137878, -6.68532412672021 -70.80998455727213, -2.662448973171413 -77.89438395727426 M-12.60910660810738 -49.82297160085815 C-7.372655596949148 -59.72053837031112, -3.704772578881748 -70.55674806731216, -1.2178217487037182 -78.29363167718053" stroke="#c92a2a" stroke-width="1" fill="none"></path></g></g><g transform="translate(1164.5 733) rotate(0 22.5 13)"><text x="0" y="18" font-family="Virgil, Segoe UI Emoji" font-size="20px" fill="#c92a2a" text-anchor="start" style="white-space: pre;" direction="ltr">fast</text></g><g transform="translate(773 138) rotate(0 226.5 26.5)"><path d="M0.04514516412352621 0.18769580673395095 C178.3437865067664 0.545571797945622, 357.9162766622907 0.0992192500037466, 453.31241165558254 -0.5001285764471441 M0.14303183873537031 -0.06780200493841618 C118.8929924707315 0.8438293949084217, 236.55402015192652 0.40581787734417263, 452.90125570202304 -0.011310044984678923 M454.4569918308407 -1.547333488240838 C454.0748506906722 19.917961867433043, 453.3503487828467 38.06000549886376, 451.53220436908305 53.037100007757545 M452.24211540352553 0.15264358092099428 C453.3475658679288 13.004795161914082, 452.16381967904977 25.256869113817814, 452.5435684872791 52.59444945026189 M452.47264372711504 52.619437970576534 C331.4982707942586 54.25323122654388, 211.1798793026039 55.487012106147176, -0.6761763557606786 52.594689476280934 M452.6446345452813 52.91507287341403 C294.9845235616274 54.15489043049045, 136.02643926769974 54.320434237581345, 0.471686167171888 53.06997395420823 M0.6392362508922815 53.573066821321845 C-1.5705985678825527 36.84729392873123, -0.0625908626709133 16.385061304084957, -1.1231786217540503 -0.9552506897598505 M-0.5010959254577756 52.59858222771436 C-0.3821764628123492 33.568507545534516, 0.43174466093070807 15.556092050671573, 0.21718722116202116 -0.15564728807657957" stroke="#c92a2a" stroke-width="1" fill="none"></path></g></svg>