<svg version="1.1" xmlns="http://www.w3.org/2000/svg" viewBox="0 0 1450 1424" width="1450" height="1424">
  <!-- svg-source:excalidraw -->
  
  <defs>
    <style>
      @font-face {
        font-family: "Virgil";
        src: url("https://excalidraw.com/FG_Virgil.woff2");
      }
      @font-face {
        font-family: "Cascadia";
        src: url("https://excalidraw.com/Cascadia.woff2");
      }
    </style>
  </defs>
  <rect x="0" y="0" width="1450" height="1424" fill="#ffffff"></rect><g transform="translate(10 10) rotate(0 300 61)"><text x="0" y="22.5" font-family="Virgil, Segoe UI Emoji" font-size="20px" fill="#000000" text-anchor="start" style="white-space: pre;" direction="ltr">二叉堆——二叉堆本质是一种完全二叉树，分为最大堆和最小堆</text><text x="0" y="53" font-family="Virgil, Segoe UI Emoji" font-size="20px" fill="#000000" text-anchor="start" style="white-space: pre;" direction="ltr">      最大堆任何一个父结点的值都大于等于它左右孩子结点的值；</text><text x="0" y="83.5" font-family="Virgil, Segoe UI Emoji" font-size="20px" fill="#000000" text-anchor="start" style="white-space: pre;" direction="ltr">      最小堆任何一个父节点的值都小于等于它左右孩子结点的值；</text><text x="0" y="114" font-family="Virgil, Segoe UI Emoji" font-size="20px" fill="#000000" text-anchor="start" style="white-space: pre;" direction="ltr"></text></g><g transform="translate(14 115) rotate(0 230 16)"><text x="0" y="24" font-family="Virgil, Segoe UI Emoji" font-size="20px" fill="#000000" text-anchor="start" style="white-space: pre;" direction="ltr">排成升序的时候建立大堆，排成降序的时候建立小堆</text></g><g transform="translate(12 112) rotate(0 233.5 19.5)"><path d="M0.6878436118882283 -0.32519614332898705 C139.07115056488973 1.4526854398911673, 279.465283545148 0.9783279526623447, 467.87530312579867 0.7181006273575916 M-0.3109217132617883 -0.084204859784884 C179.32655595596609 -1.6225079724609588, 359.5433870323297 -2.0843926150812124, 467.41155624586617 -0.018506995629043132 M468.7397122513503 1.6500849295407534 C466.0910072247032 12.04343788502738, 467.117787889624 24.740213768370452, 468.83134575001895 39.89069916494191 M466.7746613705531 0.6790179675444961 C467.7473490095418 10.056523241754622, 466.0940637147706 19.953871617466213, 467.91609332803637 39.741037643514574 M467.46672806534923 39.88087447161061 C297.8971942201081 37.80125886524558, 128.87609713366666 36.97828893227396, 0.37916525159545983 38.60415096444379 M466.85066920333736 38.69712389684978 C358.2843958267372 39.487564257860804, 250.34315296103253 39.47556177505042, -0.37974716068994324 38.60281913574775 M-0.3738890755921602 39.00043209083378 C1.219212915962562 28.19066478507593, 1.624033894604072 20.205438571237025, 1.0901466142386198 -1.5327840875834227 M-0.8538168584927917 38.40642369445413 C-0.16870929653756317 29.310135643649843, -0.5205667501222342 19.089342549815772, -0.20849200244992971 -0.11745026055723429" stroke="#c92a2a" stroke-width="1" fill="none"></path></g><g transform="translate(701 23) rotate(0 193 32)"><text x="0" y="24" font-family="Virgil, Segoe UI Emoji" font-size="20px" fill="#087f5b" text-anchor="start" style="white-space: pre;" direction="ltr">给一个数组，4  2  8  0  5  7  1  3  9</text><text x="0" y="56" font-family="Virgil, Segoe UI Emoji" font-size="20px" fill="#087f5b" text-anchor="start" style="white-space: pre;" direction="ltr">1、把他当做数组存储的完全二叉树</text></g><g transform="translate(820 110) rotate(0 6 13)"><text x="0" y="18" font-family="Virgil, Segoe UI Emoji" font-size="20px" fill="#1864ab" text-anchor="start" style="white-space: pre;" direction="ltr">4</text></g><g transform="translate(773 179) rotate(0 7.5 13)"><text x="0" y="18" font-family="Virgil, Segoe UI Emoji" font-size="20px" fill="#1864ab" text-anchor="start" style="white-space: pre;" direction="ltr">2</text></g><g transform="translate(875 177) rotate(0 6.5 13)"><text x="0" y="18" font-family="Virgil, Segoe UI Emoji" font-size="20px" fill="#1864ab" text-anchor="start" style="white-space: pre;" direction="ltr">8</text></g><g><g transform="translate(823 128) rotate(0 -20.25184283122428 26.74469397649169)"><path d="M-1.0332722682505846 -0.2856607239693403 C-7.938194161529343 8.696295483782889, -34.67024446514746 45.76275620050728, -41.1288067240268 54.97062450237572 M0.6251210615783931 -1.4812365493923427 C-5.9529061144838735 7.695614415630699, -32.16574167830249 44.25677999399603, -39.009475717768076 53.357627617344264" stroke="#1864ab" stroke-width="1" fill="none"></path></g></g><g><g transform="translate(834 127) rotate(0 21.213915757387895 25.431060251817115)"><path d="M-0.5437604684382676 0.9384280163794754 C6.090531454607845 8.977178708588085, 33.65744838528335 40.95767267930011, 40.85877865366638 49.30439112968743 M1.3716265562921763 0.3854987796396019 C8.265900450125336 9.083961333458621, 36.15898991860449 42.33902762415509, 42.97159198321402 50.47662172399461" stroke="#1864ab" stroke-width="1" fill="none"></path></g></g><g transform="translate(734 260) rotate(0 7.5 13)"><text x="0" y="18" font-family="Virgil, Segoe UI Emoji" font-size="20px" fill="#1864ab" text-anchor="start" style="white-space: pre;" direction="ltr">0</text></g><g transform="translate(801 259) rotate(0 7 13)"><text x="0" y="18" font-family="Virgil, Segoe UI Emoji" font-size="20px" fill="#1864ab" text-anchor="start" style="white-space: pre;" direction="ltr">5</text></g><g transform="translate(861 260) rotate(0 4 13)"><text x="0" y="18" font-family="Virgil, Segoe UI Emoji" font-size="20px" fill="#1864ab" text-anchor="start" style="white-space: pre;" direction="ltr">7</text></g><g transform="translate(926 257) rotate(0 2 13)"><text x="0" y="18" font-family="Virgil, Segoe UI Emoji" font-size="20px" fill="#1864ab" text-anchor="start" style="white-space: pre;" direction="ltr">1</text></g><g><g transform="translate(775 204) rotate(0 -14.623534432947622 28.453803738281152)"><path d="M-0.5475952047854662 0.6318698007613419 C-5.664446546509862 9.834086755787332, -25.694150175526737 46.54354381548862, -30.61284744925797 55.64077686853707 M1.3657785833626988 -0.08200249917805191 C-3.3604410015791646 9.255746105437478, -22.852197886630893 47.62248110684256, -28.222637823745607 56.989609975740315" stroke="#1864ab" stroke-width="1" fill="none"></path></g></g><g><g transform="translate(789 206) rotate(0 9.95619709664959 27.988556276252496)"><path d="M0.14198048897087578 -0.859816886857152 C3.1825862684597572 8.22176482093831, 15.548437523717682 46.227707376206915, 18.979054518416525 55.54065848402679 M-1.24261848365888 1.3031753022037447 C2.096284041249504 11.066955154792716, 17.557748354716846 47.75083053693796, 21.155012676957995 56.83692943936214" stroke="#1864ab" stroke-width="1" fill="none"></path></g></g><g><g transform="translate(881 200) rotate(0 -7.354180332571218 26.54182097993791)"><path d="M0.6785178881138563 -0.06302285604178914 C-1.7269662915418544 8.710140983139475, -12.26796511200567 43.75607837426166, -14.976283993199468 52.795364268496634 M-0.4243989499658347 -1.141713800802827 C-2.850783612752954 7.8042288021494945, -12.772265664761266 45.29409630897144, -15.386878553256393 54.225355760678646" stroke="#1864ab" stroke-width="1" fill="none"></path></g></g><g><g transform="translate(892 196) rotate(0 14.361163167282939 28.061963722929363)"><path d="M-0.26126156039535997 0.6432181555777787 C4.47672120941182 9.942832851285736, 24.215944709504644 45.733739165340864, 28.98358789496124 54.77127767391503 M1.8024373910576106 -0.06469625808298596 C6.332339826201399 9.509083901072541, 23.788196813041964 46.82502901536723, 28.026926076188683 56.1886237039417" stroke="#1864ab" stroke-width="1" fill="none"></path></g></g><g transform="translate(706 341) rotate(0 7 13)"><text x="0" y="18" font-family="Virgil, Segoe UI Emoji" font-size="20px" fill="#1864ab" text-anchor="start" style="white-space: pre;" direction="ltr">3</text></g><g transform="translate(767 341) rotate(0 5.5 13)"><text x="0" y="18" font-family="Virgil, Segoe UI Emoji" font-size="20px" fill="#1864ab" text-anchor="start" style="white-space: pre;" direction="ltr">9</text></g><g><g transform="translate(736 281) rotate(0 -9.969876228924818 28.685528913876055)"><path d="M-0.5573255103081465 -1.059708084538579 C-3.947032968327403 8.538252534593145, -17.359328202530744 47.50166897190114, -20.568948761746288 57.27432174496353 M1.3509398674406112 0.9983412257395683 C-2.138885294850916 10.764598918116342, -17.739094377812 48.81862197037165, -21.290692325290294 58.43076591229066" stroke="#1864ab" stroke-width="1" fill="none"></path></g></g><g><g transform="translate(749 284) rotate(0 10.60334504038093 26.5642497715354)"><path d="M0.3269346814602614 -0.9359912317246198 C4.100245998427272 7.707923416172465, 18.896618114039303 43.51964945780734, 22.167253420874477 52.68987903185189 M-0.9605633401125669 1.1870094262808562 C2.7982151294499635 9.935847012524803, 17.95622375495732 45.54354221137862, 21.832016003206373 54.064490774795416" stroke="#1864ab" stroke-width="1" fill="none"></path></g></g><g transform="translate(707 252) rotate(0 33.5 19)"><path d="M-0.3404300678521395 -0.8998052906244993 C25.72739405995235 1.5351964516658336, 49.05102987904102 -0.9189304428081959, 68.4345511328429 -0.7822665404528379 M-0.5825524544343352 -0.3895279997959733 C16.553538282122464 0.2391354844626038, 35.557893216982485 0.31133223629556583, 66.64806807879359 -0.10576855484396219 M66.04081763140857 -0.6921142768114805 C65.63568066420034 12.731356770731509, 66.56725030006841 25.624388441443443, 66.97572429291904 38.187343494966626 M67.17041624430567 0.16252887900918722 C66.329255385641 10.826780201494696, 67.62747575188055 19.21198546532542, 67.19566205982119 38.80328962858766 M67.46573407761753 39.44966067560017 C50.192939476761964 39.276120724705976, 33.17241652812808 36.48026943447999, -1.6101491320878267 38.49124498851597 M67.84339932445437 37.72879073675722 C44.38673781501129 37.747044450799, 21.855774585902687 37.816549933711066, 0.096772619523108 37.311116999946535 M1.264092219993472 36.995551304891706 C-1.5495483799465 24.572857871465384, 0.08159477276727559 6.554905725270508, 0.786000682041049 1.0389228034764528 M-0.6811264073476195 37.3471909230575 C0.5580727515928448 23.92628757916391, -0.3174987675435841 8.312458782084285, -0.20264687296003103 0.03279534634202719" stroke="#c92a2a" stroke-width="1" fill="none"></path></g><g transform="translate(705 375) rotate(0 367.5 16)"><text x="0" y="24" font-family="Virgil, Segoe UI Emoji" font-size="20px" fill="#c92a2a" text-anchor="start" style="white-space: pre;" direction="ltr">2、从最后一个非叶子结点开始进行调整，将当前结点和它的左右子结点调整为大堆</text></g><g><g transform="translate(782 289) rotate(0 35.59008456654851 11.272111861035228)"><path d="M-0.7272147696465254 -0.9841456074267625 C11.218960340693593 3.0679389537622526, 59.766864081099634 19.462725426877537, 71.90738390274346 23.528369329497217 M1.0918587469495833 1.1135740033350885 C12.851754501406104 4.874870707349231, 59.190848854724315 18.32173306421066, 70.91071498805657 21.68318847870454" stroke="#c92a2a" stroke-width="1" fill="none"></path></g><g transform="translate(782 289) rotate(0 35.59008456654851 11.272111861035228)"><path d="M39.33875707020502 23.551802083858 C51.42687137328293 23.435003752520732, 60.7831558238107 21.076648230207105, 69.0594778865762 20.617062920015304 M40.22842346826087 24.6385026378638 C50.52842603807936 23.60354289405683, 62.8788277481212 23.175547420981143, 71.31663031449541 21.62191100815311" stroke="#c92a2a" stroke-width="1" fill="none"></path></g><g transform="translate(782 289) rotate(0 35.59008456654851 11.272111861035228)"><path d="M45.04110570499655 3.838780437414986 C55.180247630000174 9.979712012092225, 62.71637412003478 13.913643330367226, 69.0594778865762 20.617062920015304 M45.930772103052405 4.9254809914207875 C54.31027798526964 10.842500062318031, 64.64970182499323 17.366455938942813, 71.31663031449541 21.62191100815311" stroke="#c92a2a" stroke-width="1" fill="none"></path></g></g><g transform="translate(865 304) rotate(0 234.5 16)"><text x="0" y="24" font-family="Virgil, Segoe UI Emoji" font-size="20px" fill="#c92a2a" text-anchor="start" style="white-space: pre;" direction="ltr">最后一个非叶子结点的下标len/2-1，len是数组的长度</text></g><g transform="translate(833 418.5) rotate(0 6 13)"><text x="0" y="18" font-family="Virgil, Segoe UI Emoji" font-size="20px" fill="#087f5b" text-anchor="start" style="white-space: pre;" direction="ltr">4</text></g><g transform="translate(786 487.5) rotate(0 7.5 13)"><text x="0" y="18" font-family="Virgil, Segoe UI Emoji" font-size="20px" fill="#087f5b" text-anchor="start" style="white-space: pre;" direction="ltr">2</text></g><g transform="translate(888 485.5) rotate(0 6.5 13)"><text x="0" y="18" font-family="Virgil, Segoe UI Emoji" font-size="20px" fill="#087f5b" text-anchor="start" style="white-space: pre;" direction="ltr">8</text></g><g><g transform="translate(836 436.5) rotate(0 -20.816474315812798 26.832930414006114)"><path d="M0.12317959852516647 -1.1975995916873217 C-6.677303870643179 7.931526849791409, -33.72568029177686 45.619968972727655, -40.52989033870399 54.86346041969955 M-1.2712898415885867 0.7880566773377358 C-8.300048420882472 9.579342248793692, -35.60528131391232 44.03902947163209, -41.756128230150786 53.1942023912631" stroke="#087f5b" stroke-width="1" fill="none"></path></g></g><g><g transform="translate(847 435.5) rotate(0 20.832930414006114 24.968430935442456)"><path d="M-1.1975995916873217 -0.5298903387039899 C5.931526849791408 7.665899614368876, 35.619968972727655 40.988949203367035, 42.86346041969955 49.297919316962364 M0.37452189333736907 1.806313288137317 C7.413418427780271 10.134260714774332, 35.49183381445706 42.38672432335714, 42.36873167641461 50.46675220958888" stroke="#087f5b" stroke-width="1" fill="none"></path></g></g><g transform="translate(780 648.5) rotate(0 7.5 13)"><text x="0" y="18" font-family="Virgil, Segoe UI Emoji" font-size="20px" fill="#087f5b" text-anchor="start" style="white-space: pre;" direction="ltr">0</text></g><g transform="translate(814 567.5) rotate(0 7 13)"><text x="0" y="18" font-family="Virgil, Segoe UI Emoji" font-size="20px" fill="#087f5b" text-anchor="start" style="white-space: pre;" direction="ltr">5</text></g><g transform="translate(874 568.5) rotate(0 4 13)"><text x="0" y="18" font-family="Virgil, Segoe UI Emoji" font-size="20px" fill="#087f5b" text-anchor="start" style="white-space: pre;" direction="ltr">7</text></g><g transform="translate(939 565.5) rotate(0 2 13)"><text x="0" y="18" font-family="Virgil, Segoe UI Emoji" font-size="20px" fill="#087f5b" text-anchor="start" style="white-space: pre;" direction="ltr">1</text></g><g><g transform="translate(788 512.5) rotate(0 -14.78526738351212 28.23813048696144)"><path d="M-0.6760696571320295 0.6415805798023939 C-5.536361603066325 9.822391718750199, -24.86498717479408 46.27075218173364, -29.863832358643414 55.348215923830864 M1.1698550435341897 -0.06719356114044794 C-3.7751114628277715 9.237911173955847, -25.247724310513586 47.20647386536623, -30.74038981055841 56.543454535063354" stroke="#087f5b" stroke-width="1" fill="none"></path></g></g><g><g transform="translate(802 514.5) rotate(0 10.618627737537054 27.83951864980162)"><path d="M0.6415805798023939 0.13616764135658732 C3.8223917187501986 9.470655790840587, 16.27075218173365 45.87856446492175, 19.348215923830868 55.33085923977196 M-0.48072834514081486 -0.8379482922703028 C3.0719873529424273 8.70151388389369, 18.049278208191197 47.21838759722809, 21.71798382021487 56.51698559187353" stroke="#087f5b" stroke-width="1" fill="none"></path></g></g><g><g transform="translate(894 508.5) rotate(0 -8.266486559435634 26.261422399720175)"><path d="M0.13616764135658732 -0.6517840761691331 C-2.5293442091594143 7.925679665928086, -14.121435535078248 43.285286237920324, -16.66914076022804 52.10636303238571 M-1.2514830762706697 1.6204253385029732 C-3.464409937119732 10.267925293402126, -11.938808059946943 44.57613830105091, -14.308485122974961 53.174628875609486" stroke="#087f5b" stroke-width="1" fill="none"></path></g></g><g><g transform="translate(905 504.5) rotate(0 14.848687042295865 27.590397765114915)"><path d="M-0.6517840761691331 -0.6691407602280378 C3.9256796659280857 8.616487347955506, 23.285286237920324 46.718657318626846, 28.10636303238571 55.84993629045785 M1.2068905545026065 1.593956395313144 C6.1020014723887055 10.536407008493942, 25.41894264387588 45.27702919912835, 30.349158160761 54.1735780941695" stroke="#087f5b" stroke-width="1" fill="none"></path></g></g><g transform="translate(719 649.5) rotate(0 7 13)"><text x="0" y="18" font-family="Virgil, Segoe UI Emoji" font-size="20px" fill="#087f5b" text-anchor="start" style="white-space: pre;" direction="ltr">3</text></g><g transform="translate(745 569.5) rotate(0 5.5 13)"><text x="0" y="18" font-family="Virgil, Segoe UI Emoji" font-size="20px" fill="#087f5b" text-anchor="start" style="white-space: pre;" direction="ltr">9</text></g><g><g transform="translate(749 589.5) rotate(0 -10.515765319392074 28.79226762466135)"><path d="M0.8499362904578447 -0.7253233093768359 C-2.685451404377818 9.141925945008794, -18.303558711335064 48.55077847850819, -21.881466929242016 58.30985855869949 M-0.16298588639125233 1.508278007861227 C-3.2649734098277987 11.075200869000206, -16.129045903738586 46.75851396794741, -19.632282530721277 56.349959553238" stroke="#087f5b" stroke-width="1" fill="none"></path></g></g><g><g transform="translate(762 592.5) rotate(0 10.29226762466135 26.25051002688707)"><path d="M-0.7253233093768359 -0.8814669292420149 C2.9752592783421274 7.8739581861843675, 17.71744514517486 44.46126940237979, 21.30985855869949 53.382486983016136 M1.0947432238608599 1.2701589875668287 C4.7426103813201195 9.579050036792953, 17.377984977439045 42.7095126268516, 20.524488838389516 51.46071790032089" stroke="#087f5b" stroke-width="1" fill="none"></path></g></g><g transform="translate(769 645) rotate(0 20.5 16)"><path d="M0.27606637962162495 -1.999789284542203 C15.365323506575079 0.0541379251424223, 30.216133444197478 -0.1670806012209505, 42.38889207132161 -0.7908252347260714 M-0.49135362450033426 -0.13080825563520193 C8.108636035677046 0.8253197564464063, 17.41639604344964 0.48736401337198915, 40.246834493242204 -0.052176705561578274 M40.99617995508015 -0.39738832600414753 C42.44565161027014 9.211456797644496, 42.03325368918478 13.96179476492107, 40.84437437541783 31.795475794002414 M41.24789712484926 0.2421135986223817 C39.93369756605476 8.331807380355896, 41.26045097377151 16.704834940470757, 41.52384216245264 32.3850237512961 M42.51396389491856 32.55117161385715 C32.43082736032083 33.54274783155881, 20.481924300454555 32.203109657978644, -1.8440623115748167 33.26815797202289 M41.4128213590011 31.299820342101157 C29.85812515513971 32.313938121097166, 19.87856990434229 32.96997613717802, 0.028860962949693203 31.1475425446406 M1.1295280624181032 31.44910098426044 C-0.5632958962768316 25.884206632897257, 1.5905407712608577 19.250233836099504, -1.6243550013750792 -1.2402713764458895 M0.29818836506456137 31.850570031441748 C0.58296423163265 24.316835224069656, -1.0996874967589974 17.25863390211016, -0.02244138065725565 0.7321142936125398" stroke="#c92a2a" stroke-width="1" fill="none"></path></g><g transform="translate(730 564) rotate(0 23 18)"><path d="M0.048807693645358086 -0.003820044919848442 C13.162598828412593 1.9879072288610042, 28.721044427901507 1.5755093077756466, 44.74102140776813 -0.15562562458217144 M-0.8666021442040801 0.24789712484925985 C13.571707924827933 -0.7449874425493181, 26.33171236794442 0.581765965167433, 45.3862676108256 0.5238421624526381 M45.58669830672443 1.513963894918561 C46.36451118696481 13.791058003157378, 47.44081425178796 24.20238558612764, 46.28783650510013 34.15593768842518 M45.96835393551737 0.41282135900110006 C45.16544449515641 12.71041791457683, 46.19253716059029 26.583155423216525, 46.9829510236159 36.02886096294969 M44.15104575268924 37.1295280624181 C35.570405278913675 35.72166523789987, 26.61056673079729 37.87550190543756, 0.21773685328662395 34.37564499862492 M45.20946941617876 36.29818836506456 C34.9031941972673 37.27283399580047, 24.198703684471546 35.59018226740882, 0.8118741596117616 35.977558619342744 M0.5052167307585478 35.31681044586003 C1.7969679998978974 24.261342571675776, 1.707854347191751 9.220601336285469, 0.44838602654635906 0.041887419298291206 M-0.07132577057927847 35.03372836764902 C-1.1531490486860276 22.015434111095963, -0.2833687764406204 6.873245163075623, 0.32094351295381784 0.2643137937411666" stroke="#1864ab" stroke-width="1" fill="none"></path></g><g><g transform="translate(718 474) rotate(0 -160.60415432043374 -97.89475415065885)"><path d="M-0.10187125392258167 0.1727019030600787 C-53.780108068262535 -32.36322976760566, -267.71542934762937 -161.72337274961174, -321.1064373869449 -194.23910521678627 M-1.6144923915714027 -0.7822335431724787 C-55.02182482225199 -33.742661592736845, -265.6696486240874 -163.8320666549355, -318.9753624787182 -195.96221020437778" stroke="#1864ab" stroke-width="1" fill="none"></path></g><g transform="translate(718 474) rotate(0 -160.60415432043374 -97.89475415065885)"><path d="M-289.2829704896765 -191.858826274766 C-299.5320874028424 -193.04776702572644, -311.8507753307975 -194.62603492668933, -318.149719760716 -197.36256952017547 M-288.5878559711607 -189.98590300024148 C-298.1694411662311 -192.42857369907355, -304.6783826641822 -193.94205358052605, -318.41059844750913 -196.23765971224756" stroke="#1864ab" stroke-width="1" fill="none"></path></g><g transform="translate(718 474) rotate(0 -160.60415432043374 -97.89475415065885)"><path d="M-299.98527439587247 -174.34938043872475 C-306.30733586386197 -182.18717841604126, -314.55648744796116 -190.42338901935005, -318.149719760716 -197.36256952017547 M-299.2901598773567 -172.47645716420024 C-306.11670540876713 -179.5648565205863, -309.81336658707295 -185.67935225471757, -318.41059844750913 -196.23765971224756" stroke="#1864ab" stroke-width="1" fill="none"></path></g></g><g transform="translate(89 287) rotate(0 314.5 157)"><text x="0" y="23.4" font-family="Virgil, Segoe UI Emoji" font-size="20px" fill="#1864ab" text-anchor="start" style="white-space: pre;" direction="ltr">堆调整算法</text><text x="0" y="54.8" font-family="Virgil, Segoe UI Emoji" font-size="20px" fill="#1864ab" text-anchor="start" style="white-space: pre;" direction="ltr">1、记录要调整结点的下标为max</text><text x="0" y="86.19999999999999" font-family="Virgil, Segoe UI Emoji" font-size="20px" fill="#1864ab" text-anchor="start" style="white-space: pre;" direction="ltr">2、计算出左右子结点的下标，</text><text x="0" y="117.6" font-family="Virgil, Segoe UI Emoji" font-size="20px" fill="#1864ab" text-anchor="start" style="white-space: pre;" direction="ltr">   左结点：2×index+1</text><text x="0" y="149" font-family="Virgil, Segoe UI Emoji" font-size="20px" fill="#1864ab" text-anchor="start" style="white-space: pre;" direction="ltr">   右结点：2×index+2</text><text x="0" y="180.39999999999998" font-family="Virgil, Segoe UI Emoji" font-size="20px" fill="#1864ab" text-anchor="start" style="white-space: pre;" direction="ltr">3、寻找左右结节点的较大的值，(子结点的下标不超出数组长度)</text><text x="0" y="211.79999999999998" font-family="Virgil, Segoe UI Emoji" font-size="20px" fill="#1864ab" text-anchor="start" style="white-space: pre;" direction="ltr">4、判断max的值是否发生变化，若发生变化则表示当前的堆需要调整，</text><text x="0" y="243.2" font-family="Virgil, Segoe UI Emoji" font-size="20px" fill="#1864ab" text-anchor="start" style="white-space: pre;" direction="ltr">交换下标为index和max的值；交换完之后，有可能下面结点的不满足</text><text x="0" y="274.59999999999997" font-family="Virgil, Segoe UI Emoji" font-size="20px" fill="#1864ab" text-anchor="start" style="white-space: pre;" direction="ltr">最大堆，则继续进行调整</text><text x="0" y="306" font-family="Virgil, Segoe UI Emoji" font-size="20px" fill="#1864ab" text-anchor="start" style="white-space: pre;" direction="ltr"></text></g><g transform="translate(1177 583.75) rotate(0 6 13)"><text x="0" y="18" font-family="Virgil, Segoe UI Emoji" font-size="20px" fill="#087f5b" text-anchor="start" style="white-space: pre;" direction="ltr">4</text></g><g transform="translate(1080 659.75) rotate(0 7.5 13)"><text x="0" y="18" font-family="Virgil, Segoe UI Emoji" font-size="20px" fill="#087f5b" text-anchor="start" style="white-space: pre;" direction="ltr">2</text></g><g transform="translate(1250 498.75) rotate(0 6.5 13)"><text x="0" y="18" font-family="Virgil, Segoe UI Emoji" font-size="20px" fill="#087f5b" text-anchor="start" style="white-space: pre;" direction="ltr">8</text></g><g><g transform="translate(1198 449.75) rotate(0 -20.219253326114313 27.138157586446027)"><path d="M-1.0201347034424544 0.27773012928664675 C-7.529971428836386 9.615825305506588, -33.61451385033627 46.135263751074675, -40.088929204270244 54.89838067106903 M0.6451558479107917 -0.6220654981769622 C-5.940366447127113 8.48789739375934, -34.21575249071543 44.21485400861129, -41.083662500139326 53.24745577460155" stroke="#087f5b" stroke-width="1" fill="none"></path></g></g><g><g transform="translate(1209 448.75) rotate(0 20.93139019444584 25.279799179062252)"><path d="M0.27773012928664675 -0.08892920427024364 C7.615825305506588 8.436655441795786, 36.135263751074675 41.983194792146485, 42.89838067106903 50.133373172953725 M-1.0356002821773291 -1.18122098185122 C6.32197357274592 7.649663351600369, 35.05765835143626 43.29294884624581, 42.42198505975306 51.740819339975715" stroke="#087f5b" stroke-width="1" fill="none"></path></g></g><g transform="translate(1142 661.75) rotate(0 7.5 13)"><text x="0" y="18" font-family="Virgil, Segoe UI Emoji" font-size="20px" fill="#087f5b" text-anchor="start" style="white-space: pre;" direction="ltr">0</text></g><g transform="translate(1148 502.75) rotate(0 7 13)"><text x="0" y="18" font-family="Virgil, Segoe UI Emoji" font-size="20px" fill="#087f5b" text-anchor="start" style="white-space: pre;" direction="ltr">5</text></g><g transform="translate(1236 581.75) rotate(0 4 13)"><text x="0" y="18" font-family="Virgil, Segoe UI Emoji" font-size="20px" fill="#087f5b" text-anchor="start" style="white-space: pre;" direction="ltr">7</text></g><g transform="translate(1301 578.75) rotate(0 2 13)"><text x="0" y="18" font-family="Virgil, Segoe UI Emoji" font-size="20px" fill="#087f5b" text-anchor="start" style="white-space: pre;" direction="ltr">1</text></g><g><g transform="translate(1150 525.75) rotate(0 -15.182338642766695 27.99842163457538)"><path d="M-1.1878589194267988 -0.7378996510058642 C-6.33576339893043 8.6983035625269, -25.786040810868144 46.09068525048594, -30.754053704068063 55.47365093044937 M0.3893764185346664 1.4890990868769585 C-4.384199201520532 11.18367673571532, -23.602331105526538 47.541871795213474, -28.437977362331004 56.73474292015657" stroke="#087f5b" stroke-width="1" fill="none"></path></g></g><g><g transform="translate(1164 527.75) rotate(0 9.367875639721774 27.63228436112405)"><path d="M-0.7378996510058642 -0.7540537040680646 C2.6983035625269016 8.611266736065348, 16.090685250485937 45.4677262066553, 19.473650930449367 55.004063721373676 M1.0755643028765918 1.4644641559571028 C4.407752914701899 11.050945575361451, 15.334676138038438 47.20185925337176, 18.24927220530808 56.01862242631614" stroke="#087f5b" stroke-width="1" fill="none"></path></g></g><g><g transform="translate(1256 521.75) rotate(0 -7.9725034533347525 26.66995759277603)"><path d="M-0.7540537040680646 -0.5263490695506334 C-3.388733263934652 8.356616610412795, -14.532273793344698 43.71172145816187, -16.995936278626324 52.55989442877471 M1.050929371956736 1.8117137235961853 C-1.1149782456519701 10.925104133741309, -11.95533640380328 45.226452011919264, -14.806848288532347 53.86626425510272" stroke="#087f5b" stroke-width="1" fill="none"></path></g></g><g><g transform="translate(1267 517.75) rotate(0 14.016772679612018 27.234017552807927)"><path d="M-0.5263490695506334 -0.9959362786263227 C4.356616610412797 8.373734569425384, 23.711721458161872 45.97317359832426, 28.559894428774715 55.46397138424218 M1.3981789395958186 1.0955932297557593 C6.149180312727888 10.166209021235506, 23.019256354744236 44.75016652566691, 27.380793540254235 53.5849816121906" stroke="#087f5b" stroke-width="1" fill="none"></path></g></g><g transform="translate(1111 581.75) rotate(0 7 13)"><text x="0" y="18" font-family="Virgil, Segoe UI Emoji" font-size="20px" fill="#087f5b" text-anchor="start" style="white-space: pre;" direction="ltr">3</text></g><g transform="translate(1196 431.75) rotate(0 5.5 13)"><text x="0" y="18" font-family="Virgil, Segoe UI Emoji" font-size="20px" fill="#087f5b" text-anchor="start" style="white-space: pre;" direction="ltr">9</text></g><g><g transform="translate(1111 602.75) rotate(0 -10.018538581570624 28.323467548182236)"><path d="M0.4639713842421771 -0.4373112458735704 C-2.7118974965065714 9.362612797940772, -16.618001858517527 48.46562083375951, -20.051149563118816 58.35943869166076 M-0.7515823683701457 -1.7125035952962935 C-3.9153037003241478 7.75174831972147, -17.21857170319185 46.62864855970567, -20.501048547383398 56.425569256003946" stroke="#087f5b" stroke-width="1" fill="none"></path></g></g><g><g transform="translate(1124 605.75) rotate(0 10.461063722893527 27.133239063769565)"><path d="M-0.4373112458735704 0.9488504368811845 C3.1959461312741047 9.849036065613229, 17.632287500426173 45.016599738473694, 21.359438691660763 53.86508515663445 M1.5339616207033395 0.4013929709047077 C5.079157832041383 8.93104380292197, 17.248119569197296 43.5563913893948, 20.600098541155457 52.19668011508882" stroke="#087f5b" stroke-width="1" fill="none"></path></g></g><g><g transform="translate(869 622) rotate(0 99.87089775003494 -2.649586043879424)"><path d="M0.1250348310917615 -0.44366836957633493 C33.091802543525894 -1.1994214615474146, 165.44163471671442 -4.450589478140076, 198.88413218073546 -4.855503718182445 M-1.268460611924529 -1.7221982089430095 C31.957838860725364 -2.3203539259980124, 167.39487407403686 -3.2835721659411985, 201.01025611199438 -3.7672179190069435" stroke="#c92a2a" stroke-width="1" fill="none"></path></g><g transform="translate(869 622) rotate(0 99.87089775003494 -2.649586043879424)"><path d="M172.18799609600896 4.92552004309645 C182.4903789414475 3.937488866043121, 196.75484386817558 -0.8270501964625376, 201.9184592500329 -3.893541661798954 M172.30006340335453 6.526512921064105 C178.9228018498123 3.8138074384984826, 183.76213224709346 2.235339297695451, 201.47620380800217 -4.005983927063644" stroke="#c92a2a" stroke-width="1" fill="none"></path></g><g transform="translate(869 622) rotate(0 99.87089775003494 -2.649586043879424)"><path d="M171.9750985844167 -15.59458417290102 C182.30568527188456 -8.57396720564725, 196.65324278285374 -5.329636293809128, 201.9184592500329 -3.893541661798954 M172.08716589176228 -13.993591294933365 C178.8341793047866 -12.370605771294334, 183.71850145759782 -9.612548297340634, 201.47620380800217 -4.005983927063644" stroke="#c92a2a" stroke-width="1" fill="none"></path></g></g><g transform="translate(701 699) rotate(0 307 16)"><text x="0" y="24" font-family="Virgil, Segoe UI Emoji" font-size="20px" fill="#e67700" text-anchor="start" style="white-space: pre;" direction="ltr">3、将数组初始化为一个大堆之后，交换堆顶元素和最后一个结点元素</text></g><g transform="translate(788.5 898) rotate(0 6 13)"><text x="0" y="18" font-family="Virgil, Segoe UI Emoji" font-size="20px" fill="#e67700" text-anchor="start" style="white-space: pre;" direction="ltr">4</text></g><g transform="translate(691.5 974) rotate(0 7.5 13)"><text x="0" y="18" font-family="Virgil, Segoe UI Emoji" font-size="20px" fill="#e67700" text-anchor="start" style="white-space: pre;" direction="ltr">2</text></g><g transform="translate(861.5 813) rotate(0 6.5 13)"><text x="0" y="18" font-family="Virgil, Segoe UI Emoji" font-size="20px" fill="#e67700" text-anchor="start" style="white-space: pre;" direction="ltr">8</text></g><g><g transform="translate(809.5 764) rotate(0 -19.957086591646032 26.91313465230172)"><path d="M-0.9289132017642259 -0.3691623609513044 C-7.49977557050685 8.800102730467916, -33.36488671091696 44.68691066093743, -39.83632548041642 53.93273481912911 M0.78426863797009 -1.608576545789838 C-5.894317763174573 7.853920466825366, -33.83507110310098 46.27611554615199, -40.69844182126224 55.434845850393174" stroke="#e67700" stroke-width="1" fill="none"></path></g></g><g><g transform="translate(820.5 763) rotate(0 20.78178622908888 24.723226939132473)"><path d="M-0.3691623609513044 0.16367451958358292 C6.800102730467915 8.692235750084123, 34.68691066093743 42.131180777276555, 41.93273481912911 50.24245418123901 M1.6378886702097954 -0.7960003029741347 C8.737996645811945 7.429423321740081, 34.06891988897696 39.858627473569165, 40.949375135544685 48.24716787761077" stroke="#e67700" stroke-width="1" fill="none"></path></g></g><g transform="translate(759.5 817) rotate(0 7 13)"><text x="0" y="18" font-family="Virgil, Segoe UI Emoji" font-size="20px" fill="#e67700" text-anchor="start" style="white-space: pre;" direction="ltr">5</text></g><g transform="translate(847.5 896) rotate(0 4 13)"><text x="0" y="18" font-family="Virgil, Segoe UI Emoji" font-size="20px" fill="#e67700" text-anchor="start" style="white-space: pre;" direction="ltr">7</text></g><g transform="translate(912.5 893) rotate(0 2 13)"><text x="0" y="18" font-family="Virgil, Segoe UI Emoji" font-size="20px" fill="#e67700" text-anchor="start" style="white-space: pre;" direction="ltr">1</text></g><g><g transform="translate(761.5 840) rotate(0 -14.308362915655607 27.848003892228007)"><path d="M1.105782588198781 -1.1686850566416978 C-3.7490680735558275 8.268354720001419, -24.21009415797889 47.41156686755518, -29.19636915139854 56.864692841097714 M0.22717971766367562 0.832151343282312 C-4.709488830324262 9.91800475086396, -24.859012459870428 45.89621626124407, -29.72250841950998 55.1960818338953" stroke="#e67700" stroke-width="1" fill="none"></path></g></g><g><g transform="translate(775.5 842) rotate(0 9.84800389222795 28.68403286322956)"><path d="M-1.1686850566416978 0.8036308486014605 C2.26835472000142 10.150689188515148, 17.411566867555184 48.144263756151005, 20.864692841097714 57.1881326276809 M0.4186165592819453 0.17993309877812846 C3.7520809298505386 9.738564815347393, 17.349020604069032 46.403579016352694, 20.370611119046806 55.68932750843465" stroke="#e67700" stroke-width="1" fill="none"></path></g></g><g><g transform="translate(867.5 836) rotate(0 -7.166256178906224 27.062167917545878)"><path d="M0.8036308486014605 0.8646928410977124 C-1.8493108114848538 9.817818814640244, -11.855736243849 44.0557731649528, -14.811867372319103 52.55007078461349 M-0.23360168522223823 0.27305263733491314 C-3.0373590056660276 9.493437495188166, -12.75361664082234 45.14113086477543, -15.136143206413834 53.85128319775686" stroke="#e67700" stroke-width="1" fill="none"></path></g></g><g><g transform="translate(878.5 832) rotate(0 14.204794318974109 27.94033039085565)"><path d="M0.8646928410977124 1.1881326276808977 C5.817818814640243 10.065334832544128, 24.055773164952793 45.29311210302015, 28.55007078461349 54.06684407778084 M-0.140482146665454 0.7662983118742703 C4.717513674174745 9.695899422491589, 22.323935207600393 46.153072745328146, 27.365812482908368 55.11436246983707" stroke="#e67700" stroke-width="1" fill="none"></path></g></g><g transform="translate(722.5 896) rotate(0 7 13)"><text x="0" y="18" font-family="Virgil, Segoe UI Emoji" font-size="20px" fill="#e67700" text-anchor="start" style="white-space: pre;" direction="ltr">3</text></g><g transform="translate(807.5 746) rotate(0 5.5 13)"><text x="0" y="18" font-family="Virgil, Segoe UI Emoji" font-size="20px" fill="#e67700" text-anchor="start" style="white-space: pre;" direction="ltr">9</text></g><g><g transform="translate(722.5 917) rotate(0 -10.695838517239338 28.938735691830516)"><path d="M-0.9331559222191572 -1.1695214409381152 C-4.826090614125132 8.746632232392827, -18.85677421502769 49.085199731712535, -22.169475523754954 59.046992824599144 M0.7777984892763197 0.8308758572302759 C-2.8694482046924534 10.472377957260857, -16.362699546869845 48.18350637908404, -20.07149563735351 57.47408930873498" stroke="#e67700" stroke-width="1" fill="none"></path></g></g><g><g transform="translate(735.5 920) rotate(0 10.438735691830516 26.829334985613855)"><path d="M-1.1695214409381152 -1.1694755237549543 C2.5799655657261615 7.851156500851115, 18.251866398379207 44.30958282935123, 22.046992824599148 53.19063622541726 M0.41734107322990877 0.8309458809345962 C4.13978746958077 10.154277466659744, 18.192977388575674 46.13819060298304, 21.648618593886496 54.8281454949826" stroke="#e67700" stroke-width="1" fill="none"></path></g></g><g transform="translate(1194.5 907) rotate(0 6 13)"><text x="0" y="18" font-family="Virgil, Segoe UI Emoji" font-size="20px" fill="#e67700" text-anchor="start" style="white-space: pre;" direction="ltr">4</text></g><g transform="translate(1097.5 983) rotate(0 7.5 13)"><text x="0" y="18" font-family="Virgil, Segoe UI Emoji" font-size="20px" fill="#e67700" text-anchor="start" style="white-space: pre;" direction="ltr">2</text></g><g transform="translate(1267.5 822) rotate(0 6.5 13)"><text x="0" y="18" font-family="Virgil, Segoe UI Emoji" font-size="20px" fill="#e67700" text-anchor="start" style="white-space: pre;" direction="ltr">8</text></g><g><g transform="translate(1215.5 773) rotate(0 -20.337912855669856 27.563940192516895)"><path d="M0.16110517568886285 0.7079356770962477 C-6.610592587913076 9.751855514571071, -34.22473896754285 44.75863107256591, -40.83693088702857 53.7091522436589 M-1.21345333641395 0.033997962232679146 C-7.588313714719066 9.305343462582679, -32.09634579445546 46.38548917388544, -38.56436506634578 55.09388242280111" stroke="#e67700" stroke-width="1" fill="none"></path></g></g><g><g transform="translate(1226.5 772) rotate(0 20.664807710945638 24.82551138587297)"><path d="M0.7079356770962477 -0.836930887028575 C7.751855514571071 7.5508771934856975, 34.75863107256591 42.14717049586276, 41.7091522436589 50.487953658774494 M-0.37953682176768777 1.3380764519423245 C6.529419641569257 9.348851522927482, 33.5682935167104 40.49301179441313, 40.60841170795262 48.62155458085239" stroke="#e67700" stroke-width="1" fill="none"></path></g></g><g transform="translate(1165.5 826) rotate(0 7 13)"><text x="0" y="18" font-family="Virgil, Segoe UI Emoji" font-size="20px" fill="#e67700" text-anchor="start" style="white-space: pre;" direction="ltr">5</text></g><g transform="translate(1253.5 905) rotate(0 4 13)"><text x="0" y="18" font-family="Virgil, Segoe UI Emoji" font-size="20px" fill="#e67700" text-anchor="start" style="white-space: pre;" direction="ltr">7</text></g><g transform="translate(1318.5 902) rotate(0 2 13)"><text x="0" y="18" font-family="Virgil, Segoe UI Emoji" font-size="20px" fill="#e67700" text-anchor="start" style="white-space: pre;" direction="ltr">1</text></g><g><g transform="translate(1167.5 849) rotate(0 -15.441202420592276 27.961496450379514)"><path d="M0.4110627036541701 -0.7922319095581769 C-4.578213717415929 8.578979949032266, -25.26079896874726 47.23964626776676, -30.226506282761694 56.71522481031716 M-0.8322681062668562 1.4062423925846814 C-5.973935937210918 10.391708225136004, -26.461337296292186 45.634037346566714, -31.293467544838787 54.96814308695495" stroke="#e67700" stroke-width="1" fill="none"></path></g></g><g><g transform="translate(1181.5 851) rotate(0 9.9614964503794 27.61289639650846)"><path d="M-0.7922319095581769 -0.22650628276169305 C2.5789799490322673 9.141119736557206, 17.239646267766755 47.36499136897425, 20.71522481031716 56.61681881956756 M0.9927076085843147 -1.3910260265506804 C4.225784404122582 7.588971401111534, 17.086841689391683 45.21518862590814, 20.142672372106464 54.81807395106181" stroke="#e67700" stroke-width="1" fill="none"></path></g></g><g><g transform="translate(1273.5 845) rotate(0 -8.11695152327411 27.337964571937903)"><path d="M-0.22650628276169305 0.7152248103171586 C-2.858880263442795 9.690803352867563, -12.635008631025752 44.198371755952635, -15.38318118043244 53.061239345744255 M-1.8045608105510473 0.04511389039456848 C-4.576952419901888 9.299738915984829, -13.942007031266888 45.96859371605019, -16.007396763786673 54.630815253481266" stroke="#e67700" stroke-width="1" fill="none"></path></g></g><g><g transform="translate(1284.5 841) rotate(0 14.346409226069227 27.67063454871999)"><path d="M0.7152248103171586 0.616818819567561 C5.690803352867563 9.701979603494205, 24.198371755952635 45.06969825637837, 29.06123934574425 54.28445842079818 M-0.36842089360579844 -0.10495524549856783 C4.523815094971408 9.141782698190461, 23.151398058875152 46.42236662919944, 28.14534453863278 55.446224342938514" stroke="#e67700" stroke-width="1" fill="none"></path></g></g><g transform="translate(1128.5 905) rotate(0 7 13)"><text x="0" y="18" font-family="Virgil, Segoe UI Emoji" font-size="20px" fill="#e67700" text-anchor="start" style="white-space: pre;" direction="ltr">3</text></g><g transform="translate(1156.5 986) rotate(0 5.5 13)"><text x="0" y="18" font-family="Virgil, Segoe UI Emoji" font-size="20px" fill="#e67700" text-anchor="start" style="white-space: pre;" direction="ltr">9</text></g><g><g transform="translate(1128.5 926) rotate(0 -9.728840448483766 29.61271123729648)"><path d="M-0.7155415792018175 0.8924303490668535 C-4.167448081448674 10.480327057714263, -16.689976646378636 48.170635990177594, -20.094620193913578 57.588619597628714 M1.1096603623777628 0.31535233698785303 C-2.475018342360854 10.066262565876047, -16.718333254680037 49.22879667324324, -20.56734125934541 58.91007013760507" stroke="#e67700" stroke-width="1" fill="none"></path></g></g><g><g transform="translate(840 959) rotate(0 122.2888026533276 1.646600740998963)"><path d="M0.19914369396865372 0.8652515608817339 C40.82485127660135 1.26263949063917, 202.7120046676447 2.710645210618774, 243.3580953221768 3.019296796992421 M-1.1554445960372686 0.27390468500554555 C39.90073817866544 0.299289026086529, 204.98218824920556 1.3523107344160477, 245.73304990269244 1.4318528666347266" stroke="#c92a2a" stroke-width="1" fill="none"></path></g><g transform="translate(840 959) rotate(0 122.2888026533276 1.646600740998963)"><path d="M218.93935246315056 10.498112428865857 C226.68106106234907 8.941029405309775, 233.71610233770232 6.9127552933352705, 247.66988937705756 2.610119945108891 M218.07123515583777 11.607571133344896 C226.62136648909694 9.155394288466434, 235.38392420409653 5.437216557520495, 245.84486715178937 0.9622840245440603" stroke="#c92a2a" stroke-width="1" fill="none"></path></g><g transform="translate(840 959) rotate(0 122.2888026533276 1.646600740998963)"><path d="M219.0299109511554 -10.022896355940256 C226.85602664159669 -6.100976558868155, 233.86688993394395 -2.6503981348129884, 247.66988937705756 2.610119945108891 M218.1617936438426 -8.913437651461217 C226.5026154905354 -5.07589175275989, 235.23741637229307 -2.504231486791209, 245.84486715178937 0.9622840245440603" stroke="#c92a2a" stroke-width="1" fill="none"></path></g></g><g transform="translate(754.5 973) rotate(0 7.5 13)"><text x="0" y="18" font-family="Virgil, Segoe UI Emoji" font-size="20px" fill="#e67700" text-anchor="start" style="white-space: pre;" direction="ltr">0</text></g><g transform="translate(1214.5 750) rotate(0 7.5 13)"><text x="0" y="18" font-family="Virgil, Segoe UI Emoji" font-size="20px" fill="#e67700" text-anchor="start" style="white-space: pre;" direction="ltr">0</text></g><g transform="translate(1158 949) rotate(0 90 16)"><text x="0" y="24" font-family="Virgil, Segoe UI Emoji" font-size="20px" fill="#e67700" text-anchor="start" style="white-space: pre;" direction="ltr">交换之后，断开连接</text></g><g transform="translate(713 1039) rotate(0 293.5 16)"><text x="0" y="24" font-family="Virgil, Segoe UI Emoji" font-size="20px" fill="#1864ab" text-anchor="start" style="white-space: pre;" direction="ltr">4、交换之后，进行堆调整，(从堆顶元素开始，堆的元素个数减一)</text></g><g transform="translate(790.75 1250) rotate(0 6 13)"><text x="0" y="18" font-family="Virgil, Segoe UI Emoji" font-size="20px" fill="#1864ab" text-anchor="start" style="white-space: pre;" direction="ltr">4</text></g><g transform="translate(693.75 1326) rotate(0 7.5 13)"><text x="0" y="18" font-family="Virgil, Segoe UI Emoji" font-size="20px" fill="#1864ab" text-anchor="start" style="white-space: pre;" direction="ltr">2</text></g><g transform="translate(863.75 1165) rotate(0 6.5 13)"><text x="0" y="18" font-family="Virgil, Segoe UI Emoji" font-size="20px" fill="#1864ab" text-anchor="start" style="white-space: pre;" direction="ltr">8</text></g><g><g transform="translate(811.75 1116) rotate(0 -20.32129447012204 27.19294440155852)"><path d="M0.7912005621939897 0.8423376660794017 C-5.883692391837636 9.551220272108912, -33.524129665022095 44.27027305178344, -40.31852068118751 53.08819839768112 M-0.2525578719936312 0.23896099543198934 C-7.089790915704023 8.999374717827887, -34.687916608111315 45.03074319219217, -41.43378950243816 54.14692780768499" stroke="#1864ab" stroke-width="1" fill="none"></path></g></g><g><g transform="translate(822.75 1115) rotate(0 21.57344165213408 25.021990163251758)"><path d="M0.8423376660794017 -0.3185206811875104 C7.551220272108913 7.887088302647075, 34.27027305178344 41.81714930521945, 41.08819839768112 50.0248544652015 M-0.17457378856837757 -1.5313479841500521 C6.833450896814465 6.811573464398583, 36.48354753501713 43.039729478682084, 43.321457092836496 51.57532831065357" stroke="#1864ab" stroke-width="1" fill="none"></path></g></g><g transform="translate(761.75 1169) rotate(0 7 13)"><text x="0" y="18" font-family="Virgil, Segoe UI Emoji" font-size="20px" fill="#1864ab" text-anchor="start" style="white-space: pre;" direction="ltr">5</text></g><g transform="translate(849.75 1248) rotate(0 4 13)"><text x="0" y="18" font-family="Virgil, Segoe UI Emoji" font-size="20px" fill="#1864ab" text-anchor="start" style="white-space: pre;" direction="ltr">7</text></g><g transform="translate(914.75 1245) rotate(0 2 13)"><text x="0" y="18" font-family="Virgil, Segoe UI Emoji" font-size="20px" fill="#1864ab" text-anchor="start" style="white-space: pre;" direction="ltr">1</text></g><g><g transform="translate(763.75 1192) rotate(0 -14.333367858454608 28.022422220185376)"><path d="M-0.2501102585345507 -1.0722897212952376 C-5.047666098549962 8.443090228115517, -24.669341315701605 47.49201643454532, -29.69713664241135 57.11713416166604 M1.819443126395345 0.9791542296856641 C-3.0298508184403175 10.18447640073796, -24.949364375397565 46.62890185090403, -30.486178843304515 55.58105484776199" stroke="#1864ab" stroke-width="1" fill="none"></path></g></g><g><g transform="translate(777.75 1194) rotate(0 10.022422220185376 28.158971271272662)"><path d="M-1.0722897212952376 0.3028633575886488 C2.443090228115519 9.608401364212234, 17.49201643454532 46.32531193705896, 21.117134161666037 55.583117781206965 M0.5656194456852974 -0.5837373250164093 C4.018552579724541 8.911575883285453, 17.471706193728995 47.289677492237345, 20.7555841329135 56.90167986756191" stroke="#1864ab" stroke-width="1" fill="none"></path></g></g><g><g transform="translate(869.75 1188) rotate(0 -8.640463744848944 27.168221146315318)"><path d="M0.3028633575886488 1.1171341616660355 C-2.391598635787765 10.242251888786752, -13.674688062941035 45.032513773317135, -16.416882218793035 53.67841664142907 M-0.9972721090167761 0.6580256512016058 C-3.864347937727968 9.530697933261592, -14.917518164937695 42.97066029253105, -17.583790847286583 51.91201062940061" stroke="#1864ab" stroke-width="1" fill="none"></path></g></g><g><g transform="translate(880.75 1184) rotate(0 14.96145375431513 27.31343300824983)"><path d="M1.1171341616660355 -0.41688221879303455 C6.242251888786753 8.674256958688298, 25.032513773317138 45.53901845825215, 29.678416641429067 54.84969842247665 M0.2444908672012387 -1.6813493289984764 C5.364774112248172 7.574505664861451, 24.42346463535602 47.13807993705695, 29.086539914552123 56.308215345498176" stroke="#1864ab" stroke-width="1" fill="none"></path></g></g><g transform="translate(724.75 1248) rotate(0 7 13)"><text x="0" y="18" font-family="Virgil, Segoe UI Emoji" font-size="20px" fill="#1864ab" text-anchor="start" style="white-space: pre;" direction="ltr">3</text></g><g transform="translate(752.75 1329) rotate(0 5.5 13)"><text x="0" y="18" font-family="Virgil, Segoe UI Emoji" font-size="20px" fill="#1864ab" text-anchor="start" style="white-space: pre;" direction="ltr">9</text></g><g><g transform="translate(724.75 1269) rotate(0 -10.708185376077893 29.008386010080585)"><path d="M-0.15030157752335072 -0.007448629662394568 C-3.50628827996552 9.725104451055328, -17.055895091965795 49.32134905246397, -20.55280243344605 59.0737351257354 M-1.6883486350625754 -1.0569631055742503 C-5.126749645099044 8.30454809072117, -17.886358884200455 47.93363409322997, -21.26606917463243 57.514871317967774" stroke="#1864ab" stroke-width="1" fill="none"></path></g></g><g transform="translate(810.75 1093) rotate(0 7.5 13)"><text x="0" y="18" font-family="Virgil, Segoe UI Emoji" font-size="20px" fill="#1864ab" text-anchor="start" style="white-space: pre;" direction="ltr">0</text></g><g transform="translate(1166.5 1243) rotate(0 6 13)"><text x="0" y="18" font-family="Virgil, Segoe UI Emoji" font-size="20px" fill="#1864ab" text-anchor="start" style="white-space: pre;" direction="ltr">4</text></g><g transform="translate(1069.5 1319) rotate(0 7.5 13)"><text x="0" y="18" font-family="Virgil, Segoe UI Emoji" font-size="20px" fill="#1864ab" text-anchor="start" style="white-space: pre;" direction="ltr">2</text></g><g transform="translate(1185.5 1086) rotate(0 6.5 13)"><text x="0" y="18" font-family="Virgil, Segoe UI Emoji" font-size="20px" fill="#1864ab" text-anchor="start" style="white-space: pre;" direction="ltr">8</text></g><g><g transform="translate(1187.5 1109) rotate(0 -20.194284569975025 26.50995302810327)"><path d="M-1.194861487671733 -0.3588714022189379 C-7.923080857718984 8.630583713576199, -33.402684390669066 45.35511134676636, -39.881456510350105 54.612788889929654 M0.3786975019611418 -1.592882833722979 C-6.539858326173078 6.985403966065495, -33.89271256472295 43.6351215920411, -40.76726664191112 52.811928308364" stroke="#1864ab" stroke-width="1" fill="none"></path></g></g><g><g transform="translate(1198.5 1108) rotate(0 21.12695874385531 25.284835731908743)"><path d="M-0.3588714022189379 0.11854348964989181 C6.630583713576198 8.63977136996885, 35.35511134676636 41.646486425275604, 42.612788889929654 49.932505794242026 M1.6535823822766544 -0.8648251236230136 C8.479480145052076 7.959415142064293, 35.08792593486607 42.77946858676771, 41.98645759351552 51.43449658744037" stroke="#1864ab" stroke-width="1" fill="none"></path></g></g><g transform="translate(1137.5 1162) rotate(0 7 13)"><text x="0" y="18" font-family="Virgil, Segoe UI Emoji" font-size="20px" fill="#1864ab" text-anchor="start" style="white-space: pre;" direction="ltr">5</text></g><g transform="translate(1245.5 1158) rotate(0 4 13)"><text x="0" y="18" font-family="Virgil, Segoe UI Emoji" font-size="20px" fill="#1864ab" text-anchor="start" style="white-space: pre;" direction="ltr">7</text></g><g transform="translate(1290.5 1238) rotate(0 2 13)"><text x="0" y="18" font-family="Virgil, Segoe UI Emoji" font-size="20px" fill="#1864ab" text-anchor="start" style="white-space: pre;" direction="ltr">1</text></g><g><g transform="translate(1139.5 1185) rotate(0 -14.977130492404171 28.145262424275302)"><path d="M1.1871938567608595 -0.1653402965515851 C-4.105180098488927 9.184799174343546, -25.790521087124944 46.623270058507714, -31.141454841569065 56.03334261961281 M0.3513319022208452 -1.297747897580266 C-4.642559668347239 8.265582543735704, -24.219163526818157 47.74406362744669, -29.02876409702003 57.588272746130826" stroke="#1864ab" stroke-width="1" fill="none"></path></g></g><g><g transform="translate(1153.5 1187) rotate(0 9.161029969016113 27.497698594024314)"><path d="M-0.1653402965515851 -1.141454841569066 C3.184799174343546 7.840944737320145, 16.62327005850772 45.4689942261825, 20.033342619612814 55.081591330096124 M-1.711282681580633 0.8736774212680758 C1.489658722722282 10.486204527275016, 15.536867970271658 47.203792983150734, 19.102802031282337 56.13685202961788" stroke="#1864ab" stroke-width="1" fill="none"></path></g></g><g><g transform="translate(1245.5 1181) rotate(0 -8.229133016318087 26.15016930982472)"><path d="M-1.141454841569066 0.03334261961281304 C-4.159055262679855 8.943415180717906, -14.531005773817501 44.52029205548267, -16.918408669903876 53.29509507007897 M0.46014263726770865 -0.9947564504295588 C-2.289719293738405 7.5499719534566, -11.953402674024304 42.18952217283348, -14.688618685230612 51.32744523309171" stroke="#1864ab" stroke-width="1" fill="none"></path></g></g><g><g transform="translate(1256.5 1177) rotate(0 13.94340191782453 27.307859556004473)"><path d="M0.03334261961281304 -0.9184086699038744 C4.9434151807179045 8.527521767343085, 24.520292055482663 46.08447687042256, 29.29509507007897 55.53412778191269 M-1.4082912344299257 1.2138228330574932 C3.38404813244318 10.400734498059999, 23.642326515658446 44.91990401561682, 28.501974518243223 53.691970118638125" stroke="#1864ab" stroke-width="1" fill="none"></path></g></g><g transform="translate(1100.5 1241) rotate(0 7 13)"><text x="0" y="18" font-family="Virgil, Segoe UI Emoji" font-size="20px" fill="#1864ab" text-anchor="start" style="white-space: pre;" direction="ltr">3</text></g><g transform="translate(1128.5 1322) rotate(0 5.5 13)"><text x="0" y="18" font-family="Virgil, Segoe UI Emoji" font-size="20px" fill="#1864ab" text-anchor="start" style="white-space: pre;" direction="ltr">9</text></g><g><g transform="translate(1100.5 1262) rotate(0 -10.112592531591645 28.919672752246242)"><path d="M0.5341277819126844 -0.3178392928093672 C-2.6828879732638597 9.28130924689273, -16.75299649424851 48.13955946353575, -20.22050320096314 57.889986308291554 M-0.6445938619226217 -1.5303088668733835 C-3.871064177379012 8.237760404373208, -17.424438522681594 49.18140497011443, -20.75931284509599 59.369654371365904" stroke="#1864ab" stroke-width="1" fill="none"></path></g></g><g transform="translate(1217.5 1241) rotate(0 7.5 13)"><text x="0" y="18" font-family="Virgil, Segoe UI Emoji" font-size="20px" fill="#1864ab" text-anchor="start" style="white-space: pre;" direction="ltr">0</text></g><g><g transform="translate(809 1304) rotate(0 119.0435146245361 -2.2399234991520416)"><path d="M0.9657915215939281 -0.27746113948524 C40.52499608807266 -1.0804993114123742, 198.56226633600892 -3.475027847414215, 238.0733359079808 -4.2023858588188885 M0.01369334109127518 -1.4687321830540896 C39.44595901615918 -2.1389976470420757, 198.05633729346096 -2.4058406790842612, 237.68879179604352 -2.771213183477521" stroke="#1864ab" stroke-width="1" fill="none"></path></g><g transform="translate(809 1304) rotate(0 119.0435146245361 -2.2399234991520416)"><path d="M209.08875340191778 9.423221227848167 C219.28557932683125 5.383862804409496, 228.67864238152714 1.3890345677564069, 238.0102813220024 -4.150305621623993 M210.3882503459802 7.440208064527447 C220.2148079932603 4.0606402269603645, 230.8568935360137 0.42336465127490186, 237.775973819606 -2.407753798477352" stroke="#1864ab" stroke-width="1" fill="none"></path></g><g transform="translate(809 1304) rotate(0 119.0435146245361 -2.2399234991520416)"><path d="M208.98314904329976 -11.097715644168183 C219.32328988210003 -7.753621322397608, 228.75435386009153 -4.364146882223146, 238.0102813220024 -4.150305621623993 M210.28264598736217 -13.080728807488903 C220.1209877793197 -8.427471855539682, 230.80441171649943 -4.031910590830551, 237.775973819606 -2.407753798477352" stroke="#1864ab" stroke-width="1" fill="none"></path></g></g><g transform="translate(692 1382) rotate(0 154 16)"><text x="0" y="24" font-family="Virgil, Segoe UI Emoji" font-size="20px" fill="#343a40" text-anchor="start" style="white-space: pre;" direction="ltr">5、重复上述步骤3，知道排序完成</text></g></svg>